<svg width="412" height="94" viewBox="0 0 412 94" fill="none" xmlns="http://www.w3.org/2000/svg">
<path d="M123.906 26L123.87 10.88L116.454 23.3361H113.826L106.446 11.2041V26H100.974V0.800049H105.798L115.23 16.46L124.518 0.800049H129.306L129.378 26H123.906Z" fill="#5D5D5D"/>
<path d="M144.897 26.288C142.857 26.288 141.021 25.8681 139.389 25.0281C137.781 24.1641 136.521 22.9761 135.609 21.4641C134.697 19.9521 134.241 18.236 134.241 16.316C134.241 14.396 134.697 12.6801 135.609 11.168C136.521 9.65605 137.781 8.48005 139.389 7.64005C141.021 6.77605 142.857 6.34405 144.897 6.34405C146.937 6.34405 148.761 6.77605 150.369 7.64005C151.977 8.48005 153.237 9.65605 154.149 11.168C155.061 12.6801 155.517 14.396 155.517 16.316C155.517 18.236 155.061 19.9521 154.149 21.4641C153.237 22.9761 151.977 24.1641 150.369 25.0281C148.761 25.8681 146.937 26.288 144.897 26.288ZM144.897 21.68C146.337 21.68 147.513 21.2 148.425 20.24C149.361 19.256 149.829 17.9481 149.829 16.316C149.829 14.684 149.361 13.388 148.425 12.4281C147.513 11.444 146.337 10.9521 144.897 10.9521C143.457 10.9521 142.269 11.444 141.333 12.4281C140.397 13.388 139.929 14.684 139.929 16.316C139.929 17.9481 140.397 19.256 141.333 20.24C142.269 21.2 143.457 21.68 144.897 21.68Z" fill="#5D5D5D"/>
<path d="M171.763 6.34405C174.163 6.34405 176.095 7.06405 177.559 8.50405C179.047 9.94405 179.791 12.08 179.791 14.912V26H174.175V15.7761C174.175 14.2401 173.839 13.1001 173.167 12.3561C172.495 11.5881 171.523 11.2041 170.251 11.2041C168.835 11.2041 167.707 11.648 166.867 12.536C166.027 13.4 165.607 14.696 165.607 16.4241V26H159.991V6.63205H165.355V8.90005C166.099 8.08405 167.023 7.46005 168.127 7.02805C169.231 6.57205 170.443 6.34405 171.763 6.34405Z" fill="#5D5D5D"/>
<path d="M198.093 25.0641C197.541 25.4721 196.857 25.784 196.041 26C195.249 26.192 194.409 26.288 193.521 26.288C191.217 26.288 189.429 25.7 188.157 24.524C186.909 23.348 186.285 21.62 186.285 19.34V11.3841H183.297V7.06405H186.285V2.34805H191.901V7.06405H196.725V11.3841H191.901V19.2681C191.901 20.0841 192.105 20.72 192.513 21.1761C192.945 21.6081 193.545 21.8241 194.313 21.8241C195.201 21.8241 195.957 21.584 196.581 21.104L198.093 25.0641Z" fill="#5D5D5D"/>
<path d="M208.482 26.288C206.874 26.288 205.302 26.0961 203.766 25.7121C202.23 25.3041 201.006 24.8001 200.094 24.2001L201.966 20.1681C202.83 20.7201 203.874 21.1761 205.098 21.5361C206.322 21.8721 207.522 22.0401 208.698 22.0401C211.074 22.0401 212.262 21.4521 212.262 20.2761C212.262 19.7241 211.938 19.3281 211.29 19.0881C210.642 18.8481 209.646 18.644 208.302 18.476C206.718 18.236 205.41 17.9601 204.378 17.6481C203.346 17.3361 202.446 16.784 201.678 15.992C200.934 15.2 200.562 14.0721 200.562 12.6081C200.562 11.3841 200.91 10.304 201.606 9.36805C202.326 8.40805 203.358 7.66405 204.702 7.13605C206.07 6.60805 207.678 6.34405 209.526 6.34405C210.894 6.34405 212.25 6.50005 213.594 6.81205C214.962 7.10005 216.09 7.50805 216.978 8.03605L215.106 12.0321C213.402 11.072 211.542 10.592 209.526 10.592C208.326 10.592 207.426 10.76 206.826 11.096C206.226 11.432 205.926 11.8641 205.926 12.392C205.926 12.992 206.25 13.4121 206.898 13.6521C207.546 13.8921 208.578 14.12 209.994 14.3361C211.578 14.6 212.874 14.8881 213.882 15.2001C214.89 15.4881 215.766 16.028 216.51 16.82C217.254 17.612 217.626 18.716 217.626 20.132C217.626 21.332 217.266 22.4 216.546 23.3361C215.826 24.2721 214.77 25.0041 213.378 25.5321C212.01 26.0361 210.378 26.288 208.482 26.288Z" fill="#5D5D5D"/>
<path d="M240.783 16.3881C240.783 16.4601 240.747 16.9641 240.675 17.9001H226.023C226.287 19.1001 226.911 20.0481 227.895 20.7441C228.879 21.4401 230.103 21.788 231.567 21.788C232.575 21.788 233.463 21.6441 234.231 21.3561C235.023 21.0441 235.755 20.5641 236.427 19.916L239.415 23.156C237.591 25.244 234.927 26.288 231.423 26.288C229.239 26.288 227.307 25.8681 225.627 25.0281C223.947 24.1641 222.651 22.9761 221.739 21.4641C220.827 19.9521 220.371 18.236 220.371 16.316C220.371 14.42 220.815 12.716 221.703 11.2041C222.615 9.66805 223.851 8.48005 225.411 7.64005C226.995 6.77605 228.759 6.34405 230.703 6.34405C232.599 6.34405 234.315 6.75205 235.851 7.56805C237.387 8.38405 238.587 9.56005 239.451 11.096C240.339 12.608 240.783 14.3721 240.783 16.3881ZM230.739 10.592C229.467 10.592 228.399 10.952 227.535 11.672C226.671 12.392 226.143 13.376 225.951 14.6241H235.491C235.299 13.4001 234.771 12.428 233.907 11.708C233.043 10.964 231.987 10.592 230.739 10.592Z" fill="#5D5D5D"/>
<path d="M250.606 9.18805C251.278 8.25205 252.178 7.54405 253.306 7.06405C254.458 6.58405 255.778 6.34405 257.266 6.34405V11.5281C256.642 11.4801 256.222 11.456 256.006 11.456C254.398 11.456 253.138 11.9121 252.226 12.824C251.314 13.712 250.858 15.0561 250.858 16.8561V26H245.242V6.63205H250.606V9.18805Z" fill="#5D5D5D"/>
<path d="M266.689 9.18805C267.361 8.25205 268.261 7.54405 269.389 7.06405C270.541 6.58405 271.861 6.34405 273.349 6.34405V11.5281C272.725 11.4801 272.305 11.456 272.089 11.456C270.481 11.456 269.221 11.9121 268.309 12.824C267.397 13.712 266.941 15.0561 266.941 16.8561V26H261.325V6.63205H266.689V9.18805Z" fill="#5D5D5D"/>
<path d="M285.115 6.34405C288.115 6.34405 290.419 7.06405 292.027 8.50405C293.635 9.92005 294.439 12.0681 294.439 14.9481V26H289.183V23.5881C288.127 25.3881 286.159 26.288 283.279 26.288C281.791 26.288 280.495 26.0361 279.391 25.5321C278.311 25.0281 277.483 24.332 276.907 23.444C276.331 22.556 276.043 21.548 276.043 20.42C276.043 18.62 276.715 17.2041 278.059 16.1721C279.427 15.1401 281.527 14.6241 284.359 14.6241H288.823C288.823 13.4001 288.451 12.464 287.707 11.816C286.963 11.144 285.847 10.8081 284.359 10.8081C283.327 10.8081 282.307 10.976 281.299 11.312C280.315 11.6241 279.475 12.0561 278.779 12.6081L276.763 8.68405C277.819 7.94005 279.079 7.36405 280.543 6.95605C282.031 6.54805 283.555 6.34405 285.115 6.34405ZM284.683 22.5081C285.643 22.5081 286.495 22.2921 287.239 21.8601C287.983 21.4041 288.511 20.7441 288.823 19.8801V17.9001H284.971C282.667 17.9001 281.515 18.6561 281.515 20.1681C281.515 20.8881 281.791 21.464 282.343 21.896C282.919 22.304 283.699 22.5081 284.683 22.5081Z" fill="#5D5D5D"/>
<path d="M312.734 25.0641C312.182 25.4721 311.498 25.784 310.682 26C309.89 26.192 309.05 26.288 308.162 26.288C305.858 26.288 304.07 25.7 302.798 24.524C301.55 23.348 300.926 21.62 300.926 19.34V11.3841H297.938V7.06405H300.926V2.34805H306.542V7.06405H311.366V11.3841H306.542V19.2681C306.542 20.0841 306.746 20.72 307.154 21.1761C307.586 21.6081 308.186 21.8241 308.954 21.8241C309.842 21.8241 310.598 21.584 311.222 21.104L312.734 25.0641Z" fill="#5D5D5D"/>
<path d="M26.4402 61.2601H18.6402L16.9602 65.0001H15.4202L21.8202 51H23.2802L29.6802 65.0001H28.1202L26.4402 61.2601ZM25.9002 60.0601L22.5402 52.5401L19.1802 60.0601H25.9002Z" fill="#5D5D5D"/>
<path d="M41.2161 57.78C42.1361 57.98 42.8428 58.38 43.3361 58.98C43.8428 59.5667 44.0961 60.3267 44.0961 61.2601C44.0961 62.4601 43.6495 63.3867 42.7561 64.0401C41.8761 64.6801 40.5695 65.0001 38.8361 65.0001H32.3961V51H38.4361C39.9961 51 41.2028 51.3134 42.0561 51.94C42.9228 52.5667 43.3561 53.4534 43.3561 54.6C43.3561 55.3734 43.1628 56.0334 42.7761 56.5801C42.4028 57.1134 41.8828 57.5134 41.2161 57.78ZM33.8761 52.2201V57.3H38.3361C39.4695 57.3 40.3428 57.0867 40.9561 56.66C41.5695 56.22 41.8761 55.5867 41.8761 54.7601C41.8761 53.9334 41.5695 53.3067 40.9561 52.8801C40.3428 52.44 39.4695 52.2201 38.3361 52.2201H33.8761ZM38.8161 63.7801C40.0695 63.7801 41.0161 63.5667 41.6561 63.14C42.2961 62.7134 42.6161 62.0467 42.6161 61.14C42.6161 59.3934 41.3495 58.5201 38.8161 58.5201H33.8761V63.7801H38.8161Z" fill="#5D5D5D"/>
<path d="M53.9542 65.12C52.5676 65.12 51.3142 64.8134 50.1942 64.2001C49.0876 63.5867 48.2142 62.74 47.5742 61.66C46.9476 60.5667 46.6342 59.3467 46.6342 58C46.6342 56.6534 46.9476 55.44 47.5742 54.3601C48.2142 53.2667 49.0942 52.4134 50.2142 51.8C51.3342 51.1867 52.5876 50.8801 53.9742 50.8801C55.0142 50.8801 55.9742 51.0534 56.8542 51.4001C57.7342 51.7467 58.4809 52.2534 59.0942 52.9201L58.1542 53.8601C57.0609 52.7534 55.6809 52.2001 54.0142 52.2001C52.9076 52.2001 51.9009 52.4534 50.9942 52.96C50.0876 53.4667 49.3742 54.1601 48.8542 55.0401C48.3476 55.9201 48.0942 56.9067 48.0942 58C48.0942 59.0934 48.3476 60.08 48.8542 60.96C49.3742 61.84 50.0876 62.5334 50.9942 63.0401C51.9009 63.5467 52.9076 63.8 54.0142 63.8C55.6942 63.8 57.0742 63.24 58.1542 62.12L59.0942 63.0601C58.4809 63.7267 57.7276 64.2401 56.8342 64.6001C55.9542 64.9467 54.9942 65.12 53.9542 65.12Z" fill="#5D5D5D"/>
<path d="M62.6492 51H68.3492C69.8292 51 71.1359 51.3001 72.2692 51.9001C73.4026 52.4867 74.2826 53.3134 74.9092 54.3801C75.5359 55.4334 75.8492 56.64 75.8492 58C75.8492 59.36 75.5359 60.5734 74.9092 61.64C74.2826 62.6934 73.4026 63.5201 72.2692 64.1201C71.1359 64.7067 69.8292 65.0001 68.3492 65.0001H62.6492V51ZM68.2692 63.7201C69.4959 63.7201 70.5692 63.48 71.4892 63C72.4092 62.5067 73.1226 61.8334 73.6292 60.98C74.1359 60.1134 74.3892 59.12 74.3892 58C74.3892 56.88 74.1359 55.8934 73.6292 55.0401C73.1226 54.1734 72.4092 53.5001 71.4892 53.0201C70.5692 52.5267 69.4959 52.28 68.2692 52.28H64.1292V63.7201H68.2692Z" fill="#5D5D5D"/>
<path d="M89.4727 63.7201V65.0001H79.5727V51H89.1727V52.28H81.0527V57.2601H88.2927V58.5201H81.0527V63.7201H89.4727Z" fill="#5D5D5D"/>
<path d="M94.8316 52.28V57.78H102.072V59.0601H94.8316V65.0001H93.3516V51H102.952V52.28H94.8316Z" fill="#5D5D5D"/>
<path d="M116.092 58H117.512V63.34C116.859 63.9134 116.085 64.3534 115.192 64.66C114.299 64.9667 113.359 65.12 112.372 65.12C110.972 65.12 109.712 64.8134 108.592 64.2001C107.472 63.5867 106.592 62.74 105.952 61.66C105.312 60.5667 104.992 59.3467 104.992 58C104.992 56.6534 105.312 55.44 105.952 54.3601C106.592 53.2667 107.472 52.4134 108.592 51.8C109.712 51.1867 110.979 50.8801 112.392 50.8801C113.459 50.8801 114.439 51.0534 115.332 51.4001C116.225 51.7334 116.979 52.2334 117.592 52.9001L116.672 53.84C115.565 52.7467 114.159 52.2001 112.452 52.2001C111.319 52.2001 110.292 52.4534 109.372 52.96C108.465 53.4534 107.752 54.1467 107.232 55.0401C106.712 55.9201 106.452 56.9067 106.452 58C106.452 59.0934 106.712 60.08 107.232 60.96C107.752 61.84 108.465 62.5334 109.372 63.0401C110.279 63.5467 111.299 63.8 112.432 63.8C113.872 63.8 115.092 63.4401 116.092 62.7201V58Z" fill="#5D5D5D"/>
<path d="M133.801 51V65.0001H132.341V58.5401H123.581V65.0001H122.101V51H123.581V57.2401H132.341V51H133.801Z" fill="#5D5D5D"/>
<path d="M138.77 51H140.25V65.0001H138.77V51Z" fill="#5D5D5D"/>
<path d="M146.705 65.12C145.905 65.12 145.165 64.9467 144.485 64.6001C143.805 64.2534 143.252 63.7601 142.825 63.1201L143.705 62.12C144.479 63.2667 145.485 63.84 146.725 63.84C148.459 63.84 149.325 62.8134 149.325 60.7601V52.28H144.205V51H150.785V60.7001C150.785 62.1667 150.439 63.2734 149.745 64.0201C149.065 64.7534 148.052 65.12 146.705 65.12Z" fill="#5D5D5D"/>
<path d="M159.965 58.4201L157.105 61.32V65.0001H155.625V51H157.105V59.46L165.325 51H167.025L160.965 57.34L167.445 65.0001H165.685L159.965 58.4201Z" fill="#5D5D5D"/>
<path d="M170.244 51H171.724V63.7201H179.564V65.0001H170.244V51Z" fill="#5D5D5D"/>
<path d="M196.961 51V65.0001H195.541V53.8L190.041 63.2201H189.341L183.841 53.8601V65.0001H182.421V51H183.641L189.721 61.3801L195.741 51H196.961Z" fill="#5D5D5D"/>
<path d="M213.623 51V65.0001H212.403L203.403 53.64V65.0001H201.923V51H203.143L212.163 62.3601V51H213.623Z" fill="#5D5D5D"/>
<path d="M224.712 65.12C223.326 65.12 222.066 64.8134 220.932 64.2001C219.812 63.5734 218.932 62.72 218.292 61.64C217.666 60.56 217.352 59.3467 217.352 58C217.352 56.6534 217.666 55.44 218.292 54.3601C218.932 53.28 219.812 52.4334 220.932 51.82C222.066 51.1934 223.326 50.8801 224.712 50.8801C226.099 50.8801 227.346 51.1867 228.452 51.8C229.572 52.4134 230.452 53.2667 231.092 54.3601C231.732 55.44 232.052 56.6534 232.052 58C232.052 59.3467 231.732 60.5667 231.092 61.66C230.452 62.74 229.572 63.5867 228.452 64.2001C227.346 64.8134 226.099 65.12 224.712 65.12ZM224.712 63.8C225.819 63.8 226.819 63.5534 227.712 63.0601C228.606 62.5534 229.306 61.86 229.812 60.98C230.319 60.0867 230.572 59.0934 230.572 58C230.572 56.9067 230.319 55.9201 229.812 55.0401C229.306 54.1467 228.606 53.4534 227.712 52.96C226.819 52.4534 225.819 52.2001 224.712 52.2001C223.606 52.2001 222.599 52.4534 221.692 52.96C220.799 53.4534 220.092 54.1467 219.572 55.0401C219.066 55.9201 218.812 56.9067 218.812 58C218.812 59.0934 219.066 60.0867 219.572 60.98C220.092 61.86 220.799 62.5534 221.692 63.0601C222.599 63.5534 223.606 63.8 224.712 63.8Z" fill="#5D5D5D"/>
<path d="M241.01 51C242.796 51 244.196 51.4267 245.21 52.28C246.223 53.1334 246.73 54.3067 246.73 55.8C246.73 57.2934 246.223 58.4667 245.21 59.32C244.196 60.16 242.796 60.5801 241.01 60.5801H237.25V65.0001H235.77V51H241.01ZM240.97 59.2801C242.356 59.2801 243.416 58.9801 244.15 58.3801C244.883 57.7667 245.25 56.9067 245.25 55.8C245.25 54.6667 244.883 53.8001 244.15 53.2001C243.416 52.5867 242.356 52.28 240.97 52.28H237.25V59.2801H240.97Z" fill="#5D5D5D"/>
<path d="M264.625 66.1801C264.198 66.7001 263.692 67.0934 263.105 67.3601C262.532 67.6401 261.905 67.7801 261.225 67.7801C260.398 67.7801 259.612 67.5734 258.865 67.16C258.132 66.76 257.305 66.08 256.385 65.12C255.038 65.08 253.825 64.7467 252.745 64.1201C251.665 63.4934 250.818 62.6467 250.205 61.5801C249.592 60.5134 249.285 59.32 249.285 58C249.285 56.6534 249.598 55.44 250.225 54.3601C250.865 53.28 251.745 52.4334 252.865 51.82C253.998 51.1934 255.258 50.8801 256.645 50.8801C258.032 50.8801 259.278 51.1867 260.385 51.8C261.505 52.4134 262.385 53.2667 263.025 54.3601C263.665 55.44 263.985 56.6534 263.985 58C263.985 59.1734 263.738 60.2534 263.245 61.2401C262.765 62.2134 262.085 63.0267 261.205 63.68C260.338 64.3334 259.338 64.7667 258.205 64.98C259.232 66.06 260.245 66.6001 261.245 66.6001C262.285 66.6001 263.172 66.1734 263.905 65.3201L264.625 66.1801ZM250.745 58C250.745 59.0934 250.998 60.08 251.505 60.96C252.025 61.84 252.732 62.5334 253.625 63.0401C254.532 63.5467 255.538 63.8 256.645 63.8C257.752 63.8 258.752 63.5467 259.645 63.0401C260.538 62.5334 261.238 61.84 261.745 60.96C262.252 60.08 262.505 59.0934 262.505 58C262.505 56.9067 262.252 55.9201 261.745 55.0401C261.238 54.1601 260.538 53.4667 259.645 52.96C258.752 52.4534 257.752 52.2001 256.645 52.2001C255.538 52.2001 254.532 52.4534 253.625 52.96C252.732 53.4667 252.025 54.1601 251.505 55.0401C250.998 55.9201 250.745 56.9067 250.745 58Z" fill="#5D5D5D"/>
<path d="M277.262 65.0001L274.062 60.5C273.702 60.54 273.329 60.5601 272.942 60.5601H269.182V65.0001H267.702V51H272.942C274.729 51 276.129 51.4267 277.142 52.28C278.156 53.1334 278.662 54.3067 278.662 55.8C278.662 56.8934 278.382 57.8201 277.822 58.5801C277.276 59.3267 276.489 59.8667 275.462 60.2001L278.882 65.0001H277.262ZM272.902 59.3C274.289 59.3 275.349 58.9934 276.082 58.3801C276.816 57.7667 277.182 56.9067 277.182 55.8C277.182 54.6667 276.816 53.8001 276.082 53.2001C275.349 52.5867 274.289 52.28 272.902 52.28H269.182V59.3H272.902Z" fill="#5D5D5D"/>
<path d="M286.415 65.12C285.375 65.12 284.375 64.9534 283.415 64.6201C282.469 64.2867 281.735 63.8467 281.215 63.3L281.796 62.16C282.302 62.6667 282.975 63.0801 283.815 63.4001C284.655 63.7067 285.522 63.8601 286.415 63.8601C287.669 63.8601 288.609 63.6334 289.235 63.18C289.862 62.7134 290.175 62.1134 290.175 61.3801C290.175 60.8201 290.002 60.3734 289.655 60.0401C289.322 59.7067 288.909 59.4534 288.415 59.2801C287.922 59.0934 287.235 58.8934 286.355 58.68C285.302 58.4134 284.462 58.1601 283.835 57.9201C283.209 57.6667 282.669 57.2867 282.215 56.7801C281.775 56.2734 281.555 55.5867 281.555 54.7201C281.555 54.0134 281.742 53.3734 282.115 52.8C282.489 52.2134 283.062 51.7467 283.835 51.4001C284.609 51.0534 285.569 50.8801 286.715 50.8801C287.515 50.8801 288.295 50.9934 289.055 51.2201C289.829 51.4334 290.495 51.7334 291.055 52.12L290.555 53.3C289.969 52.9134 289.342 52.6267 288.675 52.44C288.009 52.24 287.355 52.14 286.715 52.14C285.489 52.14 284.562 52.3801 283.935 52.8601C283.322 53.3267 283.016 53.9334 283.016 54.68C283.016 55.24 283.182 55.6934 283.516 56.0401C283.862 56.3734 284.289 56.6334 284.796 56.82C285.316 56.9934 286.009 57.1867 286.875 57.4001C287.902 57.6534 288.729 57.9067 289.355 58.16C289.995 58.4 290.535 58.7734 290.975 59.2801C291.415 59.7734 291.635 60.4467 291.635 61.3C291.635 62.0067 291.442 62.6534 291.055 63.2401C290.682 63.8134 290.102 64.2734 289.315 64.6201C288.529 64.9534 287.562 65.12 286.415 65.12Z" fill="#5D5D5D"/>
<path d="M297.785 52.28H292.865V51H304.185V52.28H299.265V65.0001H297.785V52.28Z" fill="#5D5D5D"/>
<path d="M312.316 65.12C310.502 65.12 309.089 64.6001 308.076 63.5601C307.062 62.5201 306.556 61.0067 306.556 59.0201V51H308.036V58.96C308.036 60.5867 308.402 61.8001 309.136 62.6001C309.869 63.4001 310.929 63.8 312.316 63.8C313.716 63.8 314.782 63.4001 315.516 62.6001C316.249 61.8001 316.616 60.5867 316.616 58.96V51H318.056V59.0201C318.056 61.0067 317.549 62.5201 316.536 63.5601C315.536 64.6001 314.129 65.12 312.316 65.12Z" fill="#5D5D5D"/>
<path d="M334.556 51L328.356 65.0001H326.896L320.696 51H322.296L327.656 63.16L333.056 51H334.556Z" fill="#5D5D5D"/>
<path d="M356.5 51L351.78 65.0001H350.22L346.12 53.0601L342 65.0001H340.46L335.74 51H337.26L341.3 63.0401L345.48 51H346.86L350.98 63.1001L355.08 51H356.5Z" fill="#5D5D5D"/>
<path d="M368.238 65.0001L363.718 58.84L359.218 65.0001H357.518L362.838 57.8L357.858 51H359.558L363.778 56.7201L367.978 51H369.578L364.618 57.7601L369.958 65.0001H368.238Z" fill="#5D5D5D"/>
<path d="M377.177 60.16V65.0001H375.717V60.16L370.117 51H371.697L376.497 58.8601L381.297 51H382.777L377.177 60.16Z" fill="#5D5D5D"/>
<path d="M395.573 63.7201V65.0001H384.093V63.98L393.373 52.28H384.233V51H395.333V52.0201L386.073 63.7201H395.573Z" fill="#5D5D5D"/>
<path d="M5.15814 79.4C6.53148 79.4 7.58481 79.7467 8.31814 80.44C9.05148 81.12 9.41815 82.1334 9.41815 83.48V90.0001H8.05815V88.3601C7.73814 88.9067 7.26481 89.3334 6.63814 89.6401C6.02481 89.9467 5.29148 90.1001 4.43814 90.1001C3.26481 90.1001 2.33148 89.82 1.63814 89.26C0.944811 88.7 0.598145 87.9601 0.598145 87.0401C0.598145 86.1467 0.918145 85.4267 1.55814 84.8801C2.21148 84.3334 3.24481 84.0601 4.65814 84.0601H7.99814V83.4201C7.99814 82.5134 7.74481 81.8267 7.23814 81.3601C6.73148 80.8801 5.99148 80.6401 5.01815 80.6401C4.35148 80.6401 3.71148 80.7534 3.09814 80.98C2.48481 81.1934 1.95814 81.4934 1.51814 81.8801L0.878145 80.8201C1.41148 80.3667 2.05148 80.0201 2.79814 79.7801C3.54481 79.5267 4.33148 79.4 5.15814 79.4ZM4.65814 88.98C5.45814 88.98 6.14481 88.8 6.71814 88.44C7.29148 88.0667 7.71814 87.5334 7.99814 86.84V85.12H4.69814C2.89814 85.12 1.99814 85.7467 1.99814 87.0001C1.99814 87.6134 2.23148 88.1001 2.69814 88.4601C3.16481 88.8067 3.81814 88.98 4.65814 88.98Z" fill="#5D5D5D"/>
<path d="M19.095 79.4C20.0817 79.4 20.975 79.6267 21.775 80.08C22.575 80.52 23.2017 81.1467 23.655 81.9601C24.1084 82.7734 24.335 83.7001 24.335 84.7401C24.335 85.7801 24.1084 86.7067 23.655 87.5201C23.2017 88.3334 22.575 88.9667 21.775 89.4201C20.975 89.8734 20.0817 90.1001 19.095 90.1001C18.215 90.1001 17.4217 89.9134 16.715 89.5401C16.0217 89.1667 15.4617 88.6267 15.035 87.9201V90.0001H13.675V75.16H15.095V81.48C15.535 80.8 16.095 80.2867 16.775 79.94C17.4684 79.58 18.2417 79.4 19.095 79.4ZM18.995 88.84C19.7284 88.84 20.395 88.6734 20.995 88.34C21.595 87.9934 22.0617 87.5067 22.395 86.8801C22.7417 86.2534 22.915 85.5401 22.915 84.7401C22.915 83.9401 22.7417 83.2267 22.395 82.6001C22.0617 81.9734 21.595 81.4934 20.995 81.16C20.395 80.8134 19.7284 80.6401 18.995 80.6401C18.2484 80.6401 17.575 80.8134 16.975 81.16C16.3884 81.4934 15.9217 81.9734 15.575 82.6001C15.2417 83.2267 15.075 83.9401 15.075 84.7401C15.075 85.5401 15.2417 86.2534 15.575 86.8801C15.9217 87.5067 16.3884 87.9934 16.975 88.34C17.575 88.6734 18.2484 88.84 18.995 88.84Z" fill="#5D5D5D"/>
<path d="M31.9897 90.1001C30.9497 90.1001 30.0164 89.8734 29.1897 89.4201C28.3764 88.9667 27.7364 88.3334 27.2697 87.5201C26.803 86.6934 26.5697 85.7667 26.5697 84.7401C26.5697 83.7134 26.803 82.7934 27.2697 81.98C27.7364 81.1667 28.3764 80.5334 29.1897 80.08C30.0164 79.6267 30.9497 79.4 31.9897 79.4C32.8964 79.4 33.703 79.58 34.4097 79.94C35.1297 80.2867 35.6964 80.8 36.1097 81.48L35.0497 82.2001C34.703 81.6801 34.263 81.2934 33.7297 81.04C33.1964 80.7734 32.6164 80.6401 31.9897 80.6401C31.2297 80.6401 30.543 80.8134 29.9297 81.16C29.3297 81.4934 28.8564 81.9734 28.5097 82.6001C28.1764 83.2267 28.0097 83.9401 28.0097 84.7401C28.0097 85.5534 28.1764 86.2734 28.5097 86.9C28.8564 87.5134 29.3297 87.9934 29.9297 88.34C30.543 88.6734 31.2297 88.84 31.9897 88.84C32.6164 88.84 33.1964 88.7134 33.7297 88.4601C34.263 88.2067 34.703 87.82 35.0497 87.3L36.1097 88.0201C35.6964 88.7001 35.1297 89.22 34.4097 89.58C33.6897 89.9267 32.883 90.1001 31.9897 90.1001Z" fill="#5D5D5D"/>
<path d="M48.7235 75.16V90.0001H47.3635V87.9201C46.9368 88.6267 46.3701 89.1667 45.6635 89.5401C44.9701 89.9134 44.1835 90.1001 43.3035 90.1001C42.3168 90.1001 41.4235 89.8734 40.6235 89.4201C39.8235 88.9667 39.1968 88.3334 38.7435 87.5201C38.2901 86.7067 38.0635 85.7801 38.0635 84.7401C38.0635 83.7001 38.2901 82.7734 38.7435 81.9601C39.1968 81.1467 39.8235 80.52 40.6235 80.08C41.4235 79.6267 42.3168 79.4 43.3035 79.4C44.1568 79.4 44.9235 79.58 45.6035 79.94C46.2968 80.2867 46.8635 80.8 47.3035 81.48V75.16H48.7235ZM43.4235 88.84C44.1568 88.84 44.8168 88.6734 45.4035 88.34C46.0035 87.9934 46.4701 87.5067 46.8035 86.8801C47.1501 86.2534 47.3235 85.5401 47.3235 84.7401C47.3235 83.9401 47.1501 83.2267 46.8035 82.6001C46.4701 81.9734 46.0035 81.4934 45.4035 81.16C44.8168 80.8134 44.1568 80.6401 43.4235 80.6401C42.6768 80.6401 42.0035 80.8134 41.4035 81.16C40.8168 81.4934 40.3501 81.9734 40.0035 82.6001C39.6701 83.2267 39.5035 83.9401 39.5035 84.7401C39.5035 85.5401 39.6701 86.2534 40.0035 86.8801C40.3501 87.5067 40.8168 87.9934 41.4035 88.34C42.0035 88.6734 42.6768 88.84 43.4235 88.84Z" fill="#5D5D5D"/>
<path d="M62.2381 85.1801H53.4381C53.5181 86.2734 53.9381 87.16 54.6981 87.84C55.4581 88.5067 56.4181 88.84 57.5781 88.84C58.2315 88.84 58.8315 88.7267 59.3781 88.5001C59.9248 88.2601 60.3981 87.9134 60.7981 87.4601L61.5981 88.3801C61.1315 88.9401 60.5448 89.3667 59.8381 89.66C59.1448 89.9534 58.3781 90.1001 57.5381 90.1001C56.4581 90.1001 55.4981 89.8734 54.6581 89.4201C53.8315 88.9534 53.1848 88.3134 52.7181 87.5001C52.2515 86.6867 52.0181 85.7667 52.0181 84.7401C52.0181 83.7134 52.2381 82.7934 52.6781 81.98C53.1315 81.1667 53.7448 80.5334 54.5181 80.08C55.3048 79.6267 56.1848 79.4 57.1581 79.4C58.1315 79.4 59.0048 79.6267 59.7781 80.08C60.5515 80.5334 61.1581 81.1667 61.5981 81.98C62.0381 82.78 62.2581 83.7001 62.2581 84.7401L62.2381 85.1801ZM57.1581 80.62C56.1448 80.62 55.2915 80.9467 54.5981 81.6001C53.9181 82.2401 53.5315 83.08 53.4381 84.12H60.8981C60.8048 83.08 60.4115 82.2401 59.7181 81.6001C59.0381 80.9467 58.1848 80.62 57.1581 80.62Z" fill="#5D5D5D"/>
<path d="M69.0285 76.26C68.4151 76.26 67.9485 76.4267 67.6285 76.76C67.3218 77.0934 67.1685 77.5867 67.1685 78.2401V79.48H70.4085V80.6801H67.2085V90.0001H65.7885V80.6801H63.9085V79.48H65.7885V78.1801C65.7885 77.2201 66.0618 76.46 66.6085 75.9C67.1685 75.34 67.9551 75.0601 68.9685 75.0601C69.3685 75.0601 69.7551 75.1201 70.1285 75.2401C70.5018 75.3467 70.8151 75.5067 71.0685 75.72L70.5885 76.7801C70.1751 76.4334 69.6551 76.26 69.0285 76.26Z" fill="#5D5D5D"/>
<path d="M82.29 79.48V88.72C82.29 90.5067 81.85 91.8267 80.97 92.6801C80.1034 93.5467 78.79 93.98 77.03 93.98C76.0567 93.98 75.13 93.8334 74.25 93.5401C73.3834 93.2601 72.6767 92.8667 72.13 92.3601L72.85 91.2801C73.3567 91.7334 73.97 92.0867 74.69 92.34C75.4234 92.5934 76.19 92.72 76.99 92.72C78.3234 92.72 79.3034 92.4067 79.93 91.7801C80.5567 91.1667 80.87 90.2067 80.87 88.9V87.5601C80.43 88.2267 79.85 88.7334 79.13 89.08C78.4234 89.4267 77.6367 89.6001 76.77 89.6001C75.7834 89.6001 74.8834 89.3867 74.07 88.9601C73.27 88.5201 72.6367 87.9134 72.17 87.1401C71.7167 86.3534 71.49 85.4667 71.49 84.48C71.49 83.4934 71.7167 82.6134 72.17 81.84C72.6367 81.0667 73.27 80.4667 74.07 80.04C74.87 79.6134 75.77 79.4 76.77 79.4C77.6634 79.4 78.47 79.58 79.19 79.94C79.91 80.3 80.49 80.8201 80.93 81.5001V79.48H82.29ZM76.91 88.34C77.67 88.34 78.3567 88.1801 78.97 87.8601C79.5834 87.5267 80.0567 87.0667 80.39 86.48C80.7367 85.8934 80.91 85.2267 80.91 84.48C80.91 83.7334 80.7367 83.0734 80.39 82.5001C80.0567 81.9134 79.5834 81.4601 78.97 81.1401C78.37 80.8067 77.6834 80.6401 76.91 80.6401C76.15 80.6401 75.4634 80.8 74.85 81.12C74.25 81.44 73.7767 81.8934 73.43 82.48C73.0967 83.0667 72.93 83.7334 72.93 84.48C72.93 85.2267 73.0967 85.8934 73.43 86.48C73.7767 87.0667 74.25 87.5267 74.85 87.8601C75.4634 88.1801 76.15 88.34 76.91 88.34Z" fill="#5D5D5D"/>
<path d="M92.021 79.4C93.341 79.4 94.3876 79.7867 95.161 80.5601C95.9476 81.3201 96.341 82.4334 96.341 83.9V90.0001H94.921V84.04C94.921 82.9467 94.6476 82.1134 94.101 81.54C93.5543 80.9667 92.7743 80.6801 91.761 80.6801C90.6276 80.6801 89.7276 81.0201 89.061 81.7001C88.4076 82.3667 88.081 83.2934 88.081 84.48V90.0001H86.661V75.16H88.081V81.3201C88.4676 80.7067 89.001 80.2334 89.681 79.9C90.361 79.5667 91.141 79.4 92.021 79.4Z" fill="#5D5D5D"/>
<path d="M100.596 79.48H102.016V90.0001H100.596V79.48ZM101.316 77.1801C101.023 77.1801 100.776 77.0801 100.576 76.8801C100.376 76.6801 100.276 76.44 100.276 76.16C100.276 75.8934 100.376 75.6601 100.576 75.4601C100.776 75.2601 101.023 75.16 101.316 75.16C101.609 75.16 101.856 75.2601 102.056 75.4601C102.256 75.6467 102.356 75.8734 102.356 76.1401C102.356 76.4334 102.256 76.6801 102.056 76.8801C101.856 77.0801 101.609 77.1801 101.316 77.1801Z" fill="#5D5D5D"/>
<path d="M104.807 93.98C104.367 93.98 103.954 93.92 103.567 93.8C103.167 93.6934 102.841 93.5267 102.587 93.3L103.087 92.22C103.501 92.58 104.047 92.76 104.727 92.76C105.287 92.76 105.714 92.5934 106.007 92.26C106.314 91.9267 106.467 91.4334 106.467 90.7801V79.48H107.887V90.7801C107.887 91.7667 107.621 92.5467 107.087 93.12C106.554 93.6934 105.794 93.98 104.807 93.98ZM107.187 77.16C106.894 77.16 106.647 77.0601 106.447 76.8601C106.247 76.6601 106.147 76.4201 106.147 76.1401C106.147 75.8734 106.247 75.64 106.447 75.44C106.647 75.24 106.894 75.1401 107.187 75.1401C107.481 75.1401 107.727 75.24 107.927 75.44C108.127 75.6267 108.227 75.8534 108.227 76.12C108.227 76.4134 108.127 76.6601 107.927 76.8601C107.727 77.0601 107.481 77.16 107.187 77.16Z" fill="#5D5D5D"/>
<path d="M116.155 84.72L113.675 87.0001V90.0001H112.255V75.16H113.675V85.22L119.955 79.48H121.715L117.215 83.7801L122.135 90.0001H120.395L116.155 84.72Z" fill="#5D5D5D"/>
<path d="M124.667 75.16H126.087V90.0001H124.667V75.16Z" fill="#5D5D5D"/>
<path d="M143.558 79.4C144.878 79.4 145.912 79.78 146.658 80.54C147.418 81.3 147.798 82.42 147.798 83.9V90.0001H146.378V84.04C146.378 82.9467 146.112 82.1134 145.578 81.54C145.058 80.9667 144.318 80.6801 143.358 80.6801C142.265 80.6801 141.405 81.0201 140.778 81.7001C140.152 82.3667 139.838 83.2934 139.838 84.48V90.0001H138.418V84.04C138.418 82.9467 138.152 82.1134 137.618 81.54C137.098 80.9667 136.352 80.6801 135.378 80.6801C134.298 80.6801 133.438 81.0201 132.798 81.7001C132.172 82.3667 131.858 83.2934 131.858 84.48V90.0001H130.438V79.48H131.798V81.4C132.172 80.76 132.692 80.2667 133.358 79.9201C134.025 79.5734 134.792 79.4 135.658 79.4C136.538 79.4 137.298 79.5867 137.938 79.9601C138.592 80.3334 139.078 80.8867 139.398 81.62C139.785 80.9267 140.338 80.3867 141.058 80.0001C141.792 79.6001 142.625 79.4 143.558 79.4Z" fill="#5D5D5D"/>
<path d="M157.409 79.4C158.729 79.4 159.776 79.7867 160.549 80.5601C161.336 81.3201 161.729 82.4334 161.729 83.9V90.0001H160.309V84.04C160.309 82.9467 160.036 82.1134 159.489 81.54C158.943 80.9667 158.163 80.6801 157.149 80.6801C156.016 80.6801 155.116 81.0201 154.449 81.7001C153.796 82.3667 153.469 83.2934 153.469 84.48V90.0001H152.049V79.48H153.409V81.4201C153.796 80.7801 154.329 80.2867 155.009 79.94C155.703 79.58 156.503 79.4 157.409 79.4Z" fill="#5D5D5D"/>
<path d="M170.323 90.1001C169.31 90.1001 168.397 89.8734 167.583 89.4201C166.77 88.9534 166.13 88.3134 165.663 87.5001C165.197 86.6867 164.963 85.7667 164.963 84.7401C164.963 83.7134 165.197 82.7934 165.663 81.98C166.13 81.1667 166.77 80.5334 167.583 80.08C168.397 79.6267 169.31 79.4 170.323 79.4C171.337 79.4 172.25 79.6267 173.063 80.08C173.877 80.5334 174.51 81.1667 174.963 81.98C175.43 82.7934 175.663 83.7134 175.663 84.7401C175.663 85.7667 175.43 86.6867 174.963 87.5001C174.51 88.3134 173.877 88.9534 173.063 89.4201C172.25 89.8734 171.337 90.1001 170.323 90.1001ZM170.323 88.84C171.07 88.84 171.737 88.6734 172.323 88.34C172.923 87.9934 173.39 87.5067 173.723 86.8801C174.057 86.2534 174.223 85.5401 174.223 84.7401C174.223 83.9401 174.057 83.2267 173.723 82.6001C173.39 81.9734 172.923 81.4934 172.323 81.16C171.737 80.8134 171.07 80.6401 170.323 80.6401C169.577 80.6401 168.903 80.8134 168.303 81.16C167.717 81.4934 167.25 81.9734 166.903 82.6001C166.57 83.2267 166.403 83.9401 166.403 84.7401C166.403 85.5401 166.57 86.2534 166.903 86.8801C167.25 87.5067 167.717 87.9934 168.303 88.34C168.903 88.6734 169.577 88.84 170.323 88.84Z" fill="#5D5D5D"/>
<path d="M184.383 79.4C185.369 79.4 186.263 79.6267 187.063 80.08C187.863 80.52 188.489 81.1467 188.943 81.9601C189.396 82.7734 189.623 83.7001 189.623 84.7401C189.623 85.7934 189.396 86.7267 188.943 87.54C188.489 88.3534 187.863 88.9867 187.063 89.44C186.276 89.88 185.383 90.1001 184.383 90.1001C183.529 90.1001 182.756 89.9267 182.063 89.58C181.383 89.22 180.823 88.7001 180.383 88.0201V93.8801H178.963V79.48H180.323V81.5601C180.749 80.8667 181.309 80.3334 182.003 79.9601C182.709 79.5867 183.503 79.4 184.383 79.4ZM184.283 88.84C185.016 88.84 185.683 88.6734 186.283 88.34C186.883 87.9934 187.349 87.5067 187.683 86.8801C188.029 86.2534 188.203 85.5401 188.203 84.7401C188.203 83.9401 188.029 83.2334 187.683 82.62C187.349 81.9934 186.883 81.5067 186.283 81.16C185.683 80.8134 185.016 80.6401 184.283 80.6401C183.536 80.6401 182.863 80.8134 182.263 81.16C181.676 81.5067 181.209 81.9934 180.863 82.62C180.529 83.2334 180.363 83.9401 180.363 84.7401C180.363 85.5401 180.529 86.2534 180.863 86.8801C181.209 87.5067 181.676 87.9934 182.263 88.34C182.863 88.6734 183.536 88.84 184.283 88.84Z" fill="#5D5D5D"/>
<path d="M202.517 79.48V93.8801H201.097V88.0201C200.657 88.7001 200.091 89.22 199.397 89.58C198.717 89.9267 197.951 90.1001 197.097 90.1001C196.097 90.1001 195.197 89.88 194.397 89.44C193.611 88.9867 192.991 88.3534 192.537 87.54C192.084 86.7267 191.857 85.7934 191.857 84.7401C191.857 83.7001 192.084 82.7734 192.537 81.9601C192.991 81.1467 193.617 80.52 194.417 80.08C195.217 79.6267 196.111 79.4 197.097 79.4C197.977 79.4 198.764 79.5867 199.457 79.9601C200.164 80.3334 200.731 80.8667 201.157 81.5601V79.48H202.517ZM197.217 88.84C197.951 88.84 198.611 88.6734 199.197 88.34C199.797 87.9934 200.264 87.5067 200.597 86.8801C200.944 86.2534 201.117 85.5401 201.117 84.7401C201.117 83.9401 200.944 83.2334 200.597 82.62C200.264 81.9934 199.797 81.5067 199.197 81.16C198.611 80.8134 197.951 80.6401 197.217 80.6401C196.471 80.6401 195.797 80.8134 195.197 81.16C194.611 81.5067 194.144 81.9934 193.797 82.62C193.464 83.2334 193.297 83.9401 193.297 84.7401C193.297 85.5401 193.464 86.2534 193.797 86.8801C194.144 87.5067 194.611 87.9934 195.197 88.34C195.797 88.6734 196.471 88.84 197.217 88.84Z" fill="#5D5D5D"/>
<path d="M208.232 81.54C208.565 80.8334 209.059 80.3 209.712 79.94C210.379 79.58 211.199 79.4 212.172 79.4V80.7801L211.832 80.76C210.725 80.76 209.859 81.1001 209.232 81.7801C208.605 82.4601 208.292 83.4134 208.292 84.6401V90.0001H206.872V79.48H208.232V81.54Z" fill="#5D5D5D"/>
<path d="M218.041 90.1001C217.188 90.1001 216.368 89.9801 215.581 89.7401C214.808 89.4867 214.201 89.1734 213.761 88.8L214.401 87.6801C214.841 88.0267 215.394 88.3134 216.061 88.54C216.728 88.7534 217.421 88.8601 218.141 88.8601C219.101 88.8601 219.808 88.7134 220.261 88.4201C220.728 88.1134 220.961 87.6867 220.961 87.1401C220.961 86.7534 220.834 86.4534 220.581 86.2401C220.328 86.0134 220.008 85.8467 219.621 85.7401C219.234 85.6201 218.721 85.5067 218.081 85.4C217.228 85.24 216.541 85.0801 216.021 84.9201C215.501 84.7467 215.054 84.4601 214.681 84.0601C214.321 83.6601 214.141 83.1067 214.141 82.4C214.141 81.52 214.508 80.8001 215.241 80.2401C215.974 79.6801 216.994 79.4 218.301 79.4C218.981 79.4 219.661 79.4934 220.341 79.6801C221.021 79.8534 221.581 80.0867 222.021 80.3801L221.401 81.5201C220.534 80.9201 219.501 80.62 218.301 80.62C217.394 80.62 216.708 80.7801 216.241 81.1001C215.788 81.4201 215.561 81.84 215.561 82.36C215.561 82.76 215.688 83.0801 215.941 83.3201C216.208 83.5601 216.534 83.7401 216.921 83.8601C217.308 83.9667 217.841 84.0801 218.521 84.2001C219.361 84.3601 220.034 84.5201 220.541 84.6801C221.048 84.8401 221.481 85.1134 221.841 85.5001C222.201 85.8867 222.381 86.4201 222.381 87.1001C222.381 88.0201 221.994 88.7534 221.221 89.3C220.461 89.8334 219.401 90.1001 218.041 90.1001Z" fill="#5D5D5D"/>
<path d="M230.946 89.3601C230.68 89.6001 230.346 89.7867 229.946 89.9201C229.56 90.0401 229.153 90.1001 228.726 90.1001C227.74 90.1001 226.98 89.8334 226.446 89.3C225.913 88.7667 225.646 88.0134 225.646 87.0401V80.6801H223.766V79.48H225.646V77.1801H227.066V79.48H230.266V80.6801H227.066V86.9601C227.066 87.5867 227.22 88.0667 227.526 88.4C227.846 88.72 228.3 88.8801 228.886 88.8801C229.18 88.8801 229.46 88.8334 229.726 88.7401C230.006 88.6467 230.246 88.5134 230.446 88.34L230.946 89.3601Z" fill="#5D5D5D"/>
<path d="M243.411 79.48V90.0001H242.051V88.08C241.678 88.72 241.165 89.22 240.511 89.58C239.858 89.9267 239.111 90.1001 238.271 90.1001C236.898 90.1001 235.811 89.7201 235.011 88.9601C234.225 88.1867 233.831 87.06 233.831 85.58V79.48H235.251V85.44C235.251 86.5467 235.525 87.3867 236.071 87.9601C236.618 88.5334 237.398 88.8201 238.411 88.8201C239.518 88.8201 240.391 88.4867 241.031 87.8201C241.671 87.1401 241.991 86.2001 241.991 85.0001V79.48H243.411Z" fill="#5D5D5D"/>
<path d="M256.628 79.48L251.948 90.0001H250.488L245.828 79.48H247.308L251.248 88.44L255.228 79.48H256.628Z" fill="#5D5D5D"/>
<path d="M274.37 79.48L270.39 90.0001H269.05L265.73 81.3801L262.41 90.0001H261.07L257.11 79.48H258.47L261.77 88.4201L265.15 79.48H266.37L269.73 88.4201L273.07 79.48H274.37Z" fill="#5D5D5D"/>
<path d="M283.003 90.0001L279.663 85.6001L276.303 90.0001H274.703L278.863 84.6001L274.903 79.48H276.503L279.663 83.6001L282.823 79.48H284.383L280.423 84.6001L284.623 90.0001H283.003Z" fill="#5D5D5D"/>
<path d="M295.621 79.48L290.361 91.26C289.935 92.2467 289.441 92.9467 288.881 93.3601C288.321 93.7734 287.648 93.98 286.861 93.98C286.355 93.98 285.881 93.9001 285.441 93.7401C285.001 93.5801 284.621 93.3401 284.301 93.0201L284.961 91.9601C285.495 92.4934 286.135 92.76 286.881 92.76C287.361 92.76 287.768 92.6267 288.101 92.3601C288.448 92.0934 288.768 91.6401 289.061 91.0001L289.521 89.98L284.821 79.48H286.301L290.261 88.4201L294.221 79.48H295.621Z" fill="#5D5D5D"/>
<path d="M305.246 88.8201V90.0001H296.686V89.0601L303.306 80.6801H296.806V79.48H305.126V80.4201L298.506 88.8201H305.246Z" fill="#5D5D5D"/>
<path d="M311.088 76V90.0001H309.648V77.2801H306.348V76H311.088Z" fill="#5D5D5D"/>
<path d="M324.394 88.72V90.0001H314.574V88.98L320.394 83.2801C321.128 82.5601 321.621 81.9401 321.874 81.4201C322.141 80.8867 322.274 80.3534 322.274 79.8201C322.274 78.9934 321.988 78.3534 321.414 77.9C320.854 77.4334 320.048 77.2001 318.994 77.2001C317.354 77.2001 316.081 77.72 315.174 78.76L314.154 77.8801C314.701 77.2401 315.394 76.7467 316.234 76.4C317.088 76.0534 318.048 75.8801 319.114 75.8801C320.541 75.8801 321.668 76.22 322.494 76.9C323.334 77.5667 323.754 78.4867 323.754 79.66C323.754 80.38 323.594 81.0734 323.274 81.7401C322.954 82.4067 322.348 83.1734 321.454 84.04L316.694 88.72H324.394Z" fill="#5D5D5D"/>
<path d="M331.361 82.0001C332.828 82.0801 333.941 82.4801 334.701 83.2001C335.475 83.9067 335.861 84.8334 335.861 85.98C335.861 86.78 335.668 87.4934 335.281 88.12C334.895 88.7334 334.321 89.22 333.561 89.58C332.801 89.94 331.875 90.12 330.781 90.12C329.768 90.12 328.808 89.9601 327.901 89.6401C327.008 89.3067 326.288 88.8667 325.741 88.3201L326.441 87.1801C326.908 87.6601 327.528 88.0534 328.301 88.3601C329.075 88.6534 329.901 88.8 330.781 88.8C331.928 88.8 332.815 88.5534 333.441 88.0601C334.068 87.5534 334.381 86.86 334.381 85.98C334.381 85.1134 334.068 84.4334 333.441 83.94C332.815 83.4467 331.868 83.2001 330.601 83.2001H329.601V82.1401L333.481 77.2801H326.321V76H335.321V77.0201L331.361 82.0001Z" fill="#5D5D5D"/>
<path d="M350.19 86.3201H347.391V90.0001H345.951V86.3201H338.051V85.2801L345.47 76H347.07L339.91 85.04H345.991V81.8H347.391V85.04H350.19V86.3201Z" fill="#5D5D5D"/>
<path d="M355.515 81.7401C357.542 81.7401 359.015 82.1067 359.935 82.84C360.868 83.56 361.335 84.5734 361.335 85.8801C361.335 86.6934 361.142 87.4201 360.755 88.0601C360.382 88.7001 359.815 89.2067 359.055 89.58C358.295 89.94 357.362 90.12 356.255 90.12C355.255 90.12 354.302 89.9601 353.395 89.6401C352.502 89.3067 351.782 88.8667 351.235 88.3201L351.935 87.1801C352.402 87.6601 353.015 88.0534 353.775 88.3601C354.535 88.6534 355.355 88.8 356.235 88.8C357.395 88.8 358.288 88.5401 358.915 88.0201C359.555 87.5001 359.875 86.8067 359.875 85.94C359.875 84.98 359.515 84.2534 358.795 83.76C358.088 83.2667 356.888 83.0201 355.195 83.0201H352.215L352.935 76H360.595V77.2801H354.195L353.715 81.7401H355.515Z" fill="#5D5D5D"/>
<path d="M369.363 81.62C370.283 81.62 371.096 81.7934 371.803 82.1401C372.523 82.4867 373.083 82.98 373.483 83.62C373.883 84.2467 374.083 84.9801 374.083 85.8201C374.083 86.6734 373.876 87.4267 373.463 88.08C373.05 88.7334 372.476 89.2401 371.743 89.6001C371.023 89.9467 370.21 90.12 369.303 90.12C367.45 90.12 366.03 89.5134 365.043 88.3C364.056 87.0734 363.563 85.3467 363.563 83.12C363.563 81.56 363.83 80.24 364.363 79.16C364.896 78.08 365.643 77.2667 366.603 76.72C367.563 76.16 368.683 75.8801 369.963 75.8801C371.35 75.8801 372.456 76.1334 373.283 76.6401L372.703 77.8C372.036 77.36 371.13 77.1401 369.983 77.1401C368.436 77.1401 367.223 77.6334 366.343 78.62C365.463 79.5934 365.023 81.0134 365.023 82.8801C365.023 83.2134 365.043 83.5934 365.083 84.0201C365.43 83.2601 365.983 82.6734 366.743 82.26C367.503 81.8334 368.376 81.62 369.363 81.62ZM369.243 88.9C370.256 88.9 371.076 88.6267 371.703 88.08C372.343 87.52 372.663 86.78 372.663 85.86C372.663 84.94 372.343 84.2067 371.703 83.66C371.076 83.1134 370.223 82.84 369.143 82.84C368.436 82.84 367.81 82.9734 367.263 83.2401C366.73 83.5067 366.31 83.8734 366.003 84.34C365.696 84.8067 365.543 85.3267 365.543 85.9C365.543 86.4334 365.683 86.9267 365.963 87.3801C366.256 87.8334 366.683 88.2 367.243 88.48C367.803 88.76 368.47 88.9 369.243 88.9Z" fill="#5D5D5D"/>
<path d="M385.874 76V77.0201L380.014 90.0001H378.454L384.214 77.2801H377.014V79.9H375.594V76H385.874Z" fill="#5D5D5D"/>
<path d="M395.821 82.66C396.701 82.9534 397.374 83.3934 397.841 83.98C398.321 84.5667 398.561 85.2734 398.561 86.1001C398.561 86.9134 398.341 87.6267 397.901 88.2401C397.461 88.8401 396.827 89.3067 396.001 89.6401C395.187 89.9601 394.227 90.12 393.121 90.12C391.441 90.12 390.121 89.7601 389.161 89.0401C388.201 88.3201 387.721 87.3401 387.721 86.1001C387.721 85.2601 387.947 84.5534 388.401 83.98C388.867 83.3934 389.541 82.9534 390.421 82.66C389.701 82.38 389.154 81.9801 388.781 81.4601C388.407 80.9267 388.221 80.3 388.221 79.58C388.221 78.4467 388.661 77.5467 389.541 76.8801C390.434 76.2134 391.627 75.8801 393.121 75.8801C394.107 75.8801 394.967 76.0334 395.701 76.34C396.447 76.6334 397.027 77.06 397.441 77.62C397.854 78.18 398.061 78.8334 398.061 79.58C398.061 80.3 397.867 80.9267 397.481 81.4601C397.094 81.9801 396.541 82.38 395.821 82.66ZM389.661 79.62C389.661 80.3934 389.967 81.0067 390.581 81.4601C391.194 81.9134 392.041 82.1401 393.121 82.1401C394.201 82.1401 395.047 81.9134 395.661 81.4601C396.287 81.0067 396.601 80.4001 396.601 79.6401C396.601 78.8534 396.281 78.2334 395.641 77.7801C395.014 77.3267 394.174 77.1001 393.121 77.1001C392.054 77.1001 391.207 77.3267 390.581 77.7801C389.967 78.2334 389.661 78.8467 389.661 79.62ZM393.121 88.9C394.361 88.9 395.327 88.6467 396.021 88.1401C396.727 87.6334 397.081 86.9467 397.081 86.08C397.081 85.2134 396.727 84.5334 396.021 84.04C395.327 83.5334 394.361 83.2801 393.121 83.2801C391.894 83.2801 390.927 83.5334 390.221 84.04C389.527 84.5334 389.181 85.2134 389.181 86.08C389.181 86.96 389.527 87.6534 390.221 88.16C390.914 88.6534 391.881 88.9 393.121 88.9Z" fill="#5D5D5D"/>
<path d="M405.315 75.8801C407.168 75.8801 408.588 76.4934 409.575 77.72C410.561 78.9334 411.055 80.6534 411.055 82.8801C411.055 84.4401 410.788 85.76 410.255 86.84C409.721 87.92 408.975 88.74 408.015 89.3C407.055 89.8467 405.935 90.12 404.655 90.12C403.268 90.12 402.161 89.8667 401.335 89.3601L401.915 88.2001C402.581 88.6401 403.488 88.8601 404.635 88.8601C406.181 88.8601 407.395 88.3734 408.275 87.4C409.155 86.4134 409.595 84.9867 409.595 83.12C409.595 82.7734 409.575 82.3934 409.535 81.98C409.188 82.74 408.635 83.3334 407.875 83.76C407.115 84.1734 406.241 84.3801 405.255 84.3801C404.335 84.3801 403.515 84.2067 402.795 83.8601C402.088 83.5134 401.535 83.0267 401.135 82.4C400.735 81.76 400.535 81.0201 400.535 80.1801C400.535 79.3267 400.741 78.5734 401.155 77.9201C401.568 77.2667 402.135 76.7667 402.855 76.4201C403.588 76.0601 404.408 75.8801 405.315 75.8801ZM405.475 83.16C406.181 83.16 406.801 83.0267 407.335 82.76C407.881 82.4934 408.308 82.1267 408.615 81.66C408.921 81.1934 409.075 80.6734 409.075 80.1001C409.075 79.5667 408.928 79.0734 408.635 78.62C408.355 78.1667 407.935 77.8 407.375 77.5201C406.815 77.24 406.148 77.1001 405.375 77.1001C404.361 77.1001 403.535 77.38 402.895 77.94C402.268 78.4867 401.955 79.2201 401.955 80.1401C401.955 81.0601 402.268 81.7934 402.895 82.34C403.535 82.8867 404.395 83.16 405.475 83.16Z" fill="#5D5D5D"/>
</svg>
