<svg width="380" height="184" viewBox="0 0 380 184" fill="none" xmlns="http://www.w3.org/2000/svg">
<path d="M123.472 43.664C123.472 45.616 123.232 47.376 122.752 48.944C122.272 50.512 121.552 51.848 120.592 52.952C119.648 54.056 118.464 54.904 117.04 55.496C115.616 56.088 113.96 56.384 112.072 56.384C111.208 56.384 110.36 56.328 109.528 56.216C108.696 56.12 107.824 55.96 106.912 55.736L107.248 51.896C107.28 51.544 107.408 51.264 107.632 51.056C107.872 50.832 108.216 50.72 108.664 50.72C108.936 50.72 109.288 50.776 109.72 50.888C110.168 51 110.728 51.056 111.4 51.056C112.312 51.056 113.12 50.928 113.824 50.672C114.528 50.4 115.112 49.976 115.576 49.4C116.056 48.824 116.416 48.08 116.656 47.168C116.896 46.24 117.016 45.12 117.016 43.808V21.296H123.472V43.664Z" fill="#F17005"/>
<path d="M144.425 50.792C145.673 50.792 146.785 50.584 147.761 50.168C148.753 49.752 149.585 49.168 150.257 48.416C150.945 47.664 151.465 46.752 151.817 45.68C152.185 44.608 152.369 43.408 152.369 42.08V21.296H158.825V42.08C158.825 44.144 158.489 46.056 157.817 47.816C157.161 49.56 156.209 51.072 154.961 52.352C153.713 53.616 152.201 54.608 150.425 55.328C148.649 56.032 146.649 56.384 144.425 56.384C142.201 56.384 140.201 56.032 138.425 55.328C136.649 54.608 135.137 53.616 133.889 52.352C132.657 51.072 131.705 49.56 131.033 47.816C130.377 46.056 130.049 44.144 130.049 42.08V21.296H136.505V42.056C136.505 43.384 136.681 44.584 137.033 45.656C137.401 46.728 137.921 47.648 138.593 48.416C139.265 49.168 140.089 49.752 141.065 50.168C142.057 50.584 143.177 50.792 144.425 50.792Z" fill="#F17005"/>
<path d="M182.803 41.6C183.075 42.112 183.323 42.648 183.547 43.208C183.787 43.752 184.019 44.304 184.243 44.864C184.467 44.288 184.699 43.72 184.939 43.16C185.179 42.6 185.435 42.064 185.707 41.552L195.979 22.328C196.107 22.088 196.235 21.896 196.363 21.752C196.507 21.608 196.659 21.504 196.819 21.44C196.995 21.376 197.187 21.336 197.395 21.32C197.603 21.304 197.851 21.296 198.139 21.296H203.011V56H197.323V33.584C197.323 33.168 197.331 32.712 197.347 32.216C197.379 31.72 197.419 31.216 197.467 30.704L186.979 50.384C186.739 50.832 186.427 51.184 186.043 51.44C185.659 51.68 185.211 51.8 184.699 51.8H183.811C183.299 51.8 182.851 51.68 182.467 51.44C182.083 51.184 181.771 50.832 181.531 50.384L170.899 30.632C170.963 31.16 171.003 31.68 171.019 32.192C171.051 32.688 171.067 33.152 171.067 33.584V56H165.379V21.296H170.251C170.539 21.296 170.787 21.304 170.995 21.32C171.203 21.336 171.387 21.376 171.547 21.44C171.723 21.504 171.883 21.608 172.027 21.752C172.171 21.896 172.307 22.088 172.435 22.328L182.803 41.6Z" fill="#F17005"/>
<path d="M216.676 43.784V56H210.22V21.296H221.524C223.844 21.296 225.852 21.568 227.548 22.112C229.244 22.656 230.644 23.416 231.748 24.392C232.852 25.368 233.668 26.536 234.196 27.896C234.724 29.256 234.988 30.744 234.988 32.36C234.988 34.04 234.708 35.584 234.148 36.992C233.588 38.384 232.748 39.584 231.628 40.592C230.508 41.6 229.108 42.384 227.428 42.944C225.748 43.504 223.78 43.784 221.524 43.784H216.676ZM216.676 38.744H221.524C222.708 38.744 223.74 38.6 224.62 38.312C225.5 38.008 226.228 37.584 226.804 37.04C227.38 36.48 227.812 35.808 228.1 35.024C228.388 34.224 228.532 33.336 228.532 32.36C228.532 31.432 228.388 30.592 228.1 29.84C227.812 29.088 227.38 28.448 226.804 27.92C226.228 27.392 225.5 26.992 224.62 26.72C223.74 26.432 222.708 26.288 221.524 26.288H216.676V38.744Z" fill="#F17005"/>
<path d="M258.604 27.608C258.428 27.96 258.22 28.208 257.98 28.352C257.756 28.496 257.484 28.568 257.164 28.568C256.844 28.568 256.484 28.448 256.084 28.208C255.684 27.952 255.212 27.672 254.668 27.368C254.124 27.064 253.484 26.792 252.748 26.552C252.028 26.296 251.172 26.168 250.18 26.168C249.284 26.168 248.5 26.28 247.828 26.504C247.172 26.712 246.612 27.008 246.148 27.392C245.7 27.776 245.364 28.24 245.14 28.784C244.916 29.312 244.804 29.896 244.804 30.536C244.804 31.352 245.028 32.032 245.476 32.576C245.94 33.12 246.548 33.584 247.3 33.968C248.052 34.352 248.908 34.696 249.868 35C250.828 35.304 251.804 35.632 252.796 35.984C253.804 36.32 254.788 36.72 255.748 37.184C256.708 37.632 257.564 38.208 258.316 38.912C259.068 39.6 259.668 40.448 260.116 41.456C260.58 42.464 260.812 43.688 260.812 45.128C260.812 46.696 260.54 48.168 259.996 49.544C259.468 50.904 258.684 52.096 257.644 53.12C256.62 54.128 255.364 54.928 253.876 55.52C252.388 56.096 250.684 56.384 248.764 56.384C247.66 56.384 246.572 56.272 245.5 56.048C244.428 55.84 243.396 55.536 242.404 55.136C241.428 54.736 240.508 54.256 239.644 53.696C238.796 53.136 238.036 52.512 237.364 51.824L239.236 48.728C239.412 48.504 239.62 48.32 239.86 48.176C240.116 48.016 240.396 47.936 240.7 47.936C241.1 47.936 241.532 48.104 241.996 48.44C242.46 48.76 243.004 49.12 243.628 49.52C244.268 49.92 245.012 50.288 245.86 50.624C246.724 50.944 247.756 51.104 248.956 51.104C250.796 51.104 252.22 50.672 253.228 49.808C254.236 48.928 254.74 47.672 254.74 46.04C254.74 45.128 254.508 44.384 254.044 43.808C253.596 43.232 252.996 42.752 252.244 42.368C251.492 41.968 250.636 41.632 249.676 41.36C248.716 41.088 247.74 40.792 246.748 40.472C245.756 40.152 244.78 39.768 243.82 39.32C242.86 38.872 242.004 38.288 241.252 37.568C240.5 36.848 239.892 35.952 239.428 34.88C238.98 33.792 238.756 32.456 238.756 30.872C238.756 29.608 239.004 28.376 239.5 27.176C240.012 25.976 240.748 24.912 241.708 23.984C242.684 23.056 243.876 22.312 245.284 21.752C246.692 21.192 248.3 20.912 250.108 20.912C252.156 20.912 254.044 21.232 255.772 21.872C257.5 22.512 258.972 23.408 260.188 24.56L258.604 27.608Z" fill="#F17005"/>
<path d="M290.194 21.296V26.6H279.754V56H273.298V26.6H262.81V21.296H290.194Z" fill="#F17005"/>
<path d="M321.274 56H316.282C315.722 56 315.258 55.864 314.89 55.592C314.538 55.304 314.282 54.952 314.122 54.536L311.53 47.456H297.154L294.562 54.536C294.434 54.904 294.178 55.24 293.794 55.544C293.426 55.848 292.97 56 292.426 56H287.41L301.042 21.296H307.642L321.274 56ZM298.81 42.896H309.874L305.65 31.352C305.458 30.84 305.242 30.24 305.002 29.552C304.778 28.848 304.554 28.088 304.33 27.272C304.106 28.088 303.882 28.848 303.658 29.552C303.45 30.256 303.242 30.872 303.034 31.4L298.81 42.896Z" fill="#F17005"/>
<path d="M331.52 42.44V56H325.064V21.296H335.648C338.016 21.296 340.04 21.544 341.72 22.04C343.416 22.52 344.8 23.2 345.872 24.08C346.96 24.96 347.752 26.016 348.248 27.248C348.76 28.464 349.016 29.808 349.016 31.28C349.016 32.448 348.84 33.552 348.488 34.592C348.152 35.632 347.656 36.576 347 37.424C346.36 38.272 345.56 39.016 344.6 39.656C343.656 40.296 342.576 40.808 341.36 41.192C342.176 41.656 342.88 42.32 343.472 43.184L352.16 56H346.352C345.792 56 345.312 55.888 344.912 55.664C344.528 55.44 344.2 55.12 343.928 54.704L336.632 43.592C336.36 43.176 336.056 42.88 335.72 42.704C335.4 42.528 334.92 42.44 334.28 42.44H331.52ZM331.52 37.808H335.552C336.768 37.808 337.824 37.656 338.72 37.352C339.632 37.048 340.376 36.632 340.952 36.104C341.544 35.56 341.984 34.92 342.272 34.184C342.56 33.448 342.704 32.64 342.704 31.76C342.704 30 342.12 28.648 340.952 27.704C339.8 26.76 338.032 26.288 335.648 26.288H331.52V37.808Z" fill="#F17005"/>
<path d="M379.397 21.296V26.6H368.957V56H362.501V26.6H352.013V21.296H379.397Z" fill="#F17005"/>
<path d="M84.9986 1.45741C87.5978 -1.66896 92.6621 0.625859 92.0251 4.64133L81.8507 68.7741C81.8182 68.9791 81.8018 69.1826 81.8005 69.3832L48.7535 109.133H4.00764C0.618466 109.133 -1.23489 105.182 0.931778 102.576L84.9986 1.45741Z" fill="#F17005"/>
<path d="M62.4069 114.61L52.292 178.36C51.6607 182.339 56.6436 184.65 59.2732 181.597L146.786 80.0115C149.019 77.4188 147.177 73.4008 143.755 73.4008H96.6667L62.4069 114.61Z" fill="#F17005"/>
</svg>
