<svg width="338" height="74" viewBox="0 0 338 74" fill="none" xmlns="http://www.w3.org/2000/svg">
<path d="M150.538 15.3359H157.486V18H147.31V0.647949H150.538V15.3359Z" fill="#5D5D5D"/>
<path d="M169.189 18H167.857C167.577 18 167.357 17.9599 167.197 17.8799C167.037 17.7919 166.917 17.62 166.837 17.364L166.573 16.488C166.261 16.768 165.953 17.016 165.649 17.232C165.353 17.44 165.045 17.616 164.725 17.76C164.405 17.904 164.065 18.012 163.705 18.084C163.345 18.156 162.945 18.1919 162.505 18.1919C161.985 18.1919 161.505 18.124 161.065 17.988C160.625 17.844 160.245 17.6319 159.925 17.3519C159.613 17.0719 159.369 16.724 159.193 16.308C159.017 15.892 158.929 15.408 158.929 14.856C158.929 14.392 159.049 13.936 159.289 13.488C159.537 13.032 159.945 12.624 160.513 12.264C161.081 11.896 161.837 11.5919 162.781 11.3519C163.725 11.1119 164.897 10.976 166.297 10.944V10.224C166.297 9.39995 166.121 8.79195 165.769 8.39995C165.425 7.99995 164.921 7.79995 164.257 7.79995C163.777 7.79995 163.377 7.85595 163.057 7.96795C162.737 8.07995 162.457 8.20795 162.217 8.35195C161.985 8.48795 161.769 8.61195 161.569 8.72395C161.369 8.83595 161.149 8.89195 160.909 8.89195C160.709 8.89195 160.537 8.83995 160.393 8.73595C160.249 8.63195 160.133 8.50395 160.045 8.35195L159.505 7.40395C160.921 6.10795 162.629 5.45995 164.629 5.45995C165.349 5.45995 165.989 5.57995 166.549 5.81995C167.117 6.05195 167.597 6.37995 167.989 6.80395C168.381 7.21995 168.677 7.71995 168.877 8.30395C169.085 8.88795 169.189 9.52795 169.189 10.224V18ZM163.429 16.1519C163.733 16.1519 164.013 16.124 164.269 16.068C164.525 16.012 164.765 15.928 164.989 15.816C165.221 15.704 165.441 15.568 165.649 15.408C165.865 15.24 166.081 15.044 166.297 14.82V12.7439C165.433 12.7839 164.709 12.86 164.125 12.972C163.549 13.076 163.085 13.212 162.733 13.38C162.381 13.548 162.129 13.7439 161.977 13.9679C161.833 14.1919 161.761 14.436 161.761 14.7C161.761 15.22 161.913 15.592 162.217 15.816C162.529 16.04 162.933 16.1519 163.429 16.1519Z" fill="#5D5D5D"/>
<path d="M176.147 18.1919C175.083 18.1919 174.263 17.892 173.687 17.292C173.111 16.684 172.823 15.848 172.823 14.784V7.90795H171.575C171.415 7.90795 171.275 7.85595 171.155 7.75195C171.043 7.64795 170.987 7.49195 170.987 7.28395V6.10795L172.967 5.78395L173.591 2.42395C173.623 2.26395 173.695 2.13995 173.807 2.05195C173.927 1.96395 174.075 1.91995 174.251 1.91995H175.787V5.79595H179.027V7.90795H175.787V14.58C175.787 14.964 175.883 15.2639 176.075 15.4799C176.267 15.6959 176.523 15.804 176.843 15.804C177.027 15.804 177.179 15.7839 177.299 15.7439C177.427 15.6959 177.535 15.648 177.623 15.6C177.719 15.552 177.803 15.5079 177.875 15.4679C177.947 15.4199 178.019 15.396 178.091 15.396C178.179 15.396 178.251 15.4199 178.307 15.4679C178.363 15.5079 178.423 15.572 178.487 15.66L179.375 17.1C178.943 17.46 178.447 17.732 177.887 17.916C177.327 18.1 176.747 18.1919 176.147 18.1919Z" fill="#5D5D5D"/>
<path d="M186.641 5.49595C187.561 5.49595 188.393 5.64395 189.137 5.93995C189.889 6.23595 190.529 6.65595 191.057 7.19995C191.585 7.74395 191.993 8.40795 192.281 9.19195C192.569 9.97595 192.713 10.852 192.713 11.82C192.713 12.796 192.569 13.676 192.281 14.46C191.993 15.244 191.585 15.912 191.057 16.464C190.529 17.016 189.889 17.44 189.137 17.736C188.393 18.032 187.561 18.18 186.641 18.18C185.721 18.18 184.885 18.032 184.133 17.736C183.381 17.44 182.737 17.016 182.201 16.464C181.673 15.912 181.261 15.244 180.965 14.46C180.677 13.676 180.533 12.796 180.533 11.82C180.533 10.852 180.677 9.97595 180.965 9.19195C181.261 8.40795 181.673 7.74395 182.201 7.19995C182.737 6.65595 183.381 6.23595 184.133 5.93995C184.885 5.64395 185.721 5.49595 186.641 5.49595ZM186.641 15.9C187.665 15.9 188.421 15.556 188.909 14.868C189.405 14.18 189.653 13.172 189.653 11.844C189.653 10.516 189.405 9.50395 188.909 8.80795C188.421 8.11195 187.665 7.76395 186.641 7.76395C185.601 7.76395 184.833 8.11595 184.337 8.81995C183.841 9.51595 183.593 10.524 183.593 11.844C183.593 13.164 183.841 14.172 184.337 14.868C184.833 15.556 185.601 15.9 186.641 15.9Z" fill="#5D5D5D"/>
<path d="M20.6316 49H19.2816C19.1256 49 18.9996 48.9609 18.9036 48.8829C18.8076 48.8049 18.7356 48.7059 18.6876 48.5859L17.4816 45.472H11.6946L10.4886 48.5859C10.4466 48.6939 10.3746 48.79 10.2726 48.874C10.1706 48.958 10.0446 49 9.89461 49H8.54461L13.7016 36.103H15.4746L20.6316 49ZM12.1806 44.212H16.9956L14.9706 38.965C14.8386 38.641 14.7096 38.236 14.5836 37.75C14.5176 37.9959 14.4516 38.2239 14.3856 38.4339C14.3256 38.6379 14.2656 38.8179 14.2056 38.9739L12.1806 44.212Z" fill="#5D5D5D"/>
<path d="M22.615 49V36.103H26.728C27.52 36.103 28.201 36.1809 28.771 36.3369C29.347 36.4929 29.818 36.7149 30.184 37.0029C30.556 37.2909 30.829 37.6449 31.003 38.0649C31.183 38.4789 31.273 38.9469 31.273 39.4689C31.273 39.7869 31.222 40.093 31.12 40.387C31.024 40.681 30.874 40.954 30.67 41.206C30.472 41.458 30.22 41.683 29.914 41.881C29.614 42.079 29.26 42.241 28.852 42.367C29.794 42.553 30.505 42.8919 30.985 43.3839C31.465 43.8759 31.705 44.5239 31.705 45.3279C31.705 45.8739 31.603 46.3719 31.399 46.8219C31.201 47.2719 30.907 47.659 30.517 47.983C30.133 48.307 29.659 48.5589 29.095 48.7389C28.537 48.9129 27.898 49 27.178 49H22.615ZM24.361 43.123V47.6139H27.151C27.649 47.6139 28.075 47.557 28.429 47.443C28.789 47.329 29.083 47.17 29.311 46.966C29.545 46.756 29.716 46.51 29.824 46.228C29.932 45.94 29.986 45.625 29.986 45.283C29.986 44.617 29.749 44.092 29.275 43.708C28.807 43.318 28.096 43.123 27.142 43.123H24.361ZM24.361 41.881H26.665C27.157 41.881 27.583 41.8269 27.943 41.7189C28.303 41.6109 28.6 41.461 28.834 41.269C29.074 41.077 29.251 40.846 29.365 40.576C29.479 40.3 29.536 39.9999 29.536 39.6759C29.536 38.9199 29.308 38.3649 28.852 38.0109C28.396 37.6569 27.688 37.4799 26.728 37.4799H24.361V41.881Z" fill="#5D5D5D"/>
<path d="M43.7193 46.3359C43.8153 46.3359 43.9023 46.3749 43.9803 46.4529L44.6643 47.2C44.1363 47.812 43.4943 48.289 42.7383 48.631C41.9883 48.973 41.0823 49.144 40.0203 49.144C39.0903 49.144 38.2473 48.985 37.4913 48.667C36.7353 48.343 36.0903 47.893 35.5563 47.317C35.0223 46.735 34.6083 46.039 34.3143 45.229C34.0203 44.419 33.8733 43.528 33.8733 42.556C33.8733 41.584 34.0293 40.6929 34.3413 39.8829C34.6593 39.0729 35.1033 38.3769 35.6733 37.7949C36.2433 37.2129 36.9243 36.763 37.7163 36.445C38.5143 36.1209 39.3933 35.959 40.3533 35.959C41.3013 35.959 42.1173 36.1059 42.8013 36.3999C43.4913 36.6939 44.1033 37.093 44.6373 37.597L44.0703 38.3979C44.0283 38.4579 43.9803 38.5089 43.9263 38.5509C43.8723 38.5869 43.7943 38.6049 43.6923 38.6049C43.6143 38.6049 43.5303 38.5779 43.4403 38.5239C43.3563 38.4639 43.2543 38.3919 43.1343 38.3079C43.0143 38.2239 42.8733 38.1339 42.7113 38.0379C42.5493 37.9419 42.3573 37.852 42.1353 37.768C41.9133 37.684 41.6553 37.615 41.3613 37.561C41.0673 37.501 40.7283 37.471 40.3443 37.471C39.6543 37.471 39.0213 37.591 38.4453 37.831C37.8753 38.065 37.3833 38.401 36.9693 38.839C36.5553 39.277 36.2313 39.8109 35.9973 40.4409C35.7693 41.0709 35.6553 41.776 35.6553 42.556C35.6553 43.36 35.7693 44.077 35.9973 44.707C36.2313 45.337 36.5463 45.8709 36.9423 46.3089C37.3443 46.7409 37.8183 47.071 38.3643 47.299C38.9103 47.527 39.4983 47.6409 40.1283 47.6409C40.5123 47.6409 40.8573 47.6199 41.1633 47.5779C41.4693 47.5299 41.7513 47.4579 42.0093 47.3619C42.2733 47.2659 42.5163 47.1459 42.7383 47.0019C42.9663 46.8519 43.1943 46.675 43.4223 46.471C43.5243 46.381 43.6233 46.3359 43.7193 46.3359Z" fill="#5D5D5D"/>
<path d="M58.4895 42.556C58.4895 43.522 58.3365 44.401 58.0305 45.193C57.7245 45.985 57.2925 46.663 56.7345 47.227C56.1765 47.791 55.5075 48.229 54.7275 48.541C53.9475 48.847 53.0835 49 52.1355 49H47.3115V36.103H52.1355C53.0835 36.103 53.9475 36.2589 54.7275 36.5709C55.5075 36.8769 56.1765 37.3149 56.7345 37.8849C57.2925 38.4489 57.7245 39.1269 58.0305 39.9189C58.3365 40.7109 58.4895 41.59 58.4895 42.556ZM56.6985 42.556C56.6985 41.7639 56.5905 41.0559 56.3745 40.4319C56.1585 39.8079 55.8525 39.28 55.4565 38.8479C55.0605 38.4159 54.5805 38.0859 54.0165 37.8579C53.4525 37.6299 52.8255 37.5159 52.1355 37.5159H49.0665V47.587H52.1355C52.8255 47.587 53.4525 47.4729 54.0165 47.2449C54.5805 47.0169 55.0605 46.69 55.4565 46.264C55.8525 45.832 56.1585 45.304 56.3745 44.68C56.5905 44.056 56.6985 43.3479 56.6985 42.556Z" fill="#5D5D5D"/>
<path d="M69.1713 36.103V37.5249H62.9793V41.8089H67.9923V43.1769H62.9793V47.5779H69.1713V49H61.2243V36.103H69.1713Z" fill="#5D5D5D"/>
<path d="M79.9903 36.103V37.5249H73.7983V42.034H79.0903V43.456H73.7983V49H72.0433V36.103H79.9903Z" fill="#5D5D5D"/>
<path d="M88.3496 47.7309C88.6976 47.7309 89.0156 47.716 89.3036 47.686C89.5976 47.65 89.8736 47.599 90.1316 47.533C90.3896 47.467 90.6326 47.389 90.8606 47.299C91.0886 47.203 91.3166 47.0949 91.5446 46.9749V44.131H89.5466C89.4326 44.131 89.3396 44.098 89.2676 44.032C89.2016 43.966 89.1686 43.8849 89.1686 43.7889V42.799H93.1286V47.749C92.8046 47.983 92.4656 48.187 92.1116 48.361C91.7636 48.535 91.3886 48.6819 90.9866 48.8019C90.5906 48.9159 90.1646 49 89.7086 49.054C89.2526 49.114 88.7576 49.144 88.2236 49.144C87.2876 49.144 86.4296 48.985 85.6496 48.667C84.8696 48.343 84.1976 47.893 83.6336 47.317C83.0696 46.735 82.6286 46.039 82.3106 45.229C81.9986 44.419 81.8426 43.528 81.8426 42.556C81.8426 41.5719 81.9956 40.6749 82.3016 39.8649C82.6136 39.0549 83.0546 38.3619 83.6246 37.7859C84.2006 37.2039 84.8936 36.754 85.7036 36.436C86.5196 36.118 87.4316 35.959 88.4396 35.959C88.9496 35.959 89.4236 35.998 89.8616 36.076C90.2996 36.148 90.7046 36.2559 91.0766 36.3999C91.4546 36.5379 91.8026 36.7089 92.1206 36.9129C92.4386 37.1109 92.7356 37.336 93.0116 37.588L92.5166 38.38C92.4146 38.542 92.2826 38.623 92.1206 38.623C92.0246 38.623 91.9196 38.5899 91.8056 38.5239C91.6556 38.4399 91.4876 38.3379 91.3016 38.2179C91.1156 38.0979 90.8876 37.9839 90.6176 37.8759C90.3536 37.7619 90.0386 37.666 89.6726 37.588C89.3126 37.51 88.8836 37.471 88.3856 37.471C87.6596 37.471 87.0026 37.591 86.4146 37.831C85.8266 38.065 85.3256 38.4039 84.9116 38.8479C84.4976 39.2859 84.1796 39.82 83.9576 40.45C83.7356 41.074 83.6246 41.776 83.6246 42.556C83.6246 43.372 83.7386 44.101 83.9666 44.743C84.2006 45.379 84.5276 45.9189 84.9476 46.3629C85.3676 46.8069 85.8656 47.146 86.4416 47.38C87.0176 47.614 87.6536 47.7309 88.3496 47.7309Z" fill="#5D5D5D"/>
<path d="M106.635 49H104.88V43.132H97.9323V49H96.1773V36.103H97.9323V41.854H104.88V36.103H106.635V49Z" fill="#5D5D5D"/>
<path d="M112.213 49H110.467V36.103H112.213V49Z" fill="#5D5D5D"/>
<path d="M120.873 44.5449C120.873 45.2649 120.783 45.9099 120.603 46.4799C120.429 47.0499 120.168 47.533 119.82 47.929C119.478 48.319 119.055 48.6189 118.551 48.8289C118.047 49.0389 117.468 49.144 116.814 49.144C116.232 49.144 115.626 49.0599 114.996 48.8919C115.008 48.7179 115.023 48.547 115.041 48.379C115.059 48.205 115.077 48.034 115.095 47.866C115.107 47.764 115.143 47.683 115.203 47.623C115.269 47.557 115.365 47.5239 115.491 47.5239C115.599 47.5239 115.743 47.5509 115.923 47.6049C116.103 47.6589 116.343 47.686 116.643 47.686C117.039 47.686 117.39 47.626 117.696 47.506C118.008 47.386 118.269 47.1999 118.479 46.9479C118.695 46.6959 118.857 46.375 118.965 45.985C119.079 45.589 119.136 45.121 119.136 44.581V36.103H120.873V44.5449Z" fill="#5D5D5D"/>
<path d="M126.297 41.755H126.954C127.182 41.755 127.362 41.7279 127.494 41.674C127.632 41.6139 127.761 41.5149 127.881 41.3769L132.174 36.5169C132.306 36.3669 132.432 36.262 132.552 36.202C132.678 36.1359 132.837 36.103 133.029 36.103H134.514L129.6 41.6559C129.474 41.7939 129.354 41.911 129.24 42.007C129.132 42.103 129.015 42.181 128.889 42.241C129.057 42.295 129.204 42.376 129.33 42.484C129.456 42.592 129.588 42.727 129.726 42.889L134.856 49H133.344C133.23 49 133.134 48.9909 133.056 48.9729C132.978 48.9549 132.909 48.931 132.849 48.901C132.795 48.871 132.744 48.832 132.696 48.784C132.648 48.736 132.6 48.685 132.552 48.631L128.097 43.5099C128.031 43.4379 127.968 43.3779 127.908 43.3299C127.854 43.2759 127.788 43.2309 127.71 43.195C127.638 43.159 127.551 43.135 127.449 43.123C127.353 43.105 127.233 43.096 127.089 43.096H126.297V49H124.56V36.103H126.297V41.755Z" fill="#5D5D5D"/>
<path d="M138.738 47.533H144.318V49H136.992V36.103H138.738V47.533Z" fill="#5D5D5D"/>
<path d="M152.943 44.338C153.027 44.482 153.099 44.635 153.159 44.797C153.225 44.953 153.288 45.1119 153.348 45.2739C153.408 45.1059 153.471 44.947 153.537 44.797C153.603 44.641 153.678 44.4849 153.762 44.3289L158.127 36.3999C158.205 36.2619 158.286 36.1779 158.37 36.1479C158.454 36.1179 158.574 36.103 158.73 36.103H160.017V49H158.487V39.5229C158.487 39.3969 158.49 39.262 158.496 39.118C158.502 38.974 158.511 38.8269 158.523 38.6769L154.104 46.741C153.954 47.011 153.744 47.146 153.474 47.146H153.222C152.952 47.146 152.742 47.011 152.592 46.741L148.074 38.6499C148.092 38.8059 148.104 38.9589 148.11 39.1089C148.122 39.2589 148.128 39.3969 148.128 39.5229V49H146.598V36.103H147.885C148.041 36.103 148.161 36.1179 148.245 36.1479C148.329 36.1779 148.41 36.2619 148.488 36.3999L152.943 44.338Z" fill="#5D5D5D"/>
<path d="M164.417 36.103C164.573 36.103 164.687 36.124 164.759 36.166C164.837 36.202 164.924 36.2799 165.02 36.3999L172.49 46.1199C172.472 45.9639 172.46 45.8139 172.454 45.6699C172.448 45.5199 172.445 45.3759 172.445 45.2379V36.103H173.975V49H173.093C172.955 49 172.838 48.976 172.742 48.928C172.652 48.88 172.562 48.799 172.472 48.685L165.011 38.9739C165.023 39.1239 165.032 39.271 165.038 39.415C165.044 39.559 165.047 39.691 165.047 39.811V49H163.517V36.103H164.417Z" fill="#5D5D5D"/>
<path d="M189.461 42.556C189.461 43.522 189.308 44.41 189.002 45.22C188.696 46.024 188.264 46.717 187.706 47.299C187.148 47.881 186.476 48.334 185.69 48.658C184.91 48.976 184.046 49.1349 183.098 49.1349C182.15 49.1349 181.286 48.976 180.506 48.658C179.726 48.334 179.057 47.881 178.499 47.299C177.941 46.717 177.509 46.024 177.203 45.22C176.897 44.41 176.744 43.522 176.744 42.556C176.744 41.59 176.897 40.705 177.203 39.901C177.509 39.091 177.941 38.395 178.499 37.813C179.057 37.2249 179.726 36.769 180.506 36.445C181.286 36.1209 182.15 35.959 183.098 35.959C184.046 35.959 184.91 36.1209 185.69 36.445C186.476 36.769 187.148 37.2249 187.706 37.813C188.264 38.395 188.696 39.091 189.002 39.901C189.308 40.705 189.461 41.59 189.461 42.556ZM187.67 42.556C187.67 41.7639 187.562 41.053 187.346 40.423C187.13 39.793 186.824 39.262 186.428 38.83C186.032 38.392 185.552 38.0559 184.988 37.8219C184.424 37.5879 183.794 37.471 183.098 37.471C182.408 37.471 181.781 37.5879 181.217 37.8219C180.653 38.0559 180.17 38.392 179.768 38.83C179.372 39.262 179.066 39.793 178.85 40.423C178.634 41.053 178.526 41.7639 178.526 42.556C178.526 43.3479 178.634 44.0589 178.85 44.6889C179.066 45.3129 179.372 45.844 179.768 46.282C180.17 46.714 180.653 47.0469 181.217 47.2809C181.781 47.5089 182.408 47.623 183.098 47.623C183.794 47.623 184.424 47.5089 184.988 47.2809C185.552 47.0469 186.032 46.714 186.428 46.282C186.824 45.844 187.13 45.3129 187.346 44.6889C187.562 44.0589 187.67 43.3479 187.67 42.556Z" fill="#5D5D5D"/>
<path d="M194.121 44.1759V49H192.384V36.103H196.191C197.007 36.103 197.715 36.1989 198.315 36.3909C198.921 36.5769 199.422 36.844 199.818 37.192C200.214 37.54 200.508 37.9599 200.7 38.452C200.898 38.944 200.997 39.4929 200.997 40.0989C200.997 40.6989 200.892 41.2479 200.682 41.7459C200.472 42.2439 200.163 42.673 199.755 43.033C199.353 43.393 198.852 43.675 198.252 43.879C197.652 44.077 196.965 44.1759 196.191 44.1759H194.121ZM194.121 42.79H196.191C196.689 42.79 197.127 42.7239 197.505 42.5919C197.889 42.4599 198.21 42.2769 198.468 42.0429C198.726 41.8029 198.921 41.518 199.053 41.188C199.185 40.858 199.251 40.4949 199.251 40.0989C199.251 39.2769 198.996 38.635 198.486 38.173C197.982 37.711 197.217 37.4799 196.191 37.4799H194.121V42.79Z" fill="#5D5D5D"/>
<path d="M215.547 42.556C215.547 43.162 215.484 43.738 215.358 44.284C215.238 44.83 215.061 45.3399 214.827 45.8139C214.593 46.2819 214.308 46.7079 213.972 47.0919C213.636 47.4759 213.258 47.809 212.838 48.091L216.15 51.664H214.71C214.494 51.664 214.302 51.634 214.134 51.574C213.966 51.514 213.813 51.4089 213.675 51.2589L211.407 48.7929C211.065 48.9009 210.708 48.9849 210.336 49.0449C209.97 49.1049 209.586 49.1349 209.184 49.1349C208.236 49.1349 207.372 48.976 206.592 48.658C205.812 48.334 205.143 47.881 204.585 47.299C204.027 46.717 203.595 46.024 203.289 45.22C202.983 44.41 202.83 43.522 202.83 42.556C202.83 41.59 202.983 40.705 203.289 39.901C203.595 39.091 204.027 38.395 204.585 37.813C205.143 37.2249 205.812 36.769 206.592 36.445C207.372 36.1209 208.236 35.959 209.184 35.959C210.132 35.959 210.996 36.1209 211.776 36.445C212.562 36.769 213.234 37.2249 213.792 37.813C214.35 38.395 214.782 39.091 215.088 39.901C215.394 40.705 215.547 41.59 215.547 42.556ZM213.756 42.556C213.756 41.7639 213.648 41.053 213.432 40.423C213.216 39.793 212.91 39.262 212.514 38.83C212.118 38.392 211.638 38.0559 211.074 37.8219C210.51 37.5879 209.88 37.471 209.184 37.471C208.494 37.471 207.867 37.5879 207.303 37.8219C206.739 38.0559 206.256 38.392 205.854 38.83C205.458 39.262 205.152 39.793 204.936 40.423C204.72 41.053 204.612 41.7639 204.612 42.556C204.612 43.3479 204.72 44.0589 204.936 44.6889C205.152 45.3129 205.458 45.844 205.854 46.282C206.256 46.714 206.739 47.0469 207.303 47.2809C207.867 47.5089 208.494 47.623 209.184 47.623C209.88 47.623 210.51 47.5089 211.074 47.2809C211.638 47.0469 212.118 46.714 212.514 46.282C212.91 45.844 213.216 45.3129 213.432 44.6889C213.648 44.0589 213.756 43.3479 213.756 42.556Z" fill="#5D5D5D"/>
<path d="M220.206 43.618V49H218.469V36.103H222.114C222.93 36.103 223.635 36.1869 224.229 36.3549C224.823 36.517 225.312 36.7539 225.696 37.0659C226.086 37.3779 226.374 37.756 226.56 38.2C226.746 38.638 226.839 39.1299 226.839 39.6759C226.839 40.1319 226.767 40.5579 226.623 40.9539C226.479 41.3499 226.269 41.707 225.993 42.025C225.723 42.337 225.39 42.604 224.994 42.826C224.604 43.048 224.16 43.2159 223.662 43.3299C223.878 43.4559 224.07 43.639 224.238 43.879L228 49H226.452C226.134 49 225.9 48.877 225.75 48.631L222.402 44.0229C222.3 43.8789 222.189 43.7769 222.069 43.7169C221.949 43.6509 221.769 43.618 221.529 43.618H220.206ZM220.206 42.3489H222.033C222.543 42.3489 222.99 42.2889 223.374 42.1689C223.764 42.0429 224.088 41.8689 224.346 41.6469C224.61 41.4189 224.808 41.1489 224.94 40.8369C225.072 40.5249 225.138 40.1799 225.138 39.8019C225.138 39.0339 224.883 38.4549 224.373 38.0649C223.869 37.6749 223.116 37.4799 222.114 37.4799H220.206V42.3489Z" fill="#5D5D5D"/>
<path d="M236.839 38.1189C236.785 38.209 236.728 38.278 236.668 38.326C236.608 38.368 236.53 38.389 236.434 38.389C236.332 38.389 236.212 38.338 236.074 38.236C235.942 38.134 235.771 38.023 235.561 37.903C235.357 37.777 235.108 37.663 234.814 37.561C234.526 37.459 234.175 37.408 233.761 37.408C233.371 37.408 233.026 37.462 232.726 37.57C232.426 37.672 232.174 37.813 231.97 37.993C231.772 38.173 231.622 38.386 231.52 38.632C231.418 38.872 231.367 39.133 231.367 39.415C231.367 39.775 231.454 40.0749 231.628 40.3149C231.808 40.5489 232.042 40.7499 232.33 40.9179C232.624 41.0859 232.954 41.233 233.32 41.359C233.692 41.479 234.07 41.6049 234.454 41.7369C234.844 41.869 235.222 42.019 235.588 42.187C235.96 42.349 236.29 42.5559 236.578 42.8079C236.872 43.0599 237.106 43.369 237.28 43.735C237.46 44.101 237.55 44.5509 237.55 45.0849C237.55 45.6489 237.454 46.18 237.262 46.678C237.07 47.17 236.788 47.599 236.416 47.965C236.05 48.331 235.597 48.6189 235.057 48.8289C234.523 49.0389 233.914 49.144 233.23 49.144C232.396 49.144 231.634 48.994 230.944 48.694C230.26 48.388 229.675 47.9769 229.189 47.4609L229.693 46.6329C229.741 46.5669 229.798 46.513 229.864 46.471C229.936 46.423 230.014 46.3989 230.098 46.3989C230.224 46.3989 230.368 46.4679 230.53 46.6059C230.692 46.7379 230.893 46.885 231.133 47.047C231.379 47.209 231.673 47.359 232.015 47.497C232.363 47.629 232.786 47.695 233.284 47.695C233.698 47.695 234.067 47.6379 234.391 47.5239C234.715 47.4099 234.988 47.251 235.21 47.047C235.438 46.837 235.612 46.5879 235.732 46.2999C235.852 46.0119 235.912 45.691 235.912 45.337C235.912 44.947 235.822 44.6289 235.642 44.3829C235.468 44.1309 235.237 43.9209 234.949 43.7529C234.661 43.5849 234.331 43.4439 233.959 43.3299C233.593 43.2099 233.215 43.09 232.825 42.97C232.441 42.844 232.063 42.6999 231.691 42.5379C231.325 42.3759 230.998 42.166 230.71 41.908C230.422 41.65 230.188 41.329 230.008 40.945C229.834 40.555 229.747 40.075 229.747 39.505C229.747 39.049 229.834 38.6079 230.008 38.1819C230.188 37.7559 230.446 37.378 230.782 37.048C231.118 36.718 231.532 36.454 232.024 36.256C232.522 36.058 233.092 35.959 233.734 35.959C234.454 35.959 235.111 36.0729 235.705 36.3009C236.299 36.5289 236.818 36.859 237.262 37.291L236.839 38.1189Z" fill="#5D5D5D"/>
<path d="M248.922 36.103V37.57H244.755V49H243.009V37.57H238.824V36.103H248.922Z" fill="#5D5D5D"/>
<path d="M256.128 47.6139C256.662 47.6139 257.139 47.5239 257.559 47.3439C257.979 47.1639 258.333 46.912 258.621 46.588C258.915 46.264 259.137 45.8769 259.287 45.4269C259.443 44.9769 259.521 44.482 259.521 43.942V36.103H261.258V43.942C261.258 44.686 261.138 45.376 260.898 46.012C260.664 46.648 260.325 47.1999 259.881 47.6679C259.443 48.1299 258.906 48.493 258.27 48.757C257.634 49.021 256.92 49.153 256.128 49.153C255.336 49.153 254.622 49.021 253.986 48.757C253.35 48.493 252.81 48.1299 252.366 47.6679C251.922 47.1999 251.58 46.648 251.34 46.012C251.106 45.376 250.989 44.686 250.989 43.942V36.103H252.726V43.9329C252.726 44.4729 252.801 44.9679 252.951 45.4179C253.107 45.8679 253.329 46.2549 253.617 46.5789C253.911 46.9029 254.268 47.1579 254.688 47.3439C255.114 47.5239 255.594 47.6139 256.128 47.6139Z" fill="#5D5D5D"/>
<path d="M263.13 36.103H264.525C264.681 36.103 264.807 36.1419 264.903 36.2199C264.999 36.2979 265.071 36.3969 265.119 36.5169L268.764 45.616C268.848 45.82 268.923 46.042 268.989 46.282C269.061 46.522 269.13 46.7709 269.196 47.0289C269.25 46.7709 269.307 46.522 269.367 46.282C269.433 46.042 269.508 45.82 269.592 45.616L273.219 36.5169C273.261 36.4149 273.333 36.3219 273.435 36.2379C273.537 36.1479 273.663 36.103 273.813 36.103H275.217L269.961 49H268.386L263.13 36.103Z" fill="#5D5D5D"/>
<path d="M275.778 36.103H277.227C277.383 36.103 277.512 36.1419 277.614 36.2199C277.716 36.2979 277.785 36.3969 277.821 36.5169L280.485 45.4809C280.533 45.6429 280.575 45.8169 280.611 46.0029C280.653 46.1889 280.692 46.384 280.728 46.588C280.77 46.384 280.812 46.1889 280.854 46.0029C280.896 45.8109 280.944 45.6369 280.998 45.4809L284.031 36.5169C284.067 36.4149 284.136 36.3219 284.238 36.2379C284.346 36.1479 284.475 36.103 284.625 36.103H285.129C285.285 36.103 285.411 36.1419 285.507 36.2199C285.609 36.2979 285.681 36.3969 285.723 36.5169L288.738 45.4809C288.846 45.7929 288.942 46.1499 289.026 46.5519C289.062 46.3539 289.095 46.165 289.125 45.985C289.155 45.805 289.194 45.6369 289.242 45.4809L291.915 36.5169C291.945 36.4089 292.011 36.313 292.113 36.229C292.221 36.145 292.35 36.103 292.5 36.103H293.859L289.836 49H288.27L285.003 39.1629C284.937 38.9769 284.877 38.7609 284.823 38.5149C284.793 38.6349 284.763 38.752 284.733 38.866C284.709 38.974 284.682 39.0729 284.652 39.1629L281.367 49H279.801L275.778 36.103Z" fill="#5D5D5D"/>
<path d="M298.909 42.3759L294.652 36.103H296.389C296.515 36.103 296.608 36.124 296.668 36.166C296.728 36.208 296.782 36.268 296.83 36.346L300.196 41.512C300.238 41.386 300.301 41.2479 300.385 41.0979L303.562 36.382C303.616 36.298 303.673 36.2319 303.733 36.1839C303.799 36.1299 303.877 36.103 303.967 36.103H305.632L301.357 42.2949L305.776 49H304.048C303.916 49 303.811 48.967 303.733 48.901C303.661 48.829 303.601 48.751 303.553 48.667L300.097 43.2579C300.055 43.3839 300.001 43.504 299.935 43.618L296.569 48.667C296.515 48.751 296.452 48.829 296.38 48.901C296.314 48.967 296.218 49 296.092 49H294.472L298.909 42.3759Z" fill="#5D5D5D"/>
<path d="M312.806 43.8699V49H311.069V43.8699L306.344 36.103H307.874C308.03 36.103 308.153 36.1419 308.243 36.2199C308.333 36.2979 308.411 36.3939 308.477 36.5079L311.429 41.521C311.549 41.731 311.648 41.9289 311.726 42.1149C311.81 42.3009 311.885 42.4839 311.951 42.6639C312.017 42.4779 312.089 42.2919 312.167 42.1059C312.245 41.9199 312.344 41.725 312.464 41.521L315.407 36.5079C315.461 36.4119 315.533 36.3219 315.623 36.2379C315.719 36.1479 315.842 36.103 315.992 36.103H317.54L312.806 43.8699Z" fill="#5D5D5D"/>
<path d="M328.501 36.103V36.7509C328.501 36.955 328.438 37.147 328.312 37.327L321.013 47.5779H328.375V49H318.727V48.3159C318.727 48.1359 318.784 47.965 318.898 47.803L326.206 37.5249H319.069V36.103H328.501Z" fill="#5D5D5D"/>
<path d="M7.87487 70H7.16387C7.00787 70 6.88187 69.9759 6.78587 69.9279C6.68987 69.8799 6.62687 69.7779 6.59687 69.6219L6.41687 68.7759C6.17687 68.9919 5.94287 69.1869 5.71487 69.3609C5.48687 69.5289 5.24687 69.673 4.99487 69.793C4.74287 69.907 4.47287 69.9939 4.18487 70.0539C3.90287 70.1139 3.58787 70.144 3.23987 70.144C2.88587 70.144 2.55287 70.096 2.24087 70C1.93487 69.898 1.66787 69.7479 1.43987 69.5499C1.21187 69.3519 1.02887 69.1029 0.890871 68.8029C0.758871 68.4969 0.692871 68.137 0.692871 67.723C0.692871 67.363 0.791871 67.018 0.989871 66.688C1.18787 66.352 1.50587 66.055 1.94387 65.797C2.38787 65.539 2.96687 65.329 3.68087 65.167C4.39487 64.999 5.26787 64.903 6.29987 64.879V64.1679C6.29987 63.4599 6.14687 62.9259 5.84087 62.5659C5.54087 62.1999 5.09387 62.0169 4.49987 62.0169C4.10987 62.0169 3.77987 62.0679 3.50987 62.1699C3.24587 62.2659 3.01487 62.3769 2.81687 62.5029C2.62487 62.6229 2.45687 62.7339 2.31287 62.8359C2.17487 62.9319 2.03687 62.9799 1.89887 62.9799C1.79087 62.9799 1.69487 62.9529 1.61087 62.8989C1.53287 62.8389 1.46987 62.7669 1.42187 62.6829L1.13387 62.1699C1.63787 61.6839 2.18087 61.321 2.76287 61.081C3.34487 60.841 3.98987 60.721 4.69787 60.721C5.20787 60.721 5.66087 60.8049 6.05687 60.9729C6.45287 61.1409 6.78587 61.3749 7.05587 61.6749C7.32587 61.9749 7.52987 62.338 7.66787 62.764C7.80587 63.19 7.87487 63.6579 7.87487 64.1679V70ZM3.71687 69.019C3.99887 69.019 4.25687 68.992 4.49087 68.938C4.72487 68.878 4.94387 68.797 5.14787 68.695C5.35787 68.587 5.55587 68.458 5.74187 68.308C5.93387 68.158 6.11987 67.987 6.29987 67.795V65.896C5.56187 65.92 4.93487 65.98 4.41887 66.076C3.90287 66.166 3.48287 66.286 3.15887 66.436C2.83487 66.586 2.59787 66.7629 2.44787 66.9669C2.30387 67.1709 2.23187 67.3989 2.23187 67.6509C2.23187 67.8909 2.27087 68.0979 2.34887 68.2719C2.42687 68.4459 2.53187 68.5899 2.66387 68.7039C2.79587 68.8119 2.95187 68.893 3.13187 68.947C3.31187 68.995 3.50687 69.019 3.71687 69.019Z" fill="#5D5D5D"/>
<path d="M10.7159 70V56.743H12.3269V62.1969C12.7049 61.7589 13.1369 61.408 13.6229 61.144C14.1149 60.874 14.6759 60.7389 15.3059 60.7389C15.8339 60.7389 16.3109 60.8379 16.7369 61.0359C17.1629 61.2339 17.5259 61.5309 17.8259 61.9269C18.1259 62.3169 18.3569 62.8029 18.5189 63.3849C18.6809 63.9609 18.7619 64.6269 18.7619 65.3829C18.7619 66.0549 18.6719 66.6819 18.4919 67.2639C18.3119 67.8399 18.0509 68.341 17.7089 68.767C17.3729 69.187 16.9589 69.52 16.4669 69.766C15.9809 70.006 15.4319 70.126 14.8199 70.126C14.2319 70.126 13.7309 70.012 13.3169 69.784C12.9089 69.556 12.5519 69.2379 12.2459 68.8299L12.1649 69.658C12.1169 69.886 11.9789 70 11.7509 70H10.7159ZM14.7839 62.0169C14.2619 62.0169 13.8029 62.1369 13.4069 62.3769C13.0169 62.6169 12.6569 62.956 12.3269 63.394V67.8039C12.6149 68.1999 12.9329 68.479 13.2809 68.641C13.6349 68.803 14.0279 68.8839 14.4599 68.8839C15.3119 68.8839 15.9659 68.581 16.4219 67.975C16.8779 67.369 17.1059 66.5049 17.1059 65.3829C17.1059 64.7889 17.0519 64.279 16.9439 63.853C16.8419 63.427 16.6919 63.0789 16.4939 62.8089C16.2959 62.5329 16.0529 62.332 15.7649 62.206C15.4769 62.08 15.1499 62.0169 14.7839 62.0169Z" fill="#5D5D5D"/>
<path d="M27.2956 62.5029C27.2476 62.5689 27.1996 62.6199 27.1516 62.6559C27.1036 62.6919 27.0346 62.7099 26.9446 62.7099C26.8546 62.7099 26.7556 62.674 26.6476 62.602C26.5456 62.524 26.4136 62.4399 26.2516 62.3499C26.0896 62.2599 25.8916 62.1789 25.6576 62.1069C25.4296 62.0289 25.1476 61.9899 24.8116 61.9899C24.3676 61.9899 23.9746 62.0709 23.6326 62.2329C23.2906 62.3889 23.0026 62.617 22.7686 62.917C22.5406 63.217 22.3666 63.58 22.2466 64.006C22.1326 64.432 22.0756 64.909 22.0756 65.437C22.0756 65.989 22.1386 66.4809 22.2646 66.9129C22.3906 67.3389 22.5676 67.699 22.7956 67.993C23.0236 68.281 23.2996 68.503 23.6236 68.659C23.9536 68.809 24.3226 68.8839 24.7306 68.8839C25.1206 68.8839 25.4416 68.8389 25.6936 68.7489C25.9456 68.6529 26.1556 68.548 26.3236 68.434C26.4916 68.32 26.6296 68.218 26.7376 68.128C26.8456 68.032 26.9536 67.9839 27.0616 67.9839C27.1996 67.9839 27.3016 68.0349 27.3676 68.1369L27.8176 68.7219C27.4216 69.2079 26.9266 69.565 26.3326 69.793C25.7386 70.015 25.1116 70.126 24.4516 70.126C23.8816 70.126 23.3506 70.021 22.8586 69.811C22.3726 69.601 21.9496 69.2979 21.5896 68.9019C21.2296 68.4999 20.9446 68.0079 20.7346 67.4259C20.5306 66.8439 20.4286 66.181 20.4286 65.437C20.4286 64.759 20.5216 64.132 20.7076 63.556C20.8996 62.98 21.1756 62.4849 21.5356 62.0709C21.9016 61.6509 22.3516 61.324 22.8856 61.09C23.4196 60.856 24.0316 60.7389 24.7216 60.7389C25.3576 60.7389 25.9216 60.844 26.4136 61.054C26.9056 61.258 27.3406 61.5489 27.7186 61.9269L27.2956 62.5029Z" fill="#5D5D5D"/>
<path d="M36.256 70C36.028 70 35.884 69.889 35.824 69.667L35.68 68.56C35.29 69.034 34.843 69.4149 34.339 69.7029C33.841 69.9849 33.268 70.126 32.62 70.126C32.098 70.126 31.624 70.0269 31.198 69.8289C30.772 69.6249 30.409 69.328 30.109 68.938C29.809 68.548 29.578 68.0619 29.416 67.4799C29.254 66.8979 29.173 66.229 29.173 65.473C29.173 64.801 29.263 64.1769 29.443 63.6009C29.623 63.0189 29.881 62.515 30.217 62.089C30.559 61.663 30.973 61.33 31.459 61.09C31.945 60.844 32.497 60.721 33.115 60.721C33.673 60.721 34.15 60.8169 34.546 61.0089C34.942 61.1949 35.296 61.4589 35.608 61.8009V56.743H37.2099V70H36.256ZM33.151 68.8299C33.673 68.8299 34.129 68.7099 34.519 68.4699C34.915 68.2299 35.278 67.8909 35.608 67.4529V63.0429C35.314 62.6469 34.99 62.371 34.636 62.215C34.288 62.053 33.901 61.972 33.475 61.972C32.623 61.972 31.969 62.275 31.513 62.881C31.057 63.487 30.829 64.351 30.829 65.473C30.829 66.067 30.88 66.577 30.982 67.003C31.084 67.423 31.234 67.771 31.432 68.047C31.63 68.317 31.873 68.515 32.161 68.641C32.449 68.767 32.779 68.8299 33.151 68.8299Z" fill="#5D5D5D"/>
<path d="M43.8626 60.7389C44.4086 60.7389 44.9126 60.832 45.3746 61.018C45.8366 61.198 46.2356 61.462 46.5716 61.81C46.9076 62.152 47.1686 62.578 47.3546 63.088C47.5466 63.592 47.6426 64.1679 47.6426 64.8159C47.6426 65.0679 47.6156 65.2359 47.5616 65.3199C47.5076 65.4039 47.4056 65.446 47.2556 65.446H41.1896C41.2016 66.022 41.2796 66.523 41.4236 66.949C41.5676 67.375 41.7656 67.732 42.0176 68.02C42.2696 68.302 42.5696 68.515 42.9176 68.659C43.2656 68.797 43.6556 68.866 44.0876 68.866C44.4896 68.866 44.8346 68.8209 45.1226 68.7309C45.4166 68.6349 45.6686 68.5329 45.8786 68.4249C46.0886 68.3169 46.2626 68.218 46.4006 68.128C46.5446 68.032 46.6676 67.9839 46.7696 67.9839C46.9016 67.9839 47.0036 68.0349 47.0756 68.1369L47.5256 68.7219C47.3276 68.9619 47.0906 69.172 46.8146 69.352C46.5386 69.526 46.2416 69.67 45.9236 69.784C45.6116 69.898 45.2876 69.9819 44.9516 70.0359C44.6156 70.0959 44.2826 70.126 43.9526 70.126C43.3226 70.126 42.7406 70.021 42.2066 69.811C41.6786 69.595 41.2196 69.283 40.8296 68.875C40.4456 68.461 40.1456 67.9509 39.9296 67.3449C39.7136 66.7389 39.6056 66.043 39.6056 65.257C39.6056 64.621 39.7016 64.0269 39.8936 63.4749C40.0916 62.9229 40.3736 62.4459 40.7396 62.0439C41.1056 61.6359 41.5526 61.318 42.0806 61.09C42.6086 60.856 43.2026 60.7389 43.8626 60.7389ZM43.8986 61.9179C43.1246 61.9179 42.5156 62.1429 42.0716 62.5929C41.6276 63.0369 41.3516 63.6549 41.2436 64.4469H46.2026C46.2026 64.0749 46.1516 63.736 46.0496 63.43C45.9476 63.118 45.7976 62.8509 45.5996 62.6289C45.4016 62.4009 45.1586 62.2269 44.8706 62.1069C44.5886 61.9809 44.2646 61.9179 43.8986 61.9179Z" fill="#5D5D5D"/>
<path d="M50.4131 70V62.2509L49.4051 62.1339C49.2791 62.1039 49.1741 62.059 49.0901 61.999C49.0121 61.933 48.9731 61.84 48.9731 61.72V61.063H50.4131V60.181C50.4131 59.659 50.4851 59.1969 50.6291 58.7949C50.7791 58.3869 50.9891 58.045 51.2591 57.769C51.5351 57.487 51.8651 57.274 52.2491 57.13C52.6331 56.986 53.0651 56.9139 53.5451 56.9139C53.9531 56.9139 54.3311 56.9739 54.6791 57.0939L54.6431 57.895C54.6371 58.015 54.5861 58.087 54.4901 58.111C54.3941 58.135 54.2591 58.1469 54.0851 58.1469H53.8061C53.5301 58.1469 53.2781 58.183 53.0501 58.255C52.8281 58.327 52.6361 58.4439 52.4741 58.6059C52.3121 58.7679 52.1861 58.9809 52.0961 59.2449C52.0121 59.5089 51.9701 59.8359 51.9701 60.2259V61.063H54.6071V62.2239H52.0241V70H50.4131Z" fill="#5D5D5D"/>
<path d="M59.5465 60.7299C59.9425 60.7299 60.3115 60.7749 60.6535 60.8649C61.0015 60.9489 61.3165 61.075 61.5985 61.243H64.0735V61.8369C64.0735 62.0349 63.9475 62.161 63.6955 62.215L62.6605 62.359C62.8645 62.749 62.9665 63.1839 62.9665 63.6639C62.9665 64.1079 62.8795 64.513 62.7055 64.879C62.5375 65.239 62.3005 65.548 61.9945 65.806C61.6945 66.064 61.3345 66.2619 60.9145 66.3999C60.5005 66.5379 60.0445 66.6069 59.5465 66.6069C59.1205 66.6069 58.7185 66.5559 58.3405 66.4539C58.1485 66.5739 58.0015 66.703 57.8995 66.841C57.8035 66.979 57.7555 67.1139 57.7555 67.2459C57.7555 67.4619 57.8425 67.627 58.0165 67.741C58.1905 67.849 58.4215 67.927 58.7095 67.975C58.9975 68.023 59.3245 68.0529 59.6905 68.0649C60.0565 68.0769 60.4285 68.098 60.8065 68.128C61.1905 68.152 61.5655 68.1969 61.9315 68.2629C62.2975 68.3289 62.6245 68.437 62.9125 68.587C63.2005 68.737 63.4315 68.9439 63.6055 69.2079C63.7795 69.4719 63.8665 69.8139 63.8665 70.2339C63.8665 70.6239 63.7675 71.002 63.5695 71.368C63.3775 71.734 63.0985 72.058 62.7325 72.34C62.3665 72.628 61.9195 72.8559 61.3915 73.0239C60.8635 73.1979 60.2665 73.285 59.6005 73.285C58.9345 73.285 58.3495 73.219 57.8455 73.087C57.3475 72.955 56.9335 72.778 56.6035 72.556C56.2735 72.334 56.0245 72.076 55.8565 71.782C55.6945 71.494 55.6135 71.1909 55.6135 70.8729C55.6135 70.4229 55.7545 70.0419 56.0365 69.7299C56.3245 69.4119 56.7175 69.16 57.2155 68.974C56.9575 68.854 56.7505 68.6949 56.5945 68.4969C56.4445 68.2929 56.3695 68.023 56.3695 67.687C56.3695 67.555 56.3935 67.42 56.4415 67.282C56.4895 67.138 56.5615 66.9969 56.6575 66.8589C56.7595 66.7209 56.8825 66.589 57.0265 66.463C57.1705 66.337 57.3385 66.226 57.5305 66.13C57.0805 65.878 56.7265 65.545 56.4685 65.131C56.2165 64.711 56.0905 64.2219 56.0905 63.6639C56.0905 63.2199 56.1745 62.818 56.3425 62.458C56.5165 62.092 56.7565 61.7829 57.0625 61.5309C57.3685 61.2729 57.7315 61.075 58.1515 60.937C58.5775 60.799 59.0425 60.7299 59.5465 60.7299ZM62.3905 70.4949C62.3905 70.2669 62.3275 70.084 62.2015 69.946C62.0755 69.808 61.9045 69.703 61.6885 69.631C61.4725 69.553 61.2235 69.496 60.9415 69.46C60.6595 69.424 60.3625 69.3999 60.0505 69.3879C59.7385 69.3699 59.4205 69.352 59.0965 69.334C58.7725 69.316 58.4635 69.2829 58.1695 69.2349C57.8275 69.3969 57.5485 69.5949 57.3325 69.8289C57.1225 70.0629 57.0175 70.3419 57.0175 70.6659C57.0175 70.8699 57.0685 71.0589 57.1705 71.2329C57.2785 71.4129 57.4405 71.5659 57.6565 71.6919C57.8725 71.8239 58.1425 71.9259 58.4665 71.9979C58.7965 72.0759 59.1835 72.115 59.6275 72.115C60.0595 72.115 60.4465 72.0759 60.7885 71.9979C61.1305 71.9199 61.4185 71.8089 61.6525 71.6649C61.8925 71.5209 62.0755 71.3499 62.2015 71.1519C62.3275 70.9539 62.3905 70.7349 62.3905 70.4949ZM59.5465 65.545C59.8705 65.545 60.1555 65.5 60.4015 65.41C60.6535 65.32 60.8635 65.194 61.0315 65.032C61.1995 64.87 61.3255 64.678 61.4095 64.456C61.4935 64.228 61.5355 63.979 61.5355 63.709C61.5355 63.151 61.3645 62.7069 61.0225 62.3769C60.6865 62.0469 60.1945 61.882 59.5465 61.882C58.9045 61.882 58.4125 62.0469 58.0705 62.3769C57.7345 62.7069 57.5665 63.151 57.5665 63.709C57.5665 63.979 57.6085 64.228 57.6925 64.456C57.7825 64.678 57.9115 64.87 58.0795 65.032C58.2475 65.194 58.4545 65.32 58.7005 65.41C58.9465 65.5 59.2285 65.545 59.5465 65.545Z" fill="#5D5D5D"/>
<path d="M66.0309 70V56.743H67.6329V62.1069C68.0229 61.6929 68.4549 61.363 68.9289 61.117C69.4029 60.865 69.9489 60.7389 70.5669 60.7389C71.0649 60.7389 71.5029 60.823 71.8809 60.991C72.2649 61.153 72.5829 61.387 72.8349 61.693C73.0929 61.993 73.2879 62.356 73.4199 62.782C73.5519 63.208 73.6179 63.679 73.6179 64.195V70H72.0159V64.195C72.0159 63.505 71.8569 62.9709 71.5389 62.5929C71.2269 62.2089 70.7469 62.0169 70.0989 62.0169C69.6249 62.0169 69.1809 62.131 68.7669 62.359C68.3589 62.587 67.9809 62.8959 67.6329 63.2859V70H66.0309Z" fill="#5D5D5D"/>
<path d="M78.1749 60.8829V70H76.5729V60.8829H78.1749ZM78.5349 58.021C78.5349 58.177 78.5019 58.3239 78.4359 58.4619C78.3759 58.5939 78.2919 58.7139 78.1839 58.8219C78.0819 58.9239 77.9619 59.0049 77.8239 59.0649C77.6859 59.1249 77.5389 59.1549 77.3829 59.1549C77.2269 59.1549 77.0799 59.1249 76.9419 59.0649C76.8099 59.0049 76.6899 58.9239 76.5819 58.8219C76.4799 58.7139 76.3989 58.5939 76.3389 58.4619C76.2789 58.3239 76.2489 58.177 76.2489 58.021C76.2489 57.865 76.2789 57.7179 76.3389 57.5799C76.3989 57.4359 76.4799 57.3129 76.5819 57.2109C76.6899 57.1029 76.8099 57.019 76.9419 56.959C77.0799 56.899 77.2269 56.8689 77.3829 56.8689C77.5389 56.8689 77.6859 56.899 77.8239 56.959C77.9619 57.019 78.0819 57.1029 78.1839 57.2109C78.2919 57.3129 78.3759 57.4359 78.4359 57.5799C78.5019 57.7179 78.5349 57.865 78.5349 58.021Z" fill="#5D5D5D"/>
<path d="M83.1403 60.8829V70.6749C83.1403 71.0409 83.0923 71.3799 82.9963 71.6919C82.9003 72.0099 82.7473 72.286 82.5373 72.52C82.3333 72.754 82.0663 72.9369 81.7363 73.0689C81.4123 73.2069 81.0223 73.2759 80.5663 73.2759C80.3683 73.2759 80.1883 73.2609 80.0263 73.2309C79.8643 73.2009 79.7023 73.1559 79.5403 73.0959L79.6123 72.2319C79.6243 72.1539 79.6513 72.1029 79.6933 72.0789C79.7353 72.0609 79.8013 72.0519 79.8913 72.0519C79.9393 72.0519 79.9903 72.0519 80.0443 72.0519C80.0983 72.0579 80.1643 72.061 80.2423 72.061C80.7103 72.061 81.0433 71.95 81.2413 71.728C81.4393 71.512 81.5383 71.1609 81.5383 70.6749V60.8829H83.1403ZM83.5003 58.021C83.5003 58.177 83.4673 58.3239 83.4013 58.4619C83.3413 58.5939 83.2573 58.7139 83.1493 58.8219C83.0473 58.9239 82.9273 59.0049 82.7893 59.0649C82.6513 59.1249 82.5043 59.1549 82.3483 59.1549C82.1923 59.1549 82.0453 59.1249 81.9073 59.0649C81.7753 59.0049 81.6553 58.9239 81.5473 58.8219C81.4453 58.7139 81.3643 58.5939 81.3043 58.4619C81.2443 58.3239 81.2143 58.177 81.2143 58.021C81.2143 57.865 81.2443 57.7179 81.3043 57.5799C81.3643 57.4359 81.4453 57.3129 81.5473 57.2109C81.6553 57.1029 81.7753 57.019 81.9073 56.959C82.0453 56.899 82.1923 56.8689 82.3483 56.8689C82.5043 56.8689 82.6513 56.899 82.7893 56.959C82.9273 57.019 83.0473 57.1029 83.1493 57.2109C83.2573 57.3129 83.3413 57.4359 83.4013 57.5799C83.4673 57.7179 83.5003 57.865 83.5003 58.021Z" fill="#5D5D5D"/>
<path d="M87.9536 56.743V64.546H88.3676C88.4876 64.546 88.5866 64.5309 88.6646 64.5009C88.7426 64.4649 88.8296 64.3959 88.9256 64.2939L91.8056 61.207C91.8956 61.111 91.9856 61.0329 92.0756 60.9729C92.1656 60.913 92.2856 60.8829 92.4356 60.8829H93.8936L90.5366 64.456C90.4526 64.558 90.3686 64.648 90.2846 64.726C90.2066 64.804 90.1166 64.873 90.0146 64.933C90.1226 65.005 90.2186 65.089 90.3026 65.185C90.3926 65.275 90.4766 65.38 90.5546 65.5L94.1186 70H92.6786C92.5466 70 92.4326 69.9759 92.3366 69.9279C92.2466 69.8739 92.1596 69.793 92.0756 69.685L89.0786 65.95C88.9886 65.824 88.8986 65.7429 88.8086 65.7069C88.7186 65.6649 88.5836 65.644 88.4036 65.644H87.9536V70H86.3426V56.743H87.9536Z" fill="#5D5D5D"/>
<path d="M97.8701 56.743V70H96.2681V56.743H97.8701Z" fill="#5D5D5D"/>
<path d="M101.054 70V60.8829H102.008C102.236 60.8829 102.38 60.994 102.44 61.216L102.557 62.152C102.893 61.738 103.268 61.3989 103.682 61.1349C104.102 60.8709 104.588 60.7389 105.14 60.7389C105.758 60.7389 106.256 60.9099 106.634 61.2519C107.018 61.5939 107.294 62.056 107.462 62.638C107.588 62.308 107.753 62.023 107.957 61.783C108.167 61.543 108.401 61.3449 108.659 61.1889C108.917 61.0329 109.19 60.919 109.478 60.847C109.772 60.775 110.069 60.7389 110.369 60.7389C110.849 60.7389 111.275 60.8169 111.647 60.9729C112.025 61.1229 112.343 61.345 112.601 61.639C112.865 61.933 113.066 62.296 113.204 62.728C113.342 63.154 113.411 63.643 113.411 64.195V70H111.809V64.195C111.809 63.4809 111.653 62.941 111.341 62.575C111.029 62.203 110.576 62.0169 109.982 62.0169C109.718 62.0169 109.466 62.0649 109.226 62.1609C108.992 62.2509 108.785 62.3859 108.605 62.5659C108.425 62.7459 108.281 62.974 108.173 63.25C108.071 63.52 108.02 63.835 108.02 64.195V70H106.418V64.195C106.418 63.463 106.271 62.9169 105.977 62.5569C105.683 62.1969 105.254 62.0169 104.69 62.0169C104.294 62.0169 103.925 62.1249 103.583 62.341C103.247 62.5509 102.938 62.8389 102.656 63.2049V70H101.054Z" fill="#5D5D5D"/>
<path d="M116.197 70V60.8829H117.151C117.379 60.8829 117.523 60.994 117.583 61.216L117.709 62.206C118.105 61.768 118.546 61.414 119.032 61.144C119.524 60.874 120.091 60.7389 120.733 60.7389C121.231 60.7389 121.669 60.823 122.047 60.991C122.431 61.153 122.749 61.387 123.001 61.693C123.259 61.993 123.454 62.356 123.586 62.782C123.718 63.208 123.784 63.679 123.784 64.195V70H122.182V64.195C122.182 63.505 122.023 62.9709 121.705 62.5929C121.393 62.2089 120.913 62.0169 120.265 62.0169C119.791 62.0169 119.347 62.131 118.933 62.359C118.525 62.587 118.147 62.8959 117.799 63.2859V70H116.197Z" fill="#5D5D5D"/>
<path d="M130.249 60.7389C130.915 60.7389 131.515 60.8499 132.049 61.0719C132.589 61.2939 133.045 61.6089 133.417 62.0169C133.795 62.4249 134.083 62.9199 134.281 63.5019C134.485 64.0779 134.587 64.723 134.587 65.437C134.587 66.157 134.485 66.805 134.281 67.381C134.083 67.957 133.795 68.4489 133.417 68.8569C133.045 69.2649 132.589 69.5799 132.049 69.8019C131.515 70.0179 130.915 70.126 130.249 70.126C129.583 70.126 128.98 70.0179 128.44 69.8019C127.906 69.5799 127.45 69.2649 127.072 68.8569C126.694 68.4489 126.403 67.957 126.199 67.381C125.995 66.805 125.893 66.157 125.893 65.437C125.893 64.723 125.995 64.0779 126.199 63.5019C126.403 62.9199 126.694 62.4249 127.072 62.0169C127.45 61.6089 127.906 61.2939 128.44 61.0719C128.98 60.8499 129.583 60.7389 130.249 60.7389ZM130.249 68.875C131.149 68.875 131.821 68.575 132.265 67.975C132.709 67.369 132.931 66.526 132.931 65.446C132.931 64.36 132.709 63.514 132.265 62.908C131.821 62.302 131.149 61.999 130.249 61.999C129.793 61.999 129.397 62.0769 129.061 62.2329C128.725 62.3889 128.443 62.614 128.215 62.908C127.993 63.202 127.825 63.5649 127.711 63.9969C127.603 64.4229 127.549 64.906 127.549 65.446C127.549 65.986 127.603 66.469 127.711 66.895C127.825 67.321 127.993 67.681 128.215 67.975C128.443 68.263 128.725 68.485 129.061 68.641C129.397 68.797 129.793 68.875 130.249 68.875Z" fill="#5D5D5D"/>
<path d="M136.921 73.087V60.8829H137.875C138.103 60.8829 138.247 60.994 138.307 61.216L138.442 62.2959C138.832 61.8219 139.276 61.441 139.774 61.153C140.278 60.865 140.857 60.721 141.511 60.721C142.033 60.721 142.507 60.823 142.933 61.027C143.359 61.225 143.722 61.5219 144.022 61.9179C144.322 62.3079 144.553 62.7939 144.715 63.3759C144.877 63.9579 144.958 64.6269 144.958 65.3829C144.958 66.0549 144.868 66.6819 144.688 67.2639C144.508 67.8399 144.25 68.341 143.914 68.767C143.578 69.187 143.164 69.52 142.672 69.766C142.186 70.006 141.637 70.126 141.025 70.126C140.461 70.126 139.978 70.0329 139.576 69.8469C139.18 69.6609 138.829 69.3969 138.523 69.0549V73.087H136.921ZM140.98 62.0169C140.458 62.0169 139.999 62.1369 139.603 62.3769C139.213 62.6169 138.853 62.956 138.523 63.394V67.8039C138.817 68.1999 139.138 68.479 139.486 68.641C139.84 68.803 140.233 68.8839 140.665 68.8839C141.511 68.8839 142.162 68.581 142.618 67.975C143.074 67.369 143.302 66.5049 143.302 65.3829C143.302 64.7889 143.248 64.279 143.14 63.853C143.038 63.427 142.888 63.0789 142.69 62.8089C142.492 62.5329 142.249 62.332 141.961 62.206C141.673 62.08 141.346 62.0169 140.98 62.0169Z" fill="#5D5D5D"/>
<path d="M154.583 60.8829V73.087H152.981V68.6499C152.597 69.0939 152.159 69.4509 151.667 69.7209C151.181 69.9909 150.623 70.126 149.993 70.126C149.471 70.126 148.997 70.0269 148.571 69.8289C148.145 69.6249 147.782 69.328 147.482 68.938C147.182 68.548 146.951 68.0619 146.789 67.4799C146.627 66.8979 146.546 66.229 146.546 65.473C146.546 64.801 146.636 64.1769 146.816 63.6009C146.996 63.0189 147.254 62.515 147.59 62.089C147.932 61.663 148.346 61.33 148.832 61.09C149.318 60.844 149.87 60.721 150.488 60.721C151.076 60.721 151.574 60.8259 151.982 61.0359C152.396 61.2459 152.765 61.5429 153.089 61.9269L153.197 61.216C153.257 60.994 153.401 60.8829 153.629 60.8829H154.583ZM150.524 68.8299C151.046 68.8299 151.502 68.7099 151.892 68.4699C152.288 68.2299 152.651 67.8909 152.981 67.4529V63.0429C152.693 62.6589 152.372 62.3859 152.018 62.2239C151.664 62.0559 151.274 61.972 150.848 61.972C149.996 61.972 149.342 62.275 148.886 62.881C148.43 63.487 148.202 64.351 148.202 65.473C148.202 66.067 148.253 66.577 148.355 67.003C148.457 67.423 148.607 67.771 148.805 68.047C149.003 68.317 149.246 68.515 149.534 68.641C149.822 68.767 150.152 68.8299 150.524 68.8299Z" fill="#5D5D5D"/>
<path d="M157.627 70V60.8829H158.545C158.719 60.8829 158.839 60.9159 158.905 60.9819C158.971 61.0479 159.016 61.162 159.04 61.324L159.148 62.7459C159.46 62.1099 159.844 61.6149 160.3 61.2609C160.762 60.9009 161.302 60.721 161.92 60.721C162.172 60.721 162.4 60.751 162.604 60.811C162.808 60.865 162.997 60.9429 163.171 61.0449L162.964 62.242C162.922 62.392 162.829 62.4669 162.685 62.4669C162.601 62.4669 162.472 62.44 162.298 62.386C162.124 62.326 161.881 62.2959 161.569 62.2959C161.011 62.2959 160.543 62.458 160.165 62.782C159.793 63.106 159.481 63.577 159.229 64.195V70H157.627Z" fill="#5D5D5D"/>
<path d="M170.467 62.386C170.395 62.518 170.284 62.584 170.134 62.584C170.044 62.584 169.942 62.551 169.828 62.485C169.714 62.419 169.573 62.347 169.405 62.269C169.243 62.185 169.048 62.1099 168.82 62.0439C168.592 61.9719 168.322 61.936 168.01 61.936C167.74 61.936 167.497 61.9719 167.281 62.0439C167.065 62.1099 166.879 62.2029 166.723 62.3229C166.573 62.4429 166.456 62.5839 166.372 62.7459C166.294 62.9019 166.255 63.0729 166.255 63.2589C166.255 63.4929 166.321 63.6879 166.453 63.8439C166.591 63.9999 166.771 64.135 166.993 64.249C167.215 64.363 167.467 64.465 167.749 64.555C168.031 64.639 168.319 64.732 168.613 64.834C168.913 64.93 169.204 65.038 169.486 65.158C169.768 65.278 170.02 65.4279 170.242 65.6079C170.464 65.7879 170.641 66.0099 170.773 66.2739C170.911 66.5319 170.98 66.844 170.98 67.21C170.98 67.63 170.905 68.02 170.755 68.38C170.605 68.734 170.383 69.043 170.089 69.307C169.795 69.565 169.435 69.769 169.009 69.919C168.583 70.069 168.091 70.144 167.533 70.144C166.897 70.144 166.321 70.042 165.805 69.838C165.289 69.628 164.851 69.3609 164.491 69.0369L164.869 68.4249C164.917 68.3469 164.974 68.2869 165.04 68.2449C165.106 68.2029 165.193 68.182 165.301 68.182C165.409 68.182 165.523 68.224 165.643 68.308C165.763 68.392 165.907 68.485 166.075 68.587C166.249 68.689 166.456 68.782 166.696 68.866C166.942 68.95 167.248 68.992 167.614 68.992C167.926 68.992 168.199 68.953 168.433 68.875C168.667 68.791 168.862 68.68 169.018 68.542C169.174 68.404 169.288 68.2449 169.36 68.0649C169.438 67.8849 169.477 67.693 169.477 67.489C169.477 67.237 169.408 67.03 169.27 66.868C169.138 66.7 168.961 66.559 168.739 66.445C168.517 66.325 168.262 66.2229 167.974 66.1389C167.692 66.0489 167.401 65.9559 167.101 65.8599C166.807 65.7639 166.516 65.6559 166.228 65.5359C165.946 65.4099 165.694 65.2539 165.472 65.0679C165.25 64.8819 165.07 64.6539 164.932 64.3839C164.8 64.1079 164.734 63.7749 164.734 63.3849C164.734 63.0369 164.806 62.704 164.95 62.386C165.094 62.062 165.304 61.78 165.58 61.54C165.856 61.294 166.195 61.099 166.597 60.955C166.999 60.811 167.458 60.7389 167.974 60.7389C168.574 60.7389 169.111 60.835 169.585 61.027C170.065 61.213 170.479 61.4709 170.827 61.8009L170.467 62.386Z" fill="#5D5D5D"/>
<path d="M176.174 70.144C175.454 70.144 174.899 69.9429 174.509 69.5409C174.125 69.1389 173.933 68.5599 173.933 67.8039V62.2239H172.835C172.739 62.2239 172.658 62.197 172.592 62.143C172.526 62.083 172.493 61.993 172.493 61.873V61.234L173.987 61.0449L174.356 58.228C174.368 58.138 174.407 58.066 174.473 58.012C174.539 57.952 174.623 57.922 174.725 57.922H175.535V61.063H178.145V62.2239H175.535V67.696C175.535 68.08 175.628 68.3649 175.814 68.5509C176 68.7369 176.24 68.8299 176.534 68.8299C176.702 68.8299 176.846 68.809 176.966 68.767C177.092 68.719 177.2 68.668 177.29 68.614C177.38 68.56 177.455 68.5119 177.515 68.4699C177.581 68.4219 177.638 68.3979 177.686 68.3979C177.77 68.3979 177.845 68.4489 177.911 68.5509L178.379 69.3159C178.103 69.5739 177.77 69.7779 177.38 69.9279C176.99 70.0719 176.588 70.144 176.174 70.144Z" fill="#5D5D5D"/>
<path d="M181.872 60.8829V66.697C181.872 67.387 182.031 67.921 182.349 68.299C182.667 68.677 183.147 68.866 183.789 68.866C184.257 68.866 184.698 68.755 185.112 68.533C185.526 68.311 185.907 68.0019 186.255 67.6059V60.8829H187.857V70H186.903C186.675 70 186.531 69.889 186.471 69.667L186.345 68.686C185.949 69.124 185.505 69.4779 185.013 69.7479C184.521 70.0119 183.957 70.144 183.321 70.144C182.823 70.144 182.382 70.0629 181.998 69.9009C181.62 69.7329 181.302 69.499 181.044 69.199C180.786 68.899 180.591 68.5359 180.459 68.1099C180.333 67.6839 180.27 67.213 180.27 66.697V60.8829H181.872Z" fill="#5D5D5D"/>
<path d="M189.696 60.8829H191.01C191.136 60.8829 191.241 60.9159 191.325 60.9819C191.409 61.0479 191.469 61.126 191.505 61.216L193.818 67.084C193.902 67.3 193.968 67.5159 194.016 67.7319C194.064 67.9479 194.109 68.1609 194.151 68.3709C194.199 68.1609 194.25 67.9479 194.304 67.7319C194.358 67.5159 194.427 67.3 194.511 67.084L196.851 61.216C196.887 61.12 196.944 61.0419 197.022 60.9819C197.106 60.9159 197.208 60.8829 197.328 60.8829H198.579L194.862 70H193.413L189.696 60.8829Z" fill="#5D5D5D"/>
<path d="M199.231 60.8829H200.491C200.623 60.8829 200.731 60.9159 200.815 60.9819C200.899 61.0479 200.956 61.126 200.986 61.216L202.732 67.084C202.78 67.3 202.825 67.51 202.867 67.714C202.909 67.912 202.945 68.1129 202.975 68.3169C203.023 68.1129 203.077 67.912 203.137 67.714C203.197 67.51 203.26 67.3 203.326 67.084L205.252 61.18C205.282 61.09 205.333 61.015 205.405 60.955C205.483 60.895 205.579 60.8649 205.693 60.8649H206.386C206.506 60.8649 206.605 60.895 206.683 60.955C206.761 61.015 206.815 61.09 206.845 61.18L208.726 67.084C208.792 67.294 208.849 67.5009 208.897 67.7049C208.951 67.9089 209.002 68.11 209.05 68.308C209.08 68.11 209.119 67.903 209.167 67.687C209.215 67.471 209.266 67.27 209.32 67.084L211.102 61.216C211.132 61.12 211.189 61.0419 211.273 60.9819C211.357 60.9159 211.456 60.8829 211.57 60.8829H212.776L209.824 70H208.555C208.399 70 208.291 69.8979 208.231 69.6939L206.215 63.511C206.167 63.373 206.128 63.235 206.098 63.097C206.068 62.953 206.038 62.812 206.008 62.674C205.978 62.812 205.948 62.953 205.918 63.097C205.888 63.241 205.849 63.382 205.801 63.52L203.758 69.6939C203.692 69.8979 203.569 70 203.389 70H202.183L199.231 60.8829Z" fill="#5D5D5D"/>
<path d="M216.693 65.3289L213.624 60.8829H215.163C215.295 60.8829 215.391 60.9039 215.451 60.9459C215.511 60.9879 215.565 61.0479 215.613 61.1259L217.845 64.546C217.899 64.378 217.977 64.21 218.079 64.042L220.041 61.1619C220.101 61.0779 220.161 61.012 220.221 60.964C220.281 60.91 220.356 60.8829 220.446 60.8829H221.922L218.853 65.239L222.048 70H220.509C220.377 70 220.272 69.9669 220.194 69.9009C220.122 69.8289 220.062 69.751 220.014 69.667L217.719 66.0939C217.677 66.2679 217.614 66.424 217.53 66.562L215.406 69.667C215.346 69.751 215.28 69.8289 215.208 69.9009C215.142 69.9669 215.049 70 214.929 70H213.498L216.693 65.3289Z" fill="#5D5D5D"/>
<path d="M226.664 72.6909C226.61 72.8109 226.541 72.907 226.457 72.979C226.379 73.051 226.256 73.087 226.088 73.087H224.9L226.565 69.4689L222.803 60.8829H224.189C224.327 60.8829 224.435 60.919 224.513 60.991C224.591 61.057 224.648 61.132 224.684 61.216L227.123 66.9579C227.177 67.0899 227.222 67.222 227.258 67.354C227.3 67.486 227.336 67.6209 227.366 67.7589C227.408 67.6209 227.45 67.486 227.492 67.354C227.534 67.222 227.582 67.087 227.636 66.949L230.003 61.216C230.039 61.12 230.099 61.0419 230.183 60.9819C230.273 60.9159 230.369 60.8829 230.471 60.8829H231.749L226.664 72.6909Z" fill="#5D5D5D"/>
<path d="M239.925 61.567C239.925 61.681 239.904 61.792 239.862 61.9C239.82 62.002 239.766 62.095 239.7 62.179L234.768 68.7489H239.745V70H232.878V69.334C232.878 69.256 232.896 69.1659 232.932 69.0639C232.974 68.9559 233.031 68.8539 233.103 68.7579L238.062 62.143H233.157V60.8829H239.925V61.567Z" fill="#5D5D5D"/>
<path d="M243.505 68.7759H246.277V59.9829C246.277 59.7189 246.286 59.4519 246.304 59.1819L244 61.153C243.94 61.201 243.88 61.2369 243.82 61.2609C243.76 61.2789 243.703 61.2879 243.649 61.2879C243.559 61.2879 243.478 61.27 243.406 61.234C243.334 61.192 243.28 61.144 243.244 61.09L242.74 60.3969L246.574 57.076H247.879V68.7759H250.417V70H243.505V68.7759Z" fill="#5D5D5D"/>
<path d="M257.133 56.959C257.679 56.959 258.189 57.0399 258.663 57.202C259.137 57.3639 259.545 57.6009 259.887 57.9129C260.235 58.2189 260.508 58.5939 260.706 59.0379C260.904 59.4819 261.003 59.9859 261.003 60.5499C261.003 61.0299 260.931 61.474 260.787 61.882C260.643 62.29 260.448 62.683 260.202 63.061C259.956 63.433 259.671 63.796 259.347 64.15C259.029 64.498 258.69 64.8549 258.33 65.2209L254.937 68.695C255.177 68.629 255.42 68.578 255.666 68.542C255.912 68.5 256.149 68.479 256.377 68.479H260.697C260.871 68.479 261.009 68.53 261.111 68.632C261.213 68.734 261.264 68.866 261.264 69.028V70H252.66V69.451C252.66 69.337 252.681 69.22 252.723 69.1C252.771 68.98 252.846 68.869 252.948 68.767L257.079 64.618C257.421 64.27 257.733 63.937 258.015 63.6189C258.297 63.295 258.537 62.9709 258.735 62.6469C258.939 62.3229 259.095 61.996 259.203 61.666C259.311 61.33 259.365 60.9729 259.365 60.5949C259.365 60.2169 259.305 59.887 259.185 59.6049C259.065 59.317 258.9 59.08 258.69 58.894C258.48 58.708 258.234 58.5699 257.952 58.4799C257.67 58.384 257.367 58.3359 257.043 58.3359C256.719 58.3359 256.419 58.384 256.143 58.4799C255.867 58.576 255.621 58.7109 255.405 58.8849C255.195 59.0529 255.015 59.2539 254.865 59.4879C254.721 59.7219 254.619 59.98 254.559 60.262C254.511 60.436 254.439 60.5619 254.343 60.6399C254.247 60.7179 254.121 60.757 253.965 60.757C253.935 60.757 253.902 60.757 253.866 60.757C253.836 60.751 253.8 60.7449 253.758 60.7389L252.921 60.5949C253.005 60.0069 253.167 59.4879 253.407 59.0379C253.647 58.5819 253.95 58.201 254.316 57.895C254.688 57.589 255.111 57.358 255.585 57.202C256.065 57.0399 256.581 56.959 257.133 56.959Z" fill="#5D5D5D"/>
<path d="M268.105 56.959C268.651 56.959 269.155 57.037 269.617 57.193C270.079 57.349 270.475 57.5709 270.805 57.8589C271.141 58.1469 271.402 58.4949 271.588 58.903C271.774 59.311 271.867 59.764 271.867 60.262C271.867 60.67 271.813 61.036 271.705 61.36C271.603 61.678 271.453 61.96 271.255 62.206C271.063 62.446 270.829 62.65 270.553 62.818C270.277 62.986 269.968 63.1209 269.626 63.2229C270.466 63.4449 271.096 63.817 271.516 64.339C271.942 64.861 272.155 65.5149 272.155 66.3009C272.155 66.8949 272.041 67.429 271.813 67.903C271.591 68.377 271.285 68.782 270.895 69.118C270.505 69.448 270.049 69.7029 269.527 69.8829C269.011 70.0569 268.456 70.144 267.862 70.144C267.178 70.144 266.593 70.06 266.107 69.892C265.621 69.718 265.21 69.481 264.874 69.181C264.538 68.881 264.262 68.5269 264.046 68.1189C263.83 67.7049 263.647 67.258 263.497 66.778L264.181 66.49C264.307 66.436 264.433 66.409 264.559 66.409C264.679 66.409 264.784 66.436 264.874 66.49C264.97 66.538 265.042 66.616 265.09 66.724C265.102 66.748 265.114 66.7749 265.126 66.8049C265.138 66.8289 265.15 66.8559 265.162 66.8859C265.246 67.0599 265.348 67.2579 265.468 67.4799C265.588 67.6959 265.75 67.8999 265.954 68.0919C266.158 68.2839 266.41 68.4459 266.71 68.5779C267.016 68.7099 267.394 68.7759 267.844 68.7759C268.294 68.7759 268.687 68.704 269.023 68.56C269.365 68.41 269.647 68.2179 269.869 67.9839C270.097 67.7499 270.268 67.489 270.382 67.201C270.496 66.913 270.553 66.6279 270.553 66.3459C270.553 65.9979 270.505 65.68 270.409 65.392C270.319 65.104 270.151 64.855 269.905 64.645C269.665 64.435 269.329 64.27 268.897 64.15C268.471 64.03 267.922 63.97 267.25 63.97V62.8089C267.796 62.8029 268.261 62.7429 268.645 62.6289C269.035 62.5149 269.353 62.3589 269.599 62.1609C269.845 61.9629 270.022 61.726 270.13 61.45C270.244 61.174 270.301 60.868 270.301 60.532C270.301 60.16 270.241 59.8359 270.121 59.5599C270.007 59.2839 269.848 59.0559 269.644 58.8759C269.44 58.696 269.197 58.561 268.915 58.471C268.639 58.381 268.339 58.3359 268.015 58.3359C267.691 58.3359 267.391 58.384 267.115 58.4799C266.839 58.576 266.593 58.7109 266.377 58.8849C266.167 59.0529 265.99 59.2569 265.846 59.4969C265.702 59.7309 265.594 59.986 265.522 60.262C265.474 60.436 265.402 60.5619 265.306 60.6399C265.21 60.7179 265.087 60.757 264.937 60.757C264.907 60.757 264.874 60.757 264.838 60.757C264.808 60.751 264.772 60.7449 264.73 60.7389L263.893 60.5949C263.977 60.0069 264.139 59.4879 264.379 59.0379C264.619 58.5819 264.922 58.201 265.288 57.895C265.66 57.589 266.083 57.358 266.557 57.202C267.037 57.0399 267.553 56.959 268.105 56.959Z" fill="#5D5D5D"/>
<path d="M281.453 65.3469H283.406V66.265C283.406 66.361 283.376 66.4419 283.316 66.5079C283.262 66.5739 283.175 66.6069 283.055 66.6069H281.453V70H280.04V66.6069H274.325C274.205 66.6069 274.1 66.5739 274.01 66.5079C273.926 66.4359 273.872 66.3489 273.848 66.2469L273.686 65.4279L279.959 57.103H281.453V65.3469ZM280.04 60.028C280.04 59.872 280.043 59.7039 280.049 59.5239C280.061 59.3439 280.082 59.158 280.112 58.966L275.423 65.3469H280.04V60.028Z" fill="#5D5D5D"/>
<path d="M292.93 57.805C292.93 58.033 292.858 58.2219 292.714 58.3719C292.57 58.5159 292.327 58.588 291.985 58.588H287.935L287.341 61.972C288.013 61.828 288.634 61.756 289.204 61.756C289.876 61.756 290.467 61.855 290.977 62.053C291.493 62.251 291.925 62.5239 292.273 62.8719C292.621 63.2199 292.882 63.6309 293.056 64.1049C293.236 64.5789 293.326 65.095 293.326 65.653C293.326 66.337 293.206 66.955 292.966 67.507C292.726 68.059 292.396 68.5329 291.976 68.9289C291.562 69.3189 291.073 69.6189 290.509 69.8289C289.945 70.0389 289.336 70.144 288.682 70.144C288.304 70.144 287.941 70.1049 287.593 70.0269C287.245 69.9549 286.921 69.8559 286.621 69.7299C286.321 69.6039 286.042 69.46 285.784 69.298C285.526 69.136 285.298 68.965 285.1 68.785L285.586 68.101C285.694 67.945 285.838 67.867 286.018 67.867C286.132 67.867 286.264 67.9149 286.414 68.0109C286.57 68.1009 286.756 68.2029 286.972 68.3169C287.188 68.4309 287.44 68.536 287.728 68.632C288.022 68.722 288.37 68.767 288.772 68.767C289.222 68.767 289.627 68.6949 289.987 68.5509C290.347 68.4069 290.653 68.2029 290.905 67.9389C291.163 67.6689 291.361 67.348 291.499 66.976C291.637 66.604 291.706 66.187 291.706 65.725C291.706 65.323 291.646 64.96 291.526 64.636C291.412 64.312 291.235 64.0359 290.995 63.8079C290.761 63.5799 290.467 63.403 290.113 63.277C289.759 63.151 289.345 63.088 288.871 63.088C288.547 63.088 288.211 63.1149 287.863 63.1689C287.515 63.2229 287.155 63.31 286.783 63.43L285.775 63.1329L286.819 57.103H292.93V57.805Z" fill="#5D5D5D"/>
<path d="M300.779 62.0979C301.295 62.0979 301.784 62.185 302.246 62.359C302.708 62.527 303.113 62.7759 303.461 63.1059C303.809 63.4299 304.085 63.832 304.289 64.312C304.493 64.786 304.595 65.3289 304.595 65.9409C304.595 66.5349 304.487 67.0869 304.271 67.5969C304.055 68.1069 303.752 68.5509 303.362 68.9289C302.978 69.3069 302.513 69.604 301.967 69.82C301.421 70.036 300.821 70.144 300.167 70.144C299.519 70.144 298.931 70.042 298.403 69.838C297.881 69.628 297.434 69.3339 297.062 68.9559C296.69 68.5719 296.402 68.11 296.198 67.57C296 67.024 295.901 66.415 295.901 65.743C295.901 65.179 296.027 64.579 296.279 63.943C296.531 63.307 296.93 62.6229 297.476 61.8909L300.743 57.4899C300.827 57.3819 300.944 57.2919 301.094 57.2199C301.244 57.1419 301.415 57.103 301.607 57.103H303.029L298.556 62.764C298.862 62.554 299.201 62.392 299.573 62.278C299.945 62.158 300.347 62.0979 300.779 62.0979ZM297.449 66.0219C297.449 66.4359 297.509 66.814 297.629 67.156C297.749 67.498 297.923 67.7919 298.151 68.0379C298.385 68.2839 298.667 68.476 298.997 68.614C299.333 68.746 299.714 68.812 300.14 68.812C300.572 68.812 300.962 68.7429 301.31 68.6049C301.658 68.4669 301.955 68.275 302.201 68.029C302.453 67.783 302.645 67.492 302.777 67.156C302.915 66.82 302.984 66.454 302.984 66.058C302.984 65.638 302.918 65.26 302.786 64.924C302.654 64.5819 302.468 64.294 302.228 64.06C301.988 63.82 301.7 63.637 301.364 63.511C301.028 63.385 300.659 63.3219 300.257 63.3219C299.825 63.3219 299.435 63.397 299.087 63.547C298.739 63.691 298.442 63.8889 298.196 64.1409C297.956 64.3869 297.77 64.675 297.638 65.005C297.512 65.329 297.449 65.6679 297.449 66.0219Z" fill="#5D5D5D"/>
<path d="M315.487 57.103V57.8229C315.487 58.0269 315.463 58.195 315.415 58.327C315.373 58.4589 315.328 58.57 315.28 58.66L309.943 69.433C309.865 69.589 309.757 69.724 309.619 69.838C309.481 69.946 309.295 70 309.061 70H307.918L313.336 59.3619C313.414 59.212 313.492 59.0739 313.57 58.9479C313.654 58.8219 313.747 58.702 313.849 58.588H307.117C307.015 58.588 306.922 58.549 306.838 58.471C306.76 58.387 306.721 58.294 306.721 58.192V57.103H315.487Z" fill="#5D5D5D"/>
<path d="M321.743 70.144C321.101 70.144 320.513 70.06 319.979 69.892C319.445 69.718 318.986 69.472 318.602 69.154C318.218 68.836 317.921 68.452 317.711 68.002C317.501 67.546 317.396 67.0359 317.396 66.4719C317.396 65.6439 317.612 64.963 318.044 64.429C318.476 63.889 319.094 63.505 319.898 63.277C319.22 63.025 318.707 62.65 318.359 62.152C318.017 61.648 317.846 61.048 317.846 60.352C317.846 59.878 317.939 59.434 318.125 59.02C318.311 58.606 318.575 58.2459 318.917 57.9399C319.259 57.6339 319.667 57.3939 320.141 57.2199C320.621 57.0459 321.155 56.959 321.743 56.959C322.325 56.959 322.856 57.0459 323.336 57.2199C323.816 57.3939 324.227 57.6339 324.569 57.9399C324.911 58.2459 325.175 58.606 325.361 59.02C325.547 59.434 325.64 59.878 325.64 60.352C325.64 61.048 325.466 61.648 325.118 62.152C324.77 62.65 324.26 63.025 323.588 63.277C324.392 63.505 325.01 63.889 325.442 64.429C325.874 64.963 326.09 65.6439 326.09 66.4719C326.09 67.0359 325.982 67.546 325.766 68.002C325.556 68.452 325.259 68.836 324.875 69.154C324.497 69.472 324.041 69.718 323.507 69.892C322.973 70.06 322.385 70.144 321.743 70.144ZM321.743 68.866C322.163 68.866 322.538 68.809 322.868 68.695C323.204 68.575 323.486 68.41 323.714 68.2C323.948 67.984 324.125 67.729 324.245 67.435C324.371 67.135 324.434 66.805 324.434 66.445C324.434 66.001 324.359 65.623 324.209 65.311C324.065 64.993 323.867 64.7349 323.615 64.5369C323.369 64.3389 323.084 64.1949 322.76 64.1049C322.436 64.009 322.097 63.9609 321.743 63.9609C321.389 63.9609 321.05 64.009 320.726 64.1049C320.402 64.1949 320.114 64.3389 319.862 64.5369C319.616 64.7349 319.418 64.993 319.268 65.311C319.124 65.623 319.052 66.001 319.052 66.445C319.052 66.805 319.112 67.135 319.232 67.435C319.358 67.729 319.535 67.984 319.763 68.2C319.997 68.41 320.279 68.575 320.609 68.695C320.945 68.809 321.323 68.866 321.743 68.866ZM321.743 62.674C322.163 62.674 322.52 62.611 322.814 62.485C323.114 62.353 323.357 62.182 323.543 61.972C323.729 61.756 323.864 61.51 323.948 61.234C324.032 60.958 324.074 60.673 324.074 60.379C324.074 60.079 324.023 59.797 323.921 59.533C323.825 59.269 323.678 59.038 323.48 58.84C323.288 58.642 323.045 58.4859 322.751 58.3719C322.463 58.2579 322.127 58.201 321.743 58.201C321.359 58.201 321.02 58.2579 320.726 58.3719C320.438 58.4859 320.195 58.642 319.997 58.84C319.805 59.038 319.658 59.269 319.556 59.533C319.46 59.797 319.412 60.079 319.412 60.379C319.412 60.673 319.454 60.958 319.538 61.234C319.622 61.51 319.757 61.756 319.943 61.972C320.129 62.182 320.369 62.353 320.663 62.485C320.963 62.611 321.323 62.674 321.743 62.674Z" fill="#5D5D5D"/>
<path d="M332.274 64.7079C331.788 64.7079 331.326 64.627 330.888 64.465C330.456 64.303 330.075 64.066 329.745 63.754C329.415 63.436 329.151 63.0489 328.953 62.5929C328.761 62.1309 328.665 61.6029 328.665 61.0089C328.665 60.4449 328.77 59.9169 328.98 59.4249C329.19 58.9329 329.484 58.504 329.862 58.138C330.24 57.772 330.69 57.4839 331.212 57.2739C331.734 57.0639 332.307 56.959 332.931 56.959C333.549 56.959 334.11 57.0609 334.614 57.2649C335.118 57.469 335.55 57.7539 335.91 58.1199C336.27 58.4859 336.546 58.9239 336.738 59.4339C336.936 59.9439 337.035 60.5079 337.035 61.1259C337.035 61.498 336.999 61.852 336.927 62.188C336.861 62.518 336.762 62.842 336.63 63.16C336.498 63.478 336.339 63.7959 336.153 64.1139C335.973 64.4259 335.766 64.75 335.532 65.086L332.391 69.6219C332.313 69.7359 332.202 69.8289 332.058 69.9009C331.914 69.9669 331.749 70 331.563 70H330.087L334.011 64.8609C334.143 64.6869 334.266 64.522 334.38 64.366C334.494 64.21 334.602 64.0539 334.704 63.8979C334.374 64.1619 334.002 64.3629 333.588 64.5009C333.174 64.6389 332.736 64.7079 332.274 64.7079ZM335.496 60.937C335.496 60.535 335.43 60.172 335.298 59.8479C335.172 59.5179 334.995 59.2389 334.767 59.0109C334.539 58.7829 334.266 58.6089 333.948 58.4889C333.636 58.3629 333.291 58.2999 332.913 58.2999C332.517 58.2999 332.154 58.3659 331.824 58.4979C331.5 58.6239 331.221 58.8009 330.987 59.0289C330.759 59.2569 330.582 59.5299 330.456 59.8479C330.33 60.1659 330.267 60.5139 330.267 60.8919C330.267 61.2999 330.324 61.6659 330.438 61.9899C330.558 62.3079 330.726 62.5779 330.942 62.7999C331.164 63.0219 331.431 63.19 331.743 63.304C332.061 63.418 332.415 63.4749 332.805 63.4749C333.237 63.4749 333.618 63.406 333.948 63.268C334.284 63.124 334.566 62.935 334.794 62.701C335.022 62.467 335.196 62.1969 335.316 61.8909C335.436 61.5849 335.496 61.267 335.496 60.937Z" fill="#5D5D5D"/>
</svg>
