<svg width="150" height="150" viewBox="0 0 150 150" fill="none" xmlns="http://www.w3.org/2000/svg">
<path d="M73.3739 70.6719L74.4823 72.3367L74.4833 72.336L73.3739 70.6719ZM31.3056 98.6804L32.407 100.35L32.414 100.345L31.3056 98.6804ZM32.9375 104L32.9375 102L32.9296 102L32.9375 104ZM117.062 104L117.07 102H117.062V104ZM118.694 98.6804L117.586 100.345L117.593 100.35L118.694 98.6804ZM76.6377 70.6719L75.5283 72.336L75.5291 72.3366L76.6377 70.6719ZM75.0058 70.1785L75.0058 72.1785L75.0058 70.1785ZM64.8463 54.297C64.8463 55.4016 65.7417 56.297 66.8463 56.297C67.9508 56.297 68.8463 55.4016 68.8463 54.297H64.8463ZM75.0058 61.594V59.594H73.0058L73.0058 61.594L75.0058 61.594ZM73.0058 70.0821C73.0059 71.1867 73.9013 72.0821 75.0059 72.0821C76.1104 72.0821 77.0059 71.1867 77.0058 70.0821L73.0058 70.0821ZM72.2655 69.0072L30.1972 97.0157L32.414 100.345L74.4823 72.3367L72.2655 69.0072ZM30.2042 97.011C29.3224 97.5928 28.6502 98.4432 28.2907 99.4381L32.0526 100.798C32.1178 100.617 32.241 100.459 32.407 100.35L30.2042 97.011ZM28.2907 99.4381C27.9311 100.433 27.9044 101.517 28.2147 102.529L32.0388 101.356C31.9827 101.173 31.9875 100.978 32.0526 100.798L28.2907 99.4381ZM28.2147 102.529C28.525 103.541 29.1548 104.423 30.0074 105.047L32.37 101.819C32.2099 101.702 32.0949 101.539 32.0388 101.356L28.2147 102.529ZM30.0074 105.047C30.8597 105.671 31.89 106.004 32.9455 106L32.9296 102C32.7266 102.001 32.5303 101.937 32.37 101.819L30.0074 105.047ZM32.9375 106H117.062V102H32.9375V106ZM117.055 106C118.11 106.004 119.14 105.671 119.993 105.047L117.63 101.819C117.47 101.937 117.273 102.001 117.07 102L117.055 106ZM119.993 105.047C120.845 104.423 121.475 103.541 121.785 102.529L117.961 101.356C117.905 101.539 117.79 101.702 117.63 101.819L119.993 105.047ZM121.785 102.529C122.096 101.517 122.069 100.433 121.709 99.4381L117.947 100.798C118.012 100.978 118.017 101.173 117.961 101.356L121.785 102.529ZM121.709 99.4381C121.35 98.4432 120.678 97.5928 119.796 97.011L117.593 100.35C117.759 100.459 117.882 100.617 117.947 100.798L121.709 99.4381ZM119.803 97.0158L77.7463 69.0073L75.5291 72.3366L117.586 100.345L119.803 97.0158ZM77.7472 69.0079C76.9353 68.4666 75.9809 68.1785 75.0058 68.1785L75.0058 72.1785C75.1933 72.1785 75.3752 72.234 75.5283 72.336L77.7472 69.0079ZM75.0058 68.1785C74.0307 68.1785 73.0764 68.4666 72.2645 69.0079L74.4833 72.336C74.6364 72.234 74.8183 72.1785 75.0058 72.1785L75.0058 68.1785ZM68.8463 54.297C68.8463 51.5781 71.3755 49 75.0058 49V45C69.5907 45 64.8463 48.9672 64.8463 54.297H68.8463ZM75.0058 49C78.6405 49 81.1654 51.5588 81.1654 54.297H85.1654C85.1654 48.9402 80.4166 45 75.0058 45V49ZM81.1654 54.297C81.1654 57.0352 78.6405 59.594 75.0058 59.594V63.594C80.4166 63.594 85.1654 59.6538 85.1654 54.297H81.1654ZM73.0058 61.594L73.0058 70.0821L77.0058 70.0821L77.0058 61.594L73.0058 61.594Z" fill="#222229"/>
</svg>
