<svg width="846" height="848" viewBox="0 0 846 848" fill="none" xmlns="http://www.w3.org/2000/svg">
<g clip-path="url(#clip0)">
<path d="M582 3.51991e-08L582 867L583 867L583 -3.51991e-08L582 3.51991e-08ZM291 1.75995e-08L291 867L292 867L292 -1.75995e-08L291 1.75995e-08ZM873 579H0V580H873V579ZM873 288H0V289H873V288Z" fill="black"/>
<path d="M144.374 138.672L145.482 140.337L145.483 140.336L144.374 138.672ZM102.306 166.68L103.407 168.35L103.414 168.345L102.306 166.68ZM103.938 172L103.938 170L103.93 170L103.938 172ZM188.062 172L188.07 170H188.062V172ZM189.694 166.68L188.586 168.345L188.593 168.35L189.694 166.68ZM147.638 138.672L146.528 140.336L146.529 140.337L147.638 138.672ZM146.006 138.178L146.006 140.178L146.006 138.178ZM135.846 122.297C135.846 123.402 136.742 124.297 137.846 124.297C138.951 124.297 139.846 123.402 139.846 122.297H135.846ZM146.006 129.594V127.594H144.006L144.006 129.594L146.006 129.594ZM144.006 138.082C144.006 139.187 144.901 140.082 146.006 140.082C147.11 140.082 148.006 139.187 148.006 138.082L144.006 138.082ZM144.374 428.672L145.482 430.337L145.483 430.336L144.374 428.672ZM102.306 456.68L103.407 458.35L103.414 458.345L102.306 456.68ZM103.938 462L103.938 460L103.93 460L103.938 462ZM188.062 462L188.07 460H188.062V462ZM189.694 456.68L188.586 458.345L188.593 458.35L189.694 456.68ZM147.638 428.672L146.528 430.336L146.529 430.337L147.638 428.672ZM135.846 412.297C135.846 413.402 136.742 414.297 137.846 414.297C138.951 414.297 139.846 413.402 139.846 412.297H135.846ZM146.006 419.594V417.594H144.006L144.006 419.594L146.006 419.594ZM144.006 428.082C144.006 429.187 144.901 430.082 146.006 430.082C147.11 430.082 148.006 429.187 148.006 428.082L144.006 428.082ZM162.374 416.672L163.482 418.337L163.483 418.336L162.374 416.672ZM120.306 444.68L121.407 446.35L121.414 446.345L120.306 444.68ZM121.938 450L121.938 448L121.93 448L121.938 450ZM206.062 450L206.07 448H206.062V450ZM207.694 444.68L206.586 446.345L206.593 446.35L207.694 444.68ZM165.638 416.672L164.528 418.336L164.529 418.337L165.638 416.672ZM153.846 400.297C153.846 401.402 154.742 402.297 155.846 402.297C156.951 402.297 157.846 401.402 157.846 400.297H153.846ZM164.006 407.594V405.594H162.006L162.006 407.594L164.006 407.594ZM162.006 416.082C162.006 417.187 162.901 418.082 164.006 418.082C165.11 418.082 166.006 417.187 166.006 416.082L162.006 416.082ZM144.374 718.672L145.482 720.337L145.483 720.336L144.374 718.672ZM102.306 746.68L103.407 748.35L103.414 748.345L102.306 746.68ZM103.938 752L103.938 750L103.93 750L103.938 752ZM188.062 752L188.07 750H188.062V752ZM189.694 746.68L188.586 748.345L188.593 748.35L189.694 746.68ZM147.638 718.672L146.528 720.336L146.529 720.337L147.638 718.672ZM135.846 702.297C135.846 703.402 136.742 704.297 137.846 704.297C138.951 704.297 139.846 703.402 139.846 702.297H135.846ZM146.006 709.594V707.594H144.006L144.006 709.594L146.006 709.594ZM144.006 718.082C144.006 719.187 144.901 720.082 146.006 720.082C147.11 720.082 148.006 719.187 148.006 718.082L144.006 718.082ZM162.374 706.672L163.482 708.337L163.483 708.336L162.374 706.672ZM120.306 734.68L121.407 736.35L121.414 736.345L120.306 734.68ZM121.938 740L121.938 738L121.93 738L121.938 740ZM206.062 740L206.07 738H206.062V740ZM207.694 734.68L206.586 736.345L206.593 736.35L207.694 734.68ZM165.638 706.672L164.528 708.336L164.529 708.337L165.638 706.672ZM153.846 690.297C153.846 691.402 154.742 692.297 155.846 692.297C156.951 692.297 157.846 691.402 157.846 690.297H153.846ZM164.006 697.594V695.594H162.006L162.006 697.594L164.006 697.594ZM162.006 706.082C162.006 707.187 162.901 708.082 164.006 708.082C165.11 708.082 166.006 707.187 166.006 706.082L162.006 706.082ZM725.374 740.172L726.482 741.837L726.483 741.836L725.374 740.172ZM683.306 768.18L684.407 769.85L684.414 769.845L683.306 768.18ZM684.938 773.5L684.937 771.5L684.93 771.5L684.938 773.5ZM769.062 773.5L769.07 771.5H769.062V773.5ZM770.694 768.18L769.586 769.845L769.593 769.85L770.694 768.18ZM728.638 740.172L727.528 741.836L727.529 741.837L728.638 740.172ZM716.846 723.797C716.846 724.902 717.742 725.797 718.846 725.797C719.951 725.797 720.846 724.902 720.846 723.797H716.846ZM727.006 731.094V729.094H725.006L725.006 731.094L727.006 731.094ZM725.006 739.582C725.006 740.687 725.901 741.582 727.006 741.582C728.11 741.582 729.006 740.687 729.006 739.582L725.006 739.582ZM728.626 707.328L727.518 705.663L727.517 705.664L728.626 707.328ZM770.694 679.32L769.593 677.65L769.586 677.655L770.694 679.32ZM769.062 674L769.063 676L769.07 676L769.062 674ZM684.938 674L684.93 676H684.938V674ZM683.306 679.32L684.414 677.655L684.407 677.65L683.306 679.32ZM725.362 707.328L726.472 705.664L726.471 705.663L725.362 707.328ZM737.154 723.703C737.154 722.598 736.258 721.703 735.154 721.703C734.049 721.703 733.154 722.598 733.154 723.703H737.154ZM726.994 716.406V718.406H728.994L728.994 716.406L726.994 716.406ZM728.994 707.918C728.994 706.813 728.099 705.918 726.994 705.918C725.89 705.918 724.994 706.813 724.994 707.918L728.994 707.918ZM728.626 138.672L727.517 140.336L727.518 140.337L728.626 138.672ZM770.694 166.68L769.586 168.345L769.593 168.35L770.694 166.68ZM769.062 172L769.07 170H769.062V172ZM684.938 172L684.937 170L684.93 170L684.938 172ZM683.306 166.68L684.407 168.35L684.414 168.345L683.306 166.68ZM725.362 138.672L726.471 140.337L726.472 140.336L725.362 138.672ZM726.994 138.178V140.178V138.178ZM733.154 122.297C733.154 123.402 734.049 124.297 735.154 124.297C736.258 124.297 737.154 123.402 737.154 122.297H733.154ZM726.994 129.594L728.994 129.594L728.994 127.594H726.994V129.594ZM724.994 138.082C724.994 139.187 725.89 140.082 726.994 140.082C728.099 140.082 728.994 139.187 728.994 138.082L724.994 138.082ZM743.172 435.376L744.837 434.268L744.836 434.267L743.172 435.376ZM771.18 477.444L772.85 476.343L772.845 476.336L771.18 477.444ZM776.5 475.812L774.5 475.812L774.5 475.82L776.5 475.812ZM776.5 391.688L774.5 391.68V391.688H776.5ZM771.18 390.056L772.845 391.164L772.85 391.157L771.18 390.056ZM743.172 432.112L744.836 433.222L744.837 433.221L743.172 432.112ZM726.797 443.904C727.902 443.904 728.797 443.008 728.797 441.904C728.797 440.799 727.902 439.904 726.797 439.904V443.904ZM734.094 433.744H732.094V435.744L734.094 435.744L734.094 433.744ZM742.582 435.744C743.687 435.744 744.582 434.849 744.582 433.744C744.582 432.64 743.687 431.744 742.582 431.744L742.582 435.744ZM710.328 432.124L708.663 433.232L708.664 433.233L710.328 432.124ZM682.32 390.056L680.65 391.157L680.655 391.164L682.32 390.056ZM677 391.688L679 391.687L679 391.68L677 391.688ZM677 475.812L679 475.82V475.812H677ZM682.32 477.444L680.655 476.336L680.65 476.343L682.32 477.444ZM710.328 435.388L708.664 434.278L708.663 434.279L710.328 435.388ZM726.703 423.596C725.598 423.596 724.703 424.492 724.703 425.596C724.703 426.701 725.598 427.596 726.703 427.596V423.596ZM719.406 433.756H721.406V431.756L719.406 431.756L719.406 433.756ZM710.918 431.756C709.813 431.756 708.918 432.651 708.918 433.756C708.918 434.86 709.813 435.756 710.918 435.756L710.918 431.756ZM467.374 138.672L468.482 140.337L468.483 140.336L467.374 138.672ZM425.306 166.68L426.407 168.35L426.414 168.345L425.306 166.68ZM426.938 172L426.938 170L426.93 170L426.938 172ZM511.062 172L511.07 170H511.062V172ZM512.694 166.68L511.586 168.345L511.593 168.35L512.694 166.68ZM470.638 138.672L469.528 140.336L469.529 140.337L470.638 138.672ZM469.006 138.178V140.178V138.178ZM458.846 122.297C458.846 123.402 459.742 124.297 460.846 124.297C461.951 124.297 462.846 123.402 462.846 122.297H458.846ZM469.006 129.594V127.594H467.006L467.006 129.594L469.006 129.594ZM467.006 138.082C467.006 139.187 467.901 140.082 469.006 140.082C470.11 140.082 471.006 139.187 471.006 138.082L467.006 138.082ZM400.374 138.672L401.482 140.337L401.483 140.336L400.374 138.672ZM358.306 166.68L359.407 168.35L359.414 168.345L358.306 166.68ZM359.938 172L359.938 170L359.93 170L359.938 172ZM444.062 172L444.07 170H444.062V172ZM445.694 166.68L444.586 168.345L444.593 168.35L445.694 166.68ZM403.638 138.672L402.528 140.336L402.529 140.337L403.638 138.672ZM402.006 138.178V140.178V138.178ZM391.846 122.297C391.846 123.402 392.742 124.297 393.846 124.297C394.951 124.297 395.846 123.402 395.846 122.297H391.846ZM402.006 129.594V127.594H400.006L400.006 129.594L402.006 129.594ZM400.006 138.082C400.006 139.187 400.901 140.082 402.006 140.082C403.11 140.082 404.006 139.187 404.006 138.082L400.006 138.082ZM467.374 428.672L468.482 430.337L468.483 430.336L467.374 428.672ZM425.306 456.68L426.407 458.35L426.414 458.345L425.306 456.68ZM426.938 462L426.938 460L426.93 460L426.938 462ZM511.062 462L511.07 460H511.062V462ZM512.694 456.68L511.586 458.345L511.593 458.35L512.694 456.68ZM470.638 428.672L469.528 430.336L469.529 430.337L470.638 428.672ZM458.846 412.297C458.846 413.402 459.742 414.297 460.846 414.297C461.951 414.297 462.846 413.402 462.846 412.297H458.846ZM469.006 419.594V417.594H467.006L467.006 419.594L469.006 419.594ZM467.006 428.082C467.006 429.187 467.901 430.082 469.006 430.082C470.11 430.082 471.006 429.187 471.006 428.082L467.006 428.082ZM403.626 428.672L402.517 430.336L402.518 430.337L403.626 428.672ZM445.694 456.68L444.586 458.345L444.593 458.35L445.694 456.68ZM444.062 462L444.07 460H444.062V462ZM359.938 462L359.937 460L359.93 460L359.938 462ZM358.306 456.68L359.407 458.35L359.414 458.345L358.306 456.68ZM400.362 428.672L401.471 430.337L401.472 430.336L400.362 428.672ZM408.154 412.297C408.154 413.402 409.049 414.297 410.154 414.297C411.258 414.297 412.154 413.402 412.154 412.297H408.154ZM401.994 419.594L403.994 419.594L403.994 417.594H401.994V419.594ZM399.994 428.082C399.994 429.187 400.89 430.082 401.994 430.082C403.099 430.082 403.994 429.187 403.994 428.082L399.994 428.082ZM470.626 718.672L469.517 720.336L469.518 720.337L470.626 718.672ZM512.694 746.68L511.586 748.345L511.593 748.35L512.694 746.68ZM511.062 752L511.07 750H511.062V752ZM426.938 752L426.937 750L426.93 750L426.938 752ZM425.306 746.68L426.407 748.35L426.414 748.345L425.306 746.68ZM467.362 718.672L468.471 720.337L468.472 720.336L467.362 718.672ZM475.154 702.297C475.154 703.402 476.049 704.297 477.154 704.297C478.258 704.297 479.154 703.402 479.154 702.297H475.154ZM468.994 709.594L470.994 709.594L470.994 707.594H468.994V709.594ZM466.994 718.082C466.994 719.187 467.89 720.082 468.994 720.082C470.099 720.082 470.994 719.187 470.994 718.082L466.994 718.082ZM400.374 718.672L401.482 720.337L401.483 720.336L400.374 718.672ZM358.306 746.68L359.407 748.35L359.414 748.345L358.306 746.68ZM359.938 752L359.938 750L359.93 750L359.938 752ZM444.062 752L444.07 750H444.062V752ZM445.694 746.68L444.586 748.345L444.593 748.35L445.694 746.68ZM403.638 718.672L402.528 720.336L402.529 720.337L403.638 718.672ZM391.846 702.297C391.846 703.402 392.742 704.297 393.846 704.297C394.951 704.297 395.846 703.402 395.846 702.297H391.846ZM402.006 709.594V707.594H400.006L400.006 709.594L402.006 709.594ZM400.006 718.082C400.006 719.187 400.901 720.082 402.006 720.082C403.11 720.082 404.006 719.187 404.006 718.082L400.006 718.082ZM143.266 137.007L101.197 165.016L103.414 168.345L145.482 140.337L143.266 137.007ZM101.204 165.011C100.322 165.593 99.6502 166.443 99.2907 167.438L103.053 168.798C103.118 168.617 103.241 168.459 103.407 168.35L101.204 165.011ZM99.2907 167.438C98.9311 168.433 98.9044 169.517 99.2147 170.529L103.039 169.356C102.983 169.173 102.987 168.978 103.053 168.798L99.2907 167.438ZM99.2147 170.529C99.525 171.541 100.155 172.423 101.007 173.047L103.37 169.819C103.21 169.702 103.095 169.539 103.039 169.356L99.2147 170.529ZM101.007 173.047C101.86 173.671 102.89 174.004 103.945 174L103.93 170C103.727 170.001 103.53 169.937 103.37 169.819L101.007 173.047ZM103.938 174H188.062V170H103.938V174ZM188.055 174C189.11 174.004 190.14 173.671 190.993 173.047L188.63 169.819C188.47 169.937 188.273 170.001 188.07 170L188.055 174ZM190.993 173.047C191.845 172.423 192.475 171.541 192.785 170.529L188.961 169.356C188.905 169.539 188.79 169.702 188.63 169.819L190.993 173.047ZM192.785 170.529C193.096 169.517 193.069 168.433 192.709 167.438L188.947 168.798C189.012 168.978 189.017 169.173 188.961 169.356L192.785 170.529ZM192.709 167.438C192.35 166.443 191.678 165.593 190.796 165.011L188.593 168.35C188.759 168.459 188.882 168.617 188.947 168.798L192.709 167.438ZM190.803 165.016L148.746 137.007L146.529 140.337L188.586 168.345L190.803 165.016ZM148.747 137.008C147.935 136.467 146.981 136.178 146.006 136.178L146.006 140.178C146.193 140.178 146.375 140.234 146.528 140.336L148.747 137.008ZM146.006 136.178C145.031 136.178 144.076 136.467 143.264 137.008L145.483 140.336C145.636 140.234 145.818 140.178 146.006 140.178L146.006 136.178ZM139.846 122.297C139.846 119.578 142.375 117 146.006 117V113C140.591 113 135.846 116.967 135.846 122.297H139.846ZM146.006 117C149.64 117 152.165 119.559 152.165 122.297H156.165C156.165 116.94 151.417 113 146.006 113V117ZM152.165 122.297C152.165 125.035 149.64 127.594 146.006 127.594V131.594C151.417 131.594 156.165 127.654 156.165 122.297H152.165ZM144.006 129.594L144.006 138.082L148.006 138.082L148.006 129.594L144.006 129.594ZM143.266 427.007L101.197 455.016L103.414 458.345L145.482 430.337L143.266 427.007ZM101.204 455.011C100.322 455.593 99.6502 456.443 99.2907 457.438L103.053 458.798C103.118 458.617 103.241 458.459 103.407 458.35L101.204 455.011ZM99.2907 457.438C98.9311 458.433 98.9044 459.517 99.2147 460.529L103.039 459.356C102.983 459.173 102.987 458.978 103.053 458.798L99.2907 457.438ZM99.2147 460.529C99.525 461.541 100.155 462.423 101.007 463.047L103.37 459.819C103.21 459.702 103.095 459.539 103.039 459.356L99.2147 460.529ZM101.007 463.047C101.86 463.671 102.89 464.004 103.945 464L103.93 460C103.727 460.001 103.53 459.937 103.37 459.819L101.007 463.047ZM103.938 464H188.062V460H103.938V464ZM188.055 464C189.11 464.004 190.14 463.671 190.993 463.047L188.63 459.819C188.47 459.937 188.273 460.001 188.07 460L188.055 464ZM190.993 463.047C191.845 462.423 192.475 461.54 192.785 460.529L188.961 459.356C188.905 459.539 188.79 459.702 188.63 459.819L190.993 463.047ZM192.785 460.529C193.096 459.517 193.069 458.433 192.709 457.438L188.947 458.798C189.012 458.978 189.017 459.173 188.961 459.356L192.785 460.529ZM192.709 457.438C192.35 456.443 191.678 455.593 190.796 455.011L188.593 458.35C188.759 458.459 188.882 458.617 188.947 458.798L192.709 457.438ZM190.803 455.016L148.746 427.007L146.529 430.337L188.586 458.345L190.803 455.016ZM148.747 427.008C147.935 426.467 146.981 426.178 146.006 426.178V430.178C146.193 430.178 146.375 430.234 146.528 430.336L148.747 427.008ZM146.006 426.178C145.031 426.178 144.076 426.467 143.264 427.008L145.483 430.336C145.636 430.234 145.818 430.178 146.006 430.178V426.178ZM139.846 412.297C139.846 409.578 142.375 407 146.006 407V403C140.591 403 135.846 406.967 135.846 412.297H139.846ZM146.006 407C149.64 407 152.165 409.559 152.165 412.297H156.165C156.165 406.94 151.417 403 146.006 403V407ZM152.165 412.297C152.165 415.035 149.64 417.594 146.006 417.594V421.594C151.417 421.594 156.165 417.654 156.165 412.297H152.165ZM144.006 419.594L144.006 428.082L148.006 428.082L148.006 419.594L144.006 419.594ZM161.266 415.007L119.197 443.016L121.414 446.345L163.482 418.337L161.266 415.007ZM119.204 443.011C118.322 443.593 117.65 444.443 117.291 445.438L121.053 446.798C121.118 446.617 121.241 446.459 121.407 446.35L119.204 443.011ZM117.291 445.438C116.931 446.433 116.904 447.517 117.215 448.529L121.039 447.356C120.983 447.173 120.987 446.978 121.053 446.798L117.291 445.438ZM117.215 448.529C117.525 449.541 118.155 450.423 119.007 451.047L121.37 447.819C121.21 447.702 121.095 447.539 121.039 447.356L117.215 448.529ZM119.007 451.047C119.86 451.671 120.89 452.004 121.945 452L121.93 448C121.727 448.001 121.53 447.937 121.37 447.819L119.007 451.047ZM121.938 452H206.062V448H121.938V452ZM206.055 452C207.11 452.004 208.14 451.671 208.993 451.047L206.63 447.819C206.47 447.937 206.273 448.001 206.07 448L206.055 452ZM208.993 451.047C209.845 450.423 210.475 449.54 210.785 448.529L206.961 447.356C206.905 447.539 206.79 447.702 206.63 447.819L208.993 451.047ZM210.785 448.529C211.096 447.517 211.069 446.433 210.709 445.438L206.947 446.798C207.012 446.978 207.017 447.173 206.961 447.356L210.785 448.529ZM210.709 445.438C210.35 444.443 209.678 443.593 208.796 443.011L206.593 446.35C206.759 446.459 206.882 446.617 206.947 446.798L210.709 445.438ZM208.803 443.016L166.746 415.007L164.529 418.337L206.586 446.345L208.803 443.016ZM166.747 415.008C165.935 414.467 164.981 414.178 164.006 414.178V418.178C164.193 418.178 164.375 418.234 164.528 418.336L166.747 415.008ZM164.006 414.178C163.031 414.178 162.076 414.467 161.264 415.008L163.483 418.336C163.636 418.234 163.818 418.178 164.006 418.178V414.178ZM157.846 400.297C157.846 397.578 160.375 395 164.006 395V391C158.591 391 153.846 394.967 153.846 400.297H157.846ZM164.006 395C167.64 395 170.165 397.559 170.165 400.297H174.165C174.165 394.94 169.417 391 164.006 391V395ZM170.165 400.297C170.165 403.035 167.64 405.594 164.006 405.594V409.594C169.417 409.594 174.165 405.654 174.165 400.297H170.165ZM162.006 407.594L162.006 416.082L166.006 416.082L166.006 407.594L162.006 407.594ZM143.266 717.007L101.197 745.016L103.414 748.345L145.482 720.337L143.266 717.007ZM101.204 745.011C100.322 745.593 99.6502 746.443 99.2907 747.438L103.053 748.798C103.118 748.617 103.241 748.459 103.407 748.35L101.204 745.011ZM99.2907 747.438C98.9311 748.433 98.9044 749.517 99.2147 750.529L103.039 749.356C102.983 749.173 102.987 748.978 103.053 748.798L99.2907 747.438ZM99.2147 750.529C99.525 751.541 100.155 752.423 101.007 753.047L103.37 749.819C103.21 749.702 103.095 749.539 103.039 749.356L99.2147 750.529ZM101.007 753.047C101.86 753.671 102.89 754.004 103.945 754L103.93 750C103.727 750.001 103.53 749.937 103.37 749.819L101.007 753.047ZM103.938 754H188.062V750H103.938V754ZM188.055 754C189.11 754.004 190.14 753.671 190.993 753.047L188.63 749.819C188.47 749.937 188.273 750.001 188.07 750L188.055 754ZM190.993 753.047C191.845 752.423 192.475 751.54 192.785 750.529L188.961 749.356C188.905 749.539 188.79 749.702 188.63 749.819L190.993 753.047ZM192.785 750.529C193.096 749.517 193.069 748.433 192.709 747.438L188.947 748.798C189.012 748.978 189.017 749.173 188.961 749.356L192.785 750.529ZM192.709 747.438C192.35 746.443 191.678 745.593 190.796 745.011L188.593 748.35C188.759 748.459 188.882 748.617 188.947 748.798L192.709 747.438ZM190.803 745.016L148.746 717.007L146.529 720.337L188.586 748.345L190.803 745.016ZM148.747 717.008C147.935 716.467 146.981 716.178 146.006 716.178V720.178C146.193 720.178 146.375 720.234 146.528 720.336L148.747 717.008ZM146.006 716.178C145.031 716.178 144.076 716.467 143.264 717.008L145.483 720.336C145.636 720.234 145.818 720.178 146.006 720.178V716.178ZM139.846 702.297C139.846 699.578 142.375 697 146.006 697V693C140.591 693 135.846 696.967 135.846 702.297H139.846ZM146.006 697C149.64 697 152.165 699.559 152.165 702.297H156.165C156.165 696.94 151.417 693 146.006 693V697ZM152.165 702.297C152.165 705.035 149.64 707.594 146.006 707.594V711.594C151.417 711.594 156.165 707.654 156.165 702.297H152.165ZM144.006 709.594L144.006 718.082L148.006 718.082L148.006 709.594L144.006 709.594ZM161.266 705.007L119.197 733.016L121.414 736.345L163.482 708.337L161.266 705.007ZM119.204 733.011C118.322 733.593 117.65 734.443 117.291 735.438L121.053 736.798C121.118 736.617 121.241 736.459 121.407 736.35L119.204 733.011ZM117.291 735.438C116.931 736.433 116.904 737.517 117.215 738.529L121.039 737.356C120.983 737.173 120.987 736.978 121.053 736.798L117.291 735.438ZM117.215 738.529C117.525 739.541 118.155 740.423 119.007 741.047L121.37 737.819C121.21 737.702 121.095 737.539 121.039 737.356L117.215 738.529ZM119.007 741.047C119.86 741.671 120.89 742.004 121.945 742L121.93 738C121.727 738.001 121.53 737.937 121.37 737.819L119.007 741.047ZM121.938 742H206.062V738H121.938V742ZM206.055 742C207.11 742.004 208.14 741.671 208.993 741.047L206.63 737.819C206.47 737.937 206.273 738.001 206.07 738L206.055 742ZM208.993 741.047C209.845 740.423 210.475 739.54 210.785 738.529L206.961 737.356C206.905 737.539 206.79 737.702 206.63 737.819L208.993 741.047ZM210.785 738.529C211.096 737.517 211.069 736.433 210.709 735.438L206.947 736.798C207.012 736.978 207.017 737.173 206.961 737.356L210.785 738.529ZM210.709 735.438C210.35 734.443 209.678 733.593 208.796 733.011L206.593 736.35C206.759 736.459 206.882 736.617 206.947 736.798L210.709 735.438ZM208.803 733.016L166.746 705.007L164.529 708.337L206.586 736.345L208.803 733.016ZM166.747 705.008C165.935 704.467 164.981 704.178 164.006 704.178V708.178C164.193 708.178 164.375 708.234 164.528 708.336L166.747 705.008ZM164.006 704.178C163.031 704.178 162.076 704.467 161.264 705.008L163.483 708.336C163.636 708.234 163.818 708.178 164.006 708.178V704.178ZM157.846 690.297C157.846 687.578 160.375 685 164.006 685V681C158.591 681 153.846 684.967 153.846 690.297H157.846ZM164.006 685C167.64 685 170.165 687.559 170.165 690.297H174.165C174.165 684.94 169.417 681 164.006 681V685ZM170.165 690.297C170.165 693.035 167.64 695.594 164.006 695.594V699.594C169.417 699.594 174.165 695.654 174.165 690.297H170.165ZM162.006 697.594L162.006 706.082L166.006 706.082L166.006 697.594L162.006 697.594ZM106.283 732.412L202.283 666.412L200.017 663.116L104.017 729.116L106.283 732.412ZM724.266 738.507L682.197 766.516L684.414 769.845L726.482 741.837L724.266 738.507ZM682.204 766.511C681.322 767.093 680.65 767.943 680.291 768.938L684.053 770.298C684.118 770.117 684.241 769.959 684.407 769.85L682.204 766.511ZM680.291 768.938C679.931 769.933 679.904 771.018 680.215 772.029L684.039 770.856C683.983 770.673 683.987 770.478 684.053 770.298L680.291 768.938ZM680.215 772.029C680.525 773.041 681.155 773.923 682.007 774.547L684.37 771.319C684.21 771.202 684.095 771.039 684.039 770.856L680.215 772.029ZM682.007 774.547C682.86 775.171 683.89 775.504 684.945 775.5L684.93 771.5C684.727 771.501 684.53 771.437 684.37 771.319L682.007 774.547ZM684.938 775.5H769.062V771.5H684.938V775.5ZM769.055 775.5C770.11 775.504 771.14 775.171 771.993 774.547L769.63 771.319C769.47 771.437 769.273 771.501 769.07 771.5L769.055 775.5ZM771.993 774.547C772.845 773.923 773.475 773.041 773.785 772.029L769.961 770.856C769.905 771.039 769.79 771.202 769.63 771.319L771.993 774.547ZM773.785 772.029C774.096 771.018 774.069 769.933 773.709 768.938L769.947 770.298C770.013 770.478 770.017 770.673 769.961 770.856L773.785 772.029ZM773.709 768.938C773.35 767.943 772.678 767.093 771.796 766.511L769.593 769.85C769.759 769.959 769.882 770.117 769.947 770.298L773.709 768.938ZM771.803 766.516L729.746 738.507L727.529 741.837L769.586 769.845L771.803 766.516ZM729.747 738.508C728.935 737.967 727.981 737.678 727.006 737.678V741.678C727.193 741.678 727.375 741.734 727.528 741.836L729.747 738.508ZM727.006 737.678C726.031 737.678 725.076 737.967 724.264 738.508L726.483 741.836C726.636 741.734 726.818 741.678 727.006 741.678V737.678ZM720.846 723.797C720.846 721.078 723.375 718.5 727.006 718.5V714.5C721.591 714.5 716.846 718.467 716.846 723.797H720.846ZM727.006 718.5C730.64 718.5 733.165 721.059 733.165 723.797H737.165C737.165 718.44 732.417 714.5 727.006 714.5V718.5ZM733.165 723.797C733.165 726.535 730.64 729.094 727.006 729.094V733.094C732.417 733.094 737.165 729.154 737.165 723.797H733.165ZM725.006 731.094L725.006 739.582L729.006 739.582L729.006 731.094L725.006 731.094ZM729.734 708.993L771.803 680.984L769.586 677.655L727.518 705.663L729.734 708.993ZM771.796 680.989C772.678 680.407 773.35 679.557 773.709 678.562L769.947 677.202C769.882 677.383 769.759 677.541 769.593 677.65L771.796 680.989ZM773.709 678.562C774.069 677.567 774.096 676.482 773.785 675.471L769.961 676.644C770.017 676.827 770.013 677.022 769.947 677.202L773.709 678.562ZM773.785 675.471C773.475 674.459 772.845 673.577 771.993 672.953L769.63 676.181C769.79 676.298 769.905 676.461 769.961 676.644L773.785 675.471ZM771.993 672.953C771.14 672.329 770.11 671.996 769.055 672L769.07 676C769.273 675.999 769.47 676.063 769.63 676.181L771.993 672.953ZM769.062 672H684.938V676H769.062V672ZM684.945 672C683.89 671.996 682.86 672.329 682.007 672.953L684.37 676.181C684.53 676.063 684.727 675.999 684.93 676L684.945 672ZM682.007 672.953C681.155 673.577 680.525 674.459 680.215 675.471L684.039 676.644C684.095 676.461 684.21 676.298 684.37 676.181L682.007 672.953ZM680.215 675.471C679.904 676.482 679.931 677.567 680.291 678.562L684.053 677.202C683.987 677.022 683.983 676.827 684.039 676.644L680.215 675.471ZM680.291 678.562C680.65 679.557 681.322 680.407 682.204 680.989L684.407 677.65C684.241 677.541 684.118 677.383 684.053 677.202L680.291 678.562ZM682.197 680.984L724.254 708.993L726.471 705.663L684.414 677.655L682.197 680.984ZM724.253 708.992C725.065 709.533 726.019 709.822 726.994 709.822V705.822C726.807 705.822 726.625 705.766 726.472 705.664L724.253 708.992ZM726.994 709.822C727.969 709.822 728.924 709.533 729.736 708.992L727.517 705.664C727.364 705.766 727.182 705.822 726.994 705.822V709.822ZM733.154 723.703C733.154 726.422 730.625 729 726.994 729V733C732.409 733 737.154 729.033 737.154 723.703H733.154ZM726.994 729C723.36 729 720.835 726.441 720.835 723.703H716.835C716.835 729.06 721.583 733 726.994 733V729ZM720.835 723.703C720.835 720.965 723.36 718.406 726.994 718.406V714.406C721.583 714.406 716.835 718.346 716.835 723.703H720.835ZM728.994 716.406L728.994 707.918L724.994 707.918L724.994 716.406L728.994 716.406ZM727.518 140.337L769.586 168.345L771.803 165.016L729.734 137.007L727.518 140.337ZM769.593 168.35C769.759 168.459 769.882 168.617 769.947 168.798L773.709 167.438C773.35 166.443 772.678 165.593 771.796 165.011L769.593 168.35ZM769.947 168.798C770.013 168.978 770.017 169.173 769.961 169.356L773.785 170.529C774.096 169.518 774.069 168.433 773.709 167.438L769.947 168.798ZM769.961 169.356C769.905 169.539 769.79 169.702 769.63 169.819L771.993 173.047C772.845 172.423 773.475 171.541 773.785 170.529L769.961 169.356ZM769.63 169.819C769.47 169.937 769.273 170.001 769.07 170L769.055 174C770.11 174.004 771.14 173.671 771.993 173.047L769.63 169.819ZM769.062 170H684.938V174H769.062V170ZM684.93 170C684.727 170.001 684.53 169.937 684.37 169.819L682.007 173.047C682.86 173.671 683.89 174.004 684.945 174L684.93 170ZM684.37 169.819C684.21 169.702 684.095 169.539 684.039 169.356L680.215 170.529C680.525 171.54 681.155 172.423 682.007 173.047L684.37 169.819ZM684.039 169.356C683.983 169.173 683.987 168.978 684.053 168.798L680.291 167.438C679.931 168.433 679.904 169.518 680.215 170.529L684.039 169.356ZM684.053 168.798C684.118 168.617 684.241 168.459 684.407 168.35L682.204 165.011C681.322 165.593 680.65 166.443 680.291 167.438L684.053 168.798ZM684.414 168.345L726.471 140.337L724.254 137.007L682.197 165.016L684.414 168.345ZM726.472 140.336C726.625 140.234 726.807 140.178 726.994 140.178V136.178C726.019 136.178 725.065 136.467 724.253 137.008L726.472 140.336ZM726.994 140.178C727.182 140.178 727.364 140.234 727.517 140.336L729.736 137.008C728.924 136.467 727.969 136.178 726.994 136.178V140.178ZM737.154 122.297C737.154 116.967 732.409 113 726.994 113V117C730.625 117 733.154 119.578 733.154 122.297H737.154ZM726.994 113C721.583 113 716.835 116.94 716.835 122.297H720.835C720.835 119.559 723.36 117 726.994 117V113ZM716.835 122.297C716.835 127.654 721.583 131.594 726.994 131.594V127.594C723.36 127.594 720.835 125.035 720.835 122.297H716.835ZM724.994 129.594L724.994 138.082L728.994 138.082L728.994 129.594L724.994 129.594ZM741.507 436.484L769.516 478.553L772.845 476.336L744.837 434.268L741.507 436.484ZM769.511 478.546C770.093 479.428 770.943 480.1 771.938 480.459L773.298 476.697C773.117 476.632 772.959 476.509 772.85 476.343L769.511 478.546ZM771.938 480.459C772.933 480.819 774.017 480.846 775.029 480.535L773.856 476.711C773.673 476.767 773.478 476.762 773.298 476.697L771.938 480.459ZM775.029 480.535C776.04 480.225 776.923 479.595 777.547 478.743L774.319 476.38C774.202 476.54 774.039 476.655 773.856 476.711L775.029 480.535ZM777.547 478.743C778.171 477.89 778.504 476.86 778.5 475.805L774.5 475.82C774.501 476.023 774.437 476.22 774.319 476.38L777.547 478.743ZM778.5 475.812V391.688H774.5V475.812H778.5ZM778.5 391.695C778.504 390.64 778.171 389.61 777.547 388.757L774.319 391.12C774.437 391.28 774.501 391.477 774.5 391.68L778.5 391.695ZM777.547 388.757C776.923 387.905 776.04 387.275 775.029 386.965L773.856 390.789C774.039 390.845 774.202 390.96 774.319 391.12L777.547 388.757ZM775.029 386.965C774.017 386.654 772.933 386.681 771.938 387.041L773.298 390.803C773.478 390.738 773.673 390.733 773.856 390.789L775.029 386.965ZM771.938 387.041C770.943 387.4 770.093 388.072 769.511 388.954L772.85 391.157C772.959 390.991 773.117 390.868 773.298 390.803L771.938 387.041ZM769.516 388.947L741.507 431.004L744.837 433.221L772.845 391.164L769.516 388.947ZM741.508 431.003C740.967 431.815 740.678 432.769 740.678 433.744H744.678C744.678 433.557 744.734 433.375 744.836 433.222L741.508 431.003ZM740.678 433.744C740.678 434.719 740.967 435.674 741.508 436.486L744.836 434.267C744.734 434.114 744.678 433.932 744.678 433.744H740.678ZM726.797 439.904C724.078 439.904 721.5 437.375 721.5 433.744H717.5C717.5 439.159 721.467 443.904 726.797 443.904V439.904ZM721.5 433.744C721.5 430.11 724.059 427.585 726.797 427.585V423.585C721.44 423.585 717.5 428.333 717.5 433.744H721.5ZM726.797 427.585C729.535 427.585 732.094 430.11 732.094 433.744H736.094C736.094 428.333 732.154 423.585 726.797 423.585V427.585ZM734.094 435.744L742.582 435.744L742.582 431.744L734.094 431.744L734.094 435.744ZM711.993 431.016L683.984 388.947L680.655 391.164L708.663 433.232L711.993 431.016ZM683.989 388.954C683.407 388.072 682.557 387.4 681.562 387.041L680.202 390.803C680.383 390.868 680.541 390.991 680.65 391.157L683.989 388.954ZM681.562 387.041C680.567 386.681 679.483 386.654 678.471 386.965L679.644 390.789C679.827 390.733 680.022 390.738 680.202 390.803L681.562 387.041ZM678.471 386.965C677.46 387.275 676.577 387.905 675.953 388.757L679.181 391.12C679.298 390.96 679.461 390.845 679.644 390.789L678.471 386.965ZM675.953 388.757C675.329 389.61 674.996 390.64 675 391.695L679 391.68C678.999 391.477 679.063 391.28 679.181 391.12L675.953 388.757ZM675 391.688V475.812H679V391.688H675ZM675 475.805C674.996 476.86 675.329 477.89 675.953 478.743L679.181 476.38C679.063 476.22 678.999 476.023 679 475.82L675 475.805ZM675.953 478.743C676.577 479.595 677.46 480.225 678.471 480.535L679.644 476.711C679.461 476.655 679.298 476.54 679.181 476.38L675.953 478.743ZM678.471 480.535C679.483 480.846 680.567 480.819 681.562 480.459L680.202 476.697C680.022 476.762 679.827 476.767 679.644 476.711L678.471 480.535ZM681.562 480.459C682.557 480.1 683.407 479.428 683.989 478.546L680.65 476.343C680.541 476.509 680.383 476.632 680.202 476.697L681.562 480.459ZM683.984 478.553L711.993 436.496L708.663 434.279L680.655 476.336L683.984 478.553ZM711.992 436.497C712.533 435.685 712.822 434.731 712.822 433.756H708.822C708.822 433.943 708.766 434.125 708.664 434.278L711.992 436.497ZM712.822 433.756C712.822 432.781 712.533 431.826 711.992 431.014L708.664 433.233C708.766 433.386 708.822 433.568 708.822 433.756H712.822ZM726.703 427.596C729.422 427.596 732 430.125 732 433.756H736C736 428.341 732.033 423.596 726.703 423.596V427.596ZM732 433.756C732 437.39 729.441 439.915 726.703 439.915V443.915C732.06 443.915 736 439.167 736 433.756H732ZM726.703 439.915C723.965 439.915 721.406 437.39 721.406 433.756H717.406C717.406 439.167 721.346 443.915 726.703 443.915V439.915ZM719.406 431.756L710.918 431.756L710.918 435.756L719.406 435.756L719.406 431.756ZM466.266 137.007L424.197 165.016L426.414 168.345L468.482 140.337L466.266 137.007ZM424.204 165.011C423.322 165.593 422.65 166.443 422.291 167.438L426.053 168.798C426.118 168.617 426.241 168.459 426.407 168.35L424.204 165.011ZM422.291 167.438C421.931 168.433 421.904 169.517 422.215 170.529L426.039 169.356C425.983 169.173 425.988 168.978 426.053 168.798L422.291 167.438ZM422.215 170.529C422.525 171.541 423.155 172.423 424.007 173.047L426.37 169.819C426.21 169.702 426.095 169.539 426.039 169.356L422.215 170.529ZM424.007 173.047C424.86 173.671 425.89 174.004 426.945 174L426.93 170C426.727 170.001 426.53 169.937 426.37 169.819L424.007 173.047ZM426.938 174H511.062V170H426.938V174ZM511.055 174C512.11 174.004 513.14 173.671 513.993 173.047L511.63 169.819C511.47 169.937 511.273 170.001 511.07 170L511.055 174ZM513.993 173.047C514.845 172.423 515.475 171.541 515.785 170.529L511.961 169.356C511.905 169.539 511.79 169.702 511.63 169.819L513.993 173.047ZM515.785 170.529C516.096 169.517 516.069 168.433 515.709 167.438L511.947 168.798C512.012 168.978 512.017 169.173 511.961 169.356L515.785 170.529ZM515.709 167.438C515.35 166.443 514.678 165.593 513.796 165.011L511.593 168.35C511.759 168.459 511.882 168.617 511.947 168.798L515.709 167.438ZM513.803 165.016L471.746 137.007L469.529 140.337L511.586 168.345L513.803 165.016ZM471.747 137.008C470.935 136.467 469.981 136.178 469.006 136.178V140.178C469.193 140.178 469.375 140.234 469.528 140.336L471.747 137.008ZM469.006 136.178C468.031 136.178 467.076 136.467 466.264 137.008L468.483 140.336C468.636 140.234 468.818 140.178 469.006 140.178V136.178ZM462.846 122.297C462.846 119.578 465.375 117 469.006 117V113C463.591 113 458.846 116.967 458.846 122.297H462.846ZM469.006 117C472.64 117 475.165 119.559 475.165 122.297H479.165C479.165 116.94 474.417 113 469.006 113V117ZM475.165 122.297C475.165 125.035 472.64 127.594 469.006 127.594V131.594C474.417 131.594 479.165 127.654 479.165 122.297H475.165ZM467.006 129.594L467.006 138.082L471.006 138.082L471.006 129.594L467.006 129.594ZM399.266 137.007L357.197 165.016L359.414 168.345L401.482 140.337L399.266 137.007ZM357.204 165.011C356.322 165.593 355.65 166.443 355.291 167.438L359.053 168.798C359.118 168.617 359.241 168.459 359.407 168.35L357.204 165.011ZM355.291 167.438C354.931 168.433 354.904 169.517 355.215 170.529L359.039 169.356C358.983 169.173 358.988 168.978 359.053 168.798L355.291 167.438ZM355.215 170.529C355.525 171.541 356.155 172.423 357.007 173.047L359.37 169.819C359.21 169.702 359.095 169.539 359.039 169.356L355.215 170.529ZM357.007 173.047C357.86 173.671 358.89 174.004 359.945 174L359.93 170C359.727 170.001 359.53 169.937 359.37 169.819L357.007 173.047ZM359.938 174H444.062V170H359.938V174ZM444.055 174C445.11 174.004 446.14 173.671 446.993 173.047L444.63 169.819C444.47 169.937 444.273 170.001 444.07 170L444.055 174ZM446.993 173.047C447.845 172.423 448.475 171.541 448.785 170.529L444.961 169.356C444.905 169.539 444.79 169.702 444.63 169.819L446.993 173.047ZM448.785 170.529C449.096 169.517 449.069 168.433 448.709 167.438L444.947 168.798C445.012 168.978 445.017 169.173 444.961 169.356L448.785 170.529ZM448.709 167.438C448.35 166.443 447.678 165.593 446.796 165.011L444.593 168.35C444.759 168.459 444.882 168.617 444.947 168.798L448.709 167.438ZM446.803 165.016L404.746 137.007L402.529 140.337L444.586 168.345L446.803 165.016ZM404.747 137.008C403.935 136.467 402.981 136.178 402.006 136.178V140.178C402.193 140.178 402.375 140.234 402.528 140.336L404.747 137.008ZM402.006 136.178C401.031 136.178 400.076 136.467 399.264 137.008L401.483 140.336C401.636 140.234 401.818 140.178 402.006 140.178V136.178ZM395.846 122.297C395.846 119.578 398.375 117 402.006 117V113C396.591 113 391.846 116.967 391.846 122.297H395.846ZM402.006 117C405.64 117 408.165 119.559 408.165 122.297H412.165C412.165 116.94 407.417 113 402.006 113V117ZM408.165 122.297C408.165 125.035 405.64 127.594 402.006 127.594V131.594C407.417 131.594 412.165 127.654 412.165 122.297H408.165ZM400.006 129.594L400.006 138.082L404.006 138.082L404.006 129.594L400.006 129.594ZM466.266 427.007L424.197 455.016L426.414 458.345L468.482 430.337L466.266 427.007ZM424.204 455.011C423.322 455.593 422.65 456.443 422.291 457.438L426.053 458.798C426.118 458.617 426.241 458.459 426.407 458.35L424.204 455.011ZM422.291 457.438C421.931 458.433 421.904 459.517 422.215 460.529L426.039 459.356C425.983 459.173 425.988 458.978 426.053 458.798L422.291 457.438ZM422.215 460.529C422.525 461.54 423.155 462.423 424.007 463.047L426.37 459.819C426.21 459.702 426.095 459.539 426.039 459.356L422.215 460.529ZM424.007 463.047C424.86 463.671 425.89 464.004 426.945 464L426.93 460C426.727 460.001 426.53 459.937 426.37 459.819L424.007 463.047ZM426.938 464H511.062V460H426.938V464ZM511.055 464C512.11 464.004 513.14 463.671 513.993 463.047L511.63 459.819C511.47 459.937 511.273 460.001 511.07 460L511.055 464ZM513.993 463.047C514.845 462.423 515.475 461.54 515.785 460.529L511.961 459.356C511.905 459.539 511.79 459.702 511.63 459.819L513.993 463.047ZM515.785 460.529C516.096 459.517 516.069 458.433 515.709 457.438L511.947 458.798C512.012 458.978 512.017 459.173 511.961 459.356L515.785 460.529ZM515.709 457.438C515.35 456.443 514.678 455.593 513.796 455.011L511.593 458.35C511.759 458.459 511.882 458.617 511.947 458.798L515.709 457.438ZM513.803 455.016L471.746 427.007L469.529 430.337L511.586 458.345L513.803 455.016ZM471.747 427.008C470.935 426.467 469.981 426.178 469.006 426.178V430.178C469.193 430.178 469.375 430.234 469.528 430.336L471.747 427.008ZM469.006 426.178C468.031 426.178 467.076 426.467 466.264 427.008L468.483 430.336C468.636 430.234 468.818 430.178 469.006 430.178V426.178ZM462.846 412.297C462.846 409.578 465.375 407 469.006 407V403C463.591 403 458.846 406.967 458.846 412.297H462.846ZM469.006 407C472.64 407 475.165 409.559 475.165 412.297H479.165C479.165 406.94 474.417 403 469.006 403V407ZM475.165 412.297C475.165 415.035 472.64 417.594 469.006 417.594V421.594C474.417 421.594 479.165 417.654 479.165 412.297H475.165ZM467.006 419.594L467.006 428.082L471.006 428.082L471.006 419.594L467.006 419.594ZM402.518 430.337L444.586 458.345L446.803 455.016L404.734 427.007L402.518 430.337ZM444.593 458.35C444.759 458.459 444.882 458.617 444.947 458.798L448.709 457.438C448.35 456.443 447.678 455.593 446.796 455.011L444.593 458.35ZM444.947 458.798C445.012 458.978 445.017 459.173 444.961 459.356L448.785 460.529C449.096 459.517 449.069 458.433 448.709 457.438L444.947 458.798ZM444.961 459.356C444.905 459.539 444.79 459.702 444.63 459.819L446.993 463.047C447.845 462.423 448.475 461.54 448.785 460.529L444.961 459.356ZM444.63 459.819C444.47 459.937 444.273 460.001 444.07 460L444.055 464C445.11 464.004 446.14 463.671 446.993 463.047L444.63 459.819ZM444.062 460H359.938V464H444.062V460ZM359.93 460C359.727 460.001 359.53 459.937 359.37 459.819L357.007 463.047C357.86 463.671 358.89 464.004 359.945 464L359.93 460ZM359.37 459.819C359.21 459.702 359.095 459.539 359.039 459.356L355.215 460.529C355.525 461.54 356.155 462.423 357.007 463.047L359.37 459.819ZM359.039 459.356C358.983 459.173 358.988 458.978 359.053 458.798L355.291 457.438C354.931 458.433 354.904 459.517 355.215 460.529L359.039 459.356ZM359.053 458.798C359.118 458.617 359.241 458.459 359.407 458.35L357.204 455.011C356.322 455.593 355.65 456.443 355.291 457.438L359.053 458.798ZM359.414 458.345L401.471 430.337L399.254 427.007L357.197 455.016L359.414 458.345ZM401.472 430.336C401.625 430.234 401.807 430.178 401.994 430.178V426.178C401.019 426.178 400.065 426.467 399.253 427.008L401.472 430.336ZM401.994 430.178C402.182 430.178 402.364 430.234 402.517 430.336L404.736 427.008C403.924 426.467 402.969 426.178 401.994 426.178V430.178ZM412.154 412.297C412.154 406.967 407.409 403 401.994 403V407C405.625 407 408.154 409.578 408.154 412.297H412.154ZM401.994 403C396.583 403 391.835 406.94 391.835 412.297H395.835C395.835 409.559 398.36 407 401.994 407V403ZM391.835 412.297C391.835 417.654 396.583 421.594 401.994 421.594V417.594C398.36 417.594 395.835 415.035 395.835 412.297H391.835ZM399.994 419.594L399.994 428.082L403.994 428.082L403.994 419.594L399.994 419.594ZM469.518 720.337L511.586 748.345L513.803 745.016L471.734 717.007L469.518 720.337ZM511.593 748.35C511.759 748.459 511.882 748.617 511.947 748.798L515.709 747.438C515.35 746.443 514.678 745.593 513.796 745.011L511.593 748.35ZM511.947 748.798C512.012 748.978 512.017 749.173 511.961 749.356L515.785 750.529C516.096 749.517 516.069 748.433 515.709 747.438L511.947 748.798ZM511.961 749.356C511.905 749.539 511.79 749.702 511.63 749.819L513.993 753.047C514.845 752.423 515.475 751.54 515.785 750.529L511.961 749.356ZM511.63 749.819C511.47 749.937 511.273 750.001 511.07 750L511.055 754C512.11 754.004 513.14 753.671 513.993 753.047L511.63 749.819ZM511.062 750H426.938V754H511.062V750ZM426.93 750C426.727 750.001 426.53 749.937 426.37 749.819L424.007 753.047C424.86 753.671 425.89 754.004 426.945 754L426.93 750ZM426.37 749.819C426.21 749.702 426.095 749.539 426.039 749.356L422.215 750.529C422.525 751.54 423.155 752.423 424.007 753.047L426.37 749.819ZM426.039 749.356C425.983 749.173 425.988 748.978 426.053 748.798L422.291 747.438C421.931 748.433 421.904 749.517 422.215 750.529L426.039 749.356ZM426.053 748.798C426.118 748.617 426.241 748.459 426.407 748.35L424.204 745.011C423.322 745.593 422.65 746.443 422.291 747.438L426.053 748.798ZM426.414 748.345L468.471 720.337L466.254 717.007L424.197 745.016L426.414 748.345ZM468.472 720.336C468.625 720.234 468.807 720.178 468.994 720.178V716.178C468.019 716.178 467.065 716.467 466.253 717.008L468.472 720.336ZM468.994 720.178C469.182 720.178 469.364 720.234 469.517 720.336L471.736 717.008C470.924 716.467 469.969 716.178 468.994 716.178V720.178ZM479.154 702.297C479.154 696.967 474.409 693 468.994 693V697C472.625 697 475.154 699.578 475.154 702.297H479.154ZM468.994 693C463.583 693 458.835 696.94 458.835 702.297H462.835C462.835 699.559 465.36 697 468.994 697V693ZM458.835 702.297C458.835 707.654 463.583 711.594 468.994 711.594V707.594C465.36 707.594 462.835 705.035 462.835 702.297H458.835ZM466.994 709.594L466.994 718.082L470.994 718.082L470.994 709.594L466.994 709.594ZM399.266 717.007L357.197 745.016L359.414 748.345L401.482 720.337L399.266 717.007ZM357.204 745.011C356.322 745.593 355.65 746.443 355.291 747.438L359.053 748.798C359.118 748.617 359.241 748.459 359.407 748.35L357.204 745.011ZM355.291 747.438C354.931 748.433 354.904 749.517 355.215 750.529L359.039 749.356C358.983 749.173 358.988 748.978 359.053 748.798L355.291 747.438ZM355.215 750.529C355.525 751.54 356.155 752.423 357.007 753.047L359.37 749.819C359.21 749.702 359.095 749.539 359.039 749.356L355.215 750.529ZM357.007 753.047C357.86 753.671 358.89 754.004 359.945 754L359.93 750C359.727 750.001 359.53 749.937 359.37 749.819L357.007 753.047ZM359.938 754H444.062V750H359.938V754ZM444.055 754C445.11 754.004 446.14 753.671 446.993 753.047L444.63 749.819C444.47 749.937 444.273 750.001 444.07 750L444.055 754ZM446.993 753.047C447.845 752.423 448.475 751.54 448.785 750.529L444.961 749.356C444.905 749.539 444.79 749.702 444.63 749.819L446.993 753.047ZM448.785 750.529C449.096 749.517 449.069 748.433 448.709 747.438L444.947 748.798C445.012 748.978 445.017 749.173 444.961 749.356L448.785 750.529ZM448.709 747.438C448.35 746.443 447.678 745.593 446.796 745.011L444.593 748.35C444.759 748.459 444.882 748.617 444.947 748.798L448.709 747.438ZM446.803 745.016L404.746 717.007L402.529 720.337L444.586 748.345L446.803 745.016ZM404.747 717.008C403.935 716.467 402.981 716.178 402.006 716.178V720.178C402.193 720.178 402.375 720.234 402.528 720.336L404.747 717.008ZM402.006 716.178C401.031 716.178 400.076 716.467 399.264 717.008L401.483 720.336C401.636 720.234 401.818 720.178 402.006 720.178V716.178ZM395.846 702.297C395.846 699.578 398.375 697 402.006 697V693C396.591 693 391.846 696.967 391.846 702.297H395.846ZM402.006 697C405.64 697 408.165 699.559 408.165 702.297H412.165C412.165 696.94 407.417 693 402.006 693V697ZM408.165 702.297C408.165 705.035 405.64 707.594 402.006 707.594V711.594C407.417 711.594 412.165 707.654 412.165 702.297H408.165ZM400.006 709.594L400.006 718.082L404.006 718.082L404.006 709.594L400.006 709.594Z" fill="#222229"/>
</g>
<defs>
<clipPath id="clip0">
<rect width="846" height="848" fill="white"/>
</clipPath>
</defs>
</svg>
