<svg width="228" height="144" viewBox="0 0 228 144" fill="none" xmlns="http://www.w3.org/2000/svg">
<g clip-path="url(#clip0)">
<path d="M112.374 65.6719L113.482 67.3367L113.483 67.336L112.374 65.6719ZM70.3056 93.6804L71.407 95.3498L71.414 95.3452L70.3056 93.6804ZM71.9375 99V97L71.9296 97L71.9375 99ZM156.062 99L156.07 97H156.062V99ZM157.694 93.6804L156.586 95.3451L156.593 95.3498L157.694 93.6804ZM115.638 65.6719L114.528 67.336L114.529 67.3366L115.638 65.6719ZM114.006 65.1785V67.1785V65.1785ZM103.846 49.297C103.846 50.4016 104.742 51.297 105.846 51.297C106.951 51.297 107.846 50.4016 107.846 49.297H103.846ZM114.006 56.594V54.594H112.006L112.006 56.594L114.006 56.594ZM112.006 65.0821C112.006 66.1867 112.901 67.0821 114.006 67.0821C115.11 67.0821 116.006 66.1867 116.006 65.0821L112.006 65.0821ZM111.266 64.0072L69.1972 92.0157L71.414 95.3452L113.482 67.3367L111.266 64.0072ZM69.2042 92.011C68.3224 92.5928 67.6502 93.4432 67.2907 94.4381L71.0526 95.7975C71.1178 95.6172 71.241 95.4594 71.407 95.3498L69.2042 92.011ZM67.2907 94.4381C66.9311 95.4332 66.9044 96.5175 67.2147 97.5291L71.0388 96.3559C70.9827 96.1732 70.9875 95.9777 71.0526 95.7975L67.2907 94.4381ZM67.2147 97.5291C67.525 98.5405 68.1548 99.4228 69.0074 100.047L71.37 96.8192C71.2099 96.702 71.0949 96.5389 71.0388 96.3559L67.2147 97.5291ZM69.0074 100.047C69.8597 100.671 70.89 101.004 71.9455 101L71.9296 97C71.7266 97.0008 71.5303 96.9366 71.37 96.8192L69.0074 100.047ZM71.9375 101H156.062V97H71.9375V101ZM156.055 101C157.11 101.004 158.14 100.671 158.993 100.047L156.63 96.8192C156.47 96.9366 156.273 97.0008 156.07 97L156.055 101ZM158.993 100.047C159.845 99.4228 160.475 98.5405 160.785 97.5291L156.961 96.3559C156.905 96.5389 156.79 96.702 156.63 96.8192L158.993 100.047ZM160.785 97.5291C161.096 96.5175 161.069 95.4332 160.709 94.4381L156.947 95.7975C157.012 95.9777 157.017 96.1732 156.961 96.3559L160.785 97.5291ZM160.709 94.4381C160.35 93.4432 159.678 92.5928 158.796 92.011L156.593 95.3498C156.759 95.4594 156.882 95.6172 156.947 95.7975L160.709 94.4381ZM158.803 92.0158L116.746 64.0073L114.529 67.3366L156.586 95.3451L158.803 92.0158ZM116.747 64.0079C115.935 63.4666 114.981 63.1785 114.006 63.1785V67.1785C114.193 67.1785 114.375 67.234 114.528 67.336L116.747 64.0079ZM114.006 63.1785C113.031 63.1785 112.076 63.4666 111.264 64.0079L113.483 67.336C113.636 67.234 113.818 67.1785 114.006 67.1785V63.1785ZM107.846 49.297C107.846 46.5781 110.375 44 114.006 44V40C108.591 40 103.846 43.9672 103.846 49.297H107.846ZM114.006 44C117.64 44 120.165 46.5588 120.165 49.297H124.165C124.165 43.9402 119.417 40 114.006 40V44ZM120.165 49.297C120.165 52.0352 117.64 54.594 114.006 54.594V58.594C119.417 58.594 124.165 54.6538 124.165 49.297H120.165ZM112.006 56.594L112.006 65.0821L116.006 65.0821L116.006 56.594L112.006 56.594Z" fill="#222229"/>
</g>
<defs>
<clipPath id="clip0">
<rect width="228" height="144" fill="white"/>
</clipPath>
</defs>
</svg>
