<svg width="872" height="148" viewBox="0 0 872 148" fill="none" xmlns="http://www.w3.org/2000/svg">
<path d="M351.679 120.929H329.989L317.824 74C317.373 72.3298 316.595 68.8876 315.489 63.6733C314.424 58.4183 313.809 54.8945 313.645 53.1021C313.4 55.3019 312.785 58.846 311.802 63.7344C310.819 68.582 310.061 72.0446 309.529 74.1222L297.424 120.929H275.796L252.878 31.5932H271.618L283.108 80.3549C285.115 89.3577 286.569 97.1588 287.47 103.758C287.716 101.436 288.269 97.8513 289.129 93.0036C290.031 88.1152 290.87 84.3267 291.649 81.6381L304.736 31.5932H322.739L335.827 81.6381C336.4 83.8786 337.117 87.3005 337.977 91.9037C338.837 96.507 339.493 100.458 339.943 103.758C340.353 100.581 341.008 96.6292 341.909 91.9037C342.811 87.1376 343.63 83.288 344.367 80.3549L355.796 31.5932H374.536L351.679 120.929Z" fill="#E89600"/>
<path d="M427.992 120.929L424.367 111.641H423.875C420.721 115.592 417.465 118.342 414.106 119.89C410.788 121.397 406.446 122.151 401.08 122.151C394.485 122.151 389.282 120.277 385.473 116.529C381.704 112.781 379.82 107.445 379.82 100.52C379.82 93.2684 382.36 87.9319 387.439 84.5101C392.559 81.0474 400.26 79.1328 410.542 78.7662L422.462 78.3996V75.4054C422.462 68.4802 418.898 65.0176 411.771 65.0176C406.282 65.0176 399.83 66.6674 392.416 69.9671L386.21 57.3795C394.116 53.2651 402.882 51.2079 412.508 51.2079C421.725 51.2079 428.791 53.204 433.706 57.1962C438.622 61.1883 441.079 67.2581 441.079 75.4054V120.929H427.992ZM422.462 89.2762L415.212 89.5206C409.764 89.6836 405.708 90.6613 403.046 92.4537C400.383 94.2461 399.052 96.9754 399.052 100.642C399.052 105.897 402.083 108.524 408.146 108.524C412.488 108.524 415.949 107.282 418.53 104.797C421.151 102.312 422.462 99.0123 422.462 94.8979V89.2762Z" fill="#E89600"/>
<path d="M498.775 51.3301C501.315 51.3301 503.424 51.5134 505.104 51.88L503.69 69.356C502.175 68.9487 500.331 68.745 498.16 68.745C492.18 68.745 487.51 70.2726 484.151 73.3278C480.833 76.3831 479.174 80.6604 479.174 86.1599V120.929H460.434V52.6133H474.628L477.392 64.101H478.314C480.444 60.2718 483.312 57.1961 486.916 54.8742C490.562 52.5114 494.515 51.3301 498.775 51.3301Z" fill="#E89600"/>
<path d="M539.328 122.151C531.258 122.151 524.909 119.034 520.28 112.802C515.692 106.569 513.398 97.9328 513.398 86.8931C513.398 75.6906 515.733 66.9729 520.403 60.7402C525.114 54.4668 531.586 51.3301 539.819 51.3301C548.462 51.3301 555.057 54.6705 559.604 61.3513H560.218C559.276 56.2592 558.805 51.7171 558.805 47.7249V25.8493H577.607V120.929H563.229L559.604 112.068H558.805C554.545 118.79 548.053 122.151 539.328 122.151ZM545.902 107.302C550.695 107.302 554.197 105.917 556.409 103.147C558.662 100.377 559.891 95.6719 560.096 89.0318V87.0153C560.096 79.6828 558.949 74.4277 556.655 71.2503C554.402 68.0728 550.715 66.4841 545.595 66.4841C541.417 66.4841 538.16 68.2561 535.825 71.8002C533.531 75.3036 532.384 80.416 532.384 87.1376C532.384 93.8591 533.552 98.9104 535.887 102.292C538.222 105.632 541.56 107.302 545.902 107.302Z" fill="#E89600"/>
<path d="M635.548 51.3301C638.088 51.3301 640.197 51.5134 641.877 51.88L640.464 69.356C638.948 68.9487 637.105 68.745 634.934 68.745C628.953 68.745 624.284 70.2726 620.925 73.3278C617.607 76.3831 615.948 80.6604 615.948 86.1599V120.929H597.207V52.6133H611.401L614.166 64.101H615.088C617.218 60.2718 620.085 57.1961 623.69 54.8742C627.335 52.5114 631.288 51.3301 635.548 51.3301Z" fill="#E89600"/>
<path d="M669.281 86.6487C669.281 93.411 670.387 98.5234 672.599 101.986C674.852 105.449 678.497 107.18 683.536 107.18C688.533 107.18 692.117 105.469 694.288 102.047C696.5 98.5845 697.606 93.4517 697.606 86.6487C697.606 79.8864 696.5 74.8147 694.288 71.4336C692.076 68.0525 688.451 66.3619 683.413 66.3619C678.415 66.3619 674.811 68.0525 672.599 71.4336C670.387 74.774 669.281 79.8457 669.281 86.6487ZM716.777 86.6487C716.777 97.7698 713.827 106.467 707.929 112.741C702.03 119.014 693.817 122.151 683.29 122.151C676.695 122.151 670.878 120.725 665.84 117.873C660.802 114.981 656.931 110.846 654.227 105.469C651.524 100.092 650.172 93.8184 650.172 86.6487C650.172 75.4869 653.101 66.81 658.958 60.618C664.816 54.4261 673.049 51.3301 683.659 51.3301C690.253 51.3301 696.07 52.7559 701.109 55.6074C706.147 58.459 710.018 62.553 712.721 67.8895C715.425 73.226 716.777 79.4791 716.777 86.6487Z" fill="#E89600"/>
<path d="M770.478 51.3301C778.589 51.3301 784.938 54.4872 789.526 60.8013C794.114 67.0748 796.408 75.6906 796.408 86.6487C796.408 97.9328 794.032 106.671 789.28 112.863C784.569 119.055 778.138 122.151 769.987 122.151C761.917 122.151 755.588 119.238 751.001 113.413H749.71L746.577 120.929H732.26V25.8493H751.001V47.9693C751.001 50.7801 750.755 55.2815 750.263 61.4735H751.001C755.384 54.7112 761.876 51.3301 770.478 51.3301ZM764.457 66.2397C759.828 66.2397 756.449 67.6655 754.319 70.517C752.189 73.3278 751.083 77.9922 751.001 84.5101V86.5265C751.001 93.8591 752.086 99.1141 754.257 102.292C756.469 105.469 759.951 107.058 764.703 107.058C768.553 107.058 771.605 105.306 773.858 101.803C776.152 98.2587 777.299 93.1258 777.299 86.4043C777.299 79.6828 776.152 74.6518 773.858 71.3114C771.564 67.9302 768.43 66.2397 764.457 66.2397Z" fill="#E89600"/>
<path d="M840.34 64.5898C836.366 64.5898 833.253 65.8527 831 68.3784C828.747 70.8633 827.457 74.4074 827.129 79.0106H853.427C853.345 74.4074 852.137 70.8633 849.802 68.3784C847.467 65.8527 844.313 64.5898 840.34 64.5898ZM842.982 122.151C831.922 122.151 823.279 119.116 817.053 113.046C810.826 106.976 807.713 98.3809 807.713 87.2598C807.713 75.8128 810.58 66.9729 816.315 60.7402C822.091 54.4668 830.058 51.3301 840.217 51.3301C849.925 51.3301 857.482 54.0798 862.889 59.5792C868.297 65.0787 871 72.6761 871 82.3714V91.4149H826.699C826.904 96.7107 828.481 100.845 831.43 103.819C834.38 106.793 838.517 108.28 843.842 108.28C847.979 108.28 851.891 107.852 855.578 106.997C859.264 106.141 863.115 104.777 867.129 102.903V117.323C863.852 118.953 860.35 120.155 856.622 120.929C852.895 121.743 848.348 122.151 842.982 122.151Z" fill="#E89600"/>
<path fill-rule="evenodd" clip-rule="evenodd" d="M1 18.8444C1 8.98923 8.97311 1 18.8084 1H167.752C177.587 1 185.56 8.98923 185.56 18.8444V129.156C185.56 139.011 177.587 147 167.752 147H18.8084C8.97311 147 1 139.011 1 129.156V18.8444ZM18.8084 10.7333C14.3378 10.7333 10.7137 14.3648 10.7137 18.8444V129.156C10.7137 133.635 14.3378 137.267 18.8084 137.267H167.752C172.222 137.267 175.846 133.635 175.846 129.156V18.8444C175.846 14.3648 172.222 10.7333 167.752 10.7333H18.8084Z" fill="#E89600"/>
<path d="M88.4232 10.7333H98.1369V137.267H88.4232V10.7333Z" fill="#E89600"/>
<path d="M98.1369 69.1333H175.846V78.8667H98.1369V69.1333Z" fill="#E89600"/>
<path d="M56.0442 62.6444C56.0442 60.8526 57.4939 59.4 59.2821 59.4H65.7579C67.5462 59.4 68.9958 60.8526 68.9958 62.6444V85.3556C68.9958 87.1474 67.5462 88.6 65.7579 88.6H59.2821C57.4939 88.6 56.0442 87.1474 56.0442 85.3556V62.6444Z" fill="#E89600"/>
<path d="M125.659 48.0444C123.871 48.0444 122.421 46.5919 122.421 44.8V38.3111C122.421 36.5193 123.871 35.0667 125.659 35.0667H148.324C150.113 35.0667 151.562 36.5193 151.562 38.3111V44.8C151.562 46.5919 150.113 48.0444 148.324 48.0444H125.659Z" fill="#E89600"/>
<path d="M125.659 112.933C123.871 112.933 122.421 111.481 122.421 109.689V103.2C122.421 101.408 123.871 99.9556 125.659 99.9556H148.324C150.113 99.9556 151.562 101.408 151.562 103.2V109.689C151.562 111.481 150.113 112.933 148.324 112.933H125.659Z" fill="#E89600"/>
<path d="M351.679 120.929V121.429H352.067L352.163 121.053L351.679 120.929ZM329.989 120.929L329.505 121.054L329.602 121.429H329.989V120.929ZM317.824 74L318.308 73.8745L318.306 73.8698L317.824 74ZM315.489 63.6733L314.999 63.7726L315 63.777L315.489 63.6733ZM313.645 53.1021L314.143 53.0566L313.148 53.0466L313.645 53.1021ZM311.802 63.7344L312.292 63.8338L312.292 63.833L311.802 63.7344ZM309.529 74.1222L310.013 74.2474L310.013 74.2464L309.529 74.1222ZM297.424 120.929V121.429H297.811L297.908 121.054L297.424 120.929ZM275.796 120.929L275.312 121.053L275.408 121.429H275.796V120.929ZM252.878 31.5932V31.0932H252.233L252.393 31.7174L252.878 31.5932ZM271.618 31.5932L272.105 31.4785L272.014 31.0932H271.618V31.5932ZM283.108 80.3549L283.596 80.2461L283.595 80.2402L283.108 80.3549ZM287.47 103.758L286.975 103.826L287.968 103.811L287.47 103.758ZM289.129 93.0036L288.638 92.913L288.637 92.9163L289.129 93.0036ZM291.649 81.6381L292.129 81.7772L292.132 81.7646L291.649 81.6381ZM304.736 31.5932V31.0932H304.35L304.252 31.4667L304.736 31.5932ZM322.739 31.5932L323.223 31.4667L323.125 31.0932H322.739V31.5932ZM335.827 81.6381L336.311 81.5141L336.31 81.5116L335.827 81.6381ZM339.943 103.758L339.448 103.826L340.439 103.822L339.943 103.758ZM341.909 91.9037L342.401 91.9974L342.401 91.9966L341.909 91.9037ZM344.367 80.3549L344.852 80.4768L344.854 80.469L344.367 80.3549ZM355.796 31.5932V31.0932H355.399L355.309 31.4791L355.796 31.5932ZM374.536 31.5932L375.02 31.7171L375.18 31.0932H374.536V31.5932ZM427.992 120.929L427.526 121.11L427.65 121.429H427.992V120.929ZM424.367 111.641L424.832 111.459L424.708 111.141H424.367V111.641ZM423.875 111.641V111.141H423.635L423.484 111.329L423.875 111.641ZM414.106 119.89L414.312 120.345L414.315 120.344L414.106 119.89ZM385.473 116.529L385.12 116.884L385.122 116.885L385.473 116.529ZM387.439 84.5101L387.718 84.9247L387.719 84.9242L387.439 84.5101ZM410.542 78.7662L410.527 78.2664L410.524 78.2665L410.542 78.7662ZM422.462 78.3996L422.477 78.8993L422.962 78.8844V78.3996H422.462ZM392.416 69.9671L391.968 70.1882L392.18 70.6193L392.619 70.4239L392.416 69.9671ZM386.21 57.3795L385.979 56.9359L385.545 57.1618L385.762 57.6006L386.21 57.3795ZM441.079 120.929V121.429H441.579V120.929H441.079ZM422.462 89.2762H422.962V88.7591L422.445 88.7765L422.462 89.2762ZM415.212 89.5206L415.227 90.0204L415.228 90.0204L415.212 89.5206ZM418.53 104.797L418.186 104.434L418.183 104.437L418.53 104.797ZM505.104 51.88L505.602 51.9203L505.637 51.4847L505.21 51.3915L505.104 51.88ZM503.69 69.356L503.561 69.8389L504.14 69.9947L504.189 69.3963L503.69 69.356ZM484.151 73.3278L483.815 72.958L483.813 72.96L484.151 73.3278ZM479.174 120.929V121.429H479.674V120.929H479.174ZM460.434 120.929H459.934V121.429H460.434V120.929ZM460.434 52.6133V52.1133H459.934V52.6133H460.434ZM474.628 52.6133L475.114 52.4963L475.021 52.1133H474.628V52.6133ZM477.392 64.101L476.906 64.218L476.999 64.601H477.392V64.101ZM478.314 64.101V64.601H478.608L478.751 64.3441L478.314 64.101ZM486.916 54.8742L487.187 55.2945L487.188 55.2938L486.916 54.8742ZM520.28 112.802L519.877 113.098L519.879 113.1L520.28 112.802ZM520.403 60.7402L520.003 60.44L520.003 60.4404L520.403 60.7402ZM559.604 61.3513L559.191 61.6326L559.339 61.8513H559.604V61.3513ZM560.218 61.3513V61.8513H560.819L560.71 61.2603L560.218 61.3513ZM558.805 25.8493V25.3493H558.305V25.8493H558.805ZM577.607 25.8493H578.107V25.3493H577.607V25.8493ZM577.607 120.929V121.429H578.107V120.929H577.607ZM563.229 120.929L562.766 121.118L562.894 121.429H563.229V120.929ZM559.604 112.068L560.067 111.879L559.94 111.568H559.604V112.068ZM558.805 112.068V111.568H558.53L558.383 111.801L558.805 112.068ZM556.409 103.147L556.021 102.832L556.018 102.835L556.409 103.147ZM560.096 89.0318L560.595 89.0472L560.596 89.0395V89.0318H560.096ZM556.655 71.2503L556.247 71.5395L556.249 71.543L556.655 71.2503ZM535.825 71.8002L535.408 71.5252L535.407 71.5263L535.825 71.8002ZM535.887 102.292L535.475 102.576L535.477 102.578L535.887 102.292ZM641.877 51.88L642.375 51.9203L642.411 51.4847L641.984 51.3915L641.877 51.88ZM640.464 69.356L640.334 69.8389L640.914 69.9947L640.962 69.3963L640.464 69.356ZM620.925 73.3278L620.588 72.958L620.586 72.96L620.925 73.3278ZM615.948 120.929V121.429H616.448V120.929H615.948ZM597.207 120.929H596.707V121.429H597.207V120.929ZM597.207 52.6133V52.1133H596.707V52.6133H597.207ZM611.401 52.6133L611.887 52.4963L611.795 52.1133H611.401V52.6133ZM614.166 64.101L613.68 64.218L613.772 64.601H614.166V64.101ZM615.088 64.101V64.601H615.382L615.524 64.3441L615.088 64.101ZM623.69 54.8742L623.96 55.2945L623.962 55.2938L623.69 54.8742ZM672.599 101.986L672.177 102.255L672.18 102.259L672.599 101.986ZM694.288 102.047L693.867 101.778L693.866 101.779L694.288 102.047ZM672.599 71.4336L673.016 71.7097L673.017 71.7073L672.599 71.4336ZM665.84 117.873L665.591 118.307L665.594 118.308L665.84 117.873ZM789.526 60.8013L789.121 61.0952L789.122 61.0965L789.526 60.8013ZM789.28 112.863L788.883 112.558L788.882 112.56L789.28 112.863ZM751.001 113.413L751.394 113.103L751.243 112.913H751.001V113.413ZM749.71 113.413V112.913H749.377L749.249 113.22L749.71 113.413ZM746.577 120.929V121.429H746.91L747.038 121.121L746.577 120.929ZM732.26 120.929H731.76V121.429H732.26V120.929ZM732.26 25.8493V25.3493H731.76V25.8493H732.26ZM751.001 25.8493H751.501V25.3493H751.001V25.8493ZM750.263 61.4735L749.765 61.4339L749.722 61.9735H750.263V61.4735ZM751.001 61.4735V61.9735H751.272L751.42 61.7454L751.001 61.4735ZM754.319 70.517L754.717 70.819L754.719 70.8162L754.319 70.517ZM751.001 84.5101L750.501 84.5038V84.5101H751.001ZM754.257 102.292L753.844 102.574L753.847 102.577L754.257 102.292ZM773.858 101.803L773.438 101.531L773.437 101.532L773.858 101.803ZM773.858 71.3114L773.444 71.5921L773.446 71.5944L773.858 71.3114ZM831 68.3784L831.371 68.7142L831.373 68.7112L831 68.3784ZM827.129 79.0106L826.631 78.9751L826.592 79.5106H827.129V79.0106ZM853.427 79.0106V79.5106H853.936L853.927 79.0017L853.427 79.0106ZM849.802 68.3784L849.435 68.7178L849.438 68.7207L849.802 68.3784ZM816.315 60.7402L815.947 60.4016L815.947 60.4017L816.315 60.7402ZM871 91.4149V91.9149H871.5V91.4149H871ZM826.699 91.4149V90.9149H826.18L826.2 91.4342L826.699 91.4149ZM867.129 102.903H867.629V102.117L866.918 102.45L867.129 102.903ZM867.129 117.323L867.352 117.771L867.629 117.633V117.323H867.129ZM856.622 120.929L856.521 120.439L856.515 120.44L856.622 120.929ZM88.4232 10.7333V10.2333H87.9232V10.7333H88.4232ZM98.1369 10.7333H98.6369V10.2333H98.1369V10.7333ZM98.1369 137.267V137.767H98.6369V137.267H98.1369ZM88.4232 137.267H87.9232V137.767H88.4232V137.267ZM98.1369 69.1333V68.6333H97.6369V69.1333H98.1369ZM175.846 69.1333H176.346V68.6333H175.846V69.1333ZM175.846 78.8667V79.3667H176.346V78.8667H175.846ZM98.1369 78.8667H97.6369V79.3667H98.1369V78.8667ZM351.679 120.429H329.989V121.429H351.679V120.429ZM330.473 120.803L318.308 73.8745L317.34 74.1255L329.505 121.054L330.473 120.803ZM318.306 73.8698C317.86 72.215 317.084 68.7863 315.978 63.5695L315 63.777C316.105 68.9888 316.886 72.4446 317.341 74.1302L318.306 73.8698ZM315.979 63.574C314.913 58.3146 314.304 54.8174 314.143 53.0566L313.147 53.1476C313.314 54.9716 313.934 58.5219 314.999 63.7726L315.979 63.574ZM313.148 53.0466C312.905 55.2229 312.295 58.7485 311.312 63.6358L312.292 63.833C313.276 58.9434 313.894 55.3809 314.142 53.1576L313.148 53.0466ZM311.312 63.635C310.329 68.4822 309.573 71.9339 309.044 73.9981L310.013 74.2464C310.549 72.1554 311.309 68.6819 312.292 63.8338L311.312 63.635ZM309.045 73.997L296.94 120.803L297.908 121.054L310.013 74.2474L309.045 73.997ZM297.424 120.429H275.796V121.429H297.424V120.429ZM276.28 120.804L253.362 31.4689L252.393 31.7174L275.312 121.053L276.28 120.804ZM252.878 32.0932H271.618V31.0932H252.878V32.0932ZM271.131 31.7079L282.621 80.4696L283.595 80.2402L272.105 31.4785L271.131 31.7079ZM282.62 80.4637C284.625 89.4577 286.076 97.2443 286.975 103.826L287.966 103.69C287.062 97.0732 285.605 89.2578 283.596 80.2461L282.62 80.4637ZM287.968 103.811C288.211 101.507 288.762 97.9368 289.622 93.091L288.637 92.9163C287.777 97.7658 287.221 101.365 286.973 103.705L287.968 103.811ZM289.621 93.0943C290.521 88.2118 291.357 84.4422 292.129 81.7771L291.168 81.4991C290.383 84.2113 289.54 88.0187 288.638 92.913L289.621 93.0943ZM292.132 81.7646L305.22 31.7197L304.252 31.4667L291.165 81.5116L292.132 81.7646ZM304.736 32.0932H322.739V31.0932H304.736V32.0932ZM322.255 31.7197L335.343 81.7646L336.31 81.5116L323.223 31.4667L322.255 31.7197ZM335.342 81.7621C335.911 83.986 336.626 87.3946 337.486 91.9956L338.469 91.8119C337.608 87.2064 336.889 83.7713 336.311 81.5141L335.342 81.7621ZM337.486 91.9956C338.345 96.5937 338.999 100.537 339.448 103.826L340.439 103.69C339.987 100.38 339.33 96.4202 338.469 91.8119L337.486 91.9956ZM340.439 103.822C340.847 100.658 341.5 96.7173 342.401 91.9974L341.418 91.8101C340.516 96.541 339.859 100.503 339.447 103.694L340.439 103.822ZM342.401 91.9966C343.301 87.2351 344.118 83.3963 344.852 80.4768L343.882 80.233C343.142 83.1796 342.32 87.04 341.418 91.8109L342.401 91.9966ZM344.854 80.469L356.282 31.7073L355.309 31.4791L343.88 80.2408L344.854 80.469ZM355.796 32.0932H374.536V31.0932H355.796V32.0932ZM374.052 31.4693L351.195 120.805L352.163 121.053L375.02 31.7171L374.052 31.4693ZM428.458 120.747L424.832 111.459L423.901 111.822L427.526 121.11L428.458 120.747ZM424.367 111.141H423.875V112.141H424.367V111.141ZM423.484 111.329C420.362 115.24 417.163 117.93 413.896 119.436L414.315 120.344C417.766 118.754 421.08 115.944 424.266 111.953L423.484 111.329ZM413.899 119.435C410.669 120.902 406.405 121.651 401.08 121.651V122.651C406.486 122.651 410.906 121.892 414.312 120.345L413.899 119.435ZM401.08 121.651C394.583 121.651 389.519 119.808 385.824 116.173L385.122 116.885C389.046 120.746 394.386 122.651 401.08 122.651V121.651ZM385.825 116.174C382.177 112.547 380.32 107.354 380.32 100.52H379.32C379.32 107.536 381.231 113.016 385.12 116.884L385.825 116.174ZM380.32 100.52C380.32 93.3995 382.804 88.2356 387.718 84.9247L387.16 84.0954C381.916 87.6283 379.32 93.1373 379.32 100.52H380.32ZM387.719 84.9242C392.726 81.5384 400.316 79.6311 410.56 79.2659L410.524 78.2665C400.204 78.6345 392.393 80.5564 387.159 84.0959L387.719 84.9242ZM410.557 79.2659L422.477 78.8993L422.447 77.8998L410.527 78.2664L410.557 79.2659ZM422.962 78.3996V75.4054H421.962V78.3996H422.962ZM422.962 75.4054C422.962 71.862 422.049 69.1135 420.138 67.2559C418.228 65.401 415.408 64.5176 411.771 64.5176V65.5176C415.261 65.5176 417.786 66.3655 419.441 67.9731C421.093 69.5782 421.962 72.0236 421.962 75.4054H422.962ZM411.771 64.5176C406.187 64.5176 399.663 66.1946 392.213 69.5103L392.619 70.4239C399.998 67.1402 406.377 65.5176 411.771 65.5176V64.5176ZM392.865 69.746L386.659 57.1584L385.762 57.6006L391.968 70.1882L392.865 69.746ZM386.441 57.823C394.27 53.7486 402.956 51.7079 412.508 51.7079V50.7079C402.808 50.7079 393.962 52.7815 385.979 56.9359L386.441 57.823ZM412.508 51.7079C421.661 51.7079 428.597 53.691 433.391 57.5843L434.021 56.808C428.984 52.7169 421.789 50.7079 412.508 50.7079V51.7079ZM433.391 57.5843C438.157 61.4555 440.579 67.362 440.579 75.4054H441.579C441.579 67.1542 439.086 60.9212 434.021 56.808L433.391 57.5843ZM440.579 75.4054V120.929H441.579V75.4054H440.579ZM441.079 120.429H427.992V121.429H441.079V120.429ZM422.445 88.7765L415.195 89.0209L415.228 90.0204L422.479 89.7759L422.445 88.7765ZM415.197 89.0209C409.713 89.1849 405.545 90.1686 402.767 92.0389L403.325 92.8685C405.872 91.1539 409.815 90.1823 415.227 90.0204L415.197 89.0209ZM402.767 92.0389C399.945 93.9386 398.552 96.8366 398.552 100.642H399.552C399.552 97.1143 400.822 94.5535 403.325 92.8685L402.767 92.0389ZM398.552 100.642C398.552 103.366 399.341 105.495 400.998 106.931C402.641 108.356 405.053 109.024 408.146 109.024V108.024C405.175 108.024 403.041 107.379 401.653 106.176C400.278 104.984 399.552 103.172 399.552 100.642H398.552ZM408.146 109.024C412.588 109.024 416.184 107.75 418.876 105.157L418.183 104.437C415.714 106.814 412.387 108.024 408.146 108.024V109.024ZM418.874 105.16C421.609 102.567 422.962 99.1286 422.962 94.8979H421.962C421.962 98.896 420.693 102.057 418.186 104.434L418.874 105.16ZM422.962 94.8979V89.2762H421.962V94.8979H422.962ZM498.775 51.8301C501.294 51.8301 503.365 52.0122 504.997 52.3685L505.21 51.3915C503.483 51.0146 501.335 50.8301 498.775 50.8301V51.8301ZM504.605 51.8397L503.192 69.3157L504.189 69.3963L505.602 51.9203L504.605 51.8397ZM503.82 68.8732C502.25 68.451 500.36 68.245 498.16 68.245V69.245C500.303 69.245 502.1 69.4463 503.561 69.8389L503.82 68.8732ZM498.16 68.245C492.096 68.245 487.292 69.7953 483.815 72.958L484.488 73.6977C487.729 70.7499 492.264 69.245 498.16 69.245V68.245ZM483.813 72.96C480.37 76.1302 478.674 80.5537 478.674 86.1599H479.674C479.674 80.7671 481.297 76.6359 484.49 73.6957L483.813 72.96ZM478.674 86.1599V120.929H479.674V86.1599H478.674ZM479.174 120.429H460.434V121.429H479.174V120.429ZM460.934 120.929V52.6133H459.934V120.929H460.934ZM460.434 53.1133H474.628V52.1133H460.434V53.1133ZM474.141 52.7303L476.906 64.218L477.879 63.984L475.114 52.4963L474.141 52.7303ZM477.392 64.601H478.314V63.601H477.392V64.601ZM478.751 64.3441C480.842 60.585 483.653 57.571 487.187 55.2945L486.646 54.4538C482.97 56.8213 480.046 59.9585 477.877 63.858L478.751 64.3441ZM487.188 55.2938C490.755 52.9824 494.613 51.8301 498.775 51.8301V50.8301C494.416 50.8301 490.369 52.0405 486.644 54.4546L487.188 55.2938ZM539.328 121.651C531.409 121.651 525.212 118.603 520.682 112.504L519.879 113.1C524.606 119.465 531.107 122.651 539.328 122.651V121.651ZM520.683 112.505C516.18 106.388 513.898 97.8701 513.898 86.8931H512.898C512.898 97.9954 515.205 106.75 519.877 113.098L520.683 112.505ZM513.898 86.8931C513.898 75.7529 516.221 67.1556 520.803 61.04L520.003 60.4404C515.245 66.7902 512.898 75.6282 512.898 86.8931H513.898ZM520.803 61.0405C525.414 54.8999 531.734 51.8301 539.819 51.8301V50.8301C531.438 50.8301 524.814 54.0337 520.003 60.44L520.803 61.0405ZM539.819 51.8301C548.31 51.8301 554.744 55.0995 559.191 61.6326L560.017 61.07C555.37 54.2415 548.614 50.8301 539.819 50.8301V51.8301ZM559.604 61.8513H560.218V60.8513H559.604V61.8513ZM560.71 61.2603C559.772 56.1899 559.305 51.6791 559.305 47.7249H558.305C558.305 51.755 558.781 56.3285 559.727 61.4422L560.71 61.2603ZM559.305 47.7249V25.8493H558.305V47.7249H559.305ZM558.805 26.3493H577.607V25.3493H558.805V26.3493ZM577.107 25.8493V120.929H578.107V25.8493H577.107ZM577.607 120.429H563.229V121.429H577.607V120.429ZM563.692 120.739L560.067 111.879L559.141 112.258L562.766 121.118L563.692 120.739ZM559.604 111.568H558.805V112.568H559.604V111.568ZM558.383 111.801C554.225 118.362 547.901 121.651 539.328 121.651V122.651C548.204 122.651 554.866 119.218 559.228 112.336L558.383 111.801ZM545.902 107.802C550.79 107.802 554.462 106.386 556.8 103.459L556.018 102.835C553.932 105.448 550.6 106.802 545.902 106.802V107.802ZM556.797 103.463C559.157 100.56 560.39 95.715 560.595 89.0472L559.596 89.0164C559.392 95.6287 558.167 100.193 556.021 102.832L556.797 103.463ZM560.596 89.0318V87.0153H559.596V89.0318H560.596ZM560.596 87.0153C560.596 79.6564 559.449 74.2673 557.06 70.9576L556.249 71.543C558.448 74.5882 559.596 79.7091 559.596 87.0153H560.596ZM557.063 70.9611C554.688 67.6114 550.821 65.9841 545.595 65.9841V66.9841C550.609 66.9841 554.116 68.5342 556.247 71.5395L557.063 70.9611ZM545.595 65.9841C541.245 65.9841 537.833 67.8433 535.408 71.5252L536.243 72.0753C538.487 68.6689 541.588 66.9841 545.595 66.9841V65.9841ZM535.407 71.5263C533.037 75.1466 531.884 80.3724 531.884 87.1376H532.884C532.884 80.4597 534.026 75.4605 536.244 72.0741L535.407 71.5263ZM531.884 87.1376C531.884 93.9019 533.057 99.0731 535.475 102.576L536.298 102.007C534.047 98.7477 532.884 93.8163 532.884 87.1376H531.884ZM535.477 102.578C537.912 106.062 541.409 107.802 545.902 107.802V106.802C541.711 106.802 538.531 105.202 536.297 102.005L535.477 102.578ZM635.548 51.8301C638.067 51.8301 640.138 52.0122 641.77 52.3685L641.984 51.3915C640.257 51.0146 638.108 50.8301 635.548 50.8301V51.8301ZM641.379 51.8397L639.965 69.3157L640.962 69.3963L642.375 51.9203L641.379 51.8397ZM640.594 68.8732C639.023 68.451 637.133 68.245 634.934 68.245V69.245C637.076 69.245 638.873 69.4463 640.334 69.8389L640.594 68.8732ZM634.934 68.245C628.869 68.245 624.065 69.7953 620.588 72.958L621.261 73.6977C624.502 70.7499 629.037 69.245 634.934 69.245V68.245ZM620.586 72.96C617.143 76.1302 615.448 80.5537 615.448 86.1599H616.448C616.448 80.7671 618.07 76.6359 621.263 73.6957L620.586 72.96ZM615.448 86.1599V120.929H616.448V86.1599H615.448ZM615.948 120.429H597.207V121.429H615.948V120.429ZM597.707 120.929V52.6133H596.707V120.929H597.707ZM597.207 53.1133H611.401V52.1133H597.207V53.1133ZM610.915 52.7303L613.68 64.218L614.652 63.984L611.887 52.4963L610.915 52.7303ZM614.166 64.601H615.088V63.601H614.166V64.601ZM615.524 64.3441C617.615 60.585 620.426 57.571 623.96 55.2945L623.419 54.4538C619.743 56.8213 616.82 59.9585 614.651 63.858L615.524 64.3441ZM623.962 55.2938C627.528 52.9824 631.387 51.8301 635.548 51.8301V50.8301C631.19 50.8301 627.143 52.0405 623.418 54.4546L623.962 55.2938ZM668.781 86.6487C668.781 93.451 669.891 98.6757 672.177 102.255L673.02 101.717C670.883 98.3712 669.781 93.371 669.781 86.6487H668.781ZM672.18 102.259C674.546 105.896 678.371 107.68 683.536 107.68V106.68C678.624 106.68 675.157 105.002 673.018 101.713L672.18 102.259ZM683.536 107.68C688.658 107.68 692.426 105.916 694.71 102.315L693.866 101.779C691.809 105.022 688.408 106.68 683.536 106.68V107.68ZM694.71 102.316C696.997 98.7364 698.106 93.491 698.106 86.6487H697.106C697.106 93.4125 696.004 98.4327 693.867 101.778L694.71 102.316ZM698.106 86.6487C698.106 79.8479 696.997 74.6605 694.707 71.1599L693.87 71.7073C696.004 74.969 697.106 79.925 697.106 86.6487H698.106ZM694.707 71.1599C692.379 67.602 688.572 65.8619 683.413 65.8619V66.8619C688.33 66.8619 691.774 68.5029 693.87 71.7073L694.707 71.1599ZM683.413 65.8619C678.292 65.8619 674.507 67.6032 672.18 71.1599L673.017 71.7073C675.114 68.5017 678.538 66.8619 683.413 66.8619V65.8619ZM672.182 71.1575C669.89 74.6191 668.781 79.8086 668.781 86.6487H669.781C669.781 79.8828 670.884 74.9289 673.016 71.7097L672.182 71.1575ZM716.277 86.6487C716.277 97.6809 713.353 106.242 707.565 112.398L708.293 113.083C714.302 106.692 717.277 97.8587 717.277 86.6487H716.277ZM707.565 112.398C701.781 118.549 693.712 121.651 683.29 121.651V122.651C693.922 122.651 702.28 119.479 708.293 113.083L707.565 112.398ZM683.29 121.651C676.769 121.651 671.04 120.242 666.086 117.438L665.594 118.308C670.717 121.208 676.621 122.651 683.29 122.651V121.651ZM666.089 117.44C661.139 114.598 657.335 110.537 654.674 105.244L653.78 105.694C656.526 111.155 660.464 115.364 665.591 118.307L666.089 117.44ZM654.674 105.244C652.011 99.949 650.672 93.7552 650.672 86.6487H649.672C649.672 93.8816 651.036 100.235 653.78 105.694L654.674 105.244ZM650.672 86.6487C650.672 75.5739 653.576 67.0348 659.321 60.9616L658.595 60.2744C652.625 66.5851 649.672 75.3999 649.672 86.6487H650.672ZM659.321 60.9616C665.063 54.8929 673.151 51.8301 683.659 51.8301V50.8301C672.948 50.8301 664.569 53.9592 658.595 60.2744L659.321 60.9616ZM683.659 51.8301C690.179 51.8301 695.909 53.2391 700.862 56.0426L701.355 55.1723C696.231 52.2726 690.328 50.8301 683.659 50.8301V51.8301ZM700.862 56.0426C705.812 58.8439 709.615 62.8638 712.275 68.1155L713.167 67.6636C710.421 62.2423 706.482 58.0741 701.355 55.1723L700.862 56.0426ZM712.275 68.1155C714.937 73.3693 716.277 79.5421 716.277 86.6487H717.277C717.277 79.416 715.913 73.0827 713.167 67.6636L712.275 68.1155ZM770.478 51.8301C778.436 51.8301 784.632 54.9164 789.121 61.0952L789.93 60.5074C785.244 54.0579 778.742 50.8301 770.478 50.8301V51.8301ZM789.122 61.0965C793.626 67.2555 795.908 75.7545 795.908 86.6487H796.908C796.908 75.6267 794.601 66.894 789.929 60.5062L789.122 61.0965ZM795.908 86.6487C795.908 97.8701 793.544 106.485 788.883 112.558L789.677 113.167C794.519 106.856 796.908 97.9954 796.908 86.6487H795.908ZM788.882 112.56C784.271 118.621 777.991 121.651 769.987 121.651V122.651C778.286 122.651 784.868 119.488 789.678 113.165L788.882 112.56ZM769.987 121.651C762.055 121.651 755.877 118.797 751.394 113.103L750.608 113.722C755.3 119.679 761.779 122.651 769.987 122.651V121.651ZM751.001 112.913H749.71V113.913H751.001V112.913ZM749.249 113.22L746.115 120.736L747.038 121.121L750.172 113.605L749.249 113.22ZM746.577 120.429H732.26V121.429H746.577V120.429ZM732.76 120.929V25.8493H731.76V120.929H732.76ZM732.26 26.3493H751.001V25.3493H732.26V26.3493ZM750.501 25.8493V47.9693H751.501V25.8493H750.501ZM750.501 47.9693C750.501 50.7588 750.256 55.2433 749.765 61.4339L750.762 61.5131C751.254 55.3197 751.501 50.8014 751.501 47.9693H750.501ZM750.263 61.9735H751.001V60.9735H750.263V61.9735ZM751.42 61.7454C755.704 55.1365 762.032 51.8301 770.478 51.8301V50.8301C761.72 50.8301 755.063 54.286 750.581 61.2015L751.42 61.7454ZM764.457 65.7397C759.722 65.7397 756.17 67.2034 753.918 70.2178L754.719 70.8162C756.728 68.1275 759.934 66.7397 764.457 66.7397V65.7397ZM753.92 70.215C751.69 73.1575 750.583 77.9577 750.501 84.5038L751.501 84.5163C751.582 78.0267 752.687 73.4982 754.717 70.819L753.92 70.215ZM750.501 84.5101V86.5265H751.501V84.5101H750.501ZM750.501 86.5265C750.501 93.8825 751.585 99.2665 753.844 102.574L754.67 102.01C752.588 98.9618 751.501 93.8357 751.501 86.5265H750.501ZM753.847 102.577C756.174 105.92 759.829 107.558 764.703 107.558V106.558C760.073 106.558 756.764 105.018 754.668 102.006L753.847 102.577ZM764.703 107.558C768.739 107.558 771.942 105.706 774.278 102.073L773.437 101.532C771.267 104.907 768.367 106.558 764.703 106.558V107.558ZM774.277 102.074C776.646 98.4146 777.799 93.1701 777.799 86.4043H776.799C776.799 93.0816 775.657 98.1027 773.438 101.531L774.277 102.074ZM777.799 86.4043C777.799 79.6418 776.648 74.4907 774.27 71.0283L773.446 71.5944C775.656 74.8129 776.799 79.7237 776.799 86.4043H777.799ZM774.271 71.0307C771.888 67.517 768.602 65.7397 764.457 65.7397V66.7397C768.259 66.7397 771.24 68.3435 773.444 71.5921L774.271 71.0307ZM840.34 64.0898C836.251 64.0898 832.992 65.3947 830.627 68.0455L831.373 68.7112C833.515 66.3106 836.482 65.0898 840.34 65.0898V64.0898ZM830.63 68.0425C828.278 70.6366 826.963 74.3017 826.631 78.9751L827.628 79.0461C827.951 74.5131 829.217 71.0899 831.371 68.7142L830.63 68.0425ZM827.129 79.5106H853.427V78.5106H827.129V79.5106ZM853.927 79.0017C853.844 74.3184 852.612 70.6391 850.166 68.036L849.438 68.7207C851.661 71.0875 852.847 74.4963 852.927 79.0195L853.927 79.0017ZM850.169 68.0389C847.725 65.3947 844.429 64.0898 840.34 64.0898V65.0898C844.197 65.0898 847.21 66.3107 849.435 68.7178L850.169 68.0389ZM842.982 121.651C832.015 121.651 823.511 118.644 817.402 112.688L816.704 113.404C823.047 119.588 831.829 122.651 842.982 122.651V121.651ZM817.402 112.688C811.297 106.737 808.213 98.2856 808.213 87.2598H807.213C807.213 98.4761 810.356 107.216 816.704 113.404L817.402 112.688ZM808.213 87.2598C808.213 75.8934 811.059 67.1908 816.683 61.0788L815.947 60.4017C810.102 66.755 807.213 75.7321 807.213 87.2598H808.213ZM816.683 61.0789C822.346 54.9279 830.169 51.8301 840.217 51.8301V50.8301C829.947 50.8301 821.836 54.0057 815.947 60.4016L816.683 61.0789ZM840.217 51.8301C849.827 51.8301 857.243 54.5493 862.533 59.9298L863.246 59.2287C857.722 53.6103 850.022 50.8301 840.217 50.8301V51.8301ZM862.533 59.9298C867.826 65.3132 870.5 72.7717 870.5 82.3714H871.5C871.5 72.5804 868.767 64.8442 863.246 59.2287L862.533 59.9298ZM870.5 82.3714V91.4149H871.5V82.3714H870.5ZM871 90.9149H826.699V91.9149H871V90.9149ZM826.2 91.4342C826.408 96.8206 828.016 101.087 831.075 104.171L831.785 103.467C828.946 100.604 827.4 96.6007 827.199 91.3956L826.2 91.4342ZM831.075 104.171C834.142 107.264 838.422 108.78 843.842 108.78V107.78C838.612 107.78 834.617 106.322 831.785 103.467L831.075 104.171ZM843.842 108.78C848.014 108.78 851.964 108.349 855.691 107.484L855.465 106.51C851.818 107.356 847.945 107.78 843.842 107.78V108.78ZM855.691 107.484C859.416 106.619 863.3 105.242 867.341 103.356L866.918 102.45C862.93 104.311 859.112 105.663 855.465 106.51L855.691 107.484ZM866.629 102.903V117.323H867.629V102.903H866.629ZM866.906 116.876C863.669 118.485 860.208 119.673 856.521 120.439L856.724 121.418C860.492 120.636 864.035 119.42 867.352 117.771L866.906 116.876ZM856.515 120.44C852.834 121.245 848.325 121.651 842.982 121.651V122.651C848.37 122.651 852.955 122.242 856.729 121.417L856.515 120.44ZM18.8084 0.5C8.69601 0.5 0.5 8.71404 0.5 18.8444H1.5C1.5 9.26442 9.2502 1.5 18.8084 1.5V0.5ZM167.752 0.5H18.8084V1.5H167.752V0.5ZM186.06 18.8444C186.06 8.71404 177.864 0.5 167.752 0.5V1.5C177.31 1.5 185.06 9.26442 185.06 18.8444H186.06ZM186.06 129.156V18.8444H185.06V129.156H186.06ZM167.752 147.5C177.864 147.5 186.06 139.286 186.06 129.156H185.06C185.06 138.736 177.31 146.5 167.752 146.5V147.5ZM18.8084 147.5H167.752V146.5H18.8084V147.5ZM0.5 129.156C0.5 139.286 8.69602 147.5 18.8084 147.5V146.5C9.25021 146.5 1.5 138.736 1.5 129.156H0.5ZM0.5 18.8444V129.156H1.5V18.8444H0.5ZM11.2137 18.8444C11.2137 14.64 14.6149 11.2333 18.8084 11.2333V10.2333C14.0607 10.2333 10.2137 14.0896 10.2137 18.8444H11.2137ZM11.2137 129.156V18.8444H10.2137V129.156H11.2137ZM18.8084 136.767C14.6149 136.767 11.2137 133.36 11.2137 129.156H10.2137C10.2137 133.91 14.0607 137.767 18.8084 137.767V136.767ZM167.752 136.767H18.8084V137.767H167.752V136.767ZM175.346 129.156C175.346 133.36 171.945 136.767 167.752 136.767V137.767C172.499 137.767 176.346 133.91 176.346 129.156H175.346ZM175.346 18.8444V129.156H176.346V18.8444H175.346ZM167.752 11.2333C171.945 11.2333 175.346 14.64 175.346 18.8444H176.346C176.346 14.0896 172.499 10.2333 167.752 10.2333V11.2333ZM18.8084 11.2333H167.752V10.2333H18.8084V11.2333ZM88.4232 11.2333H98.1369V10.2333H88.4232V11.2333ZM97.6369 10.7333V137.267H98.6369V10.7333H97.6369ZM98.1369 136.767H88.4232V137.767H98.1369V136.767ZM88.9232 137.267V10.7333H87.9232V137.267H88.9232ZM98.1369 69.6333H175.846V68.6333H98.1369V69.6333ZM175.346 69.1333V78.8667H176.346V69.1333H175.346ZM175.846 78.3667H98.1369V79.3667H175.846V78.3667ZM98.6369 78.8667V69.1333H97.6369V78.8667H98.6369ZM59.2821 59.9H65.7579V58.9H59.2821V59.9ZM68.4958 62.6444V85.3556H69.4958V62.6444H68.4958ZM65.7579 88.1H59.2821V89.1H65.7579V88.1ZM56.5442 85.3556V62.6444H55.5442V85.3556H56.5442ZM59.2821 88.1C57.771 88.1 56.5442 86.8722 56.5442 85.3556H55.5442C55.5442 87.4226 57.2168 89.1 59.2821 89.1V88.1ZM68.4958 85.3556C68.4958 86.8722 67.2691 88.1 65.7579 88.1V89.1C67.8233 89.1 69.4958 87.4226 69.4958 85.3556H68.4958ZM65.7579 59.9C67.2691 59.9 68.4958 61.1278 68.4958 62.6444H69.4958C69.4958 60.5774 67.8233 58.9 65.7579 58.9V59.9ZM59.2821 58.9C57.2168 58.9 55.5442 60.5774 55.5442 62.6444H56.5442C56.5442 61.1278 57.771 59.9 59.2821 59.9V58.9ZM122.921 44.8V38.3111H121.921V44.8H122.921ZM125.659 35.5667H148.324V34.5667H125.659V35.5667ZM151.062 38.3111V44.8H152.062V38.3111H151.062ZM148.324 47.5444H125.659V48.5444H148.324V47.5444ZM151.062 44.8C151.062 46.3167 149.835 47.5444 148.324 47.5444V48.5444C150.39 48.5444 152.062 46.867 152.062 44.8H151.062ZM148.324 35.5667C149.835 35.5667 151.062 36.7944 151.062 38.3111H152.062C152.062 36.2441 150.39 34.5667 148.324 34.5667V35.5667ZM122.921 38.3111C122.921 36.7944 124.148 35.5667 125.659 35.5667V34.5667C123.594 34.5667 121.921 36.2441 121.921 38.3111H122.921ZM121.921 44.8C121.921 46.867 123.594 48.5444 125.659 48.5444V47.5444C124.148 47.5444 122.921 46.3167 122.921 44.8H121.921ZM122.921 109.689V103.2H121.921V109.689H122.921ZM125.659 100.456H148.324V99.4556H125.659V100.456ZM151.062 103.2V109.689H152.062V103.2H151.062ZM148.324 112.433H125.659V113.433H148.324V112.433ZM151.062 109.689C151.062 111.206 149.835 112.433 148.324 112.433V113.433C150.39 113.433 152.062 111.756 152.062 109.689H151.062ZM148.324 100.456C149.835 100.456 151.062 101.683 151.062 103.2H152.062C152.062 101.133 150.39 99.4556 148.324 99.4556V100.456ZM122.921 103.2C122.921 101.683 124.148 100.456 125.659 100.456V99.4556C123.594 99.4556 121.921 101.133 121.921 103.2H122.921ZM121.921 109.689C121.921 111.756 123.594 113.433 125.659 113.433V112.433C124.148 112.433 122.921 111.206 122.921 109.689H121.921Z" fill="#E89600"/>
</svg>
