<svg width="272" height="69" viewBox="0 0 272 69" fill="none" xmlns="http://www.w3.org/2000/svg">
<path d="M93.422 9.41016C93.422 12.1523 92.7267 14.3086 91.336 15.8789C89.9532 17.4492 88.0274 18.2344 85.5587 18.2344C83.0352 18.2344 81.086 17.4648 79.711 15.9258C78.3438 14.3789 77.6602 12.1992 77.6602 9.38672C77.6602 6.59766 78.3477 4.4375 79.7227 2.90625C81.0977 1.36719 83.0509 0.597656 85.5821 0.597656C88.0431 0.597656 89.9649 1.37891 91.3477 2.94141C92.7306 4.50391 93.422 6.66016 93.422 9.41016ZM79.7696 9.41016C79.7696 11.7305 80.2618 13.4922 81.2462 14.6953C82.2384 15.8906 83.6759 16.4883 85.5587 16.4883C87.4571 16.4883 88.8907 15.8906 89.8595 14.6953C90.8282 13.5 91.3126 11.7383 91.3126 9.41016C91.3126 7.10547 90.8282 5.35938 89.8595 4.17188C88.8985 2.97656 87.4727 2.37891 85.5821 2.37891C83.6837 2.37891 82.2384 2.98047 81.2462 4.18359C80.2618 5.37891 79.7696 7.12109 79.7696 9.41016Z" fill="#5D5D5D"/>
<path d="M102.938 18.2344C102.102 18.2344 101.336 18.082 100.641 17.7773C99.9532 17.4648 99.3751 16.9883 98.9063 16.3477H98.7657C98.8595 17.0977 98.9063 17.8086 98.9063 18.4805V23.7656H96.961V5.15625H98.5431L98.8126 6.91406H98.9063C99.4063 6.21094 99.9884 5.70312 100.652 5.39062C101.316 5.07812 102.078 4.92188 102.938 4.92188C104.641 4.92188 105.953 5.50391 106.875 6.66797C107.805 7.83203 108.27 9.46484 108.27 11.5664C108.27 13.6758 107.797 15.3164 106.852 16.4883C105.914 17.6523 104.609 18.2344 102.938 18.2344ZM102.656 6.57422C101.344 6.57422 100.395 6.9375 99.8087 7.66406C99.2227 8.39062 98.922 9.54688 98.9063 11.1328V11.5664C98.9063 13.3711 99.2071 14.6641 99.8087 15.4453C100.41 16.2188 101.375 16.6055 102.703 16.6055C103.813 16.6055 104.68 16.1562 105.305 15.2578C105.938 14.3594 106.254 13.1211 106.254 11.543C106.254 9.94141 105.938 8.71484 105.305 7.86328C104.68 7.00391 103.797 6.57422 102.656 6.57422Z" fill="#5D5D5D"/>
<path d="M117.106 18.2344C115.207 18.2344 113.707 17.6562 112.606 16.5C111.512 15.3438 110.965 13.7383 110.965 11.6836C110.965 9.61328 111.473 7.96875 112.488 6.75C113.512 5.53125 114.883 4.92188 116.602 4.92188C118.211 4.92188 119.484 5.45312 120.422 6.51562C121.359 7.57031 121.828 8.96484 121.828 10.6992V11.9297H112.981C113.02 13.4375 113.399 14.582 114.117 15.3633C114.844 16.1445 115.863 16.5352 117.176 16.5352C118.559 16.5352 119.926 16.2461 121.277 15.668V17.4023C120.59 17.6992 119.938 17.9102 119.32 18.0352C118.711 18.168 117.973 18.2344 117.106 18.2344ZM116.578 6.55078C115.547 6.55078 114.723 6.88672 114.106 7.55859C113.496 8.23047 113.137 9.16016 113.027 10.3477H119.742C119.742 9.12109 119.469 8.18359 118.922 7.53516C118.375 6.87891 117.594 6.55078 116.578 6.55078Z" fill="#5D5D5D"/>
<path d="M133.945 18V9.69141C133.945 8.64453 133.707 7.86328 133.231 7.34766C132.754 6.83203 132.008 6.57422 130.992 6.57422C129.649 6.57422 128.664 6.9375 128.039 7.66406C127.414 8.39062 127.102 9.58984 127.102 11.2617V18H125.156V5.15625H126.738L127.055 6.91406H127.149C127.547 6.28125 128.106 5.79297 128.824 5.44922C129.543 5.09766 130.344 4.92188 131.227 4.92188C132.774 4.92188 133.938 5.29688 134.719 6.04688C135.5 6.78906 135.891 7.98047 135.891 9.62109V18H133.945Z" fill="#5D5D5D"/>
<path d="M156.094 13.4414C156.094 14.9492 155.547 16.125 154.453 16.9688C153.359 17.8125 151.875 18.2344 150 18.2344C147.969 18.2344 146.406 17.9727 145.313 17.4492V15.5273C146.016 15.8242 146.781 16.0586 147.609 16.2305C148.438 16.4023 149.258 16.4883 150.07 16.4883C151.399 16.4883 152.399 16.2383 153.07 15.7383C153.742 15.2305 154.078 14.5273 154.078 13.6289C154.078 13.0352 153.957 12.5508 153.715 12.1758C153.481 11.793 153.082 11.4414 152.52 11.1211C151.965 10.8008 151.117 10.4375 149.977 10.0312C148.383 9.46094 147.242 8.78516 146.555 8.00391C145.875 7.22266 145.535 6.20312 145.535 4.94531C145.535 3.625 146.031 2.57422 147.024 1.79297C148.016 1.01172 149.328 0.621094 150.961 0.621094C152.664 0.621094 154.231 0.933594 155.66 1.55859L155.039 3.29297C153.625 2.69922 152.25 2.40234 150.914 2.40234C149.859 2.40234 149.035 2.62891 148.441 3.08203C147.848 3.53516 147.551 4.16406 147.551 4.96875C147.551 5.5625 147.66 6.05078 147.879 6.43359C148.098 6.80859 148.465 7.15625 148.981 7.47656C149.504 7.78906 150.301 8.13672 151.371 8.51953C153.168 9.16016 154.402 9.84766 155.074 10.582C155.754 11.3164 156.094 12.2695 156.094 13.4414Z" fill="#5D5D5D"/>
<path d="M167.203 18L166.816 16.1719H166.723C166.082 16.9766 165.441 17.5234 164.801 17.8125C164.168 18.0938 163.375 18.2344 162.422 18.2344C161.149 18.2344 160.149 17.9062 159.422 17.25C158.703 16.5938 158.344 15.6602 158.344 14.4492C158.344 11.8555 160.418 10.4961 164.566 10.3711L166.746 10.3008V9.50391C166.746 8.49609 166.527 7.75391 166.09 7.27734C165.66 6.79297 164.969 6.55078 164.016 6.55078C162.945 6.55078 161.734 6.87891 160.383 7.53516L159.785 6.04688C160.418 5.70312 161.109 5.43359 161.859 5.23828C162.617 5.04297 163.375 4.94531 164.133 4.94531C165.664 4.94531 166.797 5.28516 167.531 5.96484C168.274 6.64453 168.645 7.73438 168.645 9.23438V18H167.203ZM162.809 16.6289C164.02 16.6289 164.969 16.2969 165.656 15.6328C166.352 14.9688 166.699 14.0391 166.699 12.8438V11.6836L164.754 11.7656C163.207 11.8203 162.09 12.0625 161.402 12.4922C160.723 12.9141 160.383 13.5742 160.383 14.4727C160.383 15.1758 160.594 15.7109 161.016 16.0781C161.445 16.4453 162.043 16.6289 162.809 16.6289Z" fill="#5D5D5D"/>
<path d="M181.453 18V9.69141C181.453 8.64453 181.215 7.86328 180.738 7.34766C180.262 6.83203 179.516 6.57422 178.5 6.57422C177.156 6.57422 176.172 6.9375 175.547 7.66406C174.922 8.39062 174.609 9.58984 174.609 11.2617V18H172.664V5.15625H174.246L174.563 6.91406H174.656C175.055 6.28125 175.613 5.79297 176.332 5.44922C177.051 5.09766 177.852 4.92188 178.734 4.92188C180.281 4.92188 181.445 5.29688 182.227 6.04688C183.008 6.78906 183.399 7.98047 183.399 9.62109V18H181.453Z" fill="#5D5D5D"/>
<path d="M195.691 14.4961C195.691 15.6914 195.246 16.6133 194.356 17.2617C193.465 17.9102 192.215 18.2344 190.606 18.2344C188.902 18.2344 187.574 17.9648 186.621 17.4258V15.6211C187.238 15.9336 187.899 16.1797 188.602 16.3594C189.313 16.5391 189.996 16.6289 190.652 16.6289C191.668 16.6289 192.449 16.4688 192.996 16.1484C193.543 15.8203 193.816 15.3242 193.816 14.6602C193.816 14.1602 193.598 13.7344 193.16 13.3828C192.731 13.0234 191.887 12.6016 190.629 12.1172C189.434 11.6719 188.582 11.2852 188.074 10.957C187.574 10.6211 187.199 10.2422 186.949 9.82031C186.707 9.39844 186.586 8.89453 186.586 8.30859C186.586 7.26172 187.012 6.4375 187.863 5.83594C188.715 5.22656 189.883 4.92188 191.367 4.92188C192.75 4.92188 194.102 5.20312 195.422 5.76562L194.731 7.34766C193.441 6.81641 192.274 6.55078 191.227 6.55078C190.305 6.55078 189.609 6.69531 189.141 6.98438C188.672 7.27344 188.438 7.67188 188.438 8.17969C188.438 8.52344 188.524 8.81641 188.695 9.05859C188.875 9.30078 189.16 9.53125 189.551 9.75C189.941 9.96875 190.691 10.2852 191.801 10.6992C193.324 11.2539 194.352 11.8125 194.883 12.375C195.422 12.9375 195.691 13.6445 195.691 14.4961Z" fill="#5D5D5D"/>
<path d="M25.9939 46L24.7497 42.8213H20.7439L19.5134 46H18.3376L22.2888 35.9648H23.2663L27.197 46H25.9939ZM24.3874 41.7754L23.2253 38.6787C23.0749 38.2868 22.92 37.806 22.7605 37.2363C22.6602 37.6738 22.5167 38.1546 22.3298 38.6787L21.154 41.7754H24.3874Z" fill="#5D5D5D"/>
<path d="M28.851 36.0059H31.6743C33.0004 36.0059 33.9598 36.2041 34.5522 36.6006C35.1446 36.9971 35.4409 37.6237 35.4409 38.4805C35.4409 39.0729 35.2745 39.5628 34.9418 39.9502C34.6137 40.333 34.1329 40.5814 33.4995 40.6953V40.7637C35.017 41.0234 35.7758 41.821 35.7758 43.1562C35.7758 44.0495 35.4728 44.7467 34.8667 45.248C34.2651 45.7493 33.422 46 32.3374 46H28.851V36.0059ZM30.0131 40.2851H31.9272C32.7475 40.2851 33.3377 40.1575 33.6977 39.9023C34.0577 39.6426 34.2377 39.2073 34.2377 38.5967C34.2377 38.0361 34.0372 37.6328 33.6362 37.3867C33.2351 37.1361 32.5971 37.0107 31.7221 37.0107H30.0131V40.2851ZM30.0131 41.2695V45.0088H32.0981C32.9047 45.0088 33.5109 44.8538 33.9165 44.5439C34.3266 44.2295 34.5317 43.7396 34.5317 43.0742C34.5317 42.4544 34.3221 41.9987 33.9028 41.707C33.4881 41.4154 32.8546 41.2695 32.0024 41.2695H30.0131Z" fill="#5D5D5D"/>
<path d="M42.4884 36.9014C41.3901 36.9014 40.522 37.2682 39.884 38.0019C39.2505 38.7311 38.9338 39.7314 38.9338 41.0029C38.9338 42.3109 39.2391 43.3226 39.8498 44.0381C40.465 44.749 41.34 45.1045 42.4748 45.1045C43.172 45.1045 43.9673 44.9792 44.8605 44.7285V45.7471C44.1678 46.0068 43.3133 46.1367 42.297 46.1367C40.825 46.1367 39.688 45.6901 38.8859 44.7969C38.0884 43.9036 37.6896 42.6344 37.6896 40.9893C37.6896 39.9593 37.881 39.057 38.2638 38.2822C38.6512 37.5075 39.2072 36.9105 39.9318 36.4912C40.661 36.0719 41.5177 35.8623 42.5021 35.8623C43.5503 35.8623 44.4663 36.0537 45.2502 36.4365L44.758 37.4346C44.0015 37.0791 43.245 36.9014 42.4884 36.9014Z" fill="#5D5D5D"/>
<path d="M55.2987 40.9072C55.2987 42.557 54.8498 43.8193 53.952 44.6943C53.0588 45.5648 51.7714 46 50.0897 46H47.3212V36.0059H50.3837C51.9377 36.0059 53.1454 36.4365 54.0067 37.2978C54.8681 38.1592 55.2987 39.3623 55.2987 40.9072ZM54.0683 40.9482C54.0683 39.6448 53.7401 38.6628 53.0839 38.0019C52.4322 37.3411 51.4615 37.0107 50.1718 37.0107H48.4833V44.9951H49.8983C51.2838 44.9951 52.3251 44.6556 53.0224 43.9766C53.7196 43.293 54.0683 42.2835 54.0683 40.9482Z" fill="#5D5D5D"/>
<path d="M63.3854 46H57.8141V36.0059H63.3854V37.0381H58.9762V40.2578H63.1188V41.2832H58.9762V44.9609H63.3854V46Z" fill="#5D5D5D"/>
<path d="M67.0492 46H65.887V36.0059H71.4583V37.0381H67.0492V40.6953H71.1917V41.7275H67.0492V46Z" fill="#5D5D5D"/>
<path d="M77.795 40.7637H81.1924V45.624C80.6638 45.7926 80.126 45.9202 79.5792 46.0068C79.0323 46.0934 78.3988 46.1367 77.6788 46.1367C76.1657 46.1367 74.9877 45.6878 74.1446 44.79C73.3015 43.8877 72.8799 42.6253 72.8799 41.0029C72.8799 39.9639 73.0873 39.0547 73.502 38.2754C73.9213 37.4915 74.5228 36.8945 75.3067 36.4844C76.0905 36.0697 77.0088 35.8623 78.0616 35.8623C79.128 35.8623 80.1215 36.0583 81.042 36.4502L80.5909 37.4756C79.6885 37.0928 78.8204 36.9014 77.9864 36.9014C76.7696 36.9014 75.8194 37.2637 75.1358 37.9883C74.4522 38.7129 74.1104 39.7178 74.1104 41.0029C74.1104 42.3519 74.4385 43.375 75.0948 44.0723C75.7556 44.7695 76.724 45.1182 78.0001 45.1182C78.6928 45.1182 79.3695 45.0384 80.0303 44.8789V41.8027H77.795V40.7637Z" fill="#5D5D5D"/>
<path d="M91.4666 46H90.3045V41.2969H85.0408V46H83.8787V36.0059H85.0408V40.2578H90.3045V36.0059H91.4666V46Z" fill="#5D5D5D"/>
<path d="M94.4946 46V36.0059H95.6567V46H94.4946Z" fill="#5D5D5D"/>
<path d="M97.2287 48.6318C96.8003 48.6318 96.4631 48.5703 96.217 48.4473V47.456C96.5406 47.5472 96.8778 47.5928 97.2287 47.5928C97.6799 47.5928 98.0217 47.456 98.2541 47.1826C98.4911 46.9092 98.6096 46.515 98.6096 46V36.0059H99.7717V45.9043C99.7717 46.7702 99.5529 47.4401 99.1154 47.9141C98.6779 48.3926 98.049 48.6318 97.2287 48.6318Z" fill="#5D5D5D"/>
<path d="M109.93 46H108.562L104.919 41.1533L103.873 42.083V46H102.711V36.0059H103.873V40.9619L108.405 36.0059H109.779L105.76 40.3467L109.93 46Z" fill="#5D5D5D"/>
<path d="M111.59 46V36.0059H112.753V44.9473H117.162V46H111.59Z" fill="#5D5D5D"/>
<path d="M123.567 46L120.176 37.1406H120.121C120.185 37.8424 120.217 38.6764 120.217 39.6426V46H119.144V36.0059H120.894L124.059 44.25H124.114L127.306 36.0059H129.042V46H127.88V39.5605C127.88 38.8223 127.912 38.0202 127.976 37.1543H127.921L124.503 46H123.567Z" fill="#5D5D5D"/>
<path d="M139.877 46H138.551L133.089 37.6123H133.034C133.107 38.5967 133.144 39.499 133.144 40.3193V46H132.07V36.0059H133.383L138.831 44.3594H138.886C138.877 44.2363 138.856 43.8421 138.824 43.1768C138.792 42.5068 138.781 42.0283 138.79 41.7412V36.0059H139.877V46Z" fill="#5D5D5D"/>
<path d="M151.58 40.9893C151.58 42.5889 151.174 43.8467 150.363 44.7627C149.556 45.6787 148.433 46.1367 146.993 46.1367C145.521 46.1367 144.384 45.6878 143.582 44.79C142.784 43.8877 142.386 42.6162 142.386 40.9756C142.386 39.3486 142.787 38.0885 143.589 37.1953C144.391 36.2975 145.53 35.8486 147.007 35.8486C148.442 35.8486 149.563 36.3044 150.37 37.2158C151.177 38.1273 151.58 39.3851 151.58 40.9893ZM143.616 40.9893C143.616 42.3428 143.903 43.3704 144.477 44.0723C145.056 44.7695 145.895 45.1182 146.993 45.1182C148.1 45.1182 148.937 44.7695 149.502 44.0723C150.067 43.375 150.349 42.3473 150.349 40.9893C150.349 39.6448 150.067 38.6263 149.502 37.9336C148.941 37.2363 148.11 36.8877 147.007 36.8877C145.899 36.8877 145.056 37.2386 144.477 37.9404C143.903 38.6377 143.616 39.654 143.616 40.9893Z" fill="#5D5D5D"/>
<path d="M160.432 38.918C160.432 39.9297 160.086 40.709 159.393 41.2559C158.705 41.7982 157.718 42.0693 156.433 42.0693H155.257V46H154.095V36.0059H156.686C159.183 36.0059 160.432 36.9766 160.432 38.918ZM155.257 41.0713H156.303C157.333 41.0713 158.078 40.9049 158.539 40.5723C158.999 40.2396 159.229 39.7064 159.229 38.9726C159.229 38.3118 159.013 37.8197 158.58 37.4961C158.147 37.1725 157.472 37.0107 156.556 37.0107H155.257V41.0713Z" fill="#5D5D5D"/>
<path d="M171.486 40.9893C171.486 42.2698 171.228 43.334 170.713 44.1816C170.198 45.0293 169.471 45.6035 168.532 45.9043L170.911 48.3789H169.223L167.275 46.123L166.899 46.1367C165.427 46.1367 164.29 45.6878 163.488 44.79C162.69 43.8877 162.291 42.6162 162.291 40.9756C162.291 39.3486 162.692 38.0885 163.494 37.1953C164.296 36.2975 165.436 35.8486 166.912 35.8486C168.348 35.8486 169.469 36.3044 170.276 37.2158C171.082 38.1273 171.486 39.3851 171.486 40.9893ZM163.522 40.9893C163.522 42.3428 163.809 43.3704 164.383 44.0723C164.962 44.7695 165.8 45.1182 166.899 45.1182C168.006 45.1182 168.842 44.7695 169.407 44.0723C169.973 43.375 170.255 42.3473 170.255 40.9893C170.255 39.6448 169.973 38.6263 169.407 37.9336C168.847 37.2363 168.015 36.8877 166.912 36.8877C165.805 36.8877 164.962 37.2386 164.383 37.9404C163.809 38.6377 163.522 39.654 163.522 40.9893Z" fill="#5D5D5D"/>
<path d="M175.163 41.8437V46H174.001V36.0059H176.742C177.968 36.0059 178.873 36.2406 179.456 36.71C180.044 37.1794 180.338 37.8857 180.338 38.8291C180.338 40.1507 179.668 41.0439 178.328 41.5088L181.042 46H179.668L177.248 41.8437H175.163ZM175.163 40.8457H176.756C177.576 40.8457 178.178 40.6839 178.561 40.3603C178.943 40.0322 179.135 39.5423 179.135 38.8906C179.135 38.2298 178.939 37.7536 178.547 37.4619C178.159 37.1702 177.535 37.0244 176.674 37.0244H175.163V40.8457Z" fill="#5D5D5D"/>
<path d="M188.575 43.3408C188.575 44.2204 188.256 44.9062 187.618 45.3984C186.98 45.8906 186.114 46.1367 185.02 46.1367C183.835 46.1367 182.924 45.984 182.286 45.6787V44.5576C182.696 44.7308 183.143 44.8675 183.626 44.9678C184.109 45.068 184.587 45.1182 185.061 45.1182C185.836 45.1182 186.419 44.9723 186.811 44.6807C187.203 44.3844 187.399 43.9743 187.399 43.4502C187.399 43.1038 187.328 42.8213 187.187 42.6025C187.05 42.3792 186.818 42.1741 186.49 41.9873C186.166 41.8004 185.672 41.5885 185.007 41.3516C184.077 41.0189 183.411 40.6247 183.01 40.1689C182.614 39.7132 182.416 39.1185 182.416 38.3848C182.416 37.6146 182.705 37.0016 183.284 36.5459C183.863 36.0902 184.628 35.8623 185.581 35.8623C186.574 35.8623 187.488 36.0446 188.322 36.4092L187.96 37.4209C187.135 37.0745 186.333 36.9014 185.553 36.9014C184.938 36.9014 184.457 37.0335 184.111 37.2978C183.765 37.5622 183.591 37.929 183.591 38.3984C183.591 38.7448 183.655 39.0296 183.783 39.2529C183.911 39.4717 184.125 39.6745 184.425 39.8613C184.731 40.0436 185.196 40.2464 185.82 40.4697C186.868 40.8434 187.588 41.2445 187.98 41.6728C188.377 42.1012 188.575 42.6572 188.575 43.3408Z" fill="#5D5D5D"/>
<path d="M193.975 46H192.813V37.0381H189.648V36.0059H197.14V37.0381H193.975V46Z" fill="#5D5D5D"/>
<path d="M206.478 36.0059V42.4726C206.478 43.612 206.134 44.5075 205.445 45.1592C204.757 45.8109 203.812 46.1367 202.609 46.1367C201.405 46.1367 200.473 45.8086 199.813 45.1523C199.156 44.4961 198.828 43.5937 198.828 42.4453V36.0059H199.99V42.5273C199.99 43.3613 200.218 44.0016 200.674 44.4482C201.13 44.8948 201.8 45.1182 202.684 45.1182C203.527 45.1182 204.176 44.8948 204.632 44.4482C205.088 43.9971 205.316 43.3522 205.316 42.5137V36.0059H206.478Z" fill="#5D5D5D"/>
<path d="M215.118 36.0059H216.369L212.766 46H211.618L208.036 36.0059H209.266L211.563 42.4726C211.828 43.2155 212.037 43.9378 212.192 44.6396C212.356 43.9014 212.571 43.1654 212.835 42.4316L215.118 36.0059Z" fill="#5D5D5D"/>
<path d="M226.753 46H225.604L223.587 39.3076C223.492 39.0114 223.385 38.6377 223.266 38.1865C223.148 37.7353 223.086 37.4642 223.082 37.373C222.981 37.9746 222.822 38.6331 222.603 39.3486L220.648 46H219.5L216.84 36.0059H218.071L219.65 42.1787C219.869 43.0446 220.028 43.8284 220.128 44.5303C220.252 43.6963 220.434 42.8805 220.675 42.083L222.466 36.0059H223.697L225.577 42.1377C225.795 42.8441 225.98 43.6416 226.13 44.5303C226.217 43.8831 226.381 43.0947 226.623 42.165L228.195 36.0059H229.425L226.753 46Z" fill="#5D5D5D"/>
<path d="M237.922 46H236.603L233.916 41.6045L231.182 46H229.951L233.274 40.7773L230.177 36.0059H231.462L233.944 39.9639L236.446 36.0059H237.683L234.586 40.7363L237.922 46Z" fill="#5D5D5D"/>
<path d="M242.174 41.0029L244.84 36.0059H246.098L242.762 42.124V46H241.586V42.1787L238.257 36.0059H239.528L242.174 41.0029Z" fill="#5D5D5D"/>
<path d="M253.815 46H246.945V45.0908L252.25 37.0518H247.109V36.0059H253.665V36.915L248.36 44.9473H253.815V46Z" fill="#5D5D5D"/>
<path d="M6.07861 65L5.85303 63.9336H5.79834C5.42464 64.403 5.05094 64.722 4.67725 64.8906C4.30811 65.0547 3.84554 65.1367 3.28955 65.1367C2.54671 65.1367 1.96338 64.9453 1.53955 64.5625C1.12028 64.1797 0.910645 63.6351 0.910645 62.9287C0.910645 61.4157 2.12061 60.6227 4.54053 60.5498L5.81201 60.5088V60.0439C5.81201 59.456 5.68441 59.0231 5.4292 58.7451C5.17855 58.4626 4.77523 58.3213 4.21924 58.3213C3.59489 58.3213 2.88851 58.5127 2.1001 58.8955L1.75146 58.0273C2.12061 57.8268 2.52393 57.6696 2.96143 57.5557C3.40348 57.4417 3.84554 57.3848 4.2876 57.3848C5.18083 57.3848 5.84163 57.583 6.27002 57.9795C6.70296 58.376 6.91943 59.0117 6.91943 59.8867V65H6.07861ZM3.51514 64.2002C4.22152 64.2002 4.77523 64.0065 5.17627 63.6191C5.58187 63.2318 5.78467 62.6894 5.78467 61.9922V61.3154L4.6499 61.3633C3.74756 61.3952 3.09587 61.5365 2.69482 61.7871C2.29834 62.0332 2.1001 62.4183 2.1001 62.9424C2.1001 63.3525 2.22314 63.6647 2.46924 63.8789C2.71989 64.0931 3.06852 64.2002 3.51514 64.2002Z" fill="#5D5D5D"/>
<path d="M13.0305 57.3848C14.0149 57.3848 14.7782 57.722 15.3205 58.3965C15.8674 59.0664 16.1408 60.0166 16.1408 61.2471C16.1408 62.4775 15.8651 63.4346 15.3137 64.1182C14.7668 64.7972 14.0057 65.1367 13.0305 65.1367C12.5429 65.1367 12.0962 65.0478 11.6906 64.8701C11.2896 64.6878 10.9524 64.4098 10.6789 64.0361H10.5969L10.3576 65H9.54416V54.3633H10.6789V56.9473C10.6789 57.526 10.6607 58.0456 10.6242 58.5059H10.6789C11.2076 57.7585 11.9914 57.3848 13.0305 57.3848ZM12.8664 58.335C12.0917 58.335 11.5334 58.5583 11.1916 59.0049C10.8498 59.4469 10.6789 60.1943 10.6789 61.2471C10.6789 62.2998 10.8544 63.054 11.2053 63.5098C11.5562 63.9609 12.119 64.1865 12.8938 64.1865C13.591 64.1865 14.1106 63.9336 14.4524 63.4277C14.7942 62.9173 14.9651 62.1859 14.9651 61.2334C14.9651 60.2581 14.7942 59.5312 14.4524 59.0527C14.1106 58.5742 13.5819 58.335 12.8664 58.335Z" fill="#5D5D5D"/>
<path d="M21.4042 65.1367C20.3196 65.1367 19.4788 64.804 18.8818 64.1387C18.2893 63.4687 17.9931 62.5231 17.9931 61.3018C17.9931 60.0485 18.2939 59.0801 18.8954 58.3965C19.5016 57.7129 20.3629 57.3711 21.4794 57.3711C21.8395 57.3711 22.1995 57.4098 22.5595 57.4873C22.9195 57.5648 23.2021 57.6559 23.4072 57.7607L23.0585 58.7246C22.8079 58.6243 22.5344 58.5423 22.2382 58.4785C21.942 58.4101 21.68 58.376 21.4521 58.376C19.93 58.376 19.1689 59.3467 19.1689 61.2881C19.1689 62.2087 19.3535 62.915 19.7226 63.4072C20.0963 63.8994 20.6477 64.1455 21.3769 64.1455C22.0012 64.1455 22.6415 64.0111 23.2978 63.7422V64.7471C22.7965 65.0068 22.1653 65.1367 21.4042 65.1367Z" fill="#5D5D5D"/>
<path d="M30.4616 63.9951H30.4001C29.876 64.7562 29.0921 65.1367 28.0485 65.1367C27.0687 65.1367 26.3053 64.8018 25.7585 64.1318C25.2161 63.4619 24.945 62.5094 24.945 61.2744C24.945 60.0394 25.2184 59.0801 25.7653 58.3965C26.3122 57.7129 27.0732 57.3711 28.0485 57.3711C29.0648 57.3711 29.8441 57.7402 30.3864 58.4785H30.4753L30.4274 57.9385L30.4001 57.4121V54.3633H31.5348V65H30.612L30.4616 63.9951ZM28.1921 64.1865C28.9668 64.1865 29.5273 63.9769 29.8737 63.5576C30.2246 63.1338 30.4001 62.4525 30.4001 61.5137V61.2744C30.4001 60.2126 30.2223 59.456 29.8669 59.0049C29.5159 58.5491 28.9531 58.3213 28.1784 58.3213C27.513 58.3213 27.0026 58.581 26.6471 59.1006C26.2962 59.6156 26.1208 60.3447 26.1208 61.2881C26.1208 62.2451 26.2962 62.9674 26.6471 63.4551C26.998 63.9427 27.513 64.1865 28.1921 64.1865Z" fill="#5D5D5D"/>
<path d="M37.3929 65.1367C36.2855 65.1367 35.4105 64.7995 34.7679 64.125C34.1299 63.4505 33.8109 62.514 33.8109 61.3154C33.8109 60.1077 34.1071 59.1484 34.6996 58.4375C35.2966 57.7266 36.0964 57.3711 37.099 57.3711C38.0378 57.3711 38.7806 57.681 39.3275 58.3008C39.8744 58.916 40.1478 59.7295 40.1478 60.7412V61.459H34.9867C35.0095 62.3385 35.2305 63.0062 35.6498 63.4619C36.0736 63.9176 36.6683 64.1455 37.434 64.1455C38.2406 64.1455 39.0381 63.9769 39.8265 63.6396V64.6514C39.4255 64.8245 39.045 64.9476 38.6849 65.0205C38.3295 65.098 37.8988 65.1367 37.3929 65.1367ZM37.0853 58.3213C36.4838 58.3213 36.003 58.5172 35.6429 58.9092C35.2875 59.3011 35.0778 59.8434 35.014 60.5361H38.931C38.931 59.8206 38.7715 59.2738 38.4525 58.8955C38.1335 58.5127 37.6778 58.3213 37.0853 58.3213Z" fill="#5D5D5D"/>
<path d="M45.7462 58.3896H43.839V65H42.7042V58.3896H41.3644V57.8769L42.7042 57.4668V57.0498C42.7042 55.2087 43.5086 54.2881 45.1173 54.2881C45.5138 54.2881 45.9786 54.3678 46.5118 54.5273L46.2179 55.4365C45.7804 55.2952 45.4067 55.2246 45.0968 55.2246C44.6684 55.2246 44.3517 55.3682 44.1466 55.6553C43.9415 55.9378 43.839 56.3935 43.839 57.0225V57.5078H45.7462V58.3896Z" fill="#5D5D5D"/>
<path d="M53.5252 57.5078V58.2256L52.1375 58.3896C52.2651 58.5491 52.3791 58.7588 52.4793 59.0185C52.5796 59.2738 52.6297 59.5631 52.6297 59.8867C52.6297 60.6204 52.3791 61.206 51.8778 61.6435C51.3765 62.081 50.6883 62.2998 49.8133 62.2998C49.59 62.2998 49.3804 62.2816 49.1844 62.2451C48.7013 62.5003 48.4598 62.8216 48.4598 63.209C48.4598 63.4141 48.5441 63.5667 48.7127 63.667C48.8813 63.7627 49.1707 63.8105 49.5809 63.8105H50.9071C51.7182 63.8105 52.3403 63.9814 52.7733 64.3232C53.2108 64.665 53.4295 65.1618 53.4295 65.8135C53.4295 66.6429 53.0968 67.2741 52.4315 67.707C51.7661 68.1445 50.7954 68.3633 49.5194 68.3633C48.5395 68.3633 47.783 68.181 47.2498 67.8164C46.7212 67.4518 46.4569 66.9368 46.4569 66.2715C46.4569 65.8157 46.6027 65.4215 46.8944 65.0889C47.186 64.7562 47.5962 64.5306 48.1248 64.4121C47.9334 64.3255 47.7716 64.1911 47.6395 64.0088C47.5119 63.8265 47.4481 63.6146 47.4481 63.373C47.4481 63.0996 47.521 62.8603 47.6668 62.6553C47.8127 62.4502 48.0428 62.2519 48.3572 62.0605C47.9699 61.901 47.6531 61.6299 47.4071 61.2471C47.1655 60.8643 47.0447 60.4268 47.0447 59.9346C47.0447 59.1143 47.2908 58.4831 47.783 58.041C48.2752 57.5944 48.9725 57.3711 49.8748 57.3711C50.2668 57.3711 50.6199 57.4167 50.9344 57.5078H53.5252ZM47.5506 66.2578C47.5506 66.6634 47.7215 66.971 48.0633 67.1807C48.4051 67.3903 48.895 67.4951 49.533 67.4951C50.4855 67.4951 51.1896 67.3516 51.6453 67.0644C52.1056 66.7819 52.3358 66.3968 52.3358 65.9092C52.3358 65.5036 52.2104 65.221 51.9598 65.0615C51.7091 64.9066 51.2375 64.8291 50.5447 64.8291H49.1844C48.6694 64.8291 48.2684 64.9521 47.9813 65.1982C47.6942 65.4443 47.5506 65.7975 47.5506 66.2578ZM48.1658 59.9072C48.1658 60.4313 48.314 60.8278 48.6102 61.0967C48.9064 61.3656 49.3188 61.5 49.8475 61.5C50.9549 61.5 51.5086 60.9622 51.5086 59.8867C51.5086 58.7611 50.9481 58.1982 49.827 58.1982C49.2938 58.1982 48.8836 58.3418 48.5965 58.6289C48.3094 58.916 48.1658 59.3421 48.1658 59.9072Z" fill="#5D5D5D"/>
<path d="M60.4703 65V60.1533C60.4703 59.5426 60.3313 59.0869 60.0533 58.7861C59.7753 58.4853 59.34 58.335 58.7476 58.335C57.9592 58.335 57.3827 58.5491 57.0181 58.9775C56.6581 59.4059 56.4781 60.1077 56.4781 61.083V65H55.3433V54.3633H56.4781V57.583C56.4781 57.9704 56.4598 58.2917 56.4234 58.5469H56.4917C56.715 58.1868 57.0318 57.9043 57.4419 57.6992C57.8566 57.4896 58.3283 57.3848 58.857 57.3848C59.773 57.3848 60.4589 57.6035 60.9146 58.041C61.3749 58.474 61.605 59.1644 61.605 60.1123V65H60.4703Z" fill="#5D5D5D"/>
<path d="M65.3577 65H64.2229V57.5078H65.3577V65ZM64.1272 55.4775C64.1272 55.2178 64.191 55.0286 64.3186 54.9101C64.4462 54.7871 64.6057 54.7256 64.7971 54.7256C64.9794 54.7256 65.1367 54.7871 65.2688 54.9101C65.401 55.0332 65.4671 55.2223 65.4671 55.4775C65.4671 55.7327 65.401 55.9241 65.2688 56.0518C65.1367 56.1748 64.9794 56.2363 64.7971 56.2363C64.6057 56.2363 64.4462 56.1748 64.3186 56.0518C64.191 55.9241 64.1272 55.7327 64.1272 55.4775Z" fill="#5D5D5D"/>
<path d="M67.1347 68.3633C66.7018 68.3633 66.3509 68.3063 66.082 68.1924V67.2695C66.3965 67.3607 66.7064 67.4062 67.0117 67.4062C67.3672 67.4062 67.6269 67.3083 67.791 67.1123C67.9596 66.9209 68.0439 66.6269 68.0439 66.2305V57.5078H69.1787V66.1484C69.1787 67.625 68.4974 68.3633 67.1347 68.3633ZM67.9482 55.4775C67.9482 55.2178 68.012 55.0286 68.1396 54.9101C68.2672 54.7871 68.4267 54.7256 68.6181 54.7256C68.8004 54.7256 68.9577 54.7871 69.0898 54.9101C69.222 55.0332 69.2881 55.2223 69.2881 55.4775C69.2881 55.7327 69.222 55.9241 69.0898 56.0518C68.9577 56.1748 68.8004 56.2363 68.6181 56.2363C68.4267 56.2363 68.2672 56.1748 68.1396 56.0518C68.012 55.9241 67.9482 55.7327 67.9482 55.4775Z" fill="#5D5D5D"/>
<path d="M72.986 61.165C73.182 60.887 73.4805 60.5225 73.8815 60.0713L76.3015 57.5078H77.6481L74.613 60.7002L77.8601 65H76.486L73.8405 61.459L72.986 62.1973V65H71.8649V54.3633H72.986V60.0029C72.986 60.2536 72.9678 60.6409 72.9314 61.165H72.986Z" fill="#5D5D5D"/>
<path d="M80.6352 65H79.5004V54.3633H80.6352V65Z" fill="#5D5D5D"/>
<path d="M92.8712 65V60.126C92.8712 59.529 92.7436 59.0823 92.4884 58.7861C92.2332 58.4853 91.8367 58.335 91.299 58.335C90.5926 58.335 90.0708 58.5378 89.7335 58.9434C89.3963 59.349 89.2277 59.9733 89.2277 60.8164V65H88.0929V60.126C88.0929 59.529 87.9653 59.0823 87.7101 58.7861C87.4549 58.4853 87.0561 58.335 86.5138 58.335C85.8029 58.335 85.2811 58.5491 84.9484 58.9775C84.6203 59.4014 84.4562 60.0986 84.4562 61.0693V65H83.3214V57.5078H84.2443L84.4288 58.5332H84.4835C84.6977 58.1686 84.9985 57.8838 85.3859 57.6787C85.7778 57.4736 86.2153 57.3711 86.6984 57.3711C87.8696 57.3711 88.6352 57.7949 88.9953 58.6426H89.0499C89.2732 58.2506 89.5968 57.9407 90.0206 57.7129C90.4445 57.485 90.9275 57.3711 91.4699 57.3711C92.3175 57.3711 92.951 57.5898 93.3703 58.0273C93.7941 58.4603 94.006 59.1553 94.006 60.1123V65H92.8712Z" fill="#5D5D5D"/>
<path d="M101.758 65V60.1533C101.758 59.5426 101.619 59.0869 101.341 58.7861C101.063 58.4853 100.627 58.335 100.035 58.335C99.2512 58.335 98.6769 58.5469 98.3124 58.9707C97.9478 59.3945 97.7655 60.0941 97.7655 61.0693V65H96.6307V57.5078H97.5536L97.7381 58.5332H97.7928C98.0253 58.1641 98.3511 57.8792 98.7704 57.6787C99.1896 57.4736 99.6568 57.3711 100.172 57.3711C101.074 57.3711 101.753 57.5898 102.209 58.0273C102.665 58.4603 102.892 59.1553 102.892 60.1123V65H101.758Z" fill="#5D5D5D"/>
<path d="M111.977 61.2471C111.977 62.4684 111.67 63.4232 111.054 64.1113C110.439 64.7949 109.589 65.1367 108.504 65.1367C107.835 65.1367 107.24 64.9795 106.72 64.665C106.201 64.3506 105.8 63.8994 105.517 63.3115C105.235 62.7236 105.093 62.0355 105.093 61.2471C105.093 60.0257 105.399 59.0755 106.009 58.3965C106.62 57.7129 107.468 57.3711 108.552 57.3711C109.6 57.3711 110.432 57.7197 111.047 58.417C111.667 59.1143 111.977 60.0576 111.977 61.2471ZM106.269 61.2471C106.269 62.2041 106.461 62.9333 106.843 63.4346C107.226 63.9359 107.789 64.1865 108.532 64.1865C109.275 64.1865 109.837 63.9381 110.22 63.4414C110.608 62.9401 110.801 62.2087 110.801 61.2471C110.801 60.2946 110.608 59.5723 110.22 59.0801C109.837 58.5833 109.27 58.335 108.518 58.335C107.775 58.335 107.215 58.5788 106.837 59.0664C106.458 59.554 106.269 60.2809 106.269 61.2471Z" fill="#5D5D5D"/>
<path d="M117.74 65.1367C117.252 65.1367 116.805 65.0478 116.4 64.8701C115.999 64.6878 115.661 64.4098 115.388 64.0361H115.306C115.361 64.4736 115.388 64.8883 115.388 65.2803V68.3633H114.253V57.5078H115.176L115.333 58.5332H115.388C115.68 58.123 116.019 57.8268 116.407 57.6445C116.794 57.4622 117.238 57.3711 117.74 57.3711C118.733 57.3711 119.499 57.7106 120.036 58.3896C120.579 59.0687 120.85 60.0212 120.85 61.2471C120.85 62.4775 120.574 63.4346 120.023 64.1182C119.476 64.7972 118.715 65.1367 117.74 65.1367ZM117.575 58.335C116.81 58.335 116.256 58.5469 115.914 58.9707C115.573 59.3945 115.397 60.069 115.388 60.9941V61.2471C115.388 62.2998 115.563 63.054 115.914 63.5098C116.265 63.9609 116.828 64.1865 117.603 64.1865C118.25 64.1865 118.756 63.9245 119.12 63.4004C119.49 62.8763 119.674 62.154 119.674 61.2334C119.674 60.2991 119.49 59.5837 119.12 59.0869C118.756 58.5856 118.241 58.335 117.575 58.335Z" fill="#5D5D5D"/>
<path d="M125.949 64.1865C126.706 64.1865 127.257 63.9837 127.604 63.5781C127.95 63.1725 128.134 62.4889 128.157 61.5273V61.2744C128.157 60.2262 127.98 59.472 127.624 59.0117C127.269 58.5514 126.706 58.3213 125.936 58.3213C125.27 58.3213 124.76 58.581 124.404 59.1006C124.053 59.6156 123.878 60.3447 123.878 61.2881C123.878 62.2314 124.051 62.9515 124.397 63.4482C124.748 63.9404 125.266 64.1865 125.949 64.1865ZM125.778 65.1367C124.812 65.1367 124.058 64.7972 123.516 64.1182C122.973 63.4391 122.702 62.4912 122.702 61.2744C122.702 60.0485 122.976 59.0915 123.522 58.4033C124.069 57.7152 124.83 57.3711 125.806 57.3711C126.831 57.3711 127.619 57.7585 128.171 58.5332H128.232L128.397 57.5078H129.292V68.3633H128.157V65.1572C128.157 64.7015 128.182 64.3141 128.232 63.9951H128.144C127.619 64.7562 126.831 65.1367 125.778 65.1367Z" fill="#5D5D5D"/>
<path d="M135.403 57.3711C135.736 57.3711 136.034 57.3984 136.299 57.4531L136.141 58.5059C135.831 58.4375 135.558 58.4033 135.321 58.4033C134.715 58.4033 134.195 58.6494 133.762 59.1416C133.334 59.6338 133.12 60.2467 133.12 60.9805V65H131.985V57.5078H132.922L133.051 58.8955H133.106C133.384 58.4079 133.719 58.0319 134.111 57.7676C134.503 57.5032 134.934 57.3711 135.403 57.3711Z" fill="#5D5D5D"/>
<path d="M142.813 62.956C142.813 63.6533 142.553 64.1911 142.034 64.5693C141.514 64.9476 140.785 65.1367 139.846 65.1367C138.853 65.1367 138.078 64.9795 137.522 64.665V63.6123C137.882 63.7946 138.267 63.9381 138.677 64.043C139.092 64.1478 139.491 64.2002 139.873 64.2002C140.466 64.2002 140.922 64.1068 141.241 63.9199C141.56 63.7285 141.719 63.4391 141.719 63.0518C141.719 62.7601 141.592 62.5117 141.336 62.3066C141.086 62.097 140.594 61.8509 139.86 61.5684C139.163 61.3086 138.666 61.083 138.37 60.8916C138.078 60.6956 137.859 60.4746 137.713 60.2285C137.572 59.9824 137.501 59.6885 137.501 59.3467C137.501 58.736 137.75 58.2552 138.247 57.9043C138.743 57.5488 139.425 57.3711 140.29 57.3711C141.097 57.3711 141.886 57.5351 142.656 57.8633L142.252 58.7861C141.5 58.4762 140.819 58.3213 140.208 58.3213C139.671 58.3213 139.265 58.4056 138.992 58.5742C138.718 58.7428 138.581 58.9753 138.581 59.2715C138.581 59.472 138.632 59.6429 138.732 59.7842C138.837 59.9254 139.003 60.0599 139.231 60.1875C139.459 60.3151 139.896 60.4997 140.543 60.7412C141.432 61.0648 142.031 61.3906 142.341 61.7187C142.656 62.0469 142.813 62.4593 142.813 62.956Z" fill="#5D5D5D"/>
<path d="M147.365 64.2002C147.566 64.2002 147.76 64.1865 147.946 64.1592C148.133 64.1273 148.281 64.0954 148.391 64.0635V64.9316C148.268 64.9909 148.085 65.0387 147.844 65.0752C147.607 65.1162 147.393 65.1367 147.201 65.1367C145.752 65.1367 145.028 64.3734 145.028 62.8467V58.3896H143.954V57.8428L145.028 57.3711L145.506 55.7715H146.162V57.5078H148.336V58.3896H146.162V62.7988C146.162 63.25 146.269 63.5963 146.484 63.8379C146.698 64.0794 146.992 64.2002 147.365 64.2002Z" fill="#5D5D5D"/>
<path d="M151.241 57.5078V62.3682C151.241 62.9788 151.38 63.4346 151.658 63.7353C151.936 64.0361 152.371 64.1865 152.964 64.1865C153.748 64.1865 154.32 63.9723 154.68 63.5439C155.044 63.1156 155.226 62.416 155.226 61.4453V57.5078H156.361V65H155.425L155.261 63.9951H155.199C154.967 64.3643 154.643 64.6468 154.228 64.8428C153.818 65.0387 153.349 65.1367 152.82 65.1367C151.909 65.1367 151.225 64.9202 150.769 64.4873C150.318 64.0544 150.093 63.3616 150.093 62.4092V57.5078H151.241Z" fill="#5D5D5D"/>
<path d="M160.695 65L157.851 57.5078H159.068L160.681 61.9512C161.046 62.9902 161.26 63.6647 161.324 63.9746H161.379C161.429 63.7331 161.586 63.234 161.85 62.4775C162.119 61.7165 162.718 60.0599 163.648 57.5078H164.865L162.021 65H160.695Z" fill="#5D5D5D"/>
<path d="M172.466 65L171.092 60.6045C171.006 60.3356 170.844 59.7249 170.607 58.7725H170.552C170.37 59.57 170.21 60.1852 170.074 60.6182L168.659 65H167.346L165.302 57.5078H166.492C166.975 59.39 167.341 60.8232 167.592 61.8076C167.847 62.792 167.993 63.4551 168.03 63.7969H168.084C168.134 63.5371 168.214 63.2021 168.324 62.792C168.438 62.3773 168.535 62.0491 168.618 61.8076L169.992 57.5078H171.222L172.562 61.8076C172.817 62.5915 172.99 63.25 173.081 63.7832H173.136C173.154 63.6191 173.202 63.3662 173.28 63.0244C173.362 62.6826 173.838 60.8437 174.708 57.5078H175.884L173.813 65H172.466Z" fill="#5D5D5D"/>
<path d="M179.329 61.165L176.725 57.5078H178.017L179.992 60.3789L181.961 57.5078H183.239L180.635 61.165L183.376 65H182.091L179.992 61.9648L177.873 65H176.588L179.329 61.165Z" fill="#5D5D5D"/>
<path d="M183.957 57.5078H185.174L186.814 61.7803C187.174 62.7555 187.398 63.4596 187.484 63.8926H187.539C187.598 63.6601 187.721 63.2637 187.908 62.7031C188.099 62.138 188.719 60.4062 189.767 57.5078H190.984L187.764 66.0391C187.445 66.8822 187.072 67.4792 186.643 67.8301C186.22 68.1855 185.698 68.3633 185.078 68.3633C184.732 68.3633 184.39 68.3245 184.053 68.2471V67.3379C184.303 67.3926 184.583 67.4199 184.893 67.4199C185.673 67.4199 186.229 66.9824 186.561 66.1074L186.978 65.041L183.957 57.5078Z" fill="#5D5D5D"/>
<path d="M197.273 65H191.838V64.2275L195.926 58.3896H192.091V57.5078H197.17V58.3896L193.137 64.1182H197.273V65Z" fill="#5D5D5D"/>
<path d="M202.994 65H201.887V57.8769C201.887 57.2845 201.905 56.724 201.942 56.1953C201.846 56.291 201.739 56.3913 201.62 56.4961C201.502 56.6009 200.96 57.0452 199.993 57.8291L199.392 57.0498L202.037 55.0059H202.994V65Z" fill="#5D5D5D"/>
<path d="M213.651 65H207.082V64.0225L209.714 61.3769C210.516 60.5657 211.045 59.987 211.3 59.6406C211.555 59.2943 211.746 58.957 211.874 58.6289C212.002 58.3008 212.065 57.9476 212.065 57.5693C212.065 57.0361 211.904 56.6146 211.58 56.3047C211.256 55.9902 210.808 55.833 210.233 55.833C209.819 55.833 209.424 55.9014 209.051 56.0381C208.682 56.1748 208.269 56.4232 207.813 56.7832L207.212 56.0107C208.132 55.2451 209.135 54.8623 210.22 54.8623C211.158 54.8623 211.894 55.1038 212.428 55.5869C212.961 56.0654 213.227 56.7103 213.227 57.5215C213.227 58.1549 213.05 58.7816 212.694 59.4014C212.339 60.0212 211.673 60.805 210.698 61.7529L208.511 63.8926V63.9473H213.651V65Z" fill="#5D5D5D"/>
<path d="M221.567 57.3574C221.567 57.9954 221.387 58.5172 221.027 58.9228C220.672 59.3284 220.166 59.5996 219.509 59.7363V59.791C220.312 59.8913 220.906 60.1465 221.294 60.5566C221.681 60.9668 221.875 61.5045 221.875 62.1699C221.875 63.1224 221.544 63.8561 220.883 64.3711C220.223 64.8815 219.284 65.1367 218.067 65.1367C217.538 65.1367 217.053 65.0957 216.611 65.0137C216.173 64.9362 215.747 64.7972 215.333 64.5967V63.5166C215.766 63.7308 216.226 63.8948 216.714 64.0088C217.206 64.1182 217.671 64.1728 218.108 64.1728C219.835 64.1728 220.699 63.4961 220.699 62.1426C220.699 60.9303 219.746 60.3242 217.841 60.3242H216.857V59.3467H217.855C218.634 59.3467 219.252 59.1758 219.708 58.834C220.163 58.4876 220.391 58.0091 220.391 57.3984C220.391 56.9108 220.223 56.528 219.885 56.25C219.553 55.972 219.099 55.833 218.525 55.833C218.088 55.833 217.675 55.8922 217.288 56.0107C216.9 56.1292 216.458 56.348 215.962 56.667L215.387 55.9014C215.798 55.5778 216.269 55.3249 216.802 55.1426C217.34 54.9557 217.905 54.8623 218.498 54.8623C219.468 54.8623 220.223 55.0856 220.76 55.5322C221.298 55.9743 221.567 56.5827 221.567 57.3574Z" fill="#5D5D5D"/>
<path d="M230.706 62.7031H229.223V65H228.136V62.7031H223.276V61.7119L228.02 54.9512H229.223V61.6709H230.706V62.7031ZM228.136 61.6709V58.3486C228.136 57.6969 228.159 56.9609 228.204 56.1406H228.15C227.931 56.5781 227.726 56.9404 227.535 57.2275L224.411 61.6709H228.136Z" fill="#5D5D5D"/>
<path d="M235.081 58.8955C236.134 58.8955 236.961 59.1575 237.563 59.6816C238.169 60.2012 238.472 60.9144 238.472 61.8213C238.472 62.8558 238.141 63.667 237.481 64.2549C236.824 64.8428 235.917 65.1367 234.76 65.1367C233.634 65.1367 232.775 64.9567 232.183 64.5967V63.5029C232.502 63.708 232.898 63.8698 233.372 63.9883C233.846 64.1022 234.313 64.1592 234.774 64.1592C235.576 64.1592 236.198 63.97 236.64 63.5918C237.086 63.2135 237.31 62.6667 237.31 61.9512C237.31 60.5566 236.455 59.8594 234.746 59.8594C234.313 59.8594 233.734 59.9254 233.01 60.0576L232.422 59.6816L232.798 55.0059H237.768V56.0518H233.769L233.516 59.0527C234.04 58.9479 234.562 58.8955 235.081 58.8955Z" fill="#5D5D5D"/>
<path d="M240.365 60.7275C240.365 58.7633 240.746 57.2959 241.507 56.3252C242.272 55.3499 243.402 54.8623 244.897 54.8623C245.412 54.8623 245.818 54.9056 246.114 54.9922V55.9697C245.763 55.8558 245.362 55.7988 244.911 55.7988C243.84 55.7988 243.022 56.1338 242.457 56.8037C241.892 57.4691 241.582 58.5172 241.527 59.9482H241.609C242.11 59.1644 242.903 58.7725 243.988 58.7725C244.886 58.7725 245.592 59.0436 246.107 59.5859C246.627 60.1282 246.887 60.8643 246.887 61.7939C246.887 62.833 246.602 63.651 246.032 64.248C245.467 64.8405 244.701 65.1367 243.735 65.1367C242.701 65.1367 241.88 64.7493 241.274 63.9746C240.668 63.1953 240.365 62.1129 240.365 60.7275ZM243.721 64.1728C244.369 64.1728 244.87 63.97 245.225 63.5644C245.585 63.1543 245.765 62.5641 245.765 61.7939C245.765 61.1331 245.599 60.6136 245.266 60.2353C244.934 59.8571 244.437 59.668 243.776 59.668C243.366 59.668 242.99 59.7523 242.648 59.9209C242.306 60.0895 242.033 60.3219 241.828 60.6182C241.627 60.9144 241.527 61.222 241.527 61.541C241.527 62.0104 241.618 62.4479 241.801 62.8535C241.983 63.2591 242.24 63.5804 242.573 63.8174C242.91 64.0544 243.293 64.1728 243.721 64.1728Z" fill="#5D5D5D"/>
<path d="M249.805 65L253.948 56.0518H248.5V55.0059H255.151V55.915L251.063 65H249.805Z" fill="#5D5D5D"/>
<path d="M260.141 54.8623C261.052 54.8623 261.775 55.0742 262.308 55.498C262.841 55.9219 263.108 56.5075 263.108 57.2549C263.108 57.7471 262.955 58.196 262.65 58.6016C262.344 59.0072 261.857 59.3763 261.187 59.709C261.998 60.0963 262.574 60.5042 262.916 60.9326C263.258 61.3564 263.429 61.8486 263.429 62.4092C263.429 63.2386 263.14 63.9017 262.561 64.3984C261.982 64.8906 261.189 65.1367 260.182 65.1367C259.116 65.1367 258.295 64.9043 257.721 64.4394C257.147 63.97 256.86 63.307 256.86 62.4502C256.86 61.3063 257.557 60.4154 258.951 59.7773C258.323 59.4219 257.871 59.0391 257.598 58.6289C257.324 58.2142 257.188 57.7516 257.188 57.2412C257.188 56.5166 257.454 55.9401 257.988 55.5117C258.525 55.0788 259.243 54.8623 260.141 54.8623ZM257.981 62.4775C257.981 63.0244 258.17 63.4505 258.548 63.7559C258.931 64.0612 259.466 64.2139 260.155 64.2139C260.834 64.2139 261.362 64.0544 261.741 63.7353C262.119 63.4163 262.308 62.9788 262.308 62.4228C262.308 61.9808 262.13 61.5889 261.775 61.2471C261.419 60.9007 260.799 60.5657 259.915 60.2422C259.236 60.5338 258.744 60.8574 258.439 61.2129C258.133 61.5638 257.981 61.9853 257.981 62.4775ZM260.127 55.7851C259.558 55.7851 259.111 55.9219 258.787 56.1953C258.464 56.4687 258.302 56.8333 258.302 57.2891C258.302 57.7083 258.436 58.0684 258.705 58.3691C258.974 58.6699 259.471 58.9707 260.196 59.2715C260.847 58.998 261.308 58.7041 261.576 58.3896C261.85 58.0752 261.987 57.7083 261.987 57.2891C261.987 56.8288 261.82 56.4642 261.488 56.1953C261.159 55.9219 260.706 55.7851 260.127 55.7851Z" fill="#5D5D5D"/>
<path d="M271.693 59.2715C271.693 63.1816 270.18 65.1367 267.154 65.1367C266.626 65.1367 266.206 65.0911 265.896 65V64.0225C266.261 64.1409 266.676 64.2002 267.141 64.2002C268.234 64.2002 269.059 63.8629 269.615 63.1885C270.176 62.5094 270.481 61.4704 270.531 60.0713H270.449C270.199 60.4495 269.866 60.7389 269.451 60.9394C269.036 61.1354 268.569 61.2334 268.05 61.2334C267.166 61.2334 266.464 60.9691 265.944 60.4404C265.425 59.9118 265.165 59.1735 265.165 58.2256C265.165 57.1865 265.454 56.3662 266.033 55.7646C266.617 55.1631 267.382 54.8623 268.33 54.8623C269.009 54.8623 269.602 55.0378 270.107 55.3887C270.618 55.735 271.01 56.2432 271.283 56.9131C271.557 57.5784 271.693 58.3646 271.693 59.2715ZM268.33 55.833C267.678 55.833 267.175 56.0426 266.819 56.4619C266.464 56.8812 266.286 57.4645 266.286 58.2119C266.286 58.8682 266.45 59.3854 266.778 59.7637C267.106 60.1374 267.605 60.3242 268.275 60.3242C268.69 60.3242 269.071 60.2399 269.417 60.0713C269.768 59.9027 270.044 59.6725 270.244 59.3809C270.445 59.0892 270.545 58.7838 270.545 58.4648C270.545 57.9863 270.451 57.5443 270.265 57.1387C270.078 56.7331 269.816 56.4141 269.478 56.1816C269.146 55.9492 268.763 55.833 268.33 55.833Z" fill="#5D5D5D"/>
</svg>
