<svg width="278" height="67" viewBox="0 0 278 67" fill="none" xmlns="http://www.w3.org/2000/svg">
<path d="M76.7227 13.582C76.9454 16.5 79.4181 18.3984 83.004 18.3984C86.8712 18.3984 89.3204 16.418 89.3204 13.3125C89.3204 10.8281 87.9142 9.46875 84.4102 8.58984L82.6407 8.12109C80.3087 7.52344 79.3829 6.76172 79.3829 5.4375C79.3829 3.72656 80.8712 2.60156 83.1212 2.60156C85.2306 2.60156 86.6602 3.63281 86.9532 5.36719H89.0743C88.8985 2.63672 86.461 0.691406 83.1915 0.691406C79.6173 0.691406 77.2149 2.63672 77.2149 5.50781C77.2149 7.91016 78.5392 9.29297 81.5977 10.0664L83.7657 10.6289C86.0977 11.2148 87.1524 12.1289 87.1524 13.5703C87.1524 15.2461 85.4767 16.4766 83.2032 16.4766C80.8009 16.4766 79.1134 15.3516 78.8556 13.582H76.7227Z" fill="#5D5D5D"/>
<path d="M94.9454 18V10.6758H102.434V8.80078H94.9454V2.98828H103.102V1.08984H92.836V18H94.9454Z" fill="#5D5D5D"/>
<path d="M113.344 1.08984V18H115.453V11.9648H119.707C122.883 11.9648 125.145 9.72656 125.145 6.5625C125.145 3.33984 122.93 1.08984 119.731 1.08984H113.344ZM115.453 2.96484H119.18C121.629 2.96484 122.977 4.24219 122.977 6.5625C122.977 8.80078 121.582 10.0898 119.18 10.0898H115.453V2.96484Z" fill="#5D5D5D"/>
<path d="M128.344 18H130.359V10.1719C130.359 8.39062 131.754 7.10156 133.676 7.10156C134.074 7.10156 134.801 7.17188 134.965 7.21875V5.20312C134.707 5.16797 134.285 5.14453 133.957 5.14453C132.281 5.14453 130.828 6.01172 130.453 7.24219H130.266V5.36719H128.344V18Z" fill="#5D5D5D"/>
<path d="M142.324 18.2227C145.922 18.2227 148.149 15.7383 148.149 11.6836C148.149 7.61719 145.922 5.14453 142.324 5.14453C138.727 5.14453 136.5 7.61719 136.5 11.6836C136.5 15.7383 138.727 18.2227 142.324 18.2227ZM142.324 16.4062C139.934 16.4062 138.586 14.6719 138.586 11.6836C138.586 8.68359 139.934 6.96094 142.324 6.96094C144.715 6.96094 146.063 8.68359 146.063 11.6836C146.063 14.6719 144.715 16.4062 142.324 16.4062Z" fill="#5D5D5D"/>
<path d="M164.848 18V2.98828H170.297V1.08984H157.289V2.98828H162.738V18H164.848Z" fill="#5D5D5D"/>
<path d="M175.992 6.92578C177.996 6.92578 179.332 8.40234 179.379 10.6406H172.418C172.57 8.40234 173.977 6.92578 175.992 6.92578ZM179.32 14.7305C178.793 15.8438 177.691 16.4414 176.063 16.4414C173.918 16.4414 172.524 14.8594 172.418 12.3633V12.2695H181.5V11.4961C181.5 7.57031 179.426 5.14453 176.016 5.14453C172.547 5.14453 170.32 7.72266 170.32 11.6953C170.32 15.6914 172.512 18.2227 176.016 18.2227C178.781 18.2227 180.727 16.8984 181.336 14.7305H179.32Z" fill="#5D5D5D"/>
<path d="M188.672 13.2305L191.66 18H194.051L189.703 11.6016L193.992 5.36719H191.707L188.742 10.0664H188.555L185.555 5.36719H183.152L187.524 11.6836L183.199 18H185.484L188.484 13.2305H188.672Z" fill="#5D5D5D"/>
<path d="M197.649 2.09766V5.36719H195.609V7.05469H197.649V14.7188C197.649 17.1328 198.691 18.0938 201.293 18.0938C201.691 18.0938 202.078 18.0469 202.477 17.9766V16.2773C202.102 16.3125 201.902 16.3242 201.539 16.3242C200.227 16.3242 199.664 15.6914 199.664 14.2031V7.05469H202.477V5.36719H199.664V2.09766H197.649Z" fill="#5D5D5D"/>
<path d="M20.5652 47H21.8572L18.2204 37.1357H17.0036L13.3669 47H14.6589L15.6501 44.1768H19.574L20.5652 47ZM17.5574 38.7285H17.6667L19.2117 43.1309H16.0124L17.5574 38.7285Z" fill="#5D5D5D"/>
<path d="M27.7153 47C29.8139 47 31.0581 45.9678 31.0581 44.2314C31.0581 42.9258 30.2036 42.0029 28.8569 41.832V41.7227C29.8071 41.5518 30.559 40.6221 30.559 39.5967C30.559 38.0859 29.4516 37.1357 27.6401 37.1357H23.8667V47H27.7153ZM25.0971 38.2227H27.3803C28.604 38.2227 29.3149 38.8037 29.3149 39.8086C29.3149 40.8545 28.5561 41.3877 27.0659 41.3877H25.0971V38.2227ZM25.0971 45.9131V42.4473H27.4145C28.9868 42.4473 29.7934 43.0283 29.7934 44.1699C29.7934 45.3115 29.0141 45.9131 27.5307 45.9131H25.0971Z" fill="#5D5D5D"/>
<path d="M37.3195 47.2324C39.4181 47.2324 40.9767 46.0635 41.3049 44.252H40.0539C39.7394 45.3936 38.6935 46.0977 37.3195 46.0977C35.4191 46.0977 34.2297 44.5459 34.2297 42.0713C34.2297 39.5967 35.4191 38.0381 37.3127 38.0381C38.673 38.0381 39.7258 38.8379 40.0539 40.1094H41.3049C41.0109 38.209 39.3908 36.9033 37.3127 36.9033C34.633 36.9033 32.965 38.8857 32.965 42.0713C32.965 45.25 34.6398 47.2324 37.3195 47.2324Z" fill="#5D5D5D"/>
<path d="M43.6493 37.1357V47H47.0331C49.9657 47 51.6884 45.1748 51.6884 42.0645C51.6884 38.9609 49.9589 37.1357 47.0331 37.1357H43.6493ZM44.8798 38.2432H46.9511C49.1386 38.2432 50.4306 39.665 50.4306 42.0781C50.4306 44.4844 49.1522 45.8926 46.9511 45.8926H44.8798V38.2432Z" fill="#5D5D5D"/>
<path d="M60.2125 45.8926H55.3317V42.502H59.9596V41.4082H55.3317V38.2432H60.2125V37.1357H54.1012V47H60.2125V45.8926Z" fill="#5D5D5D"/>
<path d="M63.9515 47V42.7275H68.3197V41.6338H63.9515V38.2432H68.7093V37.1357H62.721V47H63.9515Z" fill="#5D5D5D"/>
<path d="M79.2911 43.1855V41.9824H75.292V43.0625H78.0674V43.3018C78.0674 44.9697 76.8711 46.0977 75.1075 46.0977C73.1251 46.0977 71.8946 44.5527 71.8946 42.0645C71.8946 39.6104 73.1456 38.0381 75.1006 38.0381C76.5635 38.0381 77.5547 38.7422 77.9786 40.0752H79.2295C78.8741 38.1201 77.2881 36.9033 75.1006 36.9033C72.4004 36.9033 70.6299 38.9473 70.6299 42.0645C70.6299 45.2227 72.3731 47.2324 75.1006 47.2324C77.6231 47.2324 79.2911 45.6191 79.2911 43.1855Z" fill="#5D5D5D"/>
<path d="M89.6267 47V37.1357H88.3963V41.4014H82.9822V37.1357H81.7517V47H82.9822V42.5088H88.3963V47H89.6267Z" fill="#5D5D5D"/>
<path d="M93.6528 47V37.1357H92.4224V47H93.6528Z" fill="#5D5D5D"/>
<path d="M95.7785 44.6963C95.7785 46.207 96.9406 47.2324 98.5949 47.2324C100.379 47.2324 101.466 46.1318 101.466 44.252V37.1357H100.236V44.2451C100.236 45.4551 99.6408 46.0977 98.5881 46.0977C97.6584 46.0977 97.0295 45.5234 97.0022 44.6963H95.7785Z" fill="#5D5D5D"/>
<path d="M105.492 47V43.5547L106.675 42.249L110.236 47H111.829L107.522 41.3945L111.467 37.1357H109.922L105.602 41.9277H105.492V37.1357H104.262V47H105.492Z" fill="#5D5D5D"/>
<path d="M119.758 45.8926H115.001V37.1357H113.77V47H119.758V45.8926Z" fill="#5D5D5D"/>
<path d="M131.728 47V37.1357H130.299L126.922 45.2979H126.813L123.436 37.1357H122.007V47H123.156V39.4668H123.238L126.348 46.9316H127.387L130.497 39.4668H130.579V47H131.728Z" fill="#5D5D5D"/>
<path d="M135.74 47V39.3506H135.85L141.202 47H142.399V37.1357H141.182V44.8125H141.072L135.72 37.1357H134.524V47H135.74Z" fill="#5D5D5D"/>
<path d="M149.344 36.9033C146.555 36.9033 144.811 38.8926 144.811 42.0645C144.811 45.2227 146.513 47.2324 149.344 47.2324C152.16 47.2324 153.855 45.2158 153.855 42.0645C153.855 38.8994 152.146 36.9033 149.344 36.9033ZM149.344 38.0381C151.36 38.0381 152.591 39.5967 152.591 42.0645C152.591 44.5117 151.367 46.0977 149.344 46.0977C147.293 46.0977 146.076 44.5117 146.076 42.0645C146.076 39.5967 147.334 38.0381 149.344 38.0381Z" fill="#5D5D5D"/>
<path d="M156.275 37.1357V47H157.505V43.4795H159.987C161.839 43.4795 163.159 42.1738 163.159 40.3281C163.159 38.4482 161.867 37.1357 160.001 37.1357H156.275ZM157.505 38.2295H159.679C161.108 38.2295 161.894 38.9746 161.894 40.3281C161.894 41.6338 161.081 42.3857 159.679 42.3857H157.505V38.2295Z" fill="#5D5D5D"/>
<path d="M169.605 47.2324C170.24 47.2324 170.842 47.1299 171.368 46.9316L172.237 48.1143H173.617L172.366 46.3779C173.488 45.5713 174.116 44.0332 174.116 42.0713C174.116 38.8926 172.38 36.9033 169.605 36.9033C166.816 36.9033 165.073 38.8857 165.073 42.0713C165.073 45.2705 166.795 47.2324 169.605 47.2324ZM169.612 46.0977C167.588 46.0977 166.337 44.5596 166.337 42.0713C166.337 39.5898 167.595 38.0381 169.605 38.0381C171.601 38.0381 172.852 39.5967 172.852 42.0713C172.852 43.5752 172.421 44.751 171.649 45.3662L170.753 44.1768H169.359L170.664 45.9473C170.323 46.0498 169.974 46.0977 169.612 46.0977Z" fill="#5D5D5D"/>
<path d="M177.767 38.2295H180.139C181.41 38.2295 182.176 38.9336 182.176 40.1162C182.176 41.3262 181.458 42.0029 180.193 42.0029H177.767V38.2295ZM177.767 43.0967H180.193L182.306 47H183.748L181.465 42.9053C182.702 42.5156 183.447 41.4492 183.447 40.0752C183.447 38.2979 182.203 37.1357 180.303 37.1357H176.536V47H177.767V43.0967Z" fill="#5D5D5D"/>
<path d="M185.491 44.4229C185.621 46.125 187.063 47.2324 189.155 47.2324C191.411 47.2324 192.84 46.0771 192.84 44.2656C192.84 42.8164 192.019 42.0234 189.975 41.5107L188.943 41.2373C187.583 40.8887 187.043 40.4443 187.043 39.6719C187.043 38.6738 187.911 38.0176 189.223 38.0176C190.454 38.0176 191.288 38.6191 191.459 39.6309H192.696C192.593 38.0381 191.172 36.9033 189.264 36.9033C187.179 36.9033 185.778 38.0381 185.778 39.7129C185.778 41.1143 186.55 41.9209 188.335 42.3721L189.599 42.7002C190.96 43.042 191.575 43.5752 191.575 44.416C191.575 45.3936 190.597 46.1113 189.271 46.1113C187.87 46.1113 186.885 45.4551 186.735 44.4229H185.491Z" fill="#5D5D5D"/>
<path d="M198.964 47V38.2432H202.143V37.1357H194.555V38.2432H197.734V47H198.964Z" fill="#5D5D5D"/>
<path d="M205.588 37.1357H204.358V43.6094C204.358 45.7148 205.827 47.2324 208.275 47.2324C210.722 47.2324 212.192 45.7148 212.192 43.6094V37.1357H210.961V43.5273C210.961 45.0176 209.984 46.0977 208.275 46.0977C206.566 46.0977 205.588 45.0176 205.588 43.5273V37.1357Z" fill="#5D5D5D"/>
<path d="M219.089 47L222.725 37.1357H221.433L218.535 45.4072H218.426L215.527 37.1357H214.235L217.872 47H219.089Z" fill="#5D5D5D"/>
<path d="M230.211 39.2139H230.293L232.562 47H233.724L236.411 37.1357H235.126L233.164 45.1543H233.082L230.874 37.1357H229.629L227.421 45.1543H227.339L225.378 37.1357H224.092L226.779 47H227.941L230.211 39.2139Z" fill="#5D5D5D"/>
<path d="M237.921 47H239.316L241.948 43.1104H242.057L244.641 47H246.117L242.775 42.0918L246.193 37.1357H244.791L242.153 41.0596H242.043L239.446 37.1357H237.962L241.298 42.0371L237.921 47Z" fill="#5D5D5D"/>
<path d="M252.297 47V42.7549L255.797 37.1357H254.396L251.736 41.5176H251.627L248.968 37.1357H247.566L251.066 42.7549V47H252.297Z" fill="#5D5D5D"/>
<path d="M257.54 47H264.834V45.8926H259.16V45.7832L264.717 38.0107V37.1357H257.731V38.2432H263.125V38.3525L257.54 46.125V47Z" fill="#5D5D5D"/>
<path d="M3.60303 63.0977C2.74854 63.0977 2.11279 62.6602 2.11279 61.9082C2.11279 61.1699 2.60498 60.7803 3.72607 60.7051L5.7085 60.5752V61.252C5.7085 62.3047 4.81299 63.0977 3.60303 63.0977ZM3.38428 64.1299C4.36865 64.1299 5.17529 63.6992 5.65381 62.9131H5.76318V64H6.88428V58.9551C6.88428 57.4238 5.87939 56.501 4.08154 56.501C2.50928 56.501 1.34717 57.2803 1.18994 58.4629H2.37939C2.54346 57.8818 3.15869 57.5469 4.04053 57.5469C5.14111 57.5469 5.7085 58.0459 5.7085 58.9551V59.625L3.58252 59.7549C1.8667 59.8574 0.895996 60.6162 0.895996 61.9355C0.895996 63.2822 1.95557 64.1299 3.38428 64.1299Z" fill="#5D5D5D"/>
<path d="M13.0022 64.1299C14.8684 64.1299 16.092 62.6191 16.092 60.3154C16.092 57.998 14.8752 56.501 13.0022 56.501C11.9904 56.501 11.0949 57 10.6916 57.793H10.5822V53.7051H9.40646V64H10.5276V62.8242H10.6369C11.1018 63.6445 11.9768 64.1299 13.0022 64.1299ZM12.7287 57.5605C14.0754 57.5605 14.8752 58.5928 14.8752 60.3154C14.8752 62.0381 14.0754 63.0703 12.7287 63.0703C11.3889 63.0703 10.5549 62.0176 10.5549 60.3154C10.5549 58.6133 11.3889 57.5605 12.7287 57.5605Z" fill="#5D5D5D"/>
<path d="M24.3154 58.8867C24.1103 57.5742 23.0165 56.501 21.2255 56.501C19.1611 56.501 17.8486 57.9912 17.8486 60.2881C17.8486 62.6328 19.1679 64.1299 21.2324 64.1299C23.0029 64.1299 24.1035 63.1318 24.3154 61.7783H23.1259C22.9072 62.6123 22.2167 63.0703 21.2255 63.0703C19.913 63.0703 19.0654 61.9902 19.0654 60.2881C19.0654 58.6201 19.8994 57.5605 21.2255 57.5605C22.2851 57.5605 22.9345 58.1553 23.1259 58.8867H24.3154Z" fill="#5D5D5D"/>
<path d="M29.0592 64.1299C30.0778 64.1299 30.9528 63.6445 31.4176 62.8242H31.527V64H32.6481V53.7051H31.4723V57.793H31.3698C30.9528 56.9863 30.0846 56.501 29.0592 56.501C27.1862 56.501 25.9626 58.0049 25.9626 60.3154C25.9626 62.6328 27.1725 64.1299 29.0592 64.1299ZM29.3327 57.5605C30.6657 57.5605 31.4997 58.627 31.4997 60.3154C31.4997 62.0176 30.6725 63.0703 29.3327 63.0703C27.986 63.0703 27.1794 62.0381 27.1794 60.3154C27.1794 58.5996 27.9928 57.5605 29.3327 57.5605Z" fill="#5D5D5D"/>
<path d="M38.1508 57.54C39.3197 57.54 40.099 58.4014 40.1263 59.707H36.0658C36.1547 58.4014 36.975 57.54 38.1508 57.54ZM40.0922 62.0928C39.7845 62.7422 39.142 63.0908 38.1918 63.0908C36.9408 63.0908 36.1273 62.168 36.0658 60.7119V60.6572H41.3637V60.2061C41.3637 57.916 40.1537 56.501 38.1644 56.501C36.141 56.501 34.8422 58.0049 34.8422 60.3223C34.8422 62.6533 36.1205 64.1299 38.1644 64.1299C39.7777 64.1299 40.9125 63.3574 41.2679 62.0928H40.0922Z" fill="#5D5D5D"/>
<path d="M43.9815 64H45.1573V57.6152H46.8458V56.6309H45.1573V55.8447C45.1573 55.0381 45.5128 54.6279 46.3605 54.6279C46.5724 54.6279 46.7706 54.6348 46.9142 54.6621V53.7051C46.6681 53.6572 46.4083 53.6367 46.1212 53.6367C44.7198 53.6367 43.9815 54.3408 43.9815 55.8105V56.6309H42.7579V57.6152H43.9815V64Z" fill="#5D5D5D"/>
<path d="M51.5076 62.8516C50.1404 62.8516 49.3748 61.8125 49.3748 60.2061C49.3748 58.5996 50.1404 57.5605 51.5076 57.5605C52.868 57.5605 53.6951 58.5996 53.6951 60.2061C53.6951 61.8125 52.8748 62.8516 51.5076 62.8516ZM51.5623 66.8301C53.5721 66.8301 54.8436 65.7773 54.8436 64.1299V56.6309H53.7225V57.7998H53.6131C53.1893 57.0068 52.2801 56.501 51.2479 56.501C49.3543 56.501 48.158 57.998 48.158 60.2061C48.158 62.4141 49.3406 63.8906 51.2479 63.8906C52.2596 63.8906 53.0936 63.4326 53.5584 62.6191H53.6678V64.0684C53.6678 65.1553 52.8817 65.8047 51.5623 65.8047C50.5028 65.8047 49.8465 65.415 49.7166 64.8135H48.4725C48.6502 66.0303 49.785 66.8301 51.5623 66.8301Z" fill="#5D5D5D"/>
<path d="M57.4068 64H58.5826V59.6387C58.5826 58.3945 59.3072 57.5605 60.6265 57.5605C61.7408 57.5605 62.3287 58.21 62.3287 59.5156V64H63.5044V59.2285C63.5044 57.499 62.5201 56.501 60.9615 56.501C59.8335 56.501 59.0611 56.9795 58.6919 57.793H58.5826V53.7051H57.4068V64Z" fill="#5D5D5D"/>
<path d="M65.9583 64H67.134V56.6309H65.9583V64ZM66.5462 55.1338C66.9973 55.1338 67.3665 54.7646 67.3665 54.3135C67.3665 53.8623 66.9973 53.4932 66.5462 53.4932C66.095 53.4932 65.7258 53.8623 65.7258 54.3135C65.7258 54.7646 66.095 55.1338 66.5462 55.1338Z" fill="#5D5D5D"/>
<path d="M70.8594 56.6309H69.6836V64.3828C69.6836 65.1963 69.4101 65.5244 68.5761 65.5244H68.3984V66.5293H68.6035C70.1484 66.5293 70.8594 65.8799 70.8594 64.3623V56.6309ZM70.2715 55.1338C70.7226 55.1338 71.0918 54.7646 71.0918 54.3135C71.0918 53.8623 70.7226 53.4932 70.2715 53.4932C69.8203 53.4932 69.4511 53.8623 69.4511 54.3135C69.4511 54.7646 69.8203 55.1338 70.2715 55.1338Z" fill="#5D5D5D"/>
<path d="M74.7351 59.8506H74.6257V53.7051H73.4499V64H74.6257V61.2041L75.3298 60.5479L78.0915 64H79.5886L76.2048 59.7891L79.3767 56.6309H77.9343L74.7351 59.8506Z" fill="#5D5D5D"/>
<path d="M81.3315 64H82.5072V53.7051H81.3315V64Z" fill="#5D5D5D"/>
<path d="M85.0704 64H86.2462V59.4336C86.2462 58.3945 86.9913 57.5605 87.9552 57.5605C88.8849 57.5605 89.4933 58.1211 89.4933 58.9961V64H90.6691V59.2627C90.6691 58.3262 91.3527 57.5605 92.3781 57.5605C93.4171 57.5605 93.9298 58.0938 93.9298 59.1807V64H95.1056V58.9072C95.1056 57.3623 94.2648 56.501 92.7609 56.501C91.7423 56.501 90.9015 57.0137 90.505 57.793H90.3956C90.0538 57.0273 89.3566 56.501 88.3585 56.501C87.3742 56.501 86.6359 56.9727 86.3009 57.793H86.1915V56.6309H85.0704V64Z" fill="#5D5D5D"/>
<path d="M97.5321 64H98.7079V59.6387C98.7079 58.3467 99.4667 57.5605 100.642 57.5605C101.818 57.5605 102.379 58.1895 102.379 59.5156V64H103.555V59.2285C103.555 57.4785 102.632 56.501 100.977 56.501C99.8495 56.501 99.1317 56.9795 98.7626 57.793H98.6532V56.6309H97.5321V64Z" fill="#5D5D5D"/>
<path d="M109.016 64.1299C111.115 64.1299 112.414 62.6807 112.414 60.3154C112.414 57.9434 111.115 56.501 109.016 56.501C106.918 56.501 105.619 57.9434 105.619 60.3154C105.619 62.6807 106.918 64.1299 109.016 64.1299ZM109.016 63.0703C107.622 63.0703 106.836 62.0586 106.836 60.3154C106.836 58.5654 107.622 57.5605 109.016 57.5605C110.411 57.5605 111.197 58.5654 111.197 60.3154C111.197 62.0586 110.411 63.0703 109.016 63.0703Z" fill="#5D5D5D"/>
<path d="M118.128 56.501C117.123 56.501 116.242 57.0137 115.77 57.8613H115.66V56.6309H114.539V66.4609H115.715V62.8926H115.825C116.228 63.6719 117.075 64.1299 118.128 64.1299C120.001 64.1299 121.225 62.6191 121.225 60.3154C121.225 57.998 120.008 56.501 118.128 56.501ZM117.848 63.0703C116.522 63.0703 115.681 62.0039 115.681 60.3154C115.681 58.6201 116.522 57.5605 117.855 57.5605C119.201 57.5605 120.008 58.5928 120.008 60.3154C120.008 62.0381 119.201 63.0703 117.848 63.0703Z" fill="#5D5D5D"/>
<path d="M126.064 56.501C124.198 56.501 122.981 58.0049 122.981 60.3154C122.981 62.6396 124.185 64.1299 126.064 64.1299C127.104 64.1299 127.897 63.6992 128.368 62.8926H128.478V66.4609H129.667V56.6309H128.532V57.8613H128.423C127.985 57.0342 127.069 56.501 126.064 56.501ZM126.331 63.0703C124.991 63.0703 124.198 62.0449 124.198 60.3154C124.198 58.5928 124.998 57.5605 126.338 57.5605C127.671 57.5605 128.512 58.627 128.512 60.3154C128.512 62.0107 127.678 63.0703 126.331 63.0703Z" fill="#5D5D5D"/>
<path d="M132.162 64H133.338V59.4336C133.338 58.3945 134.151 57.6426 135.272 57.6426C135.505 57.6426 135.928 57.6836 136.024 57.7109V56.5352C135.874 56.5146 135.628 56.501 135.436 56.501C134.459 56.501 133.611 57.0068 133.392 57.7246H133.283V56.6309H132.162V64Z" fill="#5D5D5D"/>
<path d="M137.466 58.6475C137.466 59.7139 138.095 60.3086 139.476 60.6436L140.741 60.9512C141.527 61.1426 141.91 61.4844 141.91 61.9902C141.91 62.667 141.199 63.1387 140.207 63.1387C139.264 63.1387 138.676 62.7422 138.478 62.1201H137.268C137.398 63.3438 138.526 64.1299 140.166 64.1299C141.841 64.1299 143.12 63.2207 143.12 61.9014C143.12 60.8418 142.45 60.2402 141.062 59.9053L139.927 59.6318C139.059 59.4199 138.649 59.1055 138.649 58.5996C138.649 57.9434 139.332 57.499 140.207 57.499C141.096 57.499 141.67 57.8887 141.828 58.4766H142.99C142.832 57.2666 141.759 56.501 140.214 56.501C138.649 56.501 137.466 57.4238 137.466 58.6475Z" fill="#5D5D5D"/>
<path d="M145.669 54.7236V56.6309H144.48V57.6152H145.669V62.0859C145.669 63.4941 146.278 64.0547 147.795 64.0547C148.028 64.0547 148.253 64.0273 148.486 63.9863V62.9951C148.267 63.0156 148.151 63.0225 147.939 63.0225C147.173 63.0225 146.845 62.6533 146.845 61.7852V57.6152H148.486V56.6309H146.845V54.7236H145.669Z" fill="#5D5D5D"/>
<path d="M156.504 56.6309H155.328V60.9922C155.328 62.2842 154.617 63.0566 153.318 63.0566C152.142 63.0566 151.65 62.4414 151.65 61.1152V56.6309H150.475V61.4023C150.475 63.1455 151.336 64.1299 152.99 64.1299C154.118 64.1299 154.904 63.665 155.273 62.8447H155.383V64H156.504V56.6309Z" fill="#5D5D5D"/>
<path d="M165.014 56.6309H163.756L161.74 62.7012H161.63L159.614 56.6309H158.356L161.084 64H162.287L165.014 56.6309Z" fill="#5D5D5D"/>
<path d="M176.136 56.6309H174.953L173.504 62.5234H173.395L171.747 56.6309H170.619L168.972 62.5234H168.863L167.413 56.6309H166.224L168.288 64H169.478L171.118 58.2988H171.228L172.875 64H174.072L176.136 56.6309Z" fill="#5D5D5D"/>
<path d="M180.6 61.2178L182.343 64H183.737L181.201 60.2676L183.703 56.6309H182.37L180.641 59.3721H180.531L178.781 56.6309H177.38L179.93 60.3154L177.407 64H178.74L180.49 61.2178H180.6Z" fill="#5D5D5D"/>
<path d="M186.253 66.666C187.558 66.666 188.146 66.1602 188.775 64.4512L191.653 56.6309H190.402L188.386 62.6943H188.276L186.253 56.6309H184.981L187.709 64.0068L187.572 64.4443C187.264 65.333 186.895 65.6543 186.219 65.6543C186.054 65.6543 185.87 65.6475 185.726 65.6201V66.625C185.89 66.6523 186.095 66.666 186.253 66.666Z" fill="#5D5D5D"/>
<path d="M193.334 64H199.008V63.0156H194.756V62.9062L198.988 57.5127V56.6309H193.341V57.6152H197.586V57.7246L193.334 63.1387V64Z" fill="#5D5D5D"/>
<path d="M203.684 64H204.914V54.1357H203.691L201.066 56.0225V57.3213L203.574 55.5029H203.684V64Z" fill="#5D5D5D"/>
<path d="M208.079 56.9111V56.918H209.268V56.9111C209.268 55.749 210.048 54.9766 211.203 54.9766C212.29 54.9766 213.131 55.7354 213.131 56.7197C213.131 57.5127 212.823 58.0459 211.552 59.4268L208.141 63.1523V64H214.525V62.8926H209.904V62.7832L212.276 60.2334C213.896 58.4971 214.361 57.6973 214.361 56.6719C214.361 55.1064 213.008 53.9033 211.237 53.9033C209.405 53.9033 208.079 55.1611 208.079 56.9111Z" fill="#5D5D5D"/>
<path d="M218.9 59.4541H220.151C221.552 59.4541 222.421 60.165 222.421 61.3066C222.421 62.3867 221.498 63.1592 220.199 63.1592C218.927 63.1592 218.039 62.4824 217.929 61.4297H216.74C216.829 63.1182 218.21 64.2324 220.213 64.2324C222.161 64.2324 223.685 62.9678 223.685 61.3408C223.685 59.9941 222.872 59.0645 221.532 58.8936V58.7842C222.612 58.5244 223.261 57.6631 223.261 56.4873C223.261 55.0518 221.887 53.9033 220.165 53.9033C218.285 53.9033 217.061 54.9561 216.938 56.665H218.134C218.237 55.6055 218.982 54.9766 220.117 54.9766C221.252 54.9766 222.01 55.6465 222.01 56.6514C222.01 57.6768 221.217 58.4014 220.096 58.4014H218.9V59.4541Z" fill="#5D5D5D"/>
<path d="M230.446 64H231.649V61.9561H233.05V60.8555H231.649V54.1357H229.865C228.087 56.7949 226.522 59.2695 225.64 60.835V61.9561H230.446V64ZM226.898 60.7803C228.074 58.7842 229.359 56.7471 230.37 55.2773H230.453V60.8623H226.898V60.7803Z" fill="#5D5D5D"/>
<path d="M238.484 64.2324C240.528 64.2324 241.93 62.8652 241.93 60.8623C241.93 58.9209 240.617 57.5605 238.744 57.5605C237.835 57.5605 237.138 57.8408 236.659 58.4014H236.55L236.83 55.2363H241.369V54.1357H235.866L235.326 59.7275H236.482C236.885 59.0234 237.623 58.6201 238.519 58.6201C239.811 58.6201 240.699 59.543 240.699 60.8965C240.699 62.25 239.817 63.1523 238.498 63.1523C237.336 63.1523 236.488 62.4414 236.379 61.375H235.169C235.278 63.0771 236.618 64.2324 238.484 64.2324Z" fill="#5D5D5D"/>
<path d="M247.665 64.2256C249.688 64.2256 251.124 62.8105 251.124 60.8281C251.124 58.9141 249.763 57.5264 247.884 57.5264C246.708 57.5264 245.744 58.0869 245.259 59.0439H245.149C245.218 56.4189 246.127 54.9971 247.733 54.9971C248.704 54.9971 249.449 55.5576 249.716 56.4805H250.98C250.666 54.8945 249.422 53.9033 247.747 53.9033C245.334 53.9033 243.953 55.8447 243.953 59.2354C243.953 60.3223 244.11 61.2314 244.431 61.9834C245.047 63.4326 246.181 64.2256 247.665 64.2256ZM247.651 63.1455C246.387 63.1455 245.423 62.1475 245.423 60.8281C245.423 59.5225 246.359 58.5928 247.665 58.5928C248.971 58.5928 249.88 59.5225 249.88 60.8691C249.88 62.1611 248.916 63.1455 247.651 63.1455Z" fill="#5D5D5D"/>
<path d="M253.796 64H255.088L259.477 55.2773V54.1357H252.949V55.2363H258.226V55.332L253.796 64Z" fill="#5D5D5D"/>
<path d="M264.816 64.2324C266.907 64.2324 268.37 63.0498 268.37 61.3613C268.37 60.0762 267.557 59.0781 266.32 58.8457V58.7363C267.338 58.4561 267.967 57.6152 267.967 56.5352C267.967 54.9971 266.661 53.9033 264.816 53.9033C262.97 53.9033 261.664 54.9971 261.664 56.5352C261.664 57.6084 262.307 58.4629 263.312 58.7363V58.8457C262.074 59.0781 261.261 60.0762 261.261 61.3613C261.261 63.0498 262.724 64.2324 264.816 64.2324ZM264.816 63.1797C263.448 63.1797 262.505 62.4004 262.505 61.2725C262.505 60.1445 263.448 59.3652 264.816 59.3652C266.183 59.3652 267.126 60.1445 267.126 61.2725C267.126 62.4004 266.183 63.1797 264.816 63.1797ZM264.816 58.3262C263.654 58.3262 262.874 57.6562 262.874 56.6514C262.874 55.6328 263.647 54.9561 264.816 54.9561C265.985 54.9561 266.757 55.6328 266.757 56.6514C266.757 57.6562 265.978 58.3262 264.816 58.3262Z" fill="#5D5D5D"/>
<path d="M273.818 64.2256C276.231 64.2256 277.612 62.2842 277.612 58.8936C277.612 57.8066 277.455 56.8975 277.134 56.1455C276.519 54.6895 275.377 53.9033 273.9 53.9033C271.877 53.9033 270.441 55.3184 270.441 57.3008C270.441 59.2148 271.802 60.6025 273.682 60.6025C274.857 60.6025 275.821 60.042 276.307 59.085H276.416C276.348 61.71 275.438 63.1318 273.832 63.1318C272.861 63.1318 272.116 62.5713 271.85 61.6484H270.585C270.899 63.2344 272.144 64.2256 273.818 64.2256ZM273.9 59.5361C272.595 59.5361 271.686 58.6064 271.686 57.2598C271.686 55.9678 272.649 54.9834 273.914 54.9834C275.179 54.9834 276.143 55.9814 276.143 57.3008C276.143 58.6064 275.206 59.5361 273.9 59.5361Z" fill="#5D5D5D"/>
</svg>
