<svg width="253" height="67" viewBox="0 0 253 67" fill="none" xmlns="http://www.w3.org/2000/svg">
<path d="M56.1329 13.3477C56.3321 16.3359 58.8165 18.2812 62.4024 18.2812C66.2931 18.2812 68.7306 16.3477 68.7306 13.2539C68.7306 10.8281 67.3126 9.48047 63.8087 8.60156L62.0392 8.13281C59.7423 7.53516 58.8048 6.77344 58.8048 5.49609C58.8048 3.84375 60.3282 2.70703 62.5196 2.70703C64.7228 2.70703 66.1876 3.82031 66.3751 5.63672H68.4845C68.3907 2.80078 65.9532 0.808594 62.5899 0.808594C59.0743 0.808594 56.6134 2.77734 56.6134 5.58984C56.6134 7.88672 57.9962 9.25781 61.1134 10.0547L63.2813 10.6172C65.5548 11.2031 66.5509 12.082 66.5509 13.5117C66.5509 15.1758 64.8868 16.3828 62.6017 16.3828C60.1876 16.3828 58.4532 15.1758 58.254 13.3477H56.1329Z" fill="#5D5D5D"/>
<path d="M73.3009 18V10.6758H80.7892V8.80078H73.3009V2.98828H81.4571V1.08984H71.1915V18H73.3009Z" fill="#5D5D5D"/>
<path d="M88.7931 1.08984V18H90.9024V11.9648H94.8048C97.9806 11.9648 100.242 9.72656 100.242 6.51562C100.242 3.31641 98.004 1.08984 94.8282 1.08984H88.7931ZM90.9024 2.96484H94.2774C96.7032 2.96484 98.0743 4.27734 98.0743 6.51562C98.0743 8.76562 96.6915 10.0898 94.2774 10.0898H90.9024V2.96484Z" fill="#5D5D5D"/>
<path d="M102.352 18H104.391V10.4062C104.391 8.68359 105.422 7.54688 107.004 7.54688C107.496 7.54688 107.93 7.60547 108.094 7.66406V5.68359C107.93 5.66016 107.625 5.60156 107.274 5.60156C105.844 5.60156 104.719 6.45703 104.32 7.80469H104.274V5.8125H102.352V18Z" fill="#5D5D5D"/>
<path d="M114.223 18.2109C117.586 18.2109 119.859 15.7852 119.859 11.9062C119.859 8.01562 117.586 5.60156 114.223 5.60156C110.848 5.60156 108.574 8.01562 108.574 11.9062C108.574 15.7852 110.848 18.2109 114.223 18.2109ZM114.223 16.418C112.067 16.418 110.649 14.7773 110.649 11.9062C110.649 9.03516 112.067 7.39453 114.223 7.39453C116.379 7.39453 117.785 9.03516 117.785 11.9062C117.785 14.7773 116.379 16.418 114.223 16.418Z" fill="#5D5D5D"/>
<path d="M127.16 1.08984V18H132.844C137.871 18 140.824 14.8711 140.824 9.53906C140.824 4.21875 137.859 1.08984 132.844 1.08984H127.16ZM129.27 2.98828H132.703C136.547 2.98828 138.668 5.33203 138.668 9.5625C138.668 13.7578 136.535 16.1016 132.703 16.1016H129.27V2.98828Z" fill="#5D5D5D"/>
<path d="M143.238 18H145.277V5.8125H143.238V18ZM144.258 3.76172C144.961 3.76172 145.535 3.1875 145.535 2.49609C145.535 1.79297 144.961 1.23047 144.258 1.23047C143.566 1.23047 142.992 1.79297 142.992 2.49609C142.992 3.1875 143.566 3.76172 144.258 3.76172Z" fill="#5D5D5D"/>
<path d="M147.82 9.17578C147.82 10.8398 148.875 11.9414 151.02 12.4922L153.164 13.043C154.535 13.4062 155.039 13.875 155.039 14.7422C155.039 15.8438 154.02 16.5469 152.367 16.5469C150.715 16.5469 149.754 15.8672 149.531 14.6016H147.492C147.703 16.7578 149.566 18.2109 152.238 18.2109C155.086 18.2109 157.09 16.7109 157.09 14.5898C157.09 12.7969 156.199 11.9062 153.738 11.2852L151.852 10.8281C150.469 10.4766 149.824 9.91406 149.824 9.07031C149.824 8.00391 150.809 7.26562 152.297 7.26562C153.797 7.26562 154.746 7.99219 154.887 9.16406H156.832C156.738 7.10156 154.887 5.60156 152.367 5.60156C149.684 5.60156 147.82 7.08984 147.82 9.17578Z" fill="#5D5D5D"/>
<path d="M165.129 5.60156C163.359 5.60156 161.941 6.50391 161.191 7.875H161.145V5.8125H159.211V22.0664H161.25V16.0195H161.297C162.024 17.3555 163.43 18.2109 165.176 18.2109C168.246 18.2109 170.344 15.7266 170.344 11.9062C170.344 8.08594 168.234 5.60156 165.129 5.60156ZM164.731 16.418C162.645 16.418 161.238 14.625 161.238 11.9062C161.238 9.19922 162.645 7.39453 164.731 7.39453C166.899 7.39453 168.258 9.15234 168.258 11.9062C168.258 14.6719 166.899 16.418 164.731 16.418Z" fill="#5D5D5D"/>
<path d="M172.512 18H174.551V1.08984H172.512V18Z" fill="#5D5D5D"/>
<path d="M181.324 16.4766C179.859 16.4766 178.887 15.7148 178.887 14.5547C178.887 13.4062 179.824 12.6797 181.465 12.5742L184.723 12.375V13.3711C184.723 15.1289 183.246 16.4766 181.324 16.4766ZM180.867 18.2109C182.508 18.2109 184.055 17.2969 184.781 15.9023H184.828V18H186.762V9.57422C186.762 7.14844 184.957 5.60156 182.098 5.60156C179.215 5.60156 177.41 7.21875 177.27 9.32812H179.238C179.496 8.13281 180.481 7.39453 182.051 7.39453C183.738 7.39453 184.723 8.28516 184.723 9.77344V10.793L181.231 10.9922C178.418 11.1562 176.813 12.4688 176.813 14.5547C176.813 16.7461 178.441 18.2109 180.867 18.2109Z" fill="#5D5D5D"/>
<path d="M190.359 22.5586C192.563 22.5586 193.57 21.7031 194.613 18.8555L199.406 5.8125H197.262L193.887 15.9609H193.852L190.477 5.8125H188.297L192.797 18.0117L192.516 18.8672C192.047 20.2852 191.414 20.8359 190.277 20.8359C190.02 20.8359 189.703 20.8242 189.481 20.7773V22.4883C189.703 22.5352 190.113 22.5586 190.359 22.5586Z" fill="#5D5D5D"/>
<path d="M15.8718 47H17.1638L13.5271 37.1357H12.3103L8.67358 47H9.96557L10.9568 44.1768H14.8806L15.8718 47ZM12.8982 38.6328H12.9392L14.5183 43.1309H11.3191L12.8982 38.6328Z" fill="#5D5D5D"/>
<path d="M22.2973 47C24.396 47 25.6401 45.9678 25.6401 44.2314C25.6401 42.9189 24.7788 41.9756 23.4389 41.8047V41.75C24.3891 41.5791 25.1411 40.6221 25.1411 39.5967C25.1411 38.1201 23.9995 37.1357 22.311 37.1357H18.5717V47H22.2973ZM19.8022 38.2227H22.0307C23.227 38.2227 23.8969 38.7627 23.8969 39.7402C23.8969 40.8066 23.104 41.3877 21.6479 41.3877H19.8022V38.2227ZM19.8022 45.9131V42.4473H21.9965C23.5688 42.4473 24.3755 43.0283 24.3755 44.1699C24.3755 45.3115 23.5962 45.9131 22.1128 45.9131H19.8022Z" fill="#5D5D5D"/>
<path d="M31.3752 47.1641C33.5558 47.1641 35.0187 46.0771 35.4699 44.1289H34.2258C33.8703 45.332 32.8312 46.0293 31.382 46.0293C29.4338 46.0293 28.1965 44.4844 28.1965 42.0645C28.1965 39.665 29.4474 38.1064 31.3752 38.1064C32.7834 38.1064 33.9113 38.9541 34.2258 40.2461H35.4699C35.1554 38.2773 33.5217 36.9717 31.3752 36.9717C28.675 36.9717 26.9318 38.9678 26.9318 42.0645C26.9318 45.1885 28.6545 47.1641 31.3752 47.1641Z" fill="#5D5D5D"/>
<path d="M37.206 37.1357V47H40.5214C43.454 47 45.1767 45.1748 45.1767 42.0645C45.1767 38.9609 43.4472 37.1357 40.5214 37.1357H37.206ZM38.4364 38.2432H40.4394C42.6815 38.2432 43.9188 39.6104 43.9188 42.0781C43.9188 44.5254 42.6747 45.8926 40.4394 45.8926H38.4364V38.2432Z" fill="#5D5D5D"/>
<path d="M53.0992 45.8926H48.2184V42.502H52.8463V41.4082H48.2184V38.2432H53.0992V37.1357H46.9879V47H53.0992V45.8926Z" fill="#5D5D5D"/>
<path d="M56.2367 47V42.7275H60.6048V41.6338H56.2367V38.2432H60.9945V37.1357H55.0062V47H56.2367Z" fill="#5D5D5D"/>
<path d="M71.002 42.9189V41.9824H66.9893V43.0625H69.7715V43.2402C69.7715 44.8945 68.5684 46.0293 66.8184 46.0293C64.8087 46.0293 63.5645 44.4912 63.5645 42.0098C63.5645 39.5693 64.7881 38.1064 66.8184 38.1064C68.2061 38.1064 69.2383 38.8652 69.6485 40.1982H70.9405C70.5714 38.2363 68.9512 36.9717 66.8184 36.9717C64.0567 36.9717 62.2999 38.9336 62.2999 42.0166C62.2999 45.1543 64.0635 47.1641 66.8184 47.1641C69.4503 47.1641 71.002 45.585 71.002 42.9189Z" fill="#5D5D5D"/>
<path d="M80.7361 47V37.1357H79.5056V41.4014H74.0916V37.1357H72.8611V47H74.0916V42.5088H79.5056V47H80.7361Z" fill="#5D5D5D"/>
<path d="M84.1606 47V37.1357H82.9302V47H84.1606Z" fill="#5D5D5D"/>
<path d="M85.6848 44.6826C85.6848 46.1797 86.8332 47.2324 88.4738 47.2324C90.2922 47.2324 91.3723 46.125 91.3723 44.252V37.1357H90.1418V44.2451C90.1418 45.4482 89.5539 46.0977 88.467 46.0977C87.5715 46.0977 86.9358 45.5166 86.9084 44.6826H85.6848Z" fill="#5D5D5D"/>
<path d="M94.7968 47V43.5547L95.8632 42.3789L99.5615 47H101.134L96.7177 41.5039L100.771 37.1357H99.2197L94.8652 41.9482H94.7968V37.1357H93.5664V47H94.7968Z" fill="#5D5D5D"/>
<path d="M108.448 45.8926H103.69V37.1357H102.46V47H108.448V45.8926Z" fill="#5D5D5D"/>
<path d="M119.802 47V37.1357H118.373L114.969 45.3662H114.914L111.51 37.1357H110.081V47H111.23V39.3984H111.278L114.422 46.9316H115.461L118.606 39.3984H118.654V47H119.802Z" fill="#5D5D5D"/>
<path d="M123.213 47V39.2822H123.275L128.675 47H129.871V37.1357H128.654V44.8809H128.593L123.192 37.1357H121.996V47H123.213Z" fill="#5D5D5D"/>
<path d="M136.228 36.9717C133.432 36.9717 131.682 38.9404 131.682 42.0713C131.682 45.2021 133.432 47.1641 136.228 47.1641C139.024 47.1641 140.774 45.2021 140.774 42.0713C140.774 38.9404 139.024 36.9717 136.228 36.9717ZM136.228 38.1064C138.245 38.1064 139.51 39.6377 139.51 42.0713C139.51 44.498 138.245 46.0293 136.228 46.0293C134.212 46.0293 132.947 44.498 132.947 42.0713C132.947 39.6377 134.212 38.1064 136.228 38.1064Z" fill="#5D5D5D"/>
<path d="M142.585 37.1357V47H143.816V43.4795H146.092C147.945 43.4795 149.264 42.1738 149.264 40.3008C149.264 38.4346 147.959 37.1357 146.106 37.1357H142.585ZM143.816 38.2295H145.785C147.2 38.2295 148 38.9951 148 40.3008C148 41.6133 147.193 42.3857 145.785 42.3857H143.816V38.2295Z" fill="#5D5D5D"/>
<path d="M155.122 47.1641C155.772 47.1641 156.36 47.0615 156.886 46.8564L157.802 48.1143H159.183L157.877 46.3164C159.019 45.4551 159.668 43.9785 159.668 42.0713C159.668 38.9404 157.918 36.9717 155.122 36.9717C152.326 36.9717 150.576 38.9404 150.576 42.0713C150.576 45.2021 152.326 47.1641 155.122 47.1641ZM155.122 46.0293C153.106 46.0293 151.841 44.498 151.841 42.0713C151.841 39.6377 153.106 38.1064 155.122 38.1064C157.139 38.1064 158.404 39.6377 158.404 42.0713C158.404 43.5205 157.952 44.6553 157.159 45.3252L156.319 44.1768H154.938L156.168 45.8721C155.847 45.9746 155.498 46.0293 155.122 46.0293Z" fill="#5D5D5D"/>
<path d="M162.71 38.2295H165.014C166.285 38.2295 167.051 38.9336 167.051 40.1162C167.051 41.3262 166.333 42.0098 165.068 42.0098H162.71V38.2295ZM162.71 43.0967H165.068L167.181 47H168.623L166.34 42.9053C167.577 42.5156 168.322 41.4492 168.322 40.0752C168.322 38.2979 167.078 37.1357 165.178 37.1357H161.479V47H162.71V43.0967Z" fill="#5D5D5D"/>
<path d="M169.682 44.2861C169.799 46.0293 171.248 47.1641 173.34 47.1641C175.609 47.1641 177.031 46.0361 177.031 44.2314C177.031 42.8164 176.204 42.0303 174.16 41.5176L173.128 41.2441C171.788 40.8955 171.241 40.4512 171.241 39.7061C171.241 38.7422 172.13 38.0791 173.408 38.0791C174.693 38.0791 175.548 38.7285 175.657 39.7881H176.887C176.833 38.1338 175.411 36.9717 173.449 36.9717C171.398 36.9717 169.963 38.1201 169.963 39.7607C169.963 41.1006 170.769 41.9004 172.588 42.3652L173.852 42.6934C175.178 43.0352 175.759 43.5479 175.759 44.3818C175.759 45.3525 174.789 46.0566 173.456 46.0566C172.048 46.0566 171.036 45.3525 170.92 44.2861H169.682Z" fill="#5D5D5D"/>
<path d="M182.472 47V38.2432H185.582V37.1357H178.131V38.2432H181.242V47H182.472Z" fill="#5D5D5D"/>
<path d="M188.392 37.1357H187.161V43.541C187.161 45.6465 188.631 47.1641 191.078 47.1641C193.526 47.1641 194.995 45.6465 194.995 43.541V37.1357H193.765V43.459C193.765 44.9492 192.787 46.0293 191.078 46.0293C189.369 46.0293 188.392 44.9492 188.392 43.459V37.1357Z" fill="#5D5D5D"/>
<path d="M201.257 47L204.893 37.1357H203.601L200.669 45.5029H200.628L197.695 37.1357H196.403L200.04 47H201.257Z" fill="#5D5D5D"/>
<path d="M211.777 39.1729H211.845L214.122 47H215.284L217.97 37.1357H216.685L214.71 45.1885H214.655L212.433 37.1357H211.189L208.967 45.1885H208.913L206.937 37.1357H205.652L208.338 47H209.501L211.777 39.1729Z" fill="#5D5D5D"/>
<path d="M218.866 47H220.26L222.919 43.0693H222.967L225.585 47H227.062L223.733 42.1123V42.0713L227.137 37.1357H225.736L223.07 41.1006H223.022L220.39 37.1357H218.907L222.222 42.0098V42.0576L218.866 47Z" fill="#5D5D5D"/>
<path d="M232.626 47V42.7549L236.126 37.1357H234.725L232.031 41.5654H231.99L229.297 37.1357H227.896L231.396 42.7549V47H232.626Z" fill="#5D5D5D"/>
<path d="M237.247 47H244.541V45.8926H238.826V45.8447L244.425 38.0107V37.1357H237.438V38.2432H242.873V38.291L237.247 46.125V47Z" fill="#5D5D5D"/>
<path d="M3.31885 63.1113C2.46436 63.1113 1.89697 62.667 1.89697 61.9902C1.89697 61.3203 2.44385 60.8965 3.40088 60.835L5.30127 60.7188V61.2998C5.30127 62.3252 4.43994 63.1113 3.31885 63.1113ZM3.05225 64.123C4.00928 64.123 4.91162 63.5898 5.33545 62.7764H5.36279V64H6.49072V59.085C6.49072 57.6699 5.43799 56.7676 3.77002 56.7676C2.08838 56.7676 1.03564 57.7109 0.953613 58.9414H2.10205C2.25244 58.2441 2.82666 57.8135 3.74268 57.8135C4.72705 57.8135 5.30127 58.333 5.30127 59.2012V59.7959L3.26416 59.9121C1.62354 60.0078 0.687012 60.7734 0.687012 61.9902C0.687012 63.2686 1.63721 64.123 3.05225 64.123Z" fill="#5D5D5D"/>
<path d="M11.8156 64.123C13.634 64.123 14.8371 62.6807 14.8371 60.4453C14.8371 58.2168 13.6272 56.7676 11.8362 56.7676C10.8313 56.7676 10.0041 57.2666 9.55979 58.0801H9.53244V54.1357H8.34299V64H9.47775V62.7969H9.5051C9.96311 63.6172 10.7766 64.123 11.8156 64.123ZM11.5832 57.8135C12.841 57.8135 13.6203 58.832 13.6203 60.4453C13.6203 62.0723 12.841 63.0771 11.5832 63.0771C10.3801 63.0771 9.52561 62.0312 9.52561 60.4453C9.52561 58.8662 10.3801 57.8135 11.5832 57.8135Z" fill="#5D5D5D"/>
<path d="M22.2333 59.2217C22.083 57.9434 21.0234 56.7676 19.246 56.7676C17.2841 56.7676 15.9785 58.2031 15.9785 60.4453C15.9785 62.7354 17.291 64.123 19.2597 64.123C20.873 64.123 22.0624 63.125 22.247 61.71H21.0781C20.873 62.5645 20.2372 63.0771 19.2665 63.0771C18.0361 63.0771 17.1884 62.0996 17.1884 60.4453C17.1884 58.832 18.0224 57.8135 19.2529 57.8135C20.2988 57.8135 20.9003 58.4492 21.0712 59.2217H22.2333Z" fill="#5D5D5D"/>
<path d="M26.3141 64.123C27.3395 64.123 28.153 63.6172 28.611 62.7969H28.6315V64H29.7663V54.1357H28.5768V58.0459H28.5495C28.1256 57.2666 27.3053 56.7676 26.2868 56.7676C24.4958 56.7676 23.2721 58.2168 23.2721 60.4453C23.2721 62.6738 24.5026 64.123 26.3141 64.123ZM26.5397 57.8135C27.7633 57.8135 28.5837 58.8594 28.5837 60.4453C28.5837 62.0381 27.7633 63.0771 26.5397 63.0771C25.2819 63.0771 24.4889 62.0586 24.4889 60.4453C24.4889 58.8389 25.2819 57.8135 26.5397 57.8135Z" fill="#5D5D5D"/>
<path d="M34.5033 57.7998C35.6244 57.7998 36.3695 58.6475 36.3969 59.8369H32.5346C32.6097 58.6543 33.389 57.7998 34.5033 57.7998ZM36.3695 61.9629C36.1713 62.6328 35.5082 63.0908 34.6058 63.0908C33.3275 63.0908 32.5277 62.1953 32.5277 60.835V60.7666H37.6273V60.3154C37.6273 58.1621 36.4447 56.7676 34.5238 56.7676C32.5619 56.7676 31.3041 58.2646 31.3041 60.4727C31.3041 62.708 32.5414 64.123 34.5785 64.123C36.1303 64.123 37.3334 63.207 37.5385 61.9629H36.3695Z" fill="#5D5D5D"/>
<path d="M39.4933 64H40.6827V57.8682H42.1319V56.8906H40.6759V56.1045C40.6759 55.4004 40.9835 55.0586 41.6261 55.0586C41.8243 55.0586 42.0226 55.0791 42.1661 55.0996V54.1357C41.9952 54.1084 41.7081 54.0811 41.4415 54.0811C40.129 54.0811 39.4933 54.7305 39.4933 56.0977V56.8906H38.5021V57.8682H39.4933V64Z" fill="#5D5D5D"/>
<path d="M46.1922 63.0088C44.9686 63.0088 44.1688 62.0107 44.1688 60.418C44.1688 58.8252 44.9686 57.8135 46.1922 57.8135C47.4295 57.8135 48.2567 58.8525 48.2567 60.418C48.2567 61.9834 47.4295 63.0088 46.1922 63.0088ZM46.2332 66.6797C48.1951 66.6797 49.4461 65.5518 49.4461 63.8564V56.8906H48.3113V58.0869H48.2908C47.8192 57.2598 46.9852 56.7676 45.9803 56.7676C44.1414 56.7676 42.952 58.1895 42.952 60.418C42.952 62.626 44.1414 64.0547 45.9529 64.0547C46.951 64.0547 47.7918 63.5488 48.2293 62.7764H48.2567V63.8975C48.2567 64.957 47.5115 65.668 46.2811 65.668C45.3924 65.668 44.6883 65.2373 44.4559 64.5879H43.2322C43.4305 65.7979 44.6678 66.6797 46.2332 66.6797Z" fill="#5D5D5D"/>
<path d="M51.3394 64H52.5288V59.8574C52.5288 58.627 53.2603 57.8203 54.4429 57.8203C55.5572 57.8203 56.1245 58.4971 56.1245 59.625V64H57.314V59.4062C57.314 57.8203 56.3706 56.7676 54.812 56.7676C53.732 56.7676 52.9527 57.2324 52.5562 58.0254H52.5288V54.1357H51.3394V64Z" fill="#5D5D5D"/>
<path d="M59.1663 64H60.3557V56.8906H59.1663V64ZM59.761 55.6943C60.1712 55.6943 60.5061 55.3594 60.5061 54.9561C60.5061 54.5459 60.1712 54.2178 59.761 54.2178C59.3577 54.2178 59.0227 54.5459 59.0227 54.9561C59.0227 55.3594 59.3577 55.6943 59.761 55.6943Z" fill="#5D5D5D"/>
<path d="M63.4931 56.8906H62.3037V64.3623C62.3037 65.1553 62.0234 65.4492 61.251 65.4492C61.2441 65.4492 61.0801 65.4492 61.0664 65.4492V66.4404C61.0801 66.4473 61.2715 66.4473 61.292 66.4473C62.8096 66.4473 63.4931 65.791 63.4931 64.3486V56.8906ZM62.8984 55.6943C63.3086 55.6943 63.6435 55.3594 63.6435 54.9561C63.6435 54.5459 63.3086 54.2178 62.8984 54.2178C62.4951 54.2178 62.1601 54.5459 62.1601 54.9561C62.1601 55.3594 62.4951 55.6943 62.8984 55.6943Z" fill="#5D5D5D"/>
<path d="M66.6306 60.0488V54.1357H65.4411V64H66.6306V61.3203L67.2937 60.6914L69.9323 64H71.3132L68.1345 59.96L71.2175 56.8906H69.7751L66.6306 60.0488Z" fill="#5D5D5D"/>
<path d="M72.516 64H73.7055V54.1357H72.516V64Z" fill="#5D5D5D"/>
<path d="M75.5919 64H76.7814V59.543C76.7814 58.5586 77.465 57.8203 78.4083 57.8203C79.2902 57.8203 79.8644 58.3809 79.8644 59.2354V64H81.0538V59.4814C81.0538 58.5176 81.7169 57.8203 82.6603 57.8203C83.5968 57.8203 84.1369 58.3945 84.1369 59.3652V64H85.3263V59.0918C85.3263 57.6836 84.4171 56.7676 83.0089 56.7676C82.0109 56.7676 81.1769 57.2734 80.7804 58.1211H80.7531C80.4454 57.2598 79.7277 56.7676 78.757 56.7676C77.7999 56.7676 77.0753 57.2734 76.7404 58.0254H76.713V56.8906H75.5919V64Z" fill="#5D5D5D"/>
<path d="M87.1239 64H88.3133V59.8164C88.3133 58.6133 89.0448 57.8203 90.1659 57.8203C91.2596 57.8203 91.7997 58.4492 91.7997 59.5977V64H92.9891V59.3857C92.9891 57.7725 92.0868 56.7676 90.5282 56.7676C89.4276 56.7676 88.6688 57.2598 88.2723 58.0254H88.245V56.8906H87.1239V64Z" fill="#5D5D5D"/>
<path d="M97.733 64.123C99.6949 64.123 101.021 62.708 101.021 60.4453C101.021 58.1758 99.6949 56.7676 97.733 56.7676C95.7642 56.7676 94.4381 58.1758 94.4381 60.4453C94.4381 62.708 95.7642 64.123 97.733 64.123ZM97.733 63.0771C96.4752 63.0771 95.648 62.1201 95.648 60.4453C95.648 58.7705 96.4752 57.8135 97.733 57.8135C98.9908 57.8135 99.8111 58.7705 99.8111 60.4453C99.8111 62.1201 98.9908 63.0771 97.733 63.0771Z" fill="#5D5D5D"/>
<path d="M105.956 56.7676C104.924 56.7676 104.097 57.2939 103.659 58.0938H103.632V56.8906H102.504V66.3721H103.694V62.8447H103.721C104.145 63.624 104.965 64.123 105.984 64.123C107.775 64.123 108.998 62.6738 108.998 60.4453C108.998 58.2168 107.768 56.7676 105.956 56.7676ZM105.724 63.0771C104.507 63.0771 103.687 62.0312 103.687 60.4453C103.687 58.8662 104.507 57.8135 105.724 57.8135C106.989 57.8135 107.782 58.8389 107.782 60.4453C107.782 62.0586 106.989 63.0771 105.724 63.0771Z" fill="#5D5D5D"/>
<path d="M113.161 56.7676C111.336 56.7676 110.133 58.21 110.133 60.4453C110.133 62.6738 111.336 64.123 113.134 64.123C114.139 64.123 114.966 63.624 115.41 62.8105H115.438V66.3721H116.627V56.8906H115.492V58.0938H115.465C115.007 57.2734 114.193 56.7676 113.161 56.7676ZM113.373 63.0771C112.129 63.0771 111.35 62.0654 111.35 60.4453C111.35 58.8184 112.129 57.8135 113.373 57.8135C114.59 57.8135 115.438 58.8594 115.438 60.4453C115.438 62.0312 114.59 63.0771 113.373 63.0771Z" fill="#5D5D5D"/>
<path d="M118.459 64H119.648V59.5703C119.648 58.5654 120.25 57.9023 121.173 57.9023C121.46 57.9023 121.713 57.9365 121.808 57.9707V56.8154C121.713 56.8018 121.535 56.7676 121.33 56.7676C120.496 56.7676 119.84 57.2666 119.607 58.0527H119.58V56.8906H118.459V64Z" fill="#5D5D5D"/>
<path d="M122.936 58.8525C122.936 59.8232 123.551 60.4658 124.802 60.7871L126.053 61.1084C126.853 61.3203 127.147 61.5938 127.147 62.0996C127.147 62.7422 126.552 63.1523 125.588 63.1523C124.624 63.1523 124.064 62.7559 123.934 62.0176H122.745C122.868 63.2754 123.955 64.123 125.513 64.123C127.174 64.123 128.343 63.248 128.343 62.0107C128.343 60.9648 127.824 60.4453 126.388 60.083L125.288 59.8164C124.481 59.6113 124.105 59.2832 124.105 58.791C124.105 58.1689 124.679 57.7383 125.547 57.7383C126.422 57.7383 126.976 58.1621 127.058 58.8457H128.193C128.138 57.6426 127.058 56.7676 125.588 56.7676C124.023 56.7676 122.936 57.6357 122.936 58.8525Z" fill="#5D5D5D"/>
<path d="M130.243 55.1748V56.8906H129.184V57.8682H130.243V62.1543C130.243 63.5215 130.749 64.0547 132.055 64.0547C132.335 64.0547 132.663 64.0342 132.807 64V63.002C132.725 63.0156 132.451 63.0361 132.315 63.0361C131.706 63.0361 131.433 62.7422 131.433 62.0928V57.8682H132.814V56.8906H131.433V55.1748H130.243Z" fill="#5D5D5D"/>
<path d="M140.203 56.8906H139.014V61.0674C139.014 62.2773 138.316 63.0703 137.161 63.0703C136.06 63.0703 135.52 62.4482 135.52 61.293V56.8906H134.331V61.5049C134.331 63.1182 135.24 64.123 136.792 64.123C137.886 64.123 138.624 63.665 139.048 62.8447H139.075V64H140.203V56.8906Z" fill="#5D5D5D"/>
<path d="M147.859 56.8906H146.622L144.653 62.7354H144.626L142.664 56.8906H141.413L144.031 64H145.248L147.859 56.8906Z" fill="#5D5D5D"/>
<path d="M158.119 56.8906H156.944L155.522 62.6738H155.494L153.881 56.8906H152.733L151.126 62.6738H151.099L149.677 56.8906H148.494L150.484 64H151.694L153.293 58.4971H153.321L154.927 64H156.137L158.119 56.8906Z" fill="#5D5D5D"/>
<path d="M161.893 61.293L163.595 64H164.914L162.549 60.3975L164.948 56.8906H163.622L161.934 59.5566H161.906L160.197 56.8906H158.871L161.25 60.4453L158.83 64H160.149L161.865 61.293H161.893Z" fill="#5D5D5D"/>
<path d="M166.821 66.6592C168.106 66.6592 168.694 66.1602 169.303 64.499L172.098 56.8906H170.847L168.879 62.8105H168.858L166.889 56.8906H165.618L168.243 64.0068L168.079 64.5059C167.805 65.333 167.436 65.6543 166.773 65.6543C166.623 65.6543 166.438 65.6475 166.308 65.6201V66.6182C166.438 66.6455 166.678 66.6592 166.821 66.6592Z" fill="#5D5D5D"/>
<path d="M173.171 64H178.476V63.0225H174.545V63.002L178.456 57.7588V56.8906H173.178V57.8682H177.109V57.8887L173.171 63.1523V64Z" fill="#5D5D5D"/>
<path d="M182.694 64H183.883V54.1357H182.68L180.055 56.0225V57.3213L182.666 55.4414H182.694V64Z" fill="#5D5D5D"/>
<path d="M186.603 56.9795V56.9863H187.793V56.9795C187.793 55.8789 188.668 55.0449 189.823 55.0449C190.91 55.0449 191.778 55.8037 191.778 56.7539C191.778 57.5742 191.464 58.1006 190.138 59.4951L186.665 63.1523V64H193.173V62.9062H188.367V62.8789L190.862 60.3018C192.51 58.5996 193.009 57.7793 193.009 56.6787C193.009 55.168 191.621 53.9717 189.857 53.9717C187.998 53.9717 186.603 55.2568 186.603 56.9795Z" fill="#5D5D5D"/>
<path d="M196.884 59.4473H198.122C199.53 59.4473 200.405 60.165 200.405 61.3271C200.405 62.3594 199.468 63.0977 198.163 63.0977C196.837 63.0977 195.996 62.4004 195.886 61.3887H194.704C194.793 63.0225 196.112 64.1641 198.176 64.1641C200.111 64.1641 201.656 62.9814 201.656 61.2861C201.656 59.8984 200.699 58.9756 199.209 58.8867V58.8594C200.439 58.6406 201.232 57.752 201.232 56.5146C201.232 55.0312 199.899 53.9717 198.135 53.9717C196.283 53.9717 195.039 55.0449 194.902 56.7197H196.085C196.194 55.6875 196.946 55.0381 198.081 55.0381C199.332 55.0381 199.995 55.7012 199.995 56.6787C199.995 57.6768 199.202 58.4082 198.067 58.4082H196.884V59.4473Z" fill="#5D5D5D"/>
<path d="M208.129 64H209.319V61.9492H210.713V60.8691H209.319V54.1357H207.5C205.169 57.4785 204.014 59.2764 203.173 60.835V61.9492H208.129V64ZM204.39 60.8418C205.169 59.4746 206.243 57.8271 208.109 55.1611H208.129V60.8691H204.39V60.8418Z" fill="#5D5D5D"/>
<path d="M215.587 64.1641C217.645 64.1641 219.101 62.7764 219.101 60.7939C219.101 58.8799 217.733 57.4922 215.84 57.4922C214.897 57.4922 214.076 57.8477 213.632 58.4424H213.605L213.905 55.2295H218.54V54.1357H212.894L212.354 59.6592H213.509C213.912 58.9688 214.698 58.5518 215.621 58.5518C216.934 58.5518 217.87 59.502 217.87 60.8281C217.87 62.1543 216.941 63.084 215.601 63.084C214.418 63.084 213.523 62.3594 213.413 61.3066H212.203C212.306 62.9883 213.7 64.1641 215.587 64.1641Z" fill="#5D5D5D"/>
<path d="M224.234 64.1709C226.258 64.1709 227.727 62.749 227.727 60.8008C227.727 58.9277 226.333 57.54 224.453 57.54C223.229 57.54 222.142 58.1758 221.698 59.1396H221.678C221.719 56.5146 222.655 55.0518 224.303 55.0518C225.28 55.0518 226.073 55.626 226.34 56.5215H227.591C227.276 54.9697 225.991 53.9648 224.316 53.9648C221.903 53.9648 220.488 55.9131 220.488 59.2354C220.488 60.3018 220.645 61.1904 220.973 61.9492C221.582 63.3711 222.758 64.1709 224.234 64.1709ZM224.221 63.0771C222.956 63.0771 221.971 62.0723 221.971 60.8076C221.971 59.5498 222.935 58.6201 224.241 58.6201C225.547 58.6201 226.476 59.5498 226.476 60.8418C226.476 62.0859 225.478 63.0771 224.221 63.0771Z" fill="#5D5D5D"/>
<path d="M229.894 64H231.186L235.575 55.2773V54.1357H229.046V55.2295H234.358V55.2568L229.894 64Z" fill="#5D5D5D"/>
<path d="M240.654 64.1641C242.745 64.1641 244.236 62.9883 244.236 61.334C244.236 60.1104 243.388 59.0986 242.11 58.7979V58.7705C243.183 58.4287 243.832 57.5947 243.832 56.5693C243.832 55.0654 242.499 53.9717 240.654 53.9717C238.822 53.9717 237.468 55.0723 237.468 56.5625C237.468 57.6016 238.131 58.4424 239.198 58.7705V58.7979C237.926 59.0918 237.078 60.1035 237.078 61.334C237.078 62.9814 238.569 64.1641 240.654 64.1641ZM240.654 63.0908C239.3 63.0908 238.329 62.3184 238.329 61.2451C238.329 60.165 239.3 59.3926 240.654 59.3926C242.014 59.3926 242.978 60.1582 242.978 61.2451C242.978 62.3184 242.014 63.0908 240.654 63.0908ZM240.654 58.3125C239.498 58.3125 238.692 57.6357 238.692 56.6787C238.692 55.7148 239.498 55.0312 240.654 55.0312C241.809 55.0312 242.615 55.708 242.615 56.6787C242.615 57.6357 241.802 58.3125 240.654 58.3125Z" fill="#5D5D5D"/>
<path d="M249.075 64.1641C251.488 64.1641 252.896 62.2227 252.896 58.9004C252.896 57.8271 252.739 56.9385 252.411 56.1797C251.81 54.7646 250.634 53.9648 249.15 53.9648C247.127 53.9648 245.657 55.3867 245.657 57.335C245.657 59.208 247.052 60.5957 248.932 60.5957C250.189 60.5957 251.27 59.96 251.686 58.9824C251.693 58.9824 251.693 58.9824 251.7 58.9824H251.707C251.673 61.6006 250.729 63.0908 249.089 63.0908C248.111 63.0908 247.311 62.5029 247.052 61.6074H245.801C246.102 63.1523 247.394 64.1641 249.075 64.1641ZM249.144 59.5156C247.852 59.5156 246.901 58.5791 246.901 57.2939C246.901 56.0566 247.899 55.0723 249.164 55.0723C250.436 55.0723 251.42 56.0635 251.42 57.3281C251.42 58.5859 250.449 59.5156 249.144 59.5156Z" fill="#5D5D5D"/>
</svg>
