<svg width="846" height="848" viewBox="0 0 846 848" fill="none" xmlns="http://www.w3.org/2000/svg">
<g clip-path="url(#clip0)">
<path fill-rule="evenodd" clip-rule="evenodd" d="M148.5 110H184V177H148.5V110ZM189 105V182H103V105H189ZM143.5 110V177H108V110H143.5ZM131.082 151L131 137L135 136.977L135.082 150.976L131.082 151ZM161 137L161.082 151L165.082 150.976L165 136.977L161 137Z" fill="black"/>
<path fill-rule="evenodd" clip-rule="evenodd" d="M184 371H108V496H184V371ZM103 366V501H189V366H103Z" fill="black"/>
<path fill-rule="evenodd" clip-rule="evenodd" d="M186 415H106V410H186V415Z" fill="black"/>
<path fill-rule="evenodd" clip-rule="evenodd" d="M186 458H106V453H186V458Z" fill="black"/>
<path fill-rule="evenodd" clip-rule="evenodd" d="M154 437H139V432H154V437Z" fill="black"/>
<path fill-rule="evenodd" clip-rule="evenodd" d="M154 393H139V388H154V393Z" fill="black"/>
<path fill-rule="evenodd" clip-rule="evenodd" d="M154 481H139V476H154V481Z" fill="black"/>
<path fill-rule="evenodd" clip-rule="evenodd" d="M439.5 110H480V177H439.5V110ZM485 105V182H389V105H485ZM434.5 110V177H394V110H434.5Z" fill="black"/>
<path d="M457 144C457 147.314 454.314 150 451 150C447.686 150 445 147.314 445 144C445 140.686 447.686 138 451 138C454.314 138 457 140.686 457 144Z" fill="black"/>
<path d="M429 144C429 147.314 426.314 150 423 150C419.686 150 417 147.314 417 144C417 140.686 419.686 138 423 138C426.314 138 429 140.686 429 144Z" fill="black"/>
<path fill-rule="evenodd" clip-rule="evenodd" d="M771 400H730.5V431.5H771V400ZM776 472H680V395H776V472ZM685 436.5V467H725.5V436.5H685ZM725.5 431.5H685V400H725.5V431.5ZM730.5 436.5V467H771V436.5H730.5ZM757 418H745V414H757V418ZM700 418H712V414H700V418ZM757 454H745V450H757V454ZM700 454H712V450H700V454Z" fill="black"/>
<path fill-rule="evenodd" clip-rule="evenodd" d="M479 400H438.5V431.5H479V400ZM484 472H388V395H484V472ZM393 436.5V467H433.5V436.5H393ZM433.5 431.5H393V400H433.5V431.5ZM438.5 436.5V467H479V436.5H438.5ZM418 416C418 418.209 416.209 420 414 420C411.791 420 410 418.209 410 416C410 413.791 411.791 412 414 412C416.209 412 418 413.791 418 416ZM459 420C461.209 420 463 418.209 463 416C463 413.791 461.209 412 459 412C456.791 412 455 413.791 455 416C455 418.209 456.791 420 459 420ZM418 452C418 454.209 416.209 456 414 456C411.791 456 410 454.209 410 452C410 449.791 411.791 448 414 448C416.209 448 418 449.791 418 452ZM459 456C461.209 456 463 454.209 463 452C463 449.791 461.209 448 459 448C456.791 448 455 449.791 455 452C455 454.209 456.791 456 459 456Z" fill="black"/>
<path fill-rule="evenodd" clip-rule="evenodd" d="M730.5 673H771V704H730.5V673ZM725.5 704V673H685V704H725.5ZM685 709H725.5V740H685V709ZM680 668H776V780.5H680V668ZM771 709V740H730.5V709H771ZM685 775.5V745H725.5V775.5H685ZM730.5 775.5V745H771V775.5H730.5ZM757 726.5H745V722.5H757V726.5ZM745 690.5H757V686.5H745V690.5ZM712 726.5H700V722.5H712V726.5ZM745 762.5H757V758.5H745V762.5ZM712 762.5H700V758.5H712V762.5ZM700 690.5H712V686.5H700V690.5Z" fill="black"/>
<path fill-rule="evenodd" clip-rule="evenodd" d="M149.5 673H190V740.5H149.5V673ZM195 668H99V780.5H195V668ZM104 709.5V775.5H144.5V709.5H104ZM144.5 704.5V673H104V704.5H144.5ZM149.5 745.5H190V775.5H149.5V745.5ZM163 701V713H159V701H163ZM164 762.5H176V758.5H164V762.5ZM137 738V750H133V738H137ZM119 690.5H131V686.5H119V690.5Z" fill="black"/>
<path fill-rule="evenodd" clip-rule="evenodd" d="M730.5 110H771V141.5H730.5V110ZM776 105H680V182H776V105ZM730.5 146.5H771V177H730.5V146.5ZM725.5 110V177H685V110H725.5ZM745 128H757V124H745V128ZM757 164H745V160H757V164ZM713 137L713.082 151L717.082 150.976L717 136.977L713 137Z" fill="black"/>
<path fill-rule="evenodd" clip-rule="evenodd" d="M439.5 673H480V704H439.5V673ZM434.5 704V673H394V704H434.5ZM394 709H434.5V740H394V709ZM389 668H485V780.5H389V668ZM480 709V740H439.5V709H480ZM394 775.5V745H434.5V775.5H394ZM439.5 775.5V745H480V775.5H439.5ZM419 688C419 690.209 417.209 692 415 692C412.791 692 411 690.209 411 688C411 685.791 412.791 684 415 684C417.209 684 419 685.791 419 688ZM415 728C417.209 728 419 726.209 419 724C419 721.791 417.209 720 415 720C412.791 720 411 721.791 411 724C411 726.209 412.791 728 415 728ZM419 760C419 762.209 417.209 764 415 764C412.791 764 411 762.209 411 760C411 757.791 412.791 756 415 756C417.209 756 419 757.791 419 760ZM460 692C462.209 692 464 690.209 464 688C464 685.791 462.209 684 460 684C457.791 684 456 685.791 456 688C456 690.209 457.791 692 460 692ZM464 724C464 726.209 462.209 728 460 728C457.791 728 456 726.209 456 724C456 721.791 457.791 720 460 720C462.209 720 464 721.791 464 724ZM460 764C462.209 764 464 762.209 464 760C464 757.791 462.209 756 460 756C457.791 756 456 757.791 456 760C456 762.209 457.791 764 460 764Z" fill="black"/>
<path fill-rule="evenodd" clip-rule="evenodd" d="M582 867L582 4.37115e-08L583 0L583 867H582Z" fill="black"/>
<path fill-rule="evenodd" clip-rule="evenodd" d="M291 867L291 4.37115e-08L292 0L292 867H291Z" fill="black"/>
<path fill-rule="evenodd" clip-rule="evenodd" d="M0 579H873V580H0V579Z" fill="black"/>
<path fill-rule="evenodd" clip-rule="evenodd" d="M0 288H873V289H0V288Z" fill="black"/>
</g>
<defs>
<clipPath id="clip0">
<rect width="846" height="848" fill="white"/>
</clipPath>
</defs>
</svg>
