<svg width="253" height="68" viewBox="0 0 253 68" fill="none" xmlns="http://www.w3.org/2000/svg">
<path d="M44.1604 12.1356V16.4556C44.1604 17.0636 44.2244 17.5036 44.3524 17.7756C44.4804 18.0476 44.7044 18.2316 45.0244 18.3276C45.3444 18.4236 45.8644 18.4876 46.5844 18.5196V18.9996C45.7524 18.9516 44.5764 18.9276 43.0564 18.9276C41.6804 18.9276 40.6564 18.9516 39.9844 18.9996V18.5196C40.5604 18.4876 40.9764 18.4236 41.2324 18.3276C41.5044 18.2316 41.6884 18.0476 41.7844 17.7756C41.8804 17.5036 41.9284 17.0636 41.9284 16.4556V4.55159C41.9284 3.94359 41.8804 3.50359 41.7844 3.23159C41.6884 2.95959 41.5044 2.77559 41.2324 2.67959C40.9764 2.58359 40.5604 2.51959 39.9844 2.48759V2.00759C40.6564 2.05559 41.6324 2.07959 42.9124 2.07959L45.5044 2.05559C45.8084 2.03959 46.1524 2.03159 46.5364 2.03159C48.4084 2.03159 49.8404 2.46359 50.8324 3.32759C51.8244 4.17559 52.3204 5.31959 52.3204 6.75959C52.3204 7.63959 52.1204 8.48759 51.7204 9.30359C51.3364 10.1036 50.6724 10.7756 49.7284 11.3196C48.8004 11.8636 47.5604 12.1356 46.0084 12.1356H44.1604ZM45.9364 2.48759C45.4404 2.48759 45.0644 2.54359 44.8084 2.65559C44.5684 2.76759 44.4004 2.96759 44.3044 3.25559C44.2084 3.54359 44.1604 3.97559 44.1604 4.55159V11.6556H45.7684C47.3364 11.6556 48.4164 11.2396 49.0084 10.4076C49.6164 9.55959 49.9204 8.43159 49.9204 7.02359C49.9204 5.47159 49.6084 4.32759 48.9844 3.59159C48.3764 2.85559 47.3604 2.48759 45.9364 2.48759Z" fill="#5D5D5D"/>
<path d="M57.7965 16.7676C57.7965 17.4236 57.9325 17.8796 58.2045 18.1356C58.4765 18.3756 58.9485 18.4956 59.6205 18.4956V18.9996C58.1485 18.9356 57.1805 18.9036 56.7165 18.9036C56.2525 18.9036 55.2845 18.9356 53.8125 18.9996V18.4956C54.4845 18.4956 54.9565 18.3756 55.2285 18.1356C55.5005 17.8796 55.6365 17.4236 55.6365 16.7676V3.06359C55.6365 2.32759 55.5005 1.79159 55.2285 1.45559C54.9565 1.11959 54.4845 0.951594 53.8125 0.951594V0.447593C54.3085 0.495594 54.8045 0.519594 55.3005 0.519594C56.3085 0.519594 57.1405 0.407594 57.7965 0.183594V16.7676Z" fill="#5D5D5D"/>
<path d="M64.5437 19.1676C63.5357 19.1676 62.7837 18.9196 62.2877 18.4236C61.8077 17.9116 61.5677 17.2076 61.5677 16.3116C61.5677 15.5916 61.7597 14.9996 62.1437 14.5356C62.5437 14.0716 63.0077 13.7036 63.5357 13.4316C64.0797 13.1596 64.7917 12.8716 65.6717 12.5676C66.5677 12.2636 67.2317 11.9836 67.6637 11.7276C68.0957 11.4716 68.3117 11.1276 68.3117 10.6956V9.20759C68.3117 8.27959 68.1117 7.64759 67.7117 7.31159C67.3277 6.95959 66.7837 6.78359 66.0797 6.78359C64.9597 6.78359 64.1677 7.07159 63.7037 7.64759C64.0237 7.72759 64.2877 7.89559 64.4957 8.15159C64.7197 8.40759 64.8317 8.72759 64.8317 9.11159C64.8317 9.51159 64.7037 9.83159 64.4477 10.0716C64.1917 10.2956 63.8637 10.4076 63.4637 10.4076C63.0157 10.4076 62.6797 10.2716 62.4557 9.99959C62.2317 9.71159 62.1197 9.36759 62.1197 8.96759C62.1197 8.58359 62.2077 8.26359 62.3837 8.00759C62.5757 7.75159 62.8557 7.49559 63.2237 7.23959C63.6077 6.96759 64.0957 6.74359 64.6877 6.56759C65.2797 6.39159 65.9277 6.30359 66.6317 6.30359C67.8797 6.30359 68.8237 6.59959 69.4637 7.19159C69.8637 7.55959 70.1277 8.00759 70.2557 8.53559C70.3997 9.04759 70.4717 9.72759 70.4717 10.5756V17.2476C70.4717 17.6476 70.5277 17.9356 70.6397 18.1116C70.7517 18.2876 70.9437 18.3756 71.2157 18.3756C71.4077 18.3756 71.5837 18.3356 71.7437 18.2556C71.9197 18.1596 72.1037 18.0316 72.2957 17.8716L72.5597 18.2796C72.1437 18.5996 71.7837 18.8316 71.4797 18.9756C71.1917 19.1036 70.8237 19.1676 70.3757 19.1676C69.6077 19.1676 69.0717 18.9756 68.7677 18.5916C68.4637 18.2076 68.3117 17.6876 68.3117 17.0316C67.8317 17.8316 67.2797 18.3916 66.6557 18.7116C66.0317 19.0156 65.3277 19.1676 64.5437 19.1676ZM65.5997 18.2076C66.6557 18.2076 67.5597 17.5996 68.3117 16.3836V11.6796C68.1677 11.9036 67.9677 12.0876 67.7117 12.2316C67.4557 12.3756 67.0637 12.5676 66.5357 12.8076C65.9277 13.0636 65.4317 13.3116 65.0477 13.5516C64.6797 13.7756 64.3597 14.0876 64.0877 14.4876C63.8157 14.8876 63.6797 15.3996 63.6797 16.0236C63.6797 16.7436 63.8557 17.2876 64.2077 17.6556C64.5597 18.0236 65.0237 18.2076 65.5997 18.2076Z" fill="#5D5D5D"/>
<path d="M82.9562 6.71159C83.6602 6.71159 84.2682 6.68759 84.7802 6.63959V7.11959C84.4602 7.15159 84.1722 7.29559 83.9162 7.55159C83.6762 7.80759 83.4442 8.22359 83.2202 8.79959L79.2842 19.1196L78.4682 21.2076C78.1642 21.9916 77.8202 22.5516 77.4362 22.8876C77.1962 23.1116 76.9082 23.2716 76.5722 23.3676C76.2362 23.4636 75.9002 23.5116 75.5642 23.5116C75.0842 23.5116 74.6922 23.3836 74.3882 23.1276C74.0842 22.8716 73.9322 22.5196 73.9322 22.0716C73.9322 21.6876 74.0442 21.3756 74.2682 21.1356C74.4922 20.9116 74.8042 20.7996 75.2042 20.7996C75.5562 20.7996 75.8442 20.8956 76.0682 21.0876C76.3082 21.2956 76.4282 21.5756 76.4282 21.9276C76.4282 22.4076 76.2122 22.7676 75.7802 23.0076C75.8122 23.0236 75.8602 23.0316 75.9242 23.0316C76.8042 23.0316 77.4842 22.4076 77.9642 21.1596L78.8042 18.9756L74.4602 8.48759C74.1882 7.94359 73.9162 7.58359 73.6442 7.40759C73.3722 7.23159 73.1002 7.14359 72.8282 7.14359V6.63959C73.5162 6.73559 74.3002 6.78359 75.1802 6.78359C75.9802 6.78359 77.0202 6.73559 78.3002 6.63959V7.14359C77.7242 7.14359 77.3002 7.19159 77.0282 7.28759C76.7722 7.38359 76.6442 7.61559 76.6442 7.98359C76.6442 8.31959 76.7402 8.71159 76.9322 9.15959L79.8122 16.3116L82.4762 9.37559C82.6522 8.89559 82.7402 8.52759 82.7402 8.27159C82.7402 7.90359 82.5962 7.63159 82.3082 7.45559C82.0202 7.27959 81.5642 7.16759 80.9402 7.11959V6.63959C81.7882 6.68759 82.4602 6.71159 82.9562 6.71159Z" fill="#5D5D5D"/>
<path d="M91.9579 0.231593C92.7899 0.231593 93.4859 0.447593 94.0459 0.879593C94.5419 1.27959 94.7899 1.77559 94.7899 2.36759C94.7899 2.73559 94.6699 3.03959 94.4299 3.27959C94.1899 3.51959 93.8859 3.63959 93.5179 3.63959C93.1499 3.63959 92.8379 3.52759 92.5819 3.30359C92.3259 3.06359 92.1979 2.74359 92.1979 2.34359C92.1979 2.00759 92.2859 1.73559 92.4619 1.52759C92.6539 1.31959 92.9019 1.18359 93.2059 1.11959C93.1579 0.959593 93.0299 0.831594 92.8219 0.735594C92.6139 0.639594 92.3499 0.591594 92.0299 0.591594C91.6779 0.591594 91.3659 0.671594 91.0939 0.831594C90.8219 0.991594 90.6139 1.20759 90.4699 1.47959C90.2939 1.79959 90.1739 2.27159 90.1099 2.89559C90.0619 3.51959 90.0379 4.56759 90.0379 6.03959V6.66359H92.6059V7.14359H90.0379V16.5276C90.0379 17.2636 90.2459 17.7756 90.6619 18.0636C91.0939 18.3516 91.7339 18.4956 92.5819 18.4956V18.9996L92.0059 18.9756C90.3739 18.9276 89.3339 18.9036 88.8859 18.9036C88.4699 18.9036 87.5259 18.9356 86.0539 18.9996V18.4956C86.7259 18.4956 87.1979 18.3756 87.4699 18.1356C87.7419 17.8796 87.8779 17.4236 87.8779 16.7676V7.14359H85.9579V6.66359H87.8779C87.8779 5.25559 87.9659 4.16759 88.1419 3.39959C88.3179 2.63159 88.6379 1.97559 89.1019 1.43159C89.4219 1.06359 89.8299 0.775594 90.3259 0.567595C90.8219 0.343594 91.3659 0.231593 91.9579 0.231593Z" fill="#5D5D5D"/>
<path d="M97.6947 19.1676C96.6867 19.1676 95.9347 18.9196 95.4387 18.4236C94.9587 17.9116 94.7187 17.2076 94.7187 16.3116C94.7187 15.5916 94.9107 14.9996 95.2947 14.5356C95.6947 14.0716 96.1587 13.7036 96.6867 13.4316C97.2307 13.1596 97.9427 12.8716 98.8227 12.5676C99.7187 12.2636 100.383 11.9836 100.815 11.7276C101.247 11.4716 101.463 11.1276 101.463 10.6956V9.20759C101.463 8.27959 101.263 7.64759 100.863 7.31159C100.479 6.95959 99.9347 6.78359 99.2307 6.78359C98.1107 6.78359 97.3187 7.07159 96.8547 7.64759C97.1747 7.72759 97.4387 7.89559 97.6467 8.15159C97.8707 8.40759 97.9827 8.72759 97.9827 9.11159C97.9827 9.51159 97.8547 9.83159 97.5987 10.0716C97.3427 10.2956 97.0147 10.4076 96.6147 10.4076C96.1667 10.4076 95.8307 10.2716 95.6067 9.99959C95.3827 9.71159 95.2707 9.36759 95.2707 8.96759C95.2707 8.58359 95.3587 8.26359 95.5347 8.00759C95.7267 7.75159 96.0067 7.49559 96.3747 7.23959C96.7587 6.96759 97.2467 6.74359 97.8387 6.56759C98.4307 6.39159 99.0787 6.30359 99.7827 6.30359C101.031 6.30359 101.975 6.59959 102.615 7.19159C103.015 7.55959 103.279 8.00759 103.407 8.53559C103.551 9.04759 103.623 9.72759 103.623 10.5756V17.2476C103.623 17.6476 103.679 17.9356 103.791 18.1116C103.903 18.2876 104.095 18.3756 104.367 18.3756C104.559 18.3756 104.735 18.3356 104.895 18.2556C105.071 18.1596 105.255 18.0316 105.447 17.8716L105.711 18.2796C105.295 18.5996 104.935 18.8316 104.631 18.9756C104.343 19.1036 103.975 19.1676 103.527 19.1676C102.759 19.1676 102.223 18.9756 101.919 18.5916C101.615 18.2076 101.463 17.6876 101.463 17.0316C100.983 17.8316 100.431 18.3916 99.8067 18.7116C99.1827 19.0156 98.4787 19.1676 97.6947 19.1676ZM98.7507 18.2076C99.8067 18.2076 100.711 17.5996 101.463 16.3836V11.6796C101.319 11.9036 101.119 12.0876 100.863 12.2316C100.607 12.3756 100.215 12.5676 99.6867 12.8076C99.0787 13.0636 98.5827 13.3116 98.1987 13.5516C97.8307 13.7756 97.5107 14.0876 97.2387 14.4876C96.9667 14.8876 96.8307 15.3996 96.8307 16.0236C96.8307 16.7436 97.0067 17.2876 97.3587 17.6556C97.7107 18.0236 98.1747 18.2076 98.7507 18.2076Z" fill="#5D5D5D"/>
<path d="M109.648 0.639594C110.064 0.639594 110.424 0.791594 110.728 1.09559C111.032 1.39959 111.184 1.75959 111.184 2.17559C111.184 2.59159 111.032 2.95159 110.728 3.25559C110.424 3.55959 110.064 3.71159 109.648 3.71159C109.232 3.71159 108.872 3.55959 108.568 3.25559C108.264 2.95159 108.112 2.59159 108.112 2.17559C108.112 1.75959 108.264 1.39959 108.568 1.09559C108.872 0.791594 109.232 0.639594 109.648 0.639594ZM110.896 16.7676C110.896 17.4236 111.032 17.8796 111.304 18.1356C111.576 18.3756 112.048 18.4956 112.72 18.4956V18.9996C111.248 18.9356 110.28 18.9036 109.816 18.9036C109.352 18.9036 108.384 18.9356 106.912 18.9996V18.4956C107.584 18.4956 108.056 18.3756 108.328 18.1356C108.6 17.8796 108.736 17.4236 108.736 16.7676V9.25559C108.736 8.51959 108.6 7.98359 108.328 7.64759C108.056 7.31159 107.584 7.14359 106.912 7.14359V6.63959C107.424 6.68759 107.92 6.71159 108.4 6.71159C109.408 6.71159 110.24 6.59959 110.896 6.37559V16.7676Z" fill="#5D5D5D"/>
<path d="M121.887 6.30359C122.527 6.30359 123.047 6.48759 123.447 6.85559C123.863 7.22359 124.071 7.67159 124.071 8.19959C124.071 8.61559 123.943 8.97559 123.687 9.27959C123.447 9.56759 123.119 9.71159 122.703 9.71159C122.351 9.71159 122.047 9.59959 121.791 9.37559C121.551 9.15159 121.431 8.84759 121.431 8.46359C121.431 7.93559 121.703 7.50359 122.247 7.16759C122.135 7.00759 121.967 6.92759 121.743 6.92759C121.119 6.92759 120.551 7.17559 120.039 7.67159C119.527 8.15159 119.127 8.74359 118.839 9.44759C118.551 10.1516 118.407 10.8156 118.407 11.4396V16.5276C118.407 17.2636 118.615 17.7756 119.031 18.0636C119.463 18.3516 120.103 18.4956 120.951 18.4956V18.9996L120.375 18.9756C118.743 18.9276 117.703 18.9036 117.255 18.9036C116.839 18.9036 115.895 18.9356 114.423 18.9996V18.4956C115.095 18.4956 115.567 18.3756 115.839 18.1356C116.111 17.8796 116.247 17.4236 116.247 16.7676V9.25559C116.247 8.51959 116.111 7.98359 115.839 7.64759C115.567 7.31159 115.095 7.14359 114.423 7.14359V6.63959C114.935 6.68759 115.431 6.71159 115.911 6.71159C116.919 6.71159 117.751 6.59959 118.407 6.37559V9.37559C118.695 8.57559 119.151 7.86359 119.775 7.23959C120.415 6.61559 121.119 6.30359 121.887 6.30359Z" fill="#5D5D5D"/>
<path d="M138.395 2.00759C141.227 2.00759 143.347 2.71959 144.755 4.14359C146.163 5.55159 146.867 7.60759 146.867 10.3116C146.867 12.0556 146.523 13.5836 145.835 14.8956C145.147 16.2076 144.147 17.2236 142.835 17.9436C141.539 18.6476 139.987 18.9996 138.179 18.9996L136.787 18.9756C135.891 18.9436 135.235 18.9276 134.819 18.9276C133.507 18.9276 132.515 18.9516 131.843 18.9996V18.5196C132.419 18.4876 132.835 18.4236 133.091 18.3276C133.363 18.2316 133.547 18.0476 133.643 17.7756C133.739 17.5036 133.787 17.0636 133.787 16.4556V4.55159C133.787 3.94359 133.739 3.50359 133.643 3.23159C133.547 2.95959 133.363 2.77559 133.091 2.67959C132.835 2.58359 132.419 2.51959 131.843 2.48759V2.00759C132.403 2.05559 133.179 2.07959 134.171 2.07959L136.211 2.05559C137.299 2.02359 138.027 2.00759 138.395 2.00759ZM137.795 2.43959C137.299 2.43959 136.923 2.49559 136.667 2.60759C136.427 2.71959 136.259 2.91959 136.163 3.20759C136.067 3.49559 136.019 3.92759 136.019 4.50359V16.5036C136.019 17.0796 136.067 17.5116 136.163 17.7996C136.259 18.0876 136.427 18.2876 136.667 18.3996C136.923 18.5116 137.307 18.5676 137.819 18.5676C139.515 18.5676 140.851 18.2636 141.827 17.6556C142.803 17.0316 143.483 16.1276 143.867 14.9436C144.267 13.7596 144.467 12.2476 144.467 10.4076C144.467 8.56759 144.251 7.07159 143.819 5.91959C143.387 4.75159 142.683 3.87959 141.707 3.30359C140.747 2.72759 139.443 2.43959 137.795 2.43959Z" fill="#5D5D5D"/>
<path d="M152.091 0.639594C152.507 0.639594 152.867 0.791594 153.171 1.09559C153.475 1.39959 153.627 1.75959 153.627 2.17559C153.627 2.59159 153.475 2.95159 153.171 3.25559C152.867 3.55959 152.507 3.71159 152.091 3.71159C151.675 3.71159 151.315 3.55959 151.011 3.25559C150.707 2.95159 150.555 2.59159 150.555 2.17559C150.555 1.75959 150.707 1.39959 151.011 1.09559C151.315 0.791594 151.675 0.639594 152.091 0.639594ZM153.339 16.7676C153.339 17.4236 153.475 17.8796 153.747 18.1356C154.019 18.3756 154.491 18.4956 155.163 18.4956V18.9996C153.691 18.9356 152.723 18.9036 152.259 18.9036C151.795 18.9036 150.827 18.9356 149.355 18.9996V18.4956C150.027 18.4956 150.499 18.3756 150.771 18.1356C151.043 17.8796 151.179 17.4236 151.179 16.7676V9.25559C151.179 8.51959 151.043 7.98359 150.771 7.64759C150.499 7.31159 150.027 7.14359 149.355 7.14359V6.63959C149.867 6.68759 150.363 6.71159 150.843 6.71159C151.851 6.71159 152.683 6.59959 153.339 6.37559V16.7676Z" fill="#5D5D5D"/>
<path d="M161.162 6.30359C161.738 6.30359 162.25 6.39159 162.698 6.56759C163.146 6.74359 163.506 6.95159 163.778 7.19159C163.954 7.31959 164.098 7.38359 164.21 7.38359C164.498 7.38359 164.674 7.03159 164.738 6.32759H165.29C165.226 7.11159 165.194 8.47159 165.194 10.4076H164.642C164.466 9.35159 164.122 8.47959 163.61 7.79159C163.114 7.10359 162.37 6.75959 161.378 6.75959C160.802 6.75959 160.33 6.92759 159.962 7.26359C159.594 7.58359 159.41 8.03159 159.41 8.60759C159.41 9.16759 159.602 9.63959 159.986 10.0236C160.37 10.3916 160.986 10.8396 161.834 11.3676C161.978 11.4476 162.194 11.5836 162.482 11.7756C163.218 12.2556 163.81 12.6796 164.258 13.0476C164.706 13.4156 165.066 13.8396 165.338 14.3196C165.626 14.7996 165.77 15.3516 165.77 15.9756C165.77 17.0316 165.37 17.8556 164.57 18.4476C163.786 19.0396 162.818 19.3356 161.666 19.3356C160.946 19.3356 160.314 19.2236 159.77 18.9996C159.418 18.8236 159.09 18.6076 158.786 18.3516C158.722 18.2876 158.65 18.2556 158.57 18.2556C158.458 18.2556 158.354 18.3356 158.258 18.4956C158.178 18.6556 158.114 18.8796 158.066 19.1676H157.514C157.578 18.2556 157.61 16.6556 157.61 14.3676H158.162C158.338 15.8716 158.658 16.9996 159.122 17.7516C159.586 18.4876 160.378 18.8556 161.498 18.8556C162.058 18.8556 162.554 18.6716 162.986 18.3036C163.418 17.9356 163.634 17.3596 163.634 16.5756C163.634 15.9516 163.418 15.4236 162.986 14.9916C162.57 14.5596 161.882 14.0396 160.922 13.4316C160.138 12.9356 159.53 12.5276 159.098 12.2076C158.682 11.8876 158.33 11.4956 158.042 11.0316C157.754 10.5676 157.61 10.0236 157.61 9.39959C157.61 8.39159 157.946 7.62359 158.618 7.09559C159.29 6.56759 160.138 6.30359 161.162 6.30359Z" fill="#5D5D5D"/>
<path d="M175.737 6.30359C176.585 6.30359 177.345 6.53559 178.017 6.99959C178.705 7.46359 179.241 8.14359 179.625 9.03959C180.009 9.93559 180.201 11.0076 180.201 12.2556C180.201 13.4876 180.001 14.6396 179.601 15.7116C179.217 16.7836 178.609 17.6556 177.777 18.3276C176.961 18.9996 175.937 19.3356 174.705 19.3356C174.097 19.3356 173.545 19.2156 173.049 18.9756C172.553 18.7356 172.169 18.4236 171.897 18.0396V21.1116C171.897 21.7676 172.089 22.2156 172.473 22.4556C172.857 22.7116 173.433 22.8396 174.201 22.8396V23.3436L173.649 23.3196C172.161 23.2716 171.193 23.2476 170.745 23.2476C170.361 23.2476 169.497 23.2796 168.153 23.3436V22.8396C168.745 22.8396 169.153 22.7276 169.377 22.5036C169.617 22.2956 169.737 21.9116 169.737 21.3516V9.25559C169.737 8.51959 169.601 7.98359 169.329 7.64759C169.057 7.31159 168.585 7.14359 167.913 7.14359V6.63959C168.409 6.68759 168.905 6.71159 169.401 6.71159C170.409 6.71159 171.241 6.59959 171.897 6.37559V8.91959C172.249 8.08759 172.761 7.44759 173.433 6.99959C174.105 6.53559 174.873 6.30359 175.737 6.30359ZM174.441 18.7836C176.729 18.7836 177.873 16.7196 177.873 12.5916C177.873 8.87959 176.945 7.02359 175.089 7.02359C174.369 7.02359 173.721 7.28759 173.145 7.81559C172.569 8.32759 172.153 9.07159 171.897 10.0476V17.2476C172.121 17.7116 172.449 18.0876 172.881 18.3756C173.313 18.6476 173.833 18.7836 174.441 18.7836Z" fill="#5D5D5D"/>
<path d="M186.322 16.7676C186.322 17.4236 186.458 17.8796 186.73 18.1356C187.002 18.3756 187.474 18.4956 188.146 18.4956V18.9996C186.674 18.9356 185.706 18.9036 185.242 18.9036C184.778 18.9036 183.81 18.9356 182.338 18.9996V18.4956C183.01 18.4956 183.482 18.3756 183.754 18.1356C184.026 17.8796 184.162 17.4236 184.162 16.7676V3.06359C184.162 2.32759 184.026 1.79159 183.754 1.45559C183.482 1.11959 183.01 0.951594 182.338 0.951594V0.447593C182.834 0.495594 183.33 0.519594 183.826 0.519594C184.834 0.519594 185.666 0.407594 186.322 0.183594V16.7676Z" fill="#5D5D5D"/>
<path d="M193.069 19.1676C192.061 19.1676 191.309 18.9196 190.813 18.4236C190.333 17.9116 190.093 17.2076 190.093 16.3116C190.093 15.5916 190.285 14.9996 190.669 14.5356C191.069 14.0716 191.533 13.7036 192.061 13.4316C192.605 13.1596 193.317 12.8716 194.197 12.5676C195.093 12.2636 195.757 11.9836 196.189 11.7276C196.621 11.4716 196.837 11.1276 196.837 10.6956V9.20759C196.837 8.27959 196.637 7.64759 196.237 7.31159C195.853 6.95959 195.309 6.78359 194.605 6.78359C193.485 6.78359 192.693 7.07159 192.229 7.64759C192.549 7.72759 192.813 7.89559 193.021 8.15159C193.245 8.40759 193.357 8.72759 193.357 9.11159C193.357 9.51159 193.229 9.83159 192.973 10.0716C192.717 10.2956 192.389 10.4076 191.989 10.4076C191.541 10.4076 191.205 10.2716 190.981 9.99959C190.757 9.71159 190.645 9.36759 190.645 8.96759C190.645 8.58359 190.733 8.26359 190.909 8.00759C191.101 7.75159 191.381 7.49559 191.749 7.23959C192.133 6.96759 192.621 6.74359 193.213 6.56759C193.805 6.39159 194.453 6.30359 195.157 6.30359C196.405 6.30359 197.349 6.59959 197.989 7.19159C198.389 7.55959 198.653 8.00759 198.781 8.53559C198.925 9.04759 198.997 9.72759 198.997 10.5756V17.2476C198.997 17.6476 199.053 17.9356 199.165 18.1116C199.277 18.2876 199.469 18.3756 199.741 18.3756C199.933 18.3756 200.109 18.3356 200.269 18.2556C200.445 18.1596 200.629 18.0316 200.821 17.8716L201.085 18.2796C200.669 18.5996 200.309 18.8316 200.005 18.9756C199.717 19.1036 199.349 19.1676 198.901 19.1676C198.133 19.1676 197.597 18.9756 197.293 18.5916C196.989 18.2076 196.837 17.6876 196.837 17.0316C196.357 17.8316 195.805 18.3916 195.181 18.7116C194.557 19.0156 193.853 19.1676 193.069 19.1676ZM194.125 18.2076C195.181 18.2076 196.085 17.5996 196.837 16.3836V11.6796C196.693 11.9036 196.493 12.0876 196.237 12.2316C195.981 12.3756 195.589 12.5676 195.061 12.8076C194.453 13.0636 193.957 13.3116 193.573 13.5516C193.205 13.7756 192.885 14.0876 192.613 14.4876C192.341 14.8876 192.205 15.3996 192.205 16.0236C192.205 16.7436 192.381 17.2876 192.733 17.6556C193.085 18.0236 193.549 18.2076 194.125 18.2076Z" fill="#5D5D5D"/>
<path d="M211.482 6.71159C212.186 6.71159 212.794 6.68759 213.306 6.63959V7.11959C212.986 7.15159 212.698 7.29559 212.442 7.55159C212.202 7.80759 211.97 8.22359 211.746 8.79959L207.81 19.1196L206.994 21.2076C206.69 21.9916 206.346 22.5516 205.962 22.8876C205.722 23.1116 205.434 23.2716 205.098 23.3676C204.762 23.4636 204.426 23.5116 204.09 23.5116C203.61 23.5116 203.218 23.3836 202.914 23.1276C202.61 22.8716 202.458 22.5196 202.458 22.0716C202.458 21.6876 202.57 21.3756 202.794 21.1356C203.018 20.9116 203.33 20.7996 203.73 20.7996C204.082 20.7996 204.37 20.8956 204.594 21.0876C204.834 21.2956 204.954 21.5756 204.954 21.9276C204.954 22.4076 204.738 22.7676 204.306 23.0076C204.338 23.0236 204.386 23.0316 204.45 23.0316C205.33 23.0316 206.01 22.4076 206.49 21.1596L207.33 18.9756L202.986 8.48759C202.714 7.94359 202.442 7.58359 202.17 7.40759C201.898 7.23159 201.626 7.14359 201.354 7.14359V6.63959C202.042 6.73559 202.826 6.78359 203.706 6.78359C204.506 6.78359 205.546 6.73559 206.826 6.63959V7.14359C206.25 7.14359 205.826 7.19159 205.554 7.28759C205.298 7.38359 205.17 7.61559 205.17 7.98359C205.17 8.31959 205.266 8.71159 205.458 9.15959L208.338 16.3116L211.002 9.37559C211.178 8.89559 211.266 8.52759 211.266 8.27159C211.266 7.90359 211.122 7.63159 210.834 7.45559C210.546 7.27959 210.09 7.16759 209.466 7.11959V6.63959C210.314 6.68759 210.986 6.71159 211.482 6.71159Z" fill="#5D5D5D"/>
<path d="M14.3205 44.8236C14.5445 45.4023 14.8665 45.7009 15.2865 45.7196V45.9996C14.9131 45.9716 14.4138 45.9576 13.7885 45.9576C12.9858 45.9576 12.3885 45.9716 11.9965 45.9996V45.7196C12.3511 45.7009 12.6031 45.6589 12.7525 45.5936C12.9111 45.5189 12.9905 45.3883 12.9905 45.2016C12.9905 45.0429 12.9345 44.8236 12.8225 44.5436L11.9685 42.2476H8.58046L8.00646 43.7316C7.81979 44.2356 7.72646 44.6183 7.72646 44.8796C7.72646 45.1689 7.82446 45.3789 8.02046 45.5096C8.22579 45.6403 8.53379 45.7103 8.94446 45.7196V45.9996C8.41246 45.9716 7.87579 45.9576 7.33446 45.9576C6.91446 45.9576 6.56446 45.9716 6.28446 45.9996V45.7196C6.75113 45.6076 7.11979 45.2016 7.39046 44.5016L10.6805 36.0176H10.9045L14.3205 44.8236ZM11.8565 41.9676L10.2885 37.7816L8.69246 41.9676H11.8565Z" fill="#5D5D5D"/>
<path d="M20.4434 40.7636C21.47 40.9036 22.2027 41.2023 22.6414 41.6596C23.08 42.1076 23.2994 42.6489 23.2994 43.2836C23.2994 43.8156 23.164 44.2869 22.8934 44.6976C22.6227 45.1083 22.2354 45.4303 21.7314 45.6636C21.2274 45.8876 20.63 45.9996 19.9394 45.9996C19.6874 45.9996 19.4727 45.9949 19.2954 45.9856C18.698 45.9669 18.11 45.9576 17.5314 45.9576C16.766 45.9576 16.1874 45.9716 15.7954 45.9996V45.7196C16.1314 45.7009 16.374 45.6636 16.5234 45.6076C16.682 45.5516 16.7894 45.4443 16.8454 45.2856C16.9014 45.1269 16.9294 44.8703 16.9294 44.5156V37.5716C16.9294 37.2169 16.9014 36.9603 16.8454 36.8016C16.7894 36.6429 16.682 36.5356 16.5234 36.4796C16.374 36.4236 16.1314 36.3863 15.7954 36.3676V36.0876C16.1874 36.1156 16.7567 36.1296 17.5034 36.1296L19.0154 36.1156C19.1927 36.1063 19.3934 36.1016 19.6174 36.1016C20.5694 36.1016 21.2974 36.3023 21.8014 36.7036C22.3147 37.1049 22.5714 37.6369 22.5714 38.2996C22.5714 38.8409 22.3987 39.3263 22.0534 39.7556C21.7174 40.1849 21.1807 40.5116 20.4434 40.7356V40.7636ZM19.2674 36.3676C18.978 36.3676 18.7587 36.4003 18.6094 36.4656C18.4694 36.5309 18.3714 36.6476 18.3154 36.8156C18.2594 36.9836 18.2314 37.2356 18.2314 37.5716V40.7356H19.1694C19.9347 40.7356 20.4667 40.5303 20.7654 40.1196C21.0734 39.6996 21.2274 39.1443 21.2274 38.4536C21.2274 37.7536 21.0734 37.2309 20.7654 36.8856C20.4574 36.5403 19.958 36.3676 19.2674 36.3676ZM19.2814 45.6776C21.0267 45.6776 21.8994 44.8609 21.8994 43.2276C21.8994 42.4903 21.6987 41.9303 21.2974 41.5476C20.9054 41.1649 20.2754 40.9736 19.4074 40.9736H18.2314V44.5156C18.2314 44.8516 18.2594 45.0989 18.3154 45.2576C18.3714 45.4163 18.4694 45.5283 18.6094 45.5936C18.7587 45.6496 18.9827 45.6776 19.2814 45.6776Z" fill="#5D5D5D"/>
<path d="M29.404 35.8916C29.964 35.8916 30.44 35.9709 30.832 36.1296C31.224 36.2883 31.6067 36.5123 31.98 36.8016C32.0827 36.8856 32.1714 36.9276 32.246 36.9276C32.4327 36.9276 32.554 36.6476 32.61 36.0876H32.932C32.8947 36.6943 32.876 37.7676 32.876 39.3076H32.554C32.4514 38.7009 32.358 38.2669 32.274 38.0056C32.19 37.7349 32.05 37.4783 31.854 37.2356C31.574 36.8716 31.2147 36.6009 30.776 36.4236C30.3467 36.2369 29.88 36.1436 29.376 36.1436C28.7694 36.1436 28.2374 36.3443 27.78 36.7456C27.332 37.1469 26.982 37.7209 26.73 38.4676C26.478 39.2049 26.352 40.0729 26.352 41.0716C26.352 42.0889 26.4874 42.9616 26.758 43.6896C27.0287 44.4176 27.402 44.9729 27.878 45.3556C28.3634 45.7289 28.9094 45.9156 29.516 45.9156C29.9827 45.9156 30.4354 45.8269 30.874 45.6496C31.3127 45.4723 31.658 45.2063 31.91 44.8516C32.0967 44.5903 32.232 44.3103 32.316 44.0116C32.4 43.7129 32.4794 43.2556 32.554 42.6396H32.876C32.876 44.2449 32.8947 45.3649 32.932 45.9996H32.61C32.582 45.7009 32.54 45.4909 32.484 45.3696C32.4374 45.2389 32.3674 45.1736 32.274 45.1736C32.1994 45.1736 32.1014 45.2109 31.98 45.2856C31.56 45.5843 31.1587 45.8129 30.776 45.9716C30.3934 46.1209 29.9314 46.1956 29.39 46.1956C28.5034 46.1956 27.724 45.9949 27.052 45.5936C26.3894 45.1923 25.8714 44.6136 25.498 43.8576C25.134 43.0923 24.952 42.1823 24.952 41.1276C24.952 40.1009 25.1387 39.1909 25.512 38.3976C25.8947 37.6043 26.422 36.9883 27.094 36.5496C27.7754 36.1109 28.5454 35.8916 29.404 35.8916Z" fill="#5D5D5D"/>
<path d="M38.5387 36.0876C40.1907 36.0876 41.4274 36.5029 42.2487 37.3336C43.07 38.1549 43.4807 39.3543 43.4807 40.9316C43.4807 41.9489 43.28 42.8403 42.8787 43.6056C42.4774 44.3709 41.894 44.9636 41.1287 45.3836C40.3727 45.7943 39.4674 45.9996 38.4127 45.9996L37.6007 45.9856C37.078 45.9669 36.6954 45.9576 36.4527 45.9576C35.6874 45.9576 35.1087 45.9716 34.7167 45.9996V45.7196C35.0527 45.7009 35.2954 45.6636 35.4447 45.6076C35.6034 45.5516 35.7107 45.4443 35.7667 45.2856C35.8227 45.1269 35.8507 44.8703 35.8507 44.5156V37.5716C35.8507 37.2169 35.8227 36.9603 35.7667 36.8016C35.7107 36.6429 35.6034 36.5356 35.4447 36.4796C35.2954 36.4236 35.0527 36.3863 34.7167 36.3676V36.0876C35.0434 36.1156 35.496 36.1296 36.0747 36.1296L37.2647 36.1156C37.8994 36.0969 38.324 36.0876 38.5387 36.0876ZM38.1887 36.3396C37.8994 36.3396 37.68 36.3723 37.5307 36.4376C37.3907 36.5029 37.2927 36.6196 37.2367 36.7876C37.1807 36.9556 37.1527 37.2076 37.1527 37.5436V44.5436C37.1527 44.8796 37.1807 45.1316 37.2367 45.2996C37.2927 45.4676 37.3907 45.5843 37.5307 45.6496C37.68 45.7149 37.904 45.7476 38.2027 45.7476C39.192 45.7476 39.9714 45.5703 40.5407 45.2156C41.11 44.8516 41.5067 44.3243 41.7307 43.6336C41.964 42.9429 42.0807 42.0609 42.0807 40.9876C42.0807 39.9143 41.9547 39.0416 41.7027 38.3696C41.4507 37.6883 41.04 37.1796 40.4707 36.8436C39.9107 36.5076 39.15 36.3396 38.1887 36.3396Z" fill="#5D5D5D"/>
<path d="M52.1588 44.2076C52.1588 44.7396 52.1915 45.3369 52.2568 45.9996C51.6222 45.9716 50.5535 45.9576 49.0508 45.9576C47.2588 45.9576 45.9055 45.9716 44.9908 45.9996V45.7196C45.3268 45.7009 45.5695 45.6636 45.7188 45.6076C45.8775 45.5516 45.9848 45.4443 46.0408 45.2856C46.0968 45.1269 46.1248 44.8703 46.1248 44.5156V37.5716C46.1248 37.2169 46.0968 36.9603 46.0408 36.8016C45.9848 36.6429 45.8775 36.5356 45.7188 36.4796C45.5695 36.4236 45.3268 36.3863 44.9908 36.3676V36.0876C45.9055 36.1156 47.2588 36.1296 49.0508 36.1296C50.4228 36.1296 51.3982 36.1156 51.9768 36.0876C51.9115 36.7036 51.8788 37.2543 51.8788 37.7396C51.8788 38.1036 51.8928 38.3929 51.9208 38.6076H51.5988C51.5335 38.0009 51.4495 37.5529 51.3468 37.2636C51.2442 36.9649 51.0715 36.7503 50.8288 36.6196C50.5862 36.4796 50.2175 36.4096 49.7228 36.4096H48.5608C48.2248 36.4096 47.9775 36.4376 47.8188 36.4936C47.6695 36.5403 47.5668 36.6429 47.5108 36.8016C47.4548 36.9603 47.4268 37.2169 47.4268 37.5716V40.8756H48.3508C48.6775 40.8756 48.9295 40.8009 49.1068 40.6516C49.2842 40.4929 49.4008 40.3109 49.4568 40.1056C49.5222 39.8909 49.5735 39.6249 49.6108 39.3076L49.6528 39.0276H49.9748C49.9468 39.4196 49.9328 39.8583 49.9328 40.3436V41.0156C49.9328 41.4916 49.9608 42.1543 50.0168 43.0036H49.6948C49.6855 42.9383 49.6575 42.7143 49.6108 42.3316C49.5642 41.9396 49.4335 41.6456 49.2188 41.4496C49.0135 41.2536 48.7242 41.1556 48.3508 41.1556H47.4268V44.5156C47.4268 44.8703 47.4548 45.1269 47.5108 45.2856C47.5668 45.4443 47.6695 45.5516 47.8188 45.6076C47.9775 45.6543 48.2248 45.6776 48.5608 45.6776H49.5828C50.1615 45.6776 50.6002 45.6029 50.8988 45.4536C51.2068 45.2949 51.4308 45.0476 51.5708 44.7116C51.7108 44.3663 51.8135 43.8623 51.8788 43.1996H52.2008C52.1728 43.4516 52.1588 43.7876 52.1588 44.2076Z" fill="#5D5D5D"/>
<path d="M60.7881 36.0876C60.7228 36.7503 60.6901 37.3476 60.6901 37.8796C60.6901 38.3463 60.7041 38.7289 60.7321 39.0276H60.4101C60.3354 38.3089 60.2421 37.7769 60.1301 37.4316C60.0181 37.0769 59.8221 36.8203 59.5421 36.6616C59.2621 36.4936 58.8328 36.4096 58.2541 36.4096H57.3721C57.0361 36.4096 56.7888 36.4376 56.6301 36.4936C56.4808 36.5403 56.3781 36.6429 56.3221 36.8016C56.2661 36.9603 56.2381 37.2169 56.2381 37.5716V41.0156H57.2601C57.5868 41.0156 57.8388 40.9409 58.0161 40.7916C58.1934 40.6329 58.3101 40.4509 58.3661 40.2456C58.4314 40.0309 58.4828 39.7649 58.5201 39.4476L58.5621 39.1676H58.8841C58.8561 39.5596 58.8421 39.9983 58.8421 40.4836V41.1556C58.8421 41.6316 58.8701 42.2943 58.9261 43.1436H58.6041C58.5948 43.0783 58.5668 42.8543 58.5201 42.4716C58.4734 42.0796 58.3428 41.7856 58.1281 41.5896C57.9228 41.3936 57.6334 41.2956 57.2601 41.2956H56.2381V44.5156C56.2381 44.8703 56.2754 45.1269 56.3501 45.2856C56.4248 45.4443 56.5554 45.5516 56.7421 45.6076C56.9288 45.6636 57.2321 45.7009 57.6521 45.7196V45.9996C57.1668 45.9716 56.4808 45.9576 55.5941 45.9576C54.7914 45.9576 54.1941 45.9716 53.8021 45.9996V45.7196C54.1381 45.7009 54.3808 45.6636 54.5301 45.6076C54.6888 45.5516 54.7961 45.4443 54.8521 45.2856C54.9081 45.1269 54.9361 44.8703 54.9361 44.5156V37.5716C54.9361 37.2169 54.9081 36.9603 54.8521 36.8016C54.7961 36.6429 54.6888 36.5356 54.5301 36.4796C54.3808 36.4236 54.1381 36.3863 53.8021 36.3676V36.0876C54.7168 36.1156 56.0701 36.1296 57.8621 36.1296C59.2341 36.1296 60.2094 36.1156 60.7881 36.0876Z" fill="#5D5D5D"/>
<path d="M66.5921 35.8916C67.1428 35.8916 67.5954 35.9709 67.9501 36.1296C68.3048 36.2789 68.6921 36.5029 69.1121 36.8016C69.2334 36.8949 69.3267 36.9416 69.3921 36.9416C69.5694 36.9416 69.6861 36.6569 69.7421 36.0876H70.0641C70.0268 36.6943 70.0081 37.7676 70.0081 39.3076H69.6861C69.6021 38.8129 69.5134 38.4069 69.4201 38.0896C69.3267 37.7629 69.1821 37.4783 68.9861 37.2356C68.7154 36.8996 68.3607 36.6336 67.9221 36.4376C67.4927 36.2416 67.0401 36.1436 66.5641 36.1436C65.9481 36.1436 65.4068 36.3443 64.9401 36.7456C64.4734 37.1469 64.1141 37.7209 63.8621 38.4676C63.6101 39.2049 63.4841 40.0683 63.4841 41.0576C63.4841 42.7376 63.7501 43.9696 64.2821 44.7536C64.8234 45.5283 65.6681 45.9156 66.8161 45.9156C67.3761 45.9156 67.8614 45.7709 68.2721 45.4816C68.4401 45.3696 68.5474 45.2623 68.5941 45.1596C68.6501 45.0476 68.6781 44.8983 68.6781 44.7116V43.3676C68.6781 42.9756 68.6408 42.6909 68.5661 42.5136C68.4914 42.3363 68.3608 42.2149 68.1741 42.1496C67.9874 42.0843 67.6841 42.0423 67.2641 42.0236V41.7436C67.7494 41.7716 68.4074 41.7856 69.2381 41.7856C69.8727 41.7856 70.3581 41.7716 70.6941 41.7436V42.0236C70.4794 42.0423 70.3208 42.0796 70.2181 42.1356C70.1248 42.1916 70.0594 42.2989 70.0221 42.4576C69.9941 42.6163 69.9801 42.8729 69.9801 43.2276V45.9996H69.7001C69.6908 45.8129 69.6534 45.6356 69.5881 45.4676C69.5227 45.2903 69.4341 45.2016 69.3221 45.2016C69.2661 45.2016 69.2101 45.2156 69.1541 45.2436C69.0981 45.2716 69.0001 45.3369 68.8601 45.4396C68.5334 45.6916 68.1927 45.8783 67.8381 45.9996C67.4927 46.1303 67.1054 46.1956 66.6761 46.1956C65.7148 46.1956 64.8888 45.9996 64.1981 45.6076C63.5168 45.2063 62.9941 44.6323 62.6301 43.8856C62.2661 43.1389 62.0841 42.2476 62.0841 41.2116C62.0841 40.1476 62.2754 39.2143 62.6581 38.4116C63.0501 37.5996 63.5868 36.9789 64.2681 36.5496C64.9494 36.1109 65.7241 35.8916 66.5921 35.8916Z" fill="#5D5D5D"/>
<path d="M81.4618 36.3676C81.1258 36.3863 80.8785 36.4236 80.7198 36.4796C80.5705 36.5356 80.4678 36.6429 80.4118 36.8016C80.3558 36.9603 80.3278 37.2169 80.3278 37.5716V44.5156C80.3278 44.8703 80.3558 45.1269 80.4118 45.2856C80.4678 45.4443 80.5705 45.5516 80.7198 45.6076C80.8785 45.6636 81.1258 45.7009 81.4618 45.7196V45.9996C81.0698 45.9716 80.4725 45.9576 79.6698 45.9576C78.9138 45.9576 78.3212 45.9716 77.8918 45.9996V45.7196C78.2278 45.7009 78.4705 45.6636 78.6198 45.6076C78.7785 45.5516 78.8858 45.4443 78.9418 45.2856C78.9978 45.1269 79.0258 44.8703 79.0258 44.5156V41.1556H74.4758V44.5156C74.4758 44.8703 74.5038 45.1269 74.5598 45.2856C74.6158 45.4443 74.7185 45.5516 74.8678 45.6076C75.0265 45.6636 75.2738 45.7009 75.6098 45.7196V45.9996C75.1805 45.9716 74.5878 45.9576 73.8318 45.9576C73.0292 45.9576 72.4318 45.9716 72.0398 45.9996V45.7196C72.3758 45.7009 72.6185 45.6636 72.7678 45.6076C72.9265 45.5516 73.0338 45.4443 73.0898 45.2856C73.1458 45.1269 73.1738 44.8703 73.1738 44.5156V37.5716C73.1738 37.2169 73.1458 36.9603 73.0898 36.8016C73.0338 36.6429 72.9265 36.5356 72.7678 36.4796C72.6185 36.4236 72.3758 36.3863 72.0398 36.3676V36.0876C72.4318 36.1156 73.0292 36.1296 73.8318 36.1296C74.5785 36.1296 75.1712 36.1156 75.6098 36.0876V36.3676C75.2738 36.3863 75.0265 36.4236 74.8678 36.4796C74.7185 36.5356 74.6158 36.6429 74.5598 36.8016C74.5038 36.9603 74.4758 37.2169 74.4758 37.5716V40.8756H79.0258V37.5716C79.0258 37.2169 78.9978 36.9603 78.9418 36.8016C78.8858 36.6429 78.7785 36.5356 78.6198 36.4796C78.4705 36.4236 78.2278 36.3863 77.8918 36.3676V36.0876C78.3212 36.1156 78.9138 36.1296 79.6698 36.1296C80.4725 36.1296 81.0698 36.1156 81.4618 36.0876V36.3676Z" fill="#5D5D5D"/>
<path d="M86.4855 36.3676C86.1495 36.3863 85.9022 36.4236 85.7435 36.4796C85.5942 36.5356 85.4915 36.6429 85.4355 36.8016C85.3795 36.9603 85.3515 37.2169 85.3515 37.5716V44.5156C85.3515 44.8703 85.3795 45.1269 85.4355 45.2856C85.4915 45.4443 85.5942 45.5516 85.7435 45.6076C85.9022 45.6636 86.1495 45.7009 86.4855 45.7196V45.9996C86.0562 45.9716 85.4635 45.9576 84.7075 45.9576C83.9049 45.9576 83.3075 45.9716 82.9155 45.9996V45.7196C83.2515 45.7009 83.4942 45.6636 83.6435 45.6076C83.8022 45.5516 83.9095 45.4443 83.9655 45.2856C84.0215 45.1269 84.0495 44.8703 84.0495 44.5156V37.5716C84.0495 37.2169 84.0215 36.9603 83.9655 36.8016C83.9095 36.6429 83.8022 36.5356 83.6435 36.4796C83.4942 36.4236 83.2515 36.3863 82.9155 36.3676V36.0876C83.3075 36.1156 83.9049 36.1296 84.7075 36.1296C85.4542 36.1296 86.0469 36.1156 86.4855 36.0876V36.3676Z" fill="#5D5D5D"/>
<path d="M87.0717 48.3656C87.725 48.3469 88.2057 48.1043 88.5137 47.6376C88.831 47.1709 88.9897 46.3823 88.9897 45.2716V37.5716C88.9897 37.2169 88.9617 36.9603 88.9057 36.8016C88.8497 36.6429 88.7423 36.5356 88.5837 36.4796C88.4343 36.4236 88.1917 36.3863 87.8557 36.3676V36.0876C88.2477 36.1156 88.8357 36.1296 89.6197 36.1296C90.385 36.1296 90.987 36.1156 91.4257 36.0876V36.3676C91.0897 36.3863 90.8423 36.4236 90.6837 36.4796C90.5343 36.5356 90.4317 36.6429 90.3757 36.8016C90.3197 36.9603 90.2917 37.2169 90.2917 37.5716V42.6956C90.2917 43.4889 90.2777 44.1936 90.2497 44.8096C90.2217 45.4163 90.1563 45.9296 90.0537 46.3496C89.8857 47.0309 89.5403 47.5816 89.0177 48.0016C88.5043 48.4216 87.8557 48.6316 87.0717 48.6316V48.3656Z" fill="#5D5D5D"/>
<path d="M100.122 44.8656C100.281 45.0989 100.453 45.2856 100.64 45.4256C100.836 45.5563 101.074 45.6543 101.354 45.7196V45.9996C100.906 45.9716 100.346 45.9576 99.6741 45.9576C99.1701 45.9576 98.6894 45.9716 98.2321 45.9996V45.7196C98.4561 45.7103 98.6194 45.6823 98.7221 45.6356C98.8248 45.5889 98.8761 45.5189 98.8761 45.4256C98.8761 45.3323 98.8294 45.2203 98.7361 45.0896L96.6921 42.0096C96.4214 41.5989 96.1928 41.3329 96.0061 41.2116C95.8194 41.0809 95.5581 41.0063 95.2221 40.9876V44.5156C95.2221 44.8703 95.2501 45.1269 95.3061 45.2856C95.3621 45.4443 95.4648 45.5516 95.6141 45.6076C95.7728 45.6636 96.0201 45.7009 96.3561 45.7196V45.9996C95.9268 45.9716 95.3341 45.9576 94.5781 45.9576C93.7754 45.9576 93.1781 45.9716 92.7861 45.9996V45.7196C93.1221 45.7009 93.3648 45.6636 93.5141 45.6076C93.6728 45.5516 93.7801 45.4443 93.8361 45.2856C93.8921 45.1269 93.9201 44.8703 93.9201 44.5156V37.5716C93.9201 37.2169 93.8921 36.9603 93.8361 36.8016C93.7801 36.6429 93.6728 36.5356 93.5141 36.4796C93.3648 36.4236 93.1221 36.3863 92.7861 36.3676V36.0876C93.1781 36.1156 93.7754 36.1296 94.5781 36.1296C95.3248 36.1296 95.9174 36.1156 96.3561 36.0876V36.3676C96.0201 36.3863 95.7728 36.4236 95.6141 36.4796C95.4648 36.5356 95.3621 36.6429 95.3061 36.8016C95.2501 36.9603 95.2221 37.2169 95.2221 37.5716V40.7076C95.9034 40.6796 96.4354 40.4183 96.8181 39.9236L98.1621 38.2156C98.6381 37.6276 98.8761 37.1796 98.8761 36.8716C98.8761 36.5449 98.5868 36.3769 98.0081 36.3676V36.0876C98.5401 36.1156 99.0768 36.1296 99.6181 36.1296C100.131 36.1296 100.528 36.1156 100.808 36.0876V36.3676C100.5 36.4143 100.211 36.5169 99.9401 36.6756C99.6694 36.8249 99.4081 37.0629 99.1561 37.3896L96.8741 40.3156L100.122 44.8656Z" fill="#5D5D5D"/>
<path d="M105.81 36.3676C105.474 36.3863 105.227 36.4236 105.068 36.4796C104.919 36.5356 104.816 36.6429 104.76 36.8016C104.704 36.9603 104.676 37.2169 104.676 37.5716V44.5156C104.676 44.8703 104.704 45.1269 104.76 45.2856C104.816 45.4443 104.919 45.5516 105.068 45.6076C105.227 45.6543 105.474 45.6776 105.81 45.6776H106.832C107.411 45.6776 107.849 45.5983 108.148 45.4396C108.456 45.2716 108.68 45.0056 108.82 44.6416C108.96 44.2776 109.063 43.7503 109.128 43.0596H109.45C109.422 43.3489 109.408 43.7316 109.408 44.2076C109.408 44.7396 109.441 45.3369 109.506 45.9996C108.871 45.9716 107.803 45.9576 106.3 45.9576C104.508 45.9576 103.155 45.9716 102.24 45.9996V45.7196C102.576 45.7009 102.819 45.6636 102.968 45.6076C103.127 45.5516 103.234 45.4443 103.29 45.2856C103.346 45.1269 103.374 44.8703 103.374 44.5156V37.5716C103.374 37.2169 103.346 36.9603 103.29 36.8016C103.234 36.6429 103.127 36.5356 102.968 36.4796C102.819 36.4236 102.576 36.3863 102.24 36.3676V36.0876C102.632 36.1156 103.229 36.1296 104.032 36.1296C104.779 36.1296 105.371 36.1156 105.81 36.0876V36.3676Z" fill="#5D5D5D"/>
<path d="M121.768 36.3676C121.432 36.3863 121.185 36.4236 121.026 36.4796C120.877 36.5356 120.774 36.6429 120.718 36.8016C120.662 36.9603 120.634 37.2169 120.634 37.5716V44.5156C120.634 44.8703 120.662 45.1269 120.718 45.2856C120.774 45.4443 120.877 45.5516 121.026 45.6076C121.185 45.6636 121.432 45.7009 121.768 45.7196V45.9996C121.339 45.9716 120.746 45.9576 119.99 45.9576C119.188 45.9576 118.59 45.9716 118.198 45.9996V45.7196C118.534 45.7009 118.777 45.6636 118.926 45.6076C119.085 45.5516 119.192 45.4443 119.248 45.2856C119.304 45.1269 119.332 44.8703 119.332 44.5156V37.0116L115.958 46.0696H115.734L112.206 36.9836V44.3756C112.206 44.7396 112.234 45.0103 112.29 45.1876C112.356 45.3649 112.477 45.4956 112.654 45.5796C112.832 45.6543 113.107 45.7009 113.48 45.7196V45.9996C113.144 45.9716 112.668 45.9576 112.052 45.9576C111.492 45.9576 111.058 45.9716 110.75 45.9996V45.7196C111.077 45.7009 111.32 45.6543 111.478 45.5796C111.637 45.4956 111.744 45.3649 111.8 45.1876C111.856 45.0009 111.884 44.7303 111.884 44.3756V37.5716C111.884 37.2169 111.856 36.9603 111.8 36.8016C111.744 36.6429 111.637 36.5356 111.478 36.4796C111.329 36.4236 111.086 36.3863 110.75 36.3676V36.0876C111.058 36.1156 111.492 36.1296 112.052 36.1296C112.538 36.1296 112.934 36.1156 113.242 36.0876L116.322 44.1936L119.332 36.1296H119.99C120.746 36.1296 121.339 36.1156 121.768 36.0876V36.3676Z" fill="#5D5D5D"/>
<path d="M132.018 36.3676C131.691 36.3863 131.448 36.4376 131.29 36.5216C131.131 36.5963 131.024 36.7269 130.968 36.9136C130.912 37.0909 130.884 37.3569 130.884 37.7116V46.0696H130.562L124.682 36.9836V44.3756C124.682 44.7396 124.71 45.0103 124.766 45.1876C124.831 45.3649 124.952 45.4956 125.13 45.5796C125.307 45.6543 125.582 45.7009 125.956 45.7196V45.9996C125.62 45.9716 125.144 45.9576 124.528 45.9576C123.968 45.9576 123.534 45.9716 123.226 45.9996V45.7196C123.552 45.7009 123.795 45.6543 123.954 45.5796C124.112 45.4956 124.22 45.3649 124.276 45.1876C124.332 45.0009 124.36 44.7303 124.36 44.3756V37.5716C124.36 37.2169 124.332 36.9603 124.276 36.8016C124.22 36.6429 124.112 36.5356 123.954 36.4796C123.804 36.4236 123.562 36.3863 123.226 36.3676V36.0876C123.534 36.1156 123.968 36.1296 124.528 36.1296C124.948 36.1296 125.312 36.1156 125.62 36.0876L130.562 43.7036V37.7116C130.562 37.3476 130.529 37.0769 130.464 36.8996C130.408 36.7223 130.291 36.5963 130.114 36.5216C129.936 36.4376 129.661 36.3863 129.288 36.3676V36.0876C129.624 36.1156 130.1 36.1296 130.716 36.1296C131.276 36.1296 131.71 36.1156 132.018 36.0876V36.3676Z" fill="#5D5D5D"/>
<path d="M137.901 35.8916C138.787 35.8916 139.562 36.0923 140.225 36.4936C140.897 36.8949 141.415 37.4783 141.779 38.2436C142.152 38.9996 142.339 39.9049 142.339 40.9596C142.339 41.9863 142.147 42.8963 141.765 43.6896C141.391 44.4829 140.864 45.0989 140.183 45.5376C139.511 45.9763 138.745 46.1956 137.887 46.1956C137 46.1956 136.221 45.9949 135.549 45.5936C134.886 45.1923 134.368 44.6136 133.995 43.8576C133.631 43.0923 133.449 42.1823 133.449 41.1276C133.449 40.1009 133.635 39.1909 134.009 38.3976C134.391 37.6043 134.919 36.9883 135.591 36.5496C136.272 36.1109 137.042 35.8916 137.901 35.8916ZM137.845 36.1436C137.247 36.1436 136.72 36.3536 136.263 36.7736C135.815 37.1843 135.465 37.7629 135.213 38.5096C134.97 39.2563 134.849 40.1103 134.849 41.0716C134.849 42.0423 134.984 42.8963 135.255 43.6336C135.535 44.3709 135.908 44.9403 136.375 45.3416C136.841 45.7429 137.364 45.9436 137.943 45.9436C138.54 45.9436 139.063 45.7383 139.511 45.3276C139.968 44.9076 140.318 44.3243 140.561 43.5776C140.813 42.8309 140.939 41.9769 140.939 41.0156C140.939 40.0449 140.799 39.1909 140.519 38.4536C140.248 37.7163 139.879 37.1469 139.413 36.7456C138.946 36.3443 138.423 36.1436 137.845 36.1436Z" fill="#5D5D5D"/>
<path d="M146.278 41.9956V44.5156C146.278 44.8703 146.316 45.1269 146.39 45.2856C146.465 45.4443 146.596 45.5516 146.782 45.6076C146.969 45.6636 147.272 45.7009 147.692 45.7196V45.9996C147.207 45.9716 146.521 45.9576 145.634 45.9576C144.832 45.9576 144.234 45.9716 143.842 45.9996V45.7196C144.178 45.7009 144.421 45.6636 144.57 45.6076C144.729 45.5516 144.836 45.4443 144.892 45.2856C144.948 45.1269 144.976 44.8703 144.976 44.5156V37.5716C144.976 37.2169 144.948 36.9603 144.892 36.8016C144.836 36.6429 144.729 36.5356 144.57 36.4796C144.421 36.4236 144.178 36.3863 143.842 36.3676V36.0876C144.234 36.1156 144.804 36.1296 145.55 36.1296L147.062 36.1156C147.24 36.1063 147.44 36.1016 147.664 36.1016C148.756 36.1016 149.592 36.3536 150.17 36.8576C150.749 37.3523 151.038 38.0196 151.038 38.8596C151.038 39.3729 150.922 39.8676 150.688 40.3436C150.464 40.8103 150.077 41.2023 149.526 41.5196C148.985 41.8369 148.262 41.9956 147.356 41.9956H146.278ZM147.314 36.3676C147.025 36.3676 146.806 36.4003 146.656 36.4656C146.516 36.5309 146.418 36.6476 146.362 36.8156C146.306 36.9836 146.278 37.2356 146.278 37.5716V41.7156H147.216C148.131 41.7156 148.761 41.4729 149.106 40.9876C149.461 40.4929 149.638 39.8349 149.638 39.0136C149.638 38.1083 149.456 37.4409 149.092 37.0116C148.738 36.5823 148.145 36.3676 147.314 36.3676Z" fill="#5D5D5D"/>
<path d="M162.406 46.4056C162.2 47.1149 161.906 47.6469 161.524 48.0016C161.066 48.4216 160.436 48.6316 159.634 48.6316C159.204 48.6316 158.784 48.5663 158.374 48.4356C157.963 48.3049 157.445 48.0996 156.82 47.8196C156.129 47.5209 155.564 47.2969 155.126 47.1476L154.79 47.0496C154.388 47.1896 154.001 47.2596 153.628 47.2596C153.198 47.2596 152.984 47.1663 152.984 46.9796C152.984 46.7836 153.236 46.6856 153.74 46.6856C154.066 46.6856 154.416 46.7229 154.79 46.7976C155.088 46.7136 155.434 46.5829 155.826 46.4056C156.068 46.2936 156.25 46.2143 156.372 46.1676C155.578 46.0929 154.888 45.8456 154.3 45.4256C153.721 45.0056 153.268 44.4316 152.942 43.7036C152.624 42.9663 152.466 42.1076 152.466 41.1276C152.466 40.1009 152.652 39.1909 153.026 38.3976C153.408 37.6043 153.936 36.9883 154.608 36.5496C155.289 36.1109 156.059 35.8916 156.918 35.8916C157.804 35.8916 158.579 36.0923 159.242 36.4936C159.914 36.8949 160.432 37.4783 160.796 38.2436C161.169 38.9996 161.356 39.9049 161.356 40.9596C161.356 41.9303 161.188 42.7983 160.852 43.5636C160.516 44.3196 160.044 44.9263 159.438 45.3836C158.831 45.8316 158.136 46.0929 157.352 46.1676V46.1816C157.128 46.2096 156.932 46.2469 156.764 46.2936C156.605 46.3496 156.39 46.4336 156.12 46.5456C155.784 46.6949 155.504 46.8023 155.28 46.8676C156.316 47.0729 157.193 47.2363 157.912 47.3576C158.64 47.4789 159.242 47.5396 159.718 47.5396C160.38 47.5396 160.903 47.4416 161.286 47.2456C161.678 47.0589 161.981 46.7509 162.196 46.3216L162.406 46.4056ZM153.866 41.0716C153.866 42.0423 154.001 42.8963 154.272 43.6336C154.552 44.3709 154.925 44.9403 155.392 45.3416C155.858 45.7429 156.381 45.9436 156.96 45.9436C157.557 45.9436 158.08 45.7383 158.528 45.3276C158.985 44.9076 159.335 44.3243 159.578 43.5776C159.83 42.8309 159.956 41.9769 159.956 41.0156C159.956 40.0449 159.816 39.1909 159.536 38.4536C159.265 37.7163 158.896 37.1469 158.43 36.7456C157.963 36.3443 157.44 36.1436 156.862 36.1436C156.264 36.1436 155.737 36.3536 155.28 36.7736C154.832 37.1843 154.482 37.7629 154.23 38.5096C153.987 39.2563 153.866 40.1103 153.866 41.0716Z" fill="#5D5D5D"/>
<path d="M171.511 45.2996C171.297 45.6169 171.082 45.8456 170.867 45.9856C170.653 46.1256 170.368 46.1956 170.013 46.1956C169.631 46.1956 169.313 46.0836 169.061 45.8596C168.819 45.6356 168.637 45.2436 168.515 44.6836L168.207 43.2836C168.095 42.7983 167.988 42.4249 167.885 42.1636C167.792 41.9023 167.647 41.6923 167.451 41.5336C167.255 41.3749 166.98 41.2956 166.625 41.2956H165.295V44.5156C165.295 44.8703 165.323 45.1269 165.379 45.2856C165.435 45.4443 165.538 45.5516 165.687 45.6076C165.846 45.6636 166.093 45.7009 166.429 45.7196V45.9996C166 45.9716 165.407 45.9576 164.651 45.9576C163.849 45.9576 163.251 45.9716 162.859 45.9996V45.7196C163.195 45.7009 163.438 45.6636 163.587 45.6076C163.746 45.5516 163.853 45.4443 163.909 45.2856C163.965 45.1269 163.993 44.8703 163.993 44.5156V37.5716C163.993 37.2169 163.965 36.9603 163.909 36.8016C163.853 36.6429 163.746 36.5356 163.587 36.4796C163.438 36.4236 163.195 36.3863 162.859 36.3676V36.0876C163.251 36.1156 163.821 36.1296 164.567 36.1296L166.079 36.1156C166.257 36.1063 166.457 36.1016 166.681 36.1016C167.764 36.1016 168.595 36.3303 169.173 36.7876C169.761 37.2356 170.055 37.8189 170.055 38.5376C170.055 38.9016 169.967 39.2703 169.789 39.6436C169.621 40.0076 169.332 40.3389 168.921 40.6376C168.52 40.9269 167.993 41.1229 167.339 41.2256L167.507 41.2536C168.123 41.3563 168.571 41.5429 168.851 41.8136C169.131 42.0843 169.337 42.5136 169.467 43.1016L169.817 44.5296C169.911 44.9589 170.009 45.2576 170.111 45.4256C170.214 45.5936 170.354 45.6776 170.531 45.6776C170.69 45.6776 170.821 45.6356 170.923 45.5516C171.035 45.4676 171.161 45.3323 171.301 45.1456L171.511 45.2996ZM166.331 36.3676C166.042 36.3676 165.823 36.4003 165.673 36.4656C165.533 36.5309 165.435 36.6476 165.379 36.8156C165.323 36.9836 165.295 37.2356 165.295 37.5716V41.0156H166.233C167.157 41.0156 167.792 40.8103 168.137 40.3996C168.483 39.9889 168.655 39.4196 168.655 38.6916C168.655 37.9263 168.473 37.3476 168.109 36.9556C167.745 36.5636 167.153 36.3676 166.331 36.3676Z" fill="#5D5D5D"/>
<path d="M175.213 35.9336C175.624 35.9336 175.946 35.9803 176.179 36.0736C176.422 36.1576 176.669 36.2836 176.921 36.4516C177.127 36.5823 177.285 36.6476 177.397 36.6476C177.481 36.6476 177.547 36.6009 177.593 36.5076C177.64 36.4049 177.677 36.2463 177.705 36.0316H178.027C177.981 36.5729 177.957 37.5249 177.957 38.8876H177.635C177.579 38.1316 177.36 37.4969 176.977 36.9836C176.604 36.4609 176.058 36.1996 175.339 36.1996C174.835 36.1996 174.425 36.3536 174.107 36.6616C173.79 36.9603 173.631 37.3476 173.631 37.8236C173.631 38.1783 173.711 38.4863 173.869 38.7476C174.037 39.0089 174.247 39.2329 174.499 39.4196C174.751 39.6063 175.111 39.8443 175.577 40.1336L175.983 40.3856C176.571 40.7496 177.033 41.0716 177.369 41.3516C177.715 41.6223 177.99 41.9349 178.195 42.2896C178.401 42.6443 178.503 43.0596 178.503 43.5356C178.503 44.3849 178.223 45.0429 177.663 45.5096C177.103 45.9669 176.394 46.1956 175.535 46.1956C175.087 46.1956 174.719 46.1489 174.429 46.0556C174.149 45.9623 173.879 45.8363 173.617 45.6776C173.412 45.5469 173.253 45.4816 173.141 45.4816C173.057 45.4816 172.992 45.5329 172.945 45.6356C172.899 45.7289 172.861 45.8829 172.833 46.0976H172.511C172.549 45.5843 172.567 44.4643 172.567 42.7376H172.889C172.955 43.6803 173.188 44.4456 173.589 45.0336C173.991 45.6216 174.607 45.9156 175.437 45.9156C175.941 45.9156 176.371 45.7616 176.725 45.4536C177.08 45.1363 177.257 44.6696 177.257 44.0536C177.257 43.5309 177.08 43.0876 176.725 42.7236C176.38 42.3596 175.829 41.9489 175.073 41.4916C174.523 41.1556 174.075 40.8569 173.729 40.5956C173.393 40.3343 173.118 40.0216 172.903 39.6576C172.689 39.2843 172.581 38.8503 172.581 38.3556C172.581 37.5716 172.833 36.9743 173.337 36.5636C173.841 36.1436 174.467 35.9336 175.213 35.9336Z" fill="#5D5D5D"/>
<path d="M187.758 36.0876C187.693 36.7503 187.66 37.3476 187.66 37.8796C187.66 38.3463 187.674 38.7289 187.702 39.0276H187.38C187.305 38.3089 187.212 37.7769 187.1 37.4316C186.988 37.0769 186.792 36.8203 186.512 36.6616C186.232 36.4936 185.803 36.4096 185.224 36.4096H184.468V44.3756C184.468 44.7676 184.505 45.0523 184.58 45.2296C184.655 45.4069 184.785 45.5283 184.972 45.5936C185.159 45.6589 185.462 45.7009 185.882 45.7196V45.9996C185.397 45.9716 184.711 45.9576 183.824 45.9576C182.891 45.9576 182.2 45.9716 181.752 45.9996V45.7196C182.172 45.7009 182.475 45.6589 182.662 45.5936C182.849 45.5283 182.979 45.4069 183.054 45.2296C183.129 45.0523 183.166 44.7676 183.166 44.3756V36.4096H182.41C181.831 36.4096 181.402 36.4936 181.122 36.6616C180.842 36.8203 180.646 37.0769 180.534 37.4316C180.422 37.7769 180.329 38.3089 180.254 39.0276H179.932C179.96 38.7289 179.974 38.3463 179.974 37.8796C179.974 37.3476 179.941 36.7503 179.876 36.0876C180.651 36.1156 181.967 36.1296 183.824 36.1296C185.672 36.1296 186.983 36.1156 187.758 36.0876Z" fill="#5D5D5D"/>
<path d="M197.615 36.3676C197.289 36.3863 197.046 36.4376 196.887 36.5216C196.729 36.5963 196.621 36.7269 196.565 36.9136C196.509 37.0909 196.481 37.3569 196.481 37.7116V41.9256C196.481 42.5976 196.435 43.1763 196.341 43.6616C196.257 44.1376 196.113 44.5483 195.907 44.8936C195.674 45.2949 195.329 45.6123 194.871 45.8456C194.423 46.0789 193.915 46.1956 193.345 46.1956C192.319 46.1956 191.535 45.9436 190.993 45.4396C190.583 45.0569 190.307 44.6229 190.167 44.1376C190.027 43.6523 189.957 42.9289 189.957 41.9676V37.5716C189.957 37.2169 189.929 36.9603 189.873 36.8016C189.817 36.6429 189.71 36.5356 189.551 36.4796C189.402 36.4236 189.159 36.3863 188.823 36.3676V36.0876C189.215 36.1156 189.813 36.1296 190.615 36.1296C191.371 36.1296 191.964 36.1156 192.393 36.0876V36.3676C192.057 36.3863 191.81 36.4236 191.651 36.4796C191.502 36.5356 191.399 36.6429 191.343 36.8016C191.287 36.9603 191.259 37.2169 191.259 37.5716V42.2056C191.259 42.9523 191.311 43.5729 191.413 44.0676C191.516 44.5623 191.726 44.9589 192.043 45.2576C192.37 45.5563 192.846 45.7056 193.471 45.7056C194.461 45.7056 195.156 45.3883 195.557 44.7536C195.959 44.1189 196.159 43.2276 196.159 42.0796V37.7116C196.159 37.2076 196.066 36.8623 195.879 36.6756C195.702 36.4889 195.371 36.3863 194.885 36.3676V36.0876C195.221 36.1156 195.697 36.1296 196.313 36.1296C196.873 36.1296 197.307 36.1156 197.615 36.0876V36.3676Z" fill="#5D5D5D"/>
<path d="M206.136 36.1296C206.556 36.1296 206.906 36.1156 207.186 36.0876V36.3676C206.72 36.4796 206.351 36.8856 206.08 37.5856L202.79 46.0696H202.566L199.15 37.2636C198.926 36.6849 198.604 36.3863 198.184 36.3676V36.0876C198.558 36.1156 199.057 36.1296 199.682 36.1296C200.485 36.1296 201.082 36.1156 201.474 36.0876V36.3676C201.12 36.3863 200.863 36.4329 200.704 36.5076C200.555 36.5729 200.48 36.6989 200.48 36.8856C200.48 37.0443 200.536 37.2636 200.648 37.5436L203.182 44.2776L205.464 38.3556C205.651 37.8516 205.744 37.4689 205.744 37.2076C205.744 36.9183 205.642 36.7083 205.436 36.5776C205.24 36.4469 204.937 36.3769 204.526 36.3676V36.0876C205.058 36.1156 205.595 36.1296 206.136 36.1296Z" fill="#5D5D5D"/>
<path d="M219.015 36.1296C219.435 36.1296 219.785 36.1156 220.065 36.0876V36.3676C219.542 36.4889 219.173 36.8949 218.959 37.5856L216.313 46.0696H216.089L213.653 38.8596L211.427 46.0696H211.203L208.235 37.2636C208.039 36.6849 207.717 36.3863 207.269 36.3676V36.0876C207.651 36.1156 208.151 36.1296 208.767 36.1296C209.439 36.1296 209.943 36.1156 210.279 36.0876V36.3676C210.027 36.3863 209.849 36.4329 209.747 36.5076C209.644 36.5823 209.593 36.6989 209.593 36.8576C209.593 37.0069 209.644 37.2356 209.747 37.5436L211.791 43.7876L213.499 38.3696L213.121 37.2636C212.934 36.6849 212.659 36.3863 212.295 36.3676V36.0876C212.631 36.1156 213.083 36.1296 213.653 36.1296C214.455 36.1296 215.053 36.1156 215.445 36.0876V36.3676C215.09 36.3863 214.843 36.4283 214.703 36.4936C214.563 36.5496 214.493 36.6756 214.493 36.8716C214.493 37.0396 214.539 37.2636 214.633 37.5436L216.649 43.7736L218.371 38.3556C218.52 37.8983 218.595 37.5203 218.595 37.2216C218.595 36.9136 218.501 36.6989 218.315 36.5776C218.128 36.4469 217.825 36.3769 217.405 36.3676V36.0876C217.937 36.1156 218.473 36.1296 219.015 36.1296Z" fill="#5D5D5D"/>
<path d="M228.161 45.0056C228.338 45.2763 228.487 45.4583 228.609 45.5516C228.73 45.6449 228.893 45.6963 229.099 45.7056V45.9996C228.464 45.9623 228.063 45.9436 227.895 45.9436C227.587 45.9436 226.929 45.9623 225.921 45.9996V45.7056C226.285 45.7056 226.541 45.6916 226.691 45.6636C226.84 45.6263 226.915 45.5656 226.915 45.4816C226.915 45.4069 226.882 45.3229 226.817 45.2296L224.423 41.5616L222.911 43.8156C222.556 44.3476 222.379 44.7583 222.379 45.0476C222.379 45.2903 222.486 45.4629 222.701 45.5656C222.915 45.6589 223.223 45.7103 223.625 45.7196V45.9996C223.093 45.9716 222.463 45.9576 221.735 45.9576C221.221 45.9576 220.825 45.9716 220.545 45.9996V45.7196C220.825 45.6823 221.091 45.5563 221.343 45.3416C221.604 45.1269 221.865 44.8236 222.127 44.4316L224.241 41.2816L221.497 37.0816C221.319 36.8109 221.17 36.6289 221.049 36.5356C220.927 36.4423 220.764 36.3909 220.559 36.3816V36.0876C221.193 36.1249 221.595 36.1436 221.763 36.1436C222.388 36.1436 223.046 36.1249 223.737 36.0876V36.3816C223.401 36.3816 223.158 36.4096 223.009 36.4656C222.869 36.5123 222.799 36.5869 222.799 36.6896C222.799 36.7456 222.841 36.8483 222.925 36.9976L225.109 40.3296L226.481 38.2716C226.882 37.6836 227.083 37.2356 227.083 36.9276C227.083 36.7316 226.994 36.5916 226.817 36.5076C226.639 36.4236 226.369 36.3769 226.005 36.3676V36.0876C226.537 36.1156 227.073 36.1296 227.615 36.1296C228.128 36.1296 228.525 36.1156 228.805 36.0876V36.3676C228.525 36.4049 228.254 36.5309 227.993 36.7456C227.741 36.9603 227.484 37.2636 227.223 37.6556L225.263 40.5816L228.161 45.0056Z" fill="#5D5D5D"/>
<path d="M236.656 36.1296C237.076 36.1296 237.426 36.1156 237.706 36.0876V36.3676C237.519 36.4143 237.337 36.5356 237.16 36.7316C236.982 36.9183 236.791 37.2123 236.586 37.6136L234.388 41.9676V44.5156C234.388 44.8703 234.416 45.1269 234.472 45.2856C234.528 45.4443 234.63 45.5516 234.78 45.6076C234.938 45.6636 235.186 45.7009 235.522 45.7196V45.9996C235.092 45.9716 234.5 45.9576 233.744 45.9576C232.941 45.9576 232.344 45.9716 231.952 45.9996V45.7196C232.288 45.7009 232.53 45.6636 232.68 45.6076C232.838 45.5516 232.946 45.4443 233.002 45.2856C233.058 45.1269 233.086 44.8703 233.086 44.5156V42.4156L230.244 37.1656C230.076 36.8576 229.926 36.6523 229.796 36.5496C229.674 36.4376 229.553 36.3816 229.432 36.3816V36.0876C229.796 36.1156 230.206 36.1296 230.664 36.1296C231.569 36.1296 232.222 36.1156 232.624 36.0876V36.3816C231.97 36.3816 231.644 36.5589 231.644 36.9136C231.644 37.0536 231.69 37.2169 231.784 37.4036L234.108 41.8696L235.9 38.3136C236.152 37.8189 236.278 37.4176 236.278 37.1096C236.278 36.8483 236.175 36.6616 235.97 36.5496C235.764 36.4376 235.456 36.3769 235.046 36.3676V36.0876C235.578 36.1156 236.114 36.1296 236.656 36.1296Z" fill="#5D5D5D"/>
<path d="M245.725 36.3676L240.139 45.6776H242.883C243.462 45.6776 243.9 45.5983 244.199 45.4396C244.507 45.2716 244.731 45.0056 244.871 44.6416C245.011 44.2776 245.114 43.7503 245.179 43.0596H245.501C245.473 43.3489 245.459 43.7316 245.459 44.2076C245.459 44.7396 245.492 45.3369 245.557 45.9996C244.866 45.9716 243.704 45.9576 242.071 45.9576C240.475 45.9576 239.322 45.9716 238.613 45.9996V45.7196L244.241 36.4096H241.511C240.932 36.4096 240.489 36.4936 240.181 36.6616C239.882 36.8203 239.663 37.0816 239.523 37.4456C239.383 37.8096 239.28 38.3369 239.215 39.0276H238.893C238.921 38.7289 238.935 38.3463 238.935 37.8796C238.935 37.3476 238.902 36.7503 238.837 36.0876C239.528 36.1156 240.69 36.1296 242.323 36.1296C243.91 36.1296 245.044 36.1156 245.725 36.0876V36.3676Z" fill="#5D5D5D"/>
<path d="M2.29801 65.0976C1.71001 65.0976 1.27135 64.9529 0.982012 64.6636C0.702012 64.3649 0.562012 63.9543 0.562012 63.4316C0.562012 63.0116 0.674012 62.6663 0.898012 62.3956C1.13135 62.1249 1.40201 61.9103 1.71001 61.7516C2.02735 61.5929 2.44268 61.4249 2.95601 61.2476C3.47868 61.0703 3.86601 60.9069 4.11801 60.7576C4.37001 60.6083 4.49601 60.4076 4.49601 60.1556V59.2876C4.49601 58.7463 4.37935 58.3776 4.14601 58.1816C3.92201 57.9763 3.60468 57.8736 3.19401 57.8736C2.54068 57.8736 2.07868 58.0416 1.80801 58.3776C1.99468 58.4243 2.14868 58.5223 2.27001 58.6716C2.40068 58.8209 2.46601 59.0076 2.46601 59.2316C2.46601 59.4649 2.39135 59.6516 2.24201 59.7916C2.09268 59.9223 1.90135 59.9876 1.66801 59.9876C1.40668 59.9876 1.21068 59.9083 1.08001 59.7496C0.949345 59.5816 0.884012 59.3809 0.884012 59.1476C0.884012 58.9236 0.935345 58.7369 1.03801 58.5876C1.15001 58.4383 1.31335 58.2889 1.52801 58.1396C1.75201 57.9809 2.03668 57.8503 2.38201 57.7476C2.72735 57.6449 3.10535 57.5936 3.51601 57.5936C4.24401 57.5936 4.79468 57.7663 5.16801 58.1116C5.40135 58.3263 5.55535 58.5876 5.63001 58.8956C5.71401 59.1943 5.75601 59.5909 5.75601 60.0856V63.9776C5.75601 64.2109 5.78868 64.3789 5.85401 64.4816C5.91935 64.5843 6.03135 64.6356 6.19001 64.6356C6.30201 64.6356 6.40468 64.6123 6.49801 64.5656C6.60068 64.5096 6.70801 64.4349 6.82001 64.3416L6.97401 64.5796C6.73135 64.7663 6.52135 64.9016 6.34401 64.9856C6.17601 65.0603 5.96135 65.0976 5.70001 65.0976C5.25201 65.0976 4.93935 64.9856 4.76201 64.7616C4.58468 64.5376 4.49601 64.2343 4.49601 63.8516C4.21601 64.3183 3.89401 64.6449 3.53001 64.8316C3.16601 65.0089 2.75535 65.0976 2.29801 65.0976ZM2.91401 64.5376C3.53001 64.5376 4.05735 64.1829 4.49601 63.4736V60.7296C4.41201 60.8603 4.29535 60.9676 4.14601 61.0516C3.99668 61.1356 3.76801 61.2476 3.46001 61.3876C3.10535 61.5369 2.81601 61.6816 2.59201 61.8216C2.37735 61.9523 2.19068 62.1343 2.03201 62.3676C1.87335 62.6009 1.79401 62.8996 1.79401 63.2636C1.79401 63.6836 1.89668 64.0009 2.10201 64.2156C2.30735 64.4303 2.57801 64.5376 2.91401 64.5376Z" fill="#5D5D5D"/>
<path d="M11.8327 57.5936C12.626 57.5936 13.2653 57.9203 13.7507 58.5736C14.2453 59.2269 14.4927 60.1696 14.4927 61.4016C14.4927 62.2136 14.3527 62.9043 14.0727 63.4736C13.7927 64.0429 13.4147 64.4723 12.9387 64.7616C12.472 65.0509 11.9493 65.1956 11.3707 65.1956C11.0253 65.1956 10.6893 65.1256 10.3627 64.9856C10.0453 64.8456 9.76533 64.6449 9.52267 64.3836L8.52867 65.2236L8.29067 65.1256C8.356 64.8923 8.38867 64.6216 8.38867 64.3136V55.7176C8.38867 55.2883 8.30933 54.9756 8.15067 54.7796C7.992 54.5836 7.71667 54.4856 7.32467 54.4856V54.1916C7.62333 54.2196 7.91267 54.2336 8.19267 54.2336C8.78067 54.2336 9.266 54.1683 9.64867 54.0376V59.0916C9.854 58.6156 10.148 58.2469 10.5307 57.9856C10.9227 57.7243 11.3567 57.5936 11.8327 57.5936ZM11.2587 64.8736C11.884 64.8736 12.3507 64.5936 12.6587 64.0336C12.976 63.4643 13.1347 62.5869 13.1347 61.4016C13.1347 60.2629 12.9947 59.4136 12.7147 58.8536C12.4347 58.2936 12.0053 58.0136 11.4267 58.0136C11.0347 58.0136 10.6753 58.1676 10.3487 58.4756C10.022 58.7743 9.78867 59.1989 9.64867 59.7496V64.1876C9.86333 64.4116 10.1107 64.5843 10.3907 64.7056C10.6707 64.8176 10.96 64.8736 11.2587 64.8736Z" fill="#5D5D5D"/>
<path d="M19.3433 57.5936C19.9687 57.5936 20.51 57.7429 20.9673 58.0416C21.406 58.3309 21.6253 58.6903 21.6253 59.1196C21.6253 59.3623 21.5553 59.5536 21.4153 59.6936C21.2753 59.8336 21.098 59.9036 20.8833 59.9036C20.6687 59.9036 20.4867 59.8429 20.3373 59.7216C20.188 59.5909 20.1133 59.4183 20.1133 59.2036C20.1133 59.0076 20.1693 58.8443 20.2813 58.7136C20.3933 58.5736 20.5333 58.4803 20.7013 58.4336C20.608 58.2656 20.44 58.1256 20.1973 58.0136C19.964 57.9016 19.712 57.8456 19.4413 57.8456C19.096 57.8456 18.774 57.9576 18.4753 58.1816C18.1767 58.3963 17.9293 58.7603 17.7333 59.2736C17.5373 59.7776 17.4393 60.4449 17.4393 61.2756C17.4393 62.4329 17.626 63.2776 17.9993 63.8096C18.3727 64.3323 18.858 64.5936 19.4553 64.5936C19.8567 64.5936 20.2347 64.4769 20.5893 64.2436C20.9533 64.0103 21.252 63.6463 21.4853 63.1516L21.7513 63.2496C21.5927 63.7816 21.294 64.2389 20.8553 64.6216C20.426 65.0043 19.866 65.1956 19.1753 65.1956C18.5967 65.1956 18.0693 65.0463 17.5933 64.7476C17.1267 64.4489 16.758 64.0196 16.4873 63.4596C16.2167 62.8903 16.0813 62.2323 16.0813 61.4856C16.0813 60.7296 16.2167 60.0576 16.4873 59.4696C16.7673 58.8816 17.1547 58.4243 17.6493 58.0976C18.144 57.7616 18.7087 57.5936 19.3433 57.5936Z" fill="#5D5D5D"/>
<path d="M29.3019 63.4736C29.3019 63.9029 29.3813 64.2156 29.5399 64.4116C29.6986 64.6076 29.9739 64.7056 30.3659 64.7056V64.9996C30.0766 64.9716 29.7873 64.9576 29.4979 64.9576C28.9099 64.9576 28.4246 65.0229 28.0419 65.1536V63.9076C27.8739 64.3276 27.6219 64.6496 27.2859 64.8736C26.9499 65.0883 26.5393 65.1956 26.0539 65.1956C25.1579 65.1956 24.4533 64.8736 23.9399 64.2296C23.4359 63.5856 23.1886 62.6429 23.1979 61.4016C23.1979 60.5896 23.3379 59.8989 23.6179 59.3296C23.9073 58.7509 24.2899 58.3169 24.7659 58.0276C25.2513 57.7383 25.7833 57.5936 26.3619 57.5936C26.7166 57.5936 27.0386 57.6636 27.3279 57.8036C27.6266 57.9343 27.8646 58.1396 28.0419 58.4196V55.7036C28.0419 55.2743 27.9626 54.9616 27.8039 54.7656C27.6453 54.5696 27.3699 54.4716 26.9779 54.4716V54.1776C27.2766 54.2056 27.5659 54.2196 27.8459 54.2196C28.4339 54.2196 28.9193 54.1543 29.3019 54.0236V63.4736ZM26.4599 64.7756C26.8239 64.7756 27.1506 64.6356 27.4399 64.3556C27.7293 64.0756 27.9299 63.6789 28.0419 63.1656V58.9936C27.7899 58.2749 27.2673 57.9156 26.4739 57.9156C25.8953 57.9156 25.4286 58.2143 25.0739 58.8116C24.7193 59.3996 24.5466 60.2629 24.5559 61.4016C24.5466 62.5216 24.7053 63.3663 25.0319 63.9356C25.3586 64.4956 25.8346 64.7756 26.4599 64.7756Z" fill="#5D5D5D"/>
<path d="M37.4227 63.3196C37.2547 63.8329 36.9374 64.2763 36.4707 64.6496C36.0134 65.0136 35.458 65.1956 34.8047 65.1956C34.142 65.1956 33.568 65.0463 33.0827 64.7476C32.5974 64.4396 32.224 64.0149 31.9627 63.4736C31.7107 62.9229 31.5847 62.2883 31.5847 61.5696C31.5847 60.7576 31.7154 60.0529 31.9767 59.4556C32.238 58.8583 32.6067 58.4009 33.0827 58.0836C33.5587 57.7569 34.114 57.5936 34.7487 57.5936C35.5887 57.5936 36.2327 57.8503 36.6807 58.3636C37.138 58.8676 37.3667 59.6376 37.3667 60.6736H32.9847C32.9567 60.9349 32.9427 61.2336 32.9427 61.5696C32.9427 62.1856 33.0407 62.7223 33.2367 63.1796C33.442 63.6369 33.708 63.9916 34.0347 64.2436C34.3707 64.4863 34.7207 64.6076 35.0847 64.6076C35.5327 64.6076 35.9294 64.5003 36.2747 64.2856C36.62 64.0709 36.9094 63.7116 37.1427 63.2076L37.4227 63.3196ZM34.6927 57.8596C34.254 57.8596 33.876 58.0743 33.5587 58.5036C33.2414 58.9329 33.0454 59.5676 32.9707 60.4076H36.0227C36.0414 59.6796 35.934 59.0729 35.7007 58.5876C35.4767 58.1023 35.1407 57.8596 34.6927 57.8596Z" fill="#5D5D5D"/>
<path d="M42.1667 54.0516C42.6521 54.0516 43.0581 54.1776 43.3847 54.4296C43.6741 54.6629 43.8187 54.9523 43.8187 55.2976C43.8187 55.5123 43.7487 55.6896 43.6087 55.8296C43.4687 55.9696 43.2914 56.0396 43.0767 56.0396C42.8621 56.0396 42.6801 55.9743 42.5307 55.8436C42.3814 55.7036 42.3067 55.5169 42.3067 55.2836C42.3067 55.0876 42.3581 54.9289 42.4607 54.8076C42.5727 54.6863 42.7174 54.6069 42.8947 54.5696C42.8667 54.4763 42.7921 54.4016 42.6707 54.3456C42.5494 54.2896 42.3954 54.2616 42.2087 54.2616C42.0034 54.2616 41.8214 54.3083 41.6627 54.4016C41.5041 54.4949 41.3827 54.6209 41.2987 54.7796C41.1961 54.9663 41.1261 55.2416 41.0887 55.6056C41.0607 55.9696 41.0467 56.5809 41.0467 57.4396V57.8036H42.5447V58.0836H41.0467V63.5576C41.0467 63.9869 41.1681 64.2856 41.4107 64.4536C41.6627 64.6216 42.0361 64.7056 42.5307 64.7056V64.9996L42.1947 64.9856C41.2427 64.9576 40.6361 64.9436 40.3747 64.9436C40.1321 64.9436 39.5814 64.9623 38.7227 64.9996V64.7056C39.1147 64.7056 39.3901 64.6356 39.5487 64.4956C39.7074 64.3463 39.7867 64.0803 39.7867 63.6976V58.0836H38.6667V57.8036H39.7867C39.7867 56.9823 39.8381 56.3476 39.9407 55.8996C40.0434 55.4516 40.2301 55.0689 40.5007 54.7516C40.6874 54.5369 40.9254 54.3689 41.2147 54.2476C41.5041 54.1169 41.8214 54.0516 42.1667 54.0516Z" fill="#5D5D5D"/>
<path d="M49.8252 59.0496C49.6572 59.0496 49.5125 58.9936 49.3912 58.8816C49.2792 58.7696 49.2232 58.6063 49.2232 58.3916C49.2232 58.2049 49.2698 57.9903 49.3632 57.7476C49.1205 57.8503 48.9292 57.9669 48.7892 58.0976C48.6492 58.2189 48.5232 58.3729 48.4112 58.5596C48.6258 58.8863 48.7332 59.3016 48.7332 59.8056C48.7332 60.5429 48.5092 61.0983 48.0612 61.4716C47.6132 61.8356 47.0205 62.0176 46.2832 62.0176H46.2692C45.9612 62.1949 45.7278 62.3583 45.5692 62.5076C45.4105 62.6569 45.3312 62.8249 45.3312 63.0116C45.3312 63.3103 45.5552 63.4596 46.0032 63.4596H47.7532C48.3878 63.4596 48.9105 63.5996 49.3212 63.8796C49.7412 64.1503 49.9512 64.5609 49.9512 65.1116C49.9512 65.5596 49.8065 65.9749 49.5172 66.3576C49.2278 66.7403 48.8032 67.0483 48.2432 67.2816C47.6832 67.5149 47.0065 67.6316 46.2132 67.6316C45.4012 67.6316 44.7198 67.5056 44.1692 67.2536C43.6278 67.0109 43.3572 66.6469 43.3572 66.1616C43.3572 65.8443 43.4832 65.5689 43.7352 65.3356C43.9965 65.1023 44.3558 64.9203 44.8132 64.7896L44.8972 65.0136C44.6918 65.0789 44.5285 65.2096 44.4072 65.4056C44.2858 65.6016 44.2252 65.8209 44.2252 66.0636C44.2252 66.4929 44.4165 66.8196 44.7992 67.0436C45.1912 67.2769 45.7138 67.3936 46.3672 67.3936C47.0858 67.3936 47.7018 67.2536 48.2152 66.9736C48.7285 66.7029 48.9852 66.2783 48.9852 65.6996C48.9852 65.3636 48.8638 65.1023 48.6212 64.9156C48.3878 64.7289 47.9678 64.6356 47.3612 64.6356H46.3252C45.7745 64.6356 45.3312 64.5656 44.9952 64.4256C44.6685 64.2856 44.5052 64.0056 44.5052 63.5856C44.5052 63.2963 44.6078 63.0209 44.8132 62.7596C45.0278 62.4983 45.3778 62.2416 45.8632 61.9896C45.2472 61.9243 44.7525 61.7096 44.3792 61.3456C44.0152 60.9816 43.8332 60.4683 43.8332 59.8056C43.8332 59.0683 44.0572 58.5176 44.5052 58.1536C44.9532 57.7803 45.5458 57.5936 46.2832 57.5936C47.1605 57.5936 47.8092 57.8363 48.2292 58.3216C48.4065 58.0696 48.6305 57.8643 48.9012 57.7056C49.1718 57.5376 49.4425 57.4536 49.7132 57.4536C49.9558 57.4536 50.1518 57.5236 50.3012 57.6636C50.4505 57.8036 50.5252 58.0043 50.5252 58.2656C50.5252 58.5269 50.4505 58.7229 50.3012 58.8536C50.1612 58.9843 50.0025 59.0496 49.8252 59.0496ZM46.2832 61.7656C46.6565 61.7656 46.9365 61.6209 47.1232 61.3316C47.3192 61.0329 47.4172 60.5243 47.4172 59.8056C47.4172 59.0869 47.3192 58.5829 47.1232 58.2936C46.9365 57.9949 46.6565 57.8456 46.2832 57.8456C45.9098 57.8456 45.6252 57.9949 45.4292 58.2936C45.2425 58.5829 45.1492 59.0869 45.1492 59.8056C45.1492 60.5243 45.2425 61.0329 45.4292 61.3316C45.6252 61.6209 45.9098 61.7656 46.2832 61.7656Z" fill="#5D5D5D"/>
<path d="M53.5117 59.2736C53.745 58.6856 54.067 58.2609 54.4777 57.9996C54.8977 57.7289 55.369 57.5936 55.8917 57.5936C56.545 57.5936 57.0397 57.7709 57.3757 58.1256C57.553 58.3123 57.679 58.5456 57.7537 58.8256C57.8283 59.1056 57.8657 59.4836 57.8657 59.9596V63.6976C57.8657 64.0803 57.945 64.3463 58.1037 64.4956C58.2623 64.6356 58.5377 64.7056 58.9297 64.7056V64.9996C58.071 64.9623 57.511 64.9436 57.2497 64.9436C56.9883 64.9436 56.4657 64.9623 55.6817 64.9996V64.7056C56.027 64.7056 56.265 64.6356 56.3957 64.4956C56.5357 64.3463 56.6057 64.0803 56.6057 63.6976V59.6516C56.6057 59.1289 56.531 58.7323 56.3817 58.4616C56.2323 58.1816 55.929 58.0416 55.4717 58.0416C55.089 58.0416 54.7483 58.1489 54.4496 58.3636C54.1603 58.5783 53.9317 58.8816 53.7637 59.2736C53.5957 59.6563 53.5117 60.0903 53.5117 60.5756V63.6976C53.5117 64.0803 53.577 64.3463 53.7077 64.4956C53.8477 64.6356 54.0903 64.7056 54.4356 64.7056V64.9996C53.6516 64.9623 53.129 64.9436 52.8677 64.9436C52.6063 64.9436 52.0463 64.9623 51.1877 64.9996V64.7056C51.5797 64.7056 51.855 64.6356 52.0137 64.4956C52.1723 64.3463 52.2517 64.0803 52.2517 63.6976V55.7176C52.2517 55.2883 52.1723 54.9756 52.0137 54.7796C51.855 54.5836 51.5797 54.4856 51.1877 54.4856V54.1916C51.4863 54.2196 51.7757 54.2336 52.0557 54.2336C52.6437 54.2336 53.129 54.1683 53.5117 54.0376V59.2736Z" fill="#5D5D5D"/>
<path d="M61.4201 54.2896C61.6628 54.2896 61.8728 54.3783 62.0501 54.5556C62.2275 54.7329 62.3161 54.9429 62.3161 55.1856C62.3161 55.4283 62.2275 55.6383 62.0501 55.8156C61.8728 55.9929 61.6628 56.0816 61.4201 56.0816C61.1775 56.0816 60.9675 55.9929 60.7901 55.8156C60.6128 55.6383 60.5241 55.4283 60.5241 55.1856C60.5241 54.9429 60.6128 54.7329 60.7901 54.5556C60.9675 54.3783 61.1775 54.2896 61.4201 54.2896ZM62.1481 63.6976C62.1481 64.0803 62.2275 64.3463 62.3861 64.4956C62.5448 64.6356 62.8201 64.7056 63.2121 64.7056V64.9996C62.3535 64.9623 61.7888 64.9436 61.5181 64.9436C61.2475 64.9436 60.6828 64.9623 59.8241 64.9996V64.7056C60.2161 64.7056 60.4915 64.6356 60.6501 64.4956C60.8088 64.3463 60.8881 64.0803 60.8881 63.6976V59.3156C60.8881 58.8863 60.8088 58.5736 60.6501 58.3776C60.4915 58.1816 60.2161 58.0836 59.8241 58.0836V57.7896C60.1228 57.8176 60.4121 57.8316 60.6921 57.8316C61.2801 57.8316 61.7655 57.7663 62.1481 57.6356V63.6976Z" fill="#5D5D5D"/>
<path d="M63.4357 67.4216C64.005 67.3936 64.4343 67.1463 64.7237 66.6796C65.0223 66.2129 65.1717 65.5643 65.1717 64.7336V59.3156C65.1717 58.8863 65.0923 58.5736 64.9337 58.3776C64.775 58.1816 64.4997 58.0836 64.1077 58.0836V57.7896C64.397 57.8176 64.6863 57.8316 64.9757 57.8316C65.5637 57.8316 66.049 57.7663 66.4317 57.6356V63.3896C66.4317 64.9389 66.0957 66.0683 65.4237 66.7776C65.1717 67.0389 64.873 67.2443 64.5277 67.3936C64.1917 67.5523 63.8277 67.6316 63.4357 67.6316V67.4216ZM65.6757 54.2896C65.9183 54.2896 66.1283 54.3783 66.3057 54.5556C66.483 54.7329 66.5717 54.9429 66.5717 55.1856C66.5717 55.4283 66.483 55.6383 66.3057 55.8156C66.1283 55.9929 65.9183 56.0816 65.6757 56.0816C65.433 56.0816 65.223 55.9929 65.0457 55.8156C64.8683 55.6383 64.7797 55.4283 64.7797 55.1856C64.7797 54.9429 64.8683 54.7329 65.0457 54.5556C65.223 54.3783 65.433 54.2896 65.6757 54.2896Z" fill="#5D5D5D"/>
<path d="M74.4341 63.9776C74.6114 64.2109 74.7701 64.3836 74.9101 64.4956C75.0501 64.6076 75.2181 64.6776 75.4141 64.7056V64.9996C74.8541 64.9623 74.4761 64.9436 74.2801 64.9436C74.0281 64.9436 73.5101 64.9623 72.7261 64.9996V64.7056C72.8568 64.7056 72.9594 64.6823 73.0341 64.6356C73.1181 64.5796 73.1601 64.5143 73.1601 64.4396C73.1601 64.3649 73.1321 64.2949 73.0761 64.2296L71.4661 61.8776C71.3074 61.6443 71.1534 61.4903 71.0041 61.4156C70.8641 61.3316 70.6681 61.2803 70.4161 61.2616V63.6976C70.4161 64.0803 70.4814 64.3463 70.6121 64.4956C70.7521 64.6356 70.9948 64.7056 71.3401 64.7056V64.9996C70.5561 64.9623 70.0381 64.9436 69.7861 64.9436C69.5154 64.9436 68.9508 64.9623 68.0921 64.9996V64.7056C68.4841 64.7056 68.7594 64.6356 68.9181 64.4956C69.0768 64.3463 69.1561 64.0803 69.1561 63.6976V55.7036C69.1561 55.2743 69.0768 54.9616 68.9181 54.7656C68.7594 54.5696 68.4841 54.4716 68.0921 54.4716V54.1776C68.3908 54.2056 68.6801 54.2196 68.9601 54.2196C69.5481 54.2196 70.0334 54.1543 70.4161 54.0236V60.9676C70.6868 60.9303 70.9108 60.8696 71.0881 60.7856C71.2748 60.6923 71.4521 60.5616 71.6201 60.3936L72.6561 59.3156C72.9548 59.0076 73.1041 58.7509 73.1041 58.5456C73.1041 58.3869 73.0061 58.2703 72.8101 58.1956C72.6234 58.1116 72.3761 58.0696 72.0681 58.0696V57.7896C72.7214 57.8269 73.2488 57.8456 73.6501 57.8456C74.0888 57.8456 74.4948 57.8269 74.8681 57.7896V58.0696C74.4108 58.1069 73.9908 58.3263 73.6081 58.7276L71.9001 60.5196L74.4341 63.9776Z" fill="#5D5D5D"/>
<path d="M77.9975 63.6976C77.9975 64.0803 78.0769 64.3463 78.2355 64.4956C78.3942 64.6356 78.6695 64.7056 79.0615 64.7056V64.9996C78.2029 64.9623 77.6382 64.9436 77.3675 64.9436C77.0969 64.9436 76.5322 64.9623 75.6735 64.9996V64.7056C76.0655 64.7056 76.3409 64.6356 76.4995 64.4956C76.6582 64.3463 76.7375 64.0803 76.7375 63.6976V55.7036C76.7375 55.2743 76.6582 54.9616 76.4995 54.7656C76.3409 54.5696 76.0655 54.4716 75.6735 54.4716V54.1776C75.9629 54.2056 76.2522 54.2196 76.5415 54.2196C77.1295 54.2196 77.6149 54.1543 77.9975 54.0236V63.6976Z" fill="#5D5D5D"/>
<path d="M90.8094 63.6976C90.8094 64.0803 90.8887 64.3463 91.0474 64.4956C91.2061 64.6356 91.4814 64.7056 91.8734 64.7056V64.9996C91.0147 64.9623 90.4547 64.9436 90.1934 64.9436C89.9321 64.9436 89.4094 64.9623 88.6254 64.9996V64.7056C88.9707 64.7056 89.2087 64.6356 89.3394 64.4956C89.4794 64.3463 89.5494 64.0803 89.5494 63.6976V59.6516C89.5494 59.2969 89.5261 59.0123 89.4794 58.7976C89.4421 58.5736 89.3441 58.3916 89.1854 58.2516C89.0361 58.1116 88.8027 58.0416 88.4854 58.0416C88.1307 58.0416 87.8087 58.1536 87.5194 58.3776C87.2301 58.6016 87.0014 58.9096 86.8334 59.3016C86.6747 59.6843 86.5954 60.1089 86.5954 60.5756V63.6976C86.5954 64.0803 86.6747 64.3463 86.8334 64.4956C86.9921 64.6356 87.2674 64.7056 87.6594 64.7056V64.9996C86.8007 64.9623 86.2407 64.9436 85.9794 64.9436C85.7181 64.9436 85.1954 64.9623 84.4114 64.9996V64.7056C84.7567 64.7056 84.9947 64.6356 85.1254 64.4956C85.2654 64.3463 85.3354 64.0803 85.3354 63.6976V59.6516C85.3354 59.2969 85.3121 59.0123 85.2654 58.7976C85.2281 58.5736 85.1301 58.3916 84.9714 58.2516C84.8221 58.1116 84.5887 58.0416 84.2714 58.0416C83.9167 58.0416 83.5947 58.1536 83.3054 58.3776C83.0161 58.6016 82.7874 58.9096 82.6194 59.3016C82.4607 59.6936 82.3814 60.1229 82.3814 60.5896V63.6976C82.3814 64.0803 82.4467 64.3463 82.5774 64.4956C82.7174 64.6356 82.9601 64.7056 83.3054 64.7056V64.9996C82.5214 64.9623 81.9987 64.9436 81.7374 64.9436C81.4761 64.9436 80.9161 64.9623 80.0574 64.9996V64.7056C80.4494 64.7056 80.7247 64.6356 80.8834 64.4956C81.0421 64.3463 81.1214 64.0803 81.1214 63.6976V59.3156C81.1214 58.8863 81.0421 58.5736 80.8834 58.3776C80.7247 58.1816 80.4494 58.0836 80.0574 58.0836V57.7896C80.3561 57.8176 80.6454 57.8316 80.9254 57.8316C81.5134 57.8316 81.9987 57.7663 82.3814 57.6356V59.2876C82.6054 58.7089 82.9227 58.2843 83.3334 58.0136C83.7441 57.7336 84.1921 57.5936 84.6774 57.5936C85.3121 57.5936 85.7974 57.7709 86.1334 58.1256C86.3667 58.3683 86.5114 58.7416 86.5674 59.2456C86.8007 58.6576 87.1227 58.2376 87.5334 57.9856C87.9441 57.7243 88.3967 57.5936 88.8914 57.5936C89.5261 57.5936 90.0114 57.7709 90.3474 58.1256C90.5154 58.3123 90.6321 58.5503 90.6974 58.8396C90.7721 59.1289 90.8094 59.5023 90.8094 59.9596V63.6976Z" fill="#5D5D5D"/>
<path d="M97.4691 57.5936C98.1225 57.5936 98.6171 57.7709 98.9531 58.1256C99.1305 58.3123 99.2565 58.5456 99.3311 58.8256C99.4058 59.1056 99.4431 59.4836 99.4431 59.9596V63.6976C99.4431 64.0803 99.5225 64.3463 99.6811 64.4956C99.8398 64.6356 100.115 64.7056 100.507 64.7056V64.9996C99.6485 64.9623 99.0885 64.9436 98.8271 64.9436C98.5658 64.9436 98.0431 64.9623 97.2591 64.9996V64.7056C97.6045 64.7056 97.8425 64.6356 97.9731 64.4956C98.1131 64.3463 98.1831 64.0803 98.1831 63.6976V59.6516C98.1831 59.1289 98.1085 58.7323 97.9591 58.4616C97.8098 58.1816 97.5065 58.0416 97.0491 58.0416C96.6665 58.0416 96.3258 58.1536 96.0271 58.3776C95.7285 58.6016 95.4951 58.9096 95.3271 59.3016C95.1685 59.6843 95.0891 60.1136 95.0891 60.5896V63.6976C95.0891 64.0803 95.1545 64.3463 95.2851 64.4956C95.4251 64.6356 95.6678 64.7056 96.0131 64.7056V64.9996C95.2291 64.9623 94.7065 64.9436 94.4451 64.9436C94.1838 64.9436 93.6238 64.9623 92.7651 64.9996V64.7056C93.1571 64.7056 93.4325 64.6356 93.5911 64.4956C93.7498 64.3463 93.8291 64.0803 93.8291 63.6976V59.3156C93.8291 58.8863 93.7498 58.5736 93.5911 58.3776C93.4325 58.1816 93.1571 58.0836 92.7651 58.0836V57.7896C93.0638 57.8176 93.3531 57.8316 93.6331 57.8316C94.2211 57.8316 94.7065 57.7663 95.0891 57.6356V59.2876C95.3225 58.6903 95.6445 58.2609 96.0551 57.9996C96.4751 57.7289 96.9465 57.5936 97.4691 57.5936Z" fill="#5D5D5D"/>
<path d="M104.829 57.5936C105.781 57.5936 106.546 57.9109 107.125 58.5456C107.713 59.1709 108.007 60.1229 108.007 61.4016C108.007 62.6803 107.713 63.6323 107.125 64.2576C106.546 64.8829 105.781 65.1956 104.829 65.1956C103.877 65.1956 103.107 64.8829 102.519 64.2576C101.94 63.6323 101.651 62.6803 101.651 61.4016C101.651 60.1229 101.94 59.1709 102.519 58.5456C103.107 57.9109 103.877 57.5936 104.829 57.5936ZM104.829 57.8736C104.269 57.8736 103.825 58.1629 103.499 58.7416C103.172 59.3109 103.009 60.1976 103.009 61.4016C103.009 62.6056 103.172 63.4923 103.499 64.0616C103.825 64.6309 104.269 64.9156 104.829 64.9156C105.389 64.9156 105.832 64.6309 106.159 64.0616C106.485 63.4923 106.649 62.6056 106.649 61.4016C106.649 60.1976 106.485 59.3109 106.159 58.7416C105.832 58.1629 105.389 57.8736 104.829 57.8736Z" fill="#5D5D5D"/>
<path d="M113.815 57.5936C114.309 57.5936 114.753 57.7289 115.145 57.9996C115.546 58.2703 115.859 58.6669 116.083 59.1896C116.307 59.7123 116.419 60.3376 116.419 61.0656C116.419 61.7843 116.302 62.4563 116.069 63.0816C115.845 63.7069 115.49 64.2156 115.005 64.6076C114.529 64.9996 113.931 65.1956 113.213 65.1956C112.858 65.1956 112.536 65.1256 112.247 64.9856C111.957 64.8456 111.733 64.6636 111.575 64.4396V66.2316C111.575 66.6143 111.687 66.8756 111.911 67.0156C112.135 67.1649 112.471 67.2396 112.919 67.2396V67.5336L112.597 67.5196C111.729 67.4916 111.164 67.4776 110.903 67.4776C110.679 67.4776 110.175 67.4963 109.391 67.5336V67.2396C109.736 67.2396 109.974 67.1743 110.105 67.0436C110.245 66.9223 110.315 66.6983 110.315 66.3716V59.3156C110.315 58.8863 110.235 58.5736 110.077 58.3776C109.918 58.1816 109.643 58.0836 109.251 58.0836V57.7896C109.54 57.8176 109.829 57.8316 110.119 57.8316C110.707 57.8316 111.192 57.7663 111.575 57.6356V59.1196C111.78 58.6343 112.079 58.2609 112.471 57.9996C112.863 57.7289 113.311 57.5936 113.815 57.5936ZM113.059 64.8736C114.393 64.8736 115.061 63.6696 115.061 61.2616C115.061 59.0963 114.519 58.0136 113.437 58.0136C113.017 58.0136 112.639 58.1676 112.303 58.4756C111.967 58.7743 111.724 59.2083 111.575 59.7776V63.9776C111.705 64.2483 111.897 64.4676 112.149 64.6356C112.401 64.7943 112.704 64.8736 113.059 64.8736Z" fill="#5D5D5D"/>
<path d="M124.119 66.3716C124.119 66.6983 124.185 66.9223 124.315 67.0436C124.455 67.1743 124.698 67.2396 125.043 67.2396V67.5336C124.259 67.4963 123.755 67.4776 123.531 67.4776C123.27 67.4776 122.705 67.4916 121.837 67.5196L121.515 67.5336V67.2396C121.963 67.2396 122.299 67.1649 122.523 67.0156C122.747 66.8756 122.859 66.6143 122.859 66.2316V63.8236C122.673 64.2623 122.407 64.6029 122.061 64.8456C121.725 65.0789 121.338 65.1956 120.899 65.1956C120.349 65.1956 119.854 65.0556 119.415 64.7756C118.986 64.4956 118.645 64.0709 118.393 63.5016C118.141 62.9323 118.015 62.2323 118.015 61.4016C118.015 60.5803 118.146 59.8849 118.407 59.3156C118.669 58.7369 119.023 58.3076 119.471 58.0276C119.929 57.7383 120.442 57.5936 121.011 57.5936C121.487 57.5936 121.884 57.6776 122.201 57.8456C122.519 58.0043 122.78 58.2609 122.985 58.6156L123.979 57.5656L124.217 57.6636C124.152 57.8969 124.119 58.1676 124.119 58.4756V66.3716ZM121.305 64.7756C121.651 64.7756 121.963 64.6356 122.243 64.3556C122.533 64.0756 122.738 63.6789 122.859 63.1656V58.8396C122.682 58.5316 122.444 58.3029 122.145 58.1536C121.847 57.9949 121.506 57.9156 121.123 57.9156C120.563 57.9156 120.129 58.2049 119.821 58.7836C119.523 59.3623 119.373 60.2349 119.373 61.4016C119.373 62.5216 119.537 63.3663 119.863 63.9356C120.199 64.4956 120.68 64.7756 121.305 64.7756Z" fill="#5D5D5D"/>
<path d="M130.286 57.5936C130.659 57.5936 130.963 57.7009 131.196 57.9156C131.439 58.1303 131.56 58.3916 131.56 58.6996C131.56 58.9423 131.485 59.1523 131.336 59.3296C131.196 59.4976 131.005 59.5816 130.762 59.5816C130.557 59.5816 130.379 59.5163 130.23 59.3856C130.09 59.2549 130.02 59.0776 130.02 58.8536C130.02 58.5456 130.179 58.2936 130.496 58.0976C130.431 58.0043 130.333 57.9576 130.202 57.9576C129.838 57.9576 129.507 58.1023 129.208 58.3916C128.909 58.6716 128.676 59.0169 128.508 59.4276C128.34 59.8383 128.256 60.2256 128.256 60.5896V63.5576C128.256 63.9869 128.377 64.2856 128.62 64.4536C128.872 64.6216 129.245 64.7056 129.74 64.7056V64.9996L129.404 64.9856C128.452 64.9576 127.845 64.9436 127.584 64.9436C127.341 64.9436 126.791 64.9623 125.932 64.9996V64.7056C126.324 64.7056 126.599 64.6356 126.758 64.4956C126.917 64.3463 126.996 64.0803 126.996 63.6976V59.3156C126.996 58.8863 126.917 58.5736 126.758 58.3776C126.599 58.1816 126.324 58.0836 125.932 58.0836V57.7896C126.231 57.8176 126.52 57.8316 126.8 57.8316C127.388 57.8316 127.873 57.7663 128.256 57.6356V59.3856C128.424 58.9189 128.69 58.5036 129.054 58.1396C129.427 57.7756 129.838 57.5936 130.286 57.5936Z" fill="#5D5D5D"/>
<path d="M134.952 57.5936C135.288 57.5936 135.587 57.6449 135.848 57.7476C136.11 57.8503 136.32 57.9716 136.478 58.1116C136.581 58.1863 136.665 58.2236 136.73 58.2236C136.898 58.2236 137.001 58.0183 137.038 57.6076H137.36C137.323 58.0649 137.304 58.8583 137.304 59.9876H136.982C136.88 59.3716 136.679 58.8629 136.38 58.4616C136.091 58.0603 135.657 57.8596 135.078 57.8596C134.742 57.8596 134.467 57.9576 134.252 58.1536C134.038 58.3403 133.93 58.6016 133.93 58.9376C133.93 59.2643 134.042 59.5396 134.266 59.7636C134.49 59.9783 134.85 60.2396 135.344 60.5476C135.428 60.5943 135.554 60.6736 135.722 60.7856C136.152 61.0656 136.497 61.3129 136.758 61.5276C137.02 61.7423 137.23 61.9896 137.388 62.2696C137.556 62.5496 137.64 62.8716 137.64 63.2356C137.64 63.8516 137.407 64.3323 136.94 64.6776C136.483 65.0229 135.918 65.1956 135.246 65.1956C134.826 65.1956 134.458 65.1303 134.14 64.9996C133.935 64.8969 133.744 64.7709 133.566 64.6216C133.529 64.5843 133.487 64.5656 133.44 64.5656C133.375 64.5656 133.314 64.6123 133.258 64.7056C133.212 64.7989 133.174 64.9296 133.146 65.0976H132.824C132.862 64.5656 132.88 63.6323 132.88 62.2976H133.202C133.305 63.1749 133.492 63.8329 133.762 64.2716C134.033 64.7009 134.495 64.9156 135.148 64.9156C135.475 64.9156 135.764 64.8083 136.016 64.5936C136.268 64.3789 136.394 64.0429 136.394 63.5856C136.394 63.2216 136.268 62.9136 136.016 62.6616C135.774 62.4096 135.372 62.1063 134.812 61.7516C134.355 61.4623 134 61.2243 133.748 61.0376C133.506 60.8509 133.3 60.6223 133.132 60.3516C132.964 60.0809 132.88 59.7636 132.88 59.3996C132.88 58.8116 133.076 58.3636 133.468 58.0556C133.86 57.7476 134.355 57.5936 134.952 57.5936Z" fill="#5D5D5D"/>
<path d="M141.242 57.8036H143.314V58.0836H141.242V63.5016C141.242 63.9216 141.317 64.2249 141.466 64.4116C141.625 64.5983 141.849 64.6916 142.138 64.6916C142.427 64.6916 142.675 64.5749 142.88 64.3416C143.085 64.1083 143.258 63.7256 143.398 63.1936L143.678 63.2636C143.445 64.5516 142.838 65.1956 141.858 65.1956C141.541 65.1956 141.279 65.1583 141.074 65.0836C140.869 65.0089 140.687 64.8923 140.528 64.7336C140.323 64.5283 140.178 64.2763 140.094 63.9776C140.019 63.6789 139.982 63.2776 139.982 62.7736V58.0836H138.638V57.8036H139.982V55.6616C140.505 55.6429 140.925 55.5776 141.242 55.4656V57.8036Z" fill="#5D5D5D"/>
<path d="M150.573 63.4876C150.573 63.9169 150.653 64.2296 150.811 64.4256C150.97 64.6216 151.245 64.7196 151.637 64.7196V65.0136C151.348 64.9856 151.059 64.9716 150.769 64.9716C150.181 64.9716 149.696 65.0369 149.313 65.1676V63.5156C149.089 64.0943 148.772 64.5189 148.361 64.7896C147.951 65.0603 147.503 65.1956 147.017 65.1956C146.383 65.1956 145.897 65.0183 145.561 64.6636C145.393 64.4769 145.272 64.2389 145.197 63.9496C145.132 63.6603 145.099 63.2869 145.099 62.8296V59.3156C145.099 58.8863 145.02 58.5736 144.861 58.3776C144.703 58.1816 144.427 58.0836 144.035 58.0836V57.7896C144.325 57.8176 144.614 57.8316 144.903 57.8316C145.491 57.8316 145.977 57.7663 146.359 57.6356V63.1376C146.359 63.4923 146.378 63.7816 146.415 64.0056C146.462 64.2203 146.56 64.3976 146.709 64.5376C146.868 64.6776 147.106 64.7476 147.423 64.7476C147.778 64.7476 148.1 64.6356 148.389 64.4116C148.679 64.1876 148.903 63.8843 149.061 63.5016C149.229 63.1096 149.313 62.6803 149.313 62.2136V59.3156C149.313 58.8863 149.234 58.5736 149.075 58.3776C148.917 58.1816 148.641 58.0836 148.249 58.0836V57.7896C148.539 57.8176 148.828 57.8316 149.117 57.8316C149.705 57.8316 150.191 57.7663 150.573 57.6356V63.4876Z" fill="#5D5D5D"/>
<path d="M157.966 57.8316C158.377 57.8316 158.731 57.8176 159.03 57.7896V58.0696C158.843 58.0883 158.675 58.1723 158.526 58.3216C158.386 58.4709 158.251 58.7136 158.12 59.0496L155.824 65.0696H155.586L153.01 58.8676C152.87 58.5503 152.735 58.3403 152.604 58.2376C152.473 58.1349 152.338 58.0836 152.198 58.0836V57.7896C152.683 57.8269 153.094 57.8456 153.43 57.8456C154.149 57.8456 154.755 57.8269 155.25 57.7896V58.0836C154.905 58.0836 154.653 58.1116 154.494 58.1676C154.335 58.2143 154.256 58.3449 154.256 58.5596C154.256 58.6903 154.307 58.8956 154.41 59.1756L156.132 63.4316L157.672 59.3856C157.775 59.1056 157.826 58.8863 157.826 58.7276C157.826 58.5129 157.742 58.3589 157.574 58.2656C157.415 58.1629 157.154 58.0976 156.79 58.0696V57.7896C157.275 57.8176 157.667 57.8316 157.966 57.8316Z" fill="#5D5D5D"/>
<path d="M169.03 57.8316C169.44 57.8316 169.795 57.8176 170.094 57.7896V58.0696C169.898 58.0976 169.725 58.1863 169.576 58.3356C169.426 58.4756 169.296 58.7136 169.184 59.0496L167.154 65.0696H166.916L164.704 59.4416L162.702 65.0696H162.464L160.168 58.8676C160.037 58.5409 159.902 58.3309 159.762 58.2376C159.631 58.1349 159.496 58.0836 159.356 58.0836V57.7896C159.72 57.8456 160.13 57.8736 160.588 57.8736C161.054 57.8736 161.661 57.8456 162.408 57.7896V58.0836C162.062 58.0836 161.81 58.1116 161.652 58.1676C161.502 58.2236 161.428 58.3683 161.428 58.6016C161.428 58.7696 161.474 58.9889 161.568 59.2596L162.968 63.2916L164.984 57.7336H165.306L167.448 63.3896L168.764 59.3856C168.848 59.1336 168.89 58.9236 168.89 58.7556C168.89 58.5316 168.81 58.3683 168.652 58.2656C168.493 58.1629 168.227 58.0976 167.854 58.0696V57.7896C168.348 57.8176 168.74 57.8316 169.03 57.8316Z" fill="#5D5D5D"/>
<path d="M176.625 64.0056C176.793 64.2389 176.933 64.4069 177.045 64.5096C177.166 64.6029 177.316 64.6683 177.493 64.7056V64.9996C177.008 64.9623 176.676 64.9436 176.499 64.9436C176.182 64.9436 175.631 64.9623 174.847 64.9996V64.7056C174.996 64.7056 175.122 64.6776 175.225 64.6216C175.337 64.5656 175.393 64.4909 175.393 64.3976C175.393 64.3323 175.374 64.2763 175.337 64.2296L173.741 61.9056L172.719 63.2356C172.458 63.5809 172.327 63.8609 172.327 64.0756C172.327 64.2716 172.416 64.4256 172.593 64.5376C172.78 64.6403 173.036 64.7009 173.363 64.7196V64.9996C172.878 64.9716 172.346 64.9576 171.767 64.9576C171.356 64.9576 171.002 64.9716 170.703 64.9996V64.7196C170.89 64.7009 171.076 64.6169 171.263 64.4676C171.459 64.3183 171.683 64.0756 171.935 63.7396L173.545 61.6256L171.599 58.7836C171.412 58.5129 171.263 58.3356 171.151 58.2516C171.039 58.1583 170.899 58.1023 170.731 58.0836V57.7896C171.216 57.8269 171.548 57.8456 171.725 57.8456C172.042 57.8456 172.593 57.8269 173.377 57.7896V58.0836C173.228 58.0836 173.097 58.1116 172.985 58.1676C172.882 58.2236 172.831 58.2983 172.831 58.3916C172.831 58.4569 172.85 58.5129 172.887 58.5596L174.385 60.7436L175.351 59.3856C175.631 58.9843 175.771 58.6903 175.771 58.5036C175.771 58.3729 175.706 58.2749 175.575 58.2096C175.454 58.1349 175.253 58.0883 174.973 58.0696V57.7896C175.458 57.8176 175.85 57.8316 176.149 57.8316C176.56 57.8316 176.914 57.8176 177.213 57.7896V58.0696C176.83 58.1163 176.42 58.4429 175.981 59.0496L174.567 61.0096L176.625 64.0056Z" fill="#5D5D5D"/>
<path d="M183.801 57.8316C184.212 57.8316 184.566 57.8176 184.865 57.7896V58.0696C184.678 58.0883 184.51 58.1723 184.361 58.3216C184.221 58.4709 184.086 58.7136 183.955 59.0496L181.659 65.0696L181.183 66.2876C181.006 66.7449 180.805 67.0716 180.581 67.2676C180.441 67.3983 180.273 67.4916 180.077 67.5476C179.881 67.6036 179.685 67.6316 179.489 67.6316C179.209 67.6316 178.98 67.5569 178.803 67.4076C178.626 67.2583 178.537 67.0529 178.537 66.7916C178.537 66.5676 178.602 66.3856 178.733 66.2456C178.864 66.1149 179.046 66.0496 179.279 66.0496C179.484 66.0496 179.652 66.1056 179.783 66.2176C179.923 66.3389 179.993 66.5023 179.993 66.7076C179.993 66.9876 179.867 67.1976 179.615 67.3376C179.634 67.3469 179.662 67.3516 179.699 67.3516C180.212 67.3516 180.609 66.9876 180.889 66.2596L181.379 64.9856L178.845 58.8676C178.686 58.5503 178.528 58.3403 178.369 58.2376C178.21 58.1349 178.052 58.0836 177.893 58.0836V57.7896C178.294 57.8456 178.752 57.8736 179.265 57.8736C179.732 57.8736 180.338 57.8456 181.085 57.7896V58.0836C180.749 58.0836 180.502 58.1116 180.343 58.1676C180.194 58.2236 180.119 58.3589 180.119 58.5736C180.119 58.7696 180.175 58.9983 180.287 59.2596L181.967 63.4316L183.521 59.3856C183.624 59.1056 183.675 58.8909 183.675 58.7416C183.675 58.5269 183.591 58.3683 183.423 58.2656C183.255 58.1629 182.989 58.0976 182.625 58.0696V57.7896C183.12 57.8176 183.512 57.8316 183.801 57.8316Z" fill="#5D5D5D"/>
<path d="M187.384 64.7896H188.924C189.502 64.7896 189.955 64.6123 190.282 64.2576C190.608 63.8936 190.804 63.3196 190.87 62.5356H191.192C191.192 63.7583 191.21 64.5983 191.248 65.0556C190.51 65.0183 189.642 64.9996 188.644 64.9996C187.757 64.9996 186.814 65.0229 185.816 65.0696L189.862 57.9996H188.322C187.696 57.9996 187.23 58.1769 186.922 58.5316C186.623 58.8769 186.441 59.4509 186.376 60.2536H186.054C186.054 59.0309 186.035 58.1909 185.998 57.7336C186.735 57.7709 187.603 57.7896 188.602 57.7896C189.488 57.7896 190.431 57.7663 191.43 57.7196L187.384 64.7896Z" fill="#5D5D5D"/>
<path d="M195.764 63.5576C195.764 63.9963 195.862 64.2996 196.058 64.4676C196.263 64.6263 196.613 64.7056 197.108 64.7056V64.9996C196.1 64.9623 195.456 64.9436 195.176 64.9436C194.914 64.9436 194.308 64.9576 193.356 64.9856L193.02 64.9996V64.7056C193.514 64.7056 193.883 64.6216 194.126 64.4536C194.378 64.2856 194.504 63.9869 194.504 63.5576V60.1696C194.504 59.7216 194.457 59.3949 194.364 59.1896C194.27 58.9749 194.112 58.8349 193.888 58.7696C193.673 58.6949 193.337 58.6576 192.88 58.6576V58.3496C193.561 58.3309 194.121 58.2703 194.56 58.1676C195.008 58.0649 195.409 57.8876 195.764 57.6356V63.5576Z" fill="#5D5D5D"/>
<path d="M201.099 57.5936C201.753 57.5936 202.266 57.7476 202.639 58.0556C203.013 58.3636 203.199 58.7976 203.199 59.3576C203.199 59.7403 203.097 60.1136 202.891 60.4776C202.695 60.8323 202.453 61.1589 202.163 61.4576C201.883 61.7563 201.51 62.1156 201.043 62.5356C200.661 62.8903 200.376 63.1609 200.189 63.3476C200.003 63.5249 199.835 63.7163 199.685 63.9216H202.527C202.779 63.9216 202.966 63.9029 203.087 63.8656C203.218 63.8189 203.307 63.7489 203.353 63.6556C203.4 63.5529 203.437 63.4036 203.465 63.2076H203.703C203.703 64.0663 203.722 64.6869 203.759 65.0696C203.554 65.0229 202.859 64.9996 201.673 64.9996H198.397V64.7616C198.556 64.5936 198.827 64.3276 199.209 63.9636C199.741 63.4689 200.185 63.0256 200.539 62.6336C200.894 62.2323 201.197 61.7796 201.449 61.2756C201.711 60.7716 201.841 60.2349 201.841 59.6656C201.841 58.6576 201.375 58.1536 200.441 58.1536C199.676 58.1536 199.051 58.5923 198.565 59.4696L198.341 59.3436C198.584 58.8396 198.929 58.4243 199.377 58.0976C199.825 57.7616 200.399 57.5936 201.099 57.5936Z" fill="#5D5D5D"/>
<path d="M207.841 57.5936C208.429 57.5936 208.909 57.7383 209.283 58.0276C209.665 58.3169 209.857 58.7043 209.857 59.1896C209.857 59.7029 209.651 60.1649 209.241 60.5756C208.839 60.9863 208.349 61.2943 207.771 61.4996C208.489 61.5183 209.101 61.7096 209.605 62.0736C210.109 62.4376 210.361 62.9556 210.361 63.6276C210.361 64.2996 210.099 64.9016 209.577 65.4336C209.063 65.9656 208.405 66.3763 207.603 66.6656C206.809 66.9643 206.002 67.1136 205.181 67.1136V66.8616C205.843 66.8429 206.469 66.7029 207.057 66.4416C207.645 66.1896 208.121 65.8209 208.485 65.3356C208.849 64.8596 209.031 64.2903 209.031 63.6276C209.031 63.0769 208.895 62.6243 208.625 62.2696C208.354 61.9056 207.995 61.7049 207.547 61.6676C207.509 61.6863 207.411 61.7283 207.253 61.7936C207.103 61.8496 206.982 61.8776 206.889 61.8776C206.739 61.8776 206.665 61.8169 206.665 61.6956C206.665 61.6116 206.697 61.5463 206.763 61.4996C206.837 61.4529 206.926 61.4296 207.029 61.4296C207.085 61.4296 207.159 61.4389 207.253 61.4576C207.355 61.4669 207.444 61.4763 207.519 61.4856C207.883 61.2056 208.153 60.8929 208.331 60.5476C208.508 60.2023 208.597 59.8429 208.597 59.4696C208.597 59.0403 208.489 58.7229 208.275 58.5176C208.06 58.3123 207.761 58.2096 207.379 58.2096C206.987 58.2096 206.632 58.3169 206.315 58.5316C205.997 58.7369 205.731 59.0449 205.517 59.4556L205.279 59.3436C205.82 58.1769 206.674 57.5936 207.841 57.5936Z" fill="#5D5D5D"/>
<path d="M217.671 64.3136C217.55 64.2856 217.083 64.2623 216.271 64.2436V66.9736H215.151V64.2436H211.497V63.9496L216.047 57.5936H216.271V63.3056H216.439C216.691 63.3056 216.878 63.2869 216.999 63.2496C217.13 63.2029 217.218 63.1329 217.265 63.0396C217.312 62.9369 217.349 62.7876 217.377 62.5916H217.615C217.615 63.3756 217.634 63.9496 217.671 64.3136ZM215.151 63.3056V59.3016L212.323 63.3056H215.151Z" fill="#5D5D5D"/>
<path d="M223.133 57.0896C223.133 58.0416 223.152 58.7229 223.189 59.1336C222.993 59.0869 222.344 59.0636 221.243 59.0636H219.759L219.591 61.7656C219.852 61.6349 220.104 61.5323 220.347 61.4576C220.59 61.3829 220.884 61.3456 221.229 61.3456C222.041 61.3456 222.657 61.5463 223.077 61.9476C223.497 62.3396 223.707 62.8576 223.707 63.5016C223.707 64.1923 223.478 64.8083 223.021 65.3496C222.573 65.9003 221.99 66.3249 221.271 66.6236C220.562 66.9223 219.834 67.0716 219.087 67.0716V66.8196C219.656 66.8103 220.188 66.6843 220.683 66.4416C221.187 66.1989 221.593 65.8396 221.901 65.3636C222.218 64.8876 222.377 64.3136 222.377 63.6416C222.377 63.0536 222.223 62.5963 221.915 62.2696C221.607 61.9336 221.173 61.7656 220.613 61.7656C220.389 61.7656 220.198 61.7843 220.039 61.8216C219.88 61.8589 219.689 61.9196 219.465 62.0036L219.325 61.9196L219.591 57.7476C219.778 57.7849 220.03 57.8036 220.347 57.8036H221.929C222.181 57.8036 222.368 57.7849 222.489 57.7476C222.62 57.7009 222.708 57.6309 222.755 57.5376C222.802 57.4349 222.839 57.2856 222.867 57.0896H223.133Z" fill="#5D5D5D"/>
<path d="M228.734 58.8676C229.182 58.8676 229.597 58.9889 229.98 59.2316C230.362 59.4743 230.67 59.8289 230.904 60.2956C231.137 60.7529 231.254 61.2943 231.254 61.9196C231.254 62.6009 231.114 63.1889 230.834 63.6836C230.563 64.1783 230.194 64.5563 229.728 64.8176C229.261 65.0696 228.743 65.1956 228.174 65.1956C227.278 65.1956 226.578 64.8456 226.074 64.1456C225.57 63.4456 225.318 62.4703 225.318 61.2196C225.318 59.9129 225.565 58.8069 226.06 57.9016C226.564 56.9869 227.175 56.2916 227.894 55.8156C228.612 55.3303 229.336 55.0176 230.064 54.8776L230.12 55.1576C229.55 55.3443 229.037 55.5963 228.58 55.9136C228.132 56.2309 227.735 56.7209 227.39 57.3836C227.044 58.0463 226.825 58.9189 226.732 60.0016C226.946 59.6096 227.24 59.3249 227.614 59.1476C227.987 58.9609 228.36 58.8676 228.734 58.8676ZM228.314 64.9156C228.771 64.9156 229.149 64.6776 229.448 64.2016C229.746 63.7256 229.896 62.9976 229.896 62.0176C229.896 61.0656 229.756 60.3703 229.476 59.9316C229.196 59.4929 228.832 59.2736 228.384 59.2736C228.057 59.2736 227.73 59.3716 227.404 59.5676C227.086 59.7543 226.848 60.0576 226.69 60.4776C226.68 60.6269 226.676 60.8649 226.676 61.1916C226.676 62.5356 226.834 63.4923 227.152 64.0616C227.469 64.6309 227.856 64.9156 228.314 64.9156Z" fill="#5D5D5D"/>
<path d="M237.632 58.0976C237.492 58.4243 237.249 58.9236 236.904 59.5956C236.54 60.2956 236.246 60.9023 236.022 61.4156C235.798 61.9196 235.607 62.5029 235.448 63.1656C235.289 63.8189 235.21 64.5143 235.21 65.2516C235.21 65.4383 235.219 65.6623 235.238 65.9236C235.257 66.1289 235.266 66.2736 235.266 66.3576C235.266 66.5723 235.205 66.7449 235.084 66.8756C234.963 67.0063 234.804 67.0716 234.608 67.0716C234.403 67.0716 234.244 66.9969 234.132 66.8476C234.029 66.6983 233.978 66.5116 233.978 66.2876C233.978 65.5689 234.085 64.8596 234.3 64.1596C234.524 63.4596 234.79 62.8156 235.098 62.2276C235.415 61.6303 235.826 60.9163 236.33 60.0856L236.988 58.9796H233.67C233.418 58.9796 233.227 59.0029 233.096 59.0496C232.975 59.0869 232.891 59.1569 232.844 59.2596C232.797 59.3529 232.76 59.4976 232.732 59.6936H232.494C232.494 58.7696 232.475 58.1163 232.438 57.7336C232.653 57.7803 233.348 57.8036 234.524 57.8036H237.632V58.0976Z" fill="#5D5D5D"/>
<path d="M242.311 59.3856C242.834 59.7683 243.24 60.0903 243.529 60.3516C243.819 60.6036 244.066 60.9116 244.271 61.2756C244.486 61.6396 244.593 62.0549 244.593 62.5216C244.593 63.0443 244.463 63.5109 244.201 63.9216C243.94 64.3229 243.581 64.6356 243.123 64.8596C242.666 65.0836 242.148 65.1956 241.569 65.1956C240.776 65.1956 240.109 64.9949 239.567 64.5936C239.026 64.1829 238.755 63.5996 238.755 62.8436C238.755 62.1996 238.961 61.6256 239.371 61.1216C239.782 60.6176 240.323 60.1976 240.995 59.8616C240.426 59.3949 239.987 58.9516 239.679 58.5316C239.371 58.1116 239.217 57.6263 239.217 57.0756C239.217 56.6463 239.329 56.2683 239.553 55.9416C239.777 55.6056 240.085 55.3489 240.477 55.1716C240.869 54.9849 241.303 54.8916 241.779 54.8916C242.442 54.8916 242.993 55.0596 243.431 55.3956C243.87 55.7316 244.089 56.2029 244.089 56.8096C244.089 57.3136 243.935 57.7756 243.627 58.1956C243.319 58.6156 242.881 59.0123 242.311 59.3856ZM241.625 55.1436C241.243 55.1436 240.925 55.2789 240.673 55.5496C240.431 55.8203 240.309 56.1843 240.309 56.6416C240.309 57.1736 240.459 57.6309 240.757 58.0136C241.065 58.3869 241.514 58.7929 242.102 59.2316C242.68 58.6809 242.969 57.9343 242.969 56.9916C242.969 56.4316 242.853 55.9836 242.619 55.6476C242.386 55.3116 242.055 55.1436 241.625 55.1436ZM241.653 64.9436C242.148 64.9436 242.563 64.7803 242.899 64.4536C243.235 64.1269 243.403 63.6789 243.403 63.1096C243.403 62.6709 243.301 62.2789 243.095 61.9336C242.899 61.5789 242.662 61.2756 242.382 61.0236C242.111 60.7716 241.719 60.4403 241.205 60.0296C240.393 60.6176 239.987 61.4856 239.987 62.6336C239.987 63.2963 240.123 63.8469 240.393 64.2856C240.664 64.7243 241.084 64.9436 241.653 64.9436Z" fill="#5D5D5D"/>
<path d="M249.179 57.5936C250.075 57.5936 250.775 57.9203 251.279 58.5736C251.783 59.2176 252.035 60.1229 252.035 61.2896C252.035 62.4749 251.783 63.4829 251.279 64.3136C250.784 65.1443 250.173 65.7789 249.445 66.2176C248.726 66.6656 248.008 66.9503 247.289 67.0716L247.233 66.7916C248.082 66.5489 248.801 66.1476 249.389 65.5876C249.977 65.0276 250.369 64.1269 250.565 62.8856C250.35 63.2496 250.061 63.5156 249.697 63.6836C249.333 63.8423 248.974 63.9216 248.619 63.9216C248.171 63.9216 247.756 63.8003 247.373 63.5576C246.99 63.3149 246.682 62.9649 246.449 62.5076C246.216 62.0409 246.099 61.4949 246.099 60.8696C246.099 60.1883 246.234 59.6003 246.505 59.1056C246.785 58.6109 247.158 58.2376 247.625 57.9856C248.092 57.7243 248.61 57.5936 249.179 57.5936ZM248.969 63.5156C249.286 63.5156 249.599 63.4269 249.907 63.2496C250.224 63.0723 250.462 62.7876 250.621 62.3956C250.658 62.0969 250.677 61.7376 250.677 61.3176C250.677 60.0763 250.518 59.1943 250.201 58.6716C249.884 58.1396 249.496 57.8736 249.039 57.8736C248.582 57.8736 248.204 58.1116 247.905 58.5876C247.606 59.0636 247.457 59.7916 247.457 60.7716C247.457 61.7236 247.597 62.4189 247.877 62.8576C248.157 63.2963 248.521 63.5156 248.969 63.5156Z" fill="#5D5D5D"/>
</svg>
